<?xml version="1.0" encoding="UTF-8" standalone="no"?>
<!DOCTYPE svg PUBLIC "-//W3C//DTD SVG 1.1//EN" "http://www.w3.org/Graphics/SVG/1.1/DTD/svg11.dtd">
<svg width="100%" height="100%" viewBox="0 0 1075 585" version="1.1" xmlns="http://www.w3.org/2000/svg" xmlns:xlink="http://www.w3.org/1999/xlink" xml:space="preserve" xmlns:serif="http://www.serif.com/" style="fill-rule:evenodd;clip-rule:evenodd;stroke-miterlimit:10;">
    <ellipse cx="540.643" cy="549.309" rx="527.5" ry="34.922" style="fill:rgb(242,242,242);"/>
    <g transform="matrix(1,0,0,1,-63.054,-157.885)">
        <path d="M583.48,324.894C497.536,324.894 435.829,380.034 435.829,508.692C435.829,654.505 497.536,693.103 583.48,693.103C669.424,693.103 734.807,650.829 734.807,508.692C734.807,356.753 669.424,324.894 583.48,324.894ZM584.045,644.703C524.518,644.703 493.419,609.78 493.419,508.786C493.419,419.674 525.791,372.682 585.318,372.682C644.845,372.682 677.217,403.549 677.217,508.786C677.217,607.234 643.572,644.703 584.045,644.703Z" style="fill:rgb(47,46,65);fill-rule:nonzero;"/>
    </g>
    <g transform="matrix(1,0,0,1,-63.054,-157.885)">
        <path d="M384.365,591.401L348.831,591.401L348.831,486.762C348.831,475.266 339.371,465.806 327.875,465.806L319.549,465.806C308.053,465.806 298.593,475.266 298.593,486.762L298.593,591.401L198.363,591.401C191.8,591.401 186.4,586.001 186.4,579.438C186.4,577.49 186.875,575.571 187.785,573.849L293.868,373.069C295.462,370.052 296.295,366.691 296.295,363.279C296.295,355.186 291.606,347.786 284.287,344.33L278.025,341.373C267.985,336.632 255.83,340.651 250.596,350.443L121.214,592.475C119.011,596.597 117.858,601.198 117.858,605.872C117.858,621.46 130.686,634.287 146.274,634.287L298.593,634.287L298.593,700.455C298.593,714.234 309.932,725.574 323.712,725.574L323.712,725.574C337.492,725.574 348.831,714.234 348.831,700.455L348.831,634.287L384.365,634.287C396.129,634.287 405.808,624.608 405.808,612.844C405.808,601.081 396.129,591.401 384.365,591.401Z" style="fill:rgb(255,7,82);fill-rule:nonzero;"/>
    </g>
    <g transform="matrix(1,0,0,1,-63.054,-157.885)">
        <path d="M1042.36,591.401L1006.83,591.401L1006.83,486.762C1006.83,475.266 997.368,465.806 985.872,465.806L977.545,465.806C966.049,465.806 956.589,475.266 956.589,486.762L956.589,591.401L856.359,591.401C849.796,591.401 844.396,586.001 844.396,579.438C844.396,577.49 844.872,575.571 845.782,573.849L951.864,373.069C953.458,370.052 954.291,366.691 954.291,363.279C954.291,355.186 949.602,347.786 942.284,344.33L936.021,341.373C925.981,336.632 913.827,340.651 908.592,350.443L779.211,592.475C777.008,596.597 775.855,601.198 775.855,605.872C775.855,621.46 788.682,634.287 804.271,634.287L956.589,634.287L956.589,700.455C956.589,714.234 967.929,725.574 981.708,725.574C995.488,725.574 1006.83,714.234 1006.83,700.455L1006.83,634.287L1042.36,634.287C1054.12,634.287 1063.81,624.608 1063.81,612.844C1063.81,601.081 1054.12,591.401 1042.36,591.401Z" style="fill:rgb(255,7,82);fill-rule:nonzero;"/>
    </g>
    <g transform="matrix(1,0,0,1,-63.054,-157.885)">
        <path d="M394.168,579.148L358.634,579.148L358.634,474.509C358.634,463.013 349.174,453.553 337.678,453.553L329.351,453.553C317.855,453.553 308.395,463.013 308.395,474.509L308.395,579.148L208.165,579.148C201.603,579.148 196.202,573.748 196.202,567.185C196.202,565.237 196.678,563.318 197.588,561.596L303.67,360.816C305.264,357.799 306.097,354.438 306.097,351.026C306.097,342.932 301.408,335.533 294.09,332.077L287.827,329.12C277.787,324.378 265.633,328.398 260.398,338.19L131.017,580.222C128.814,584.343 127.661,588.945 127.661,593.618C127.661,609.207 140.488,622.034 156.077,622.034L308.395,622.034L308.395,688.201C308.395,701.981 319.735,713.32 333.514,713.32L333.515,713.32C347.294,713.32 358.634,701.981 358.634,688.201L358.634,622.034L394.168,622.034C405.931,622.034 415.611,612.354 415.611,600.591C415.611,600.591 415.611,600.591 415.611,600.591C415.611,588.828 405.931,579.148 394.168,579.148Z" style="fill:none;fill-rule:nonzero;stroke:rgb(63,61,86);stroke-width:1px;"/>
    </g>
    <g transform="matrix(1,0,0,1,-63.054,-157.885)">
        <path d="M1060.74,579.148L1025.21,579.148L1025.21,474.509C1025.21,463.013 1015.75,453.553 1004.25,453.553L995.925,453.553C984.429,453.553 974.969,463.013 974.969,474.509L974.969,579.148L874.739,579.148C868.176,579.148 862.776,573.748 862.776,567.185C862.776,565.237 863.252,563.318 864.162,561.596L970.244,360.816C971.838,357.799 972.671,354.438 972.671,351.026C972.671,342.932 967.982,335.533 960.664,332.077L954.401,329.12C944.361,324.378 932.206,328.398 926.972,338.19L797.59,580.222C795.387,584.343 794.235,588.945 794.235,593.618C794.235,609.207 807.062,622.034 822.65,622.034L974.969,622.034L974.969,688.201C974.969,701.981 986.308,713.32 1000.09,713.32C1013.87,713.32 1025.21,701.981 1025.21,688.201L1025.21,622.034L1060.74,622.034C1072.51,622.034 1082.18,612.354 1082.18,600.591C1082.18,588.828 1072.51,579.148 1060.74,579.148Z" style="fill:none;fill-rule:nonzero;stroke:rgb(63,61,86);stroke-width:1px;"/>
    </g>
    <g transform="matrix(1,0,0,1,-63.054,-157.885)">
        <path d="M603.085,313.866C517.141,313.866 455.434,369.006 455.434,497.664C455.434,643.477 517.141,682.075 603.085,682.075C689.029,682.075 754.412,639.801 754.412,497.664C754.412,345.725 689.029,313.866 603.085,313.866ZM603.65,633.675C544.123,633.675 513.024,598.752 513.024,497.758C513.024,408.647 545.396,361.654 604.923,361.654C664.45,361.654 696.822,392.522 696.822,497.758C696.822,596.206 663.177,633.675 603.65,633.675L603.65,633.675Z" style="fill:none;fill-rule:nonzero;stroke:rgb(63,61,86);stroke-width:1px;"/>
    </g>
    <circle cx="471.141" cy="18.25" r="12.901" style="fill:rgb(47,46,65);"/>
    <ellipse cx="502.607" cy="46.885" rx="36.186" ry="46.885" style="fill:rgb(47,46,65);"/>
    <g transform="matrix(1,0,0,1,-63.054,-157.885)">
        <path d="M565.661,237.494C547.534,237.494 532.52,220.224 529.886,197.689C529.612,200.039 529.474,202.403 529.475,204.769C529.475,230.663 545.676,251.654 565.661,251.654C585.646,251.654 601.848,230.663 601.848,204.769C601.848,202.403 601.711,200.039 601.437,197.689C598.803,220.224 583.789,237.494 565.661,237.494Z" style="fill-opacity:0.1;fill-rule:nonzero;"/>
    </g>
    <g transform="matrix(1,0,0,1,-63.054,-157.885)">
        <path d="M639.296,342.073C638.519,345.267 635.168,347.824 631.457,349.611C623.656,353.368 614.032,354.489 604.698,354.865C602.316,355.01 599.927,354.966 597.553,354.733C592.953,354.288 588.635,352.304 585.303,349.102C584.827,348.792 584.54,348.261 584.54,347.694C584.54,347.108 584.846,346.563 585.346,346.258C590.316,340.799 598.609,337.452 606.963,335.042C613.297,333.215 624.344,328.481 631.253,329.12C637.944,329.739 640.277,338.041 639.296,342.073Z" style="fill:rgb(63,61,86);fill-rule:nonzero;"/>
    </g>
    <g transform="matrix(1,0,0,1,-63.054,-157.885)">
        <path d="M639.296,342.073C638.519,345.267 635.168,347.824 631.457,349.611C623.656,353.368 614.032,354.489 604.698,354.865C602.316,355.01 599.927,354.966 597.553,354.733C592.953,354.288 588.635,352.304 585.303,349.102C584.827,348.792 584.54,348.261 584.54,347.694C584.54,347.108 584.846,346.563 585.346,346.258C590.316,340.799 598.609,337.452 606.963,335.042C613.297,333.215 624.344,328.481 631.253,329.12C637.944,329.739 640.277,338.041 639.296,342.073Z" style="fill-opacity:0.1;fill-rule:nonzero;"/>
    </g>
    <g transform="matrix(1,0,0,1,-63.054,-157.885)">
        <path d="M540.098,318.206C537.717,322.872 537.286,328.297 538.899,333.281C540.541,338.228 543.614,342.578 547.728,345.777C557.823,353.869 571.716,354.983 584.653,354.87C595.991,354.772 607.313,353.996 618.558,352.546C622.327,352.212 626.03,351.353 629.56,349.992C633.782,348.165 637.493,344.814 638.996,340.466C640.499,336.118 639.432,330.794 635.862,327.892C632.725,325.342 628.399,324.992 624.364,324.749L601.277,323.362C603.558,321.053 606.595,319.748 609.372,318.07C613.058,315.843 615.506,312.105 618.186,308.735C622.314,303.8 626.806,299.182 631.624,294.918C632.376,299.228 635.102,302.768 638.312,305.742C641.521,308.716 645.22,311.11 648.555,313.942C656.634,320.8 662.451,330.109 670.948,336.442C676.792,334.907 682.256,332.179 686.996,328.43L683.694,322.449C683.419,321.833 682.99,321.299 682.45,320.896C681.515,320.321 680.31,320.617 679.225,320.455C676.324,320.02 675.057,316.671 673.919,313.967C670.794,306.545 664.811,300.787 659.701,294.563C655.929,289.969 652.583,285.041 649.705,279.84C647.988,276.739 646.417,273.509 644.087,270.837C641.758,268.165 638.494,266.064 634.949,266.057C631.817,266.05 628.928,267.64 626.235,269.24C618.032,274.112 610.14,279.489 602.605,285.339C598.661,288.4 594.741,291.635 590.115,293.513C588.168,294.303 586.115,294.843 584.246,295.805C580.973,297.489 578.489,300.339 575.815,302.869C566.277,311.892 553.219,317.738 540.098,318.206Z" style="fill:rgb(63,61,86);fill-rule:nonzero;"/>
    </g>
    <g transform="matrix(1,0,0,1,-63.054,-157.885)">
        <path d="M588.374,253.983C588.266,256.741 587.68,259.459 586.64,262.016C585.575,264.592 583.484,266.613 580.872,267.589C579.037,268.08 577.113,268.143 575.249,267.771C573.624,267.601 572.058,267.068 570.668,266.21C568.503,264.722 567.423,262.066 567.03,259.467C566.637,256.871 566.813,254.219 566.561,251.604C566.316,249.492 565.914,247.401 565.359,245.348C565.189,244.665 565.016,243.986 564.846,243.306C564.68,242.626 564.516,241.947 564.365,241.267C564.226,240.628 564.097,239.986 563.987,239.341C563.896,238.797 563.814,238.249 563.754,237.699C563.699,236.066 563.427,234.448 562.946,232.888C562.494,231.875 561.928,230.918 561.259,230.034C560.973,229.624 560.696,229.215 560.441,228.791C559.704,227.687 559.361,226.366 559.469,225.043C559.499,224.838 559.549,224.637 559.617,224.442C559.642,224.366 559.67,224.291 559.702,224.219C560.276,224.063 560.737,223.632 560.932,223.07C561.04,222.475 560.989,221.861 560.784,221.292C560.549,220.497 560.227,219.73 559.824,219.005C559.56,218.526 558.663,217.664 558.657,217.117C558.644,216.015 560.797,215.128 561.668,214.694C564.329,213.361 567.296,212.76 570.265,212.95C572.169,213.079 574.233,213.665 575.284,215.26C576.228,216.698 576.102,218.561 576.505,220.232C576.547,220.475 576.65,220.703 576.804,220.896C577.009,221.083 577.267,221.202 577.543,221.235C578.009,221.328 578.487,221.347 578.959,221.292L578.962,221.292C579.087,221.282 579.211,221.264 579.333,221.239C580.069,221.103 580.764,220.803 581.366,220.361C581.756,220.257 582.15,220.172 582.546,220.106C582.562,220.104 582.578,220.101 582.593,220.096C584.17,225.071 584.374,230.405 585.665,235.471C586.303,237.991 587.219,240.48 587.348,243.073C587.357,243.186 587.361,243.303 587.364,243.419C587.383,244.253 587.317,245.093 587.351,245.924C587.363,246.298 587.405,246.671 587.477,247.038C587.618,247.629 587.794,248.211 588.002,248.781L588.012,248.809C588.072,248.992 588.128,249.178 588.176,249.363C588.21,249.498 588.242,249.631 588.267,249.766L588.27,249.775C588.503,251.166 588.538,252.582 588.374,253.983Z" style="fill:rgb(251,190,190);fill-rule:nonzero;"/>
    </g>
    <circle cx="503.237" cy="44.997" r="18.565" style="fill:rgb(251,190,190);"/>
    <g transform="matrix(1,0,0,1,-63.054,-157.885)">
        <path d="M684.157,304.033C683.619,298.968 681.819,294.118 678.921,289.93C679.403,292.793 679.885,295.655 680.369,298.517C679.143,298.871 677.817,298.464 677.002,297.482C676.22,296.505 675.622,295.396 675.236,294.206C673.127,288.97 670.369,284.019 667.027,279.47C655.208,278.485 643.525,273.586 633.131,267.875C622.735,262.167 613.006,255.323 602.748,249.373C600.969,248.298 599.116,247.351 597.203,246.541C593.994,245.254 590.391,244.587 587.348,243.073C587.143,242.972 586.939,242.865 586.738,242.755C586.05,242.381 585.399,241.944 584.793,241.449C584.465,241.183 584.154,240.898 583.862,240.594C582.343,238.827 581.14,236.814 580.303,234.64C578.67,231.028 578.087,226.67 576.457,223.057C577.207,222.357 578.048,221.763 578.959,221.292L578.962,221.292C579.094,221.223 579.227,221.157 579.362,221.094C580.007,220.79 580.678,220.545 581.366,220.361C581.756,220.257 582.15,220.172 582.546,220.106C582.562,220.104 582.578,220.101 582.593,220.096C584.432,219.797 586.316,219.946 588.084,220.531C590.671,221.405 592.851,223.152 595.026,224.804C598.558,227.292 601.946,229.98 605.174,232.853C606.967,234.571 608.603,236.459 610.532,238.02C612.135,239.257 613.825,240.377 615.589,241.371C626.026,247.589 636.465,253.805 646.904,260.021C650.438,262.126 653.975,264.231 657.43,266.459C662.678,269.845 667.738,273.514 672.795,277.179C675.775,279.338 678.753,281.498 681.731,283.658C682.708,284.282 683.566,285.074 684.264,285.999C684.881,287.05 685.264,288.221 685.387,289.432C686.135,294.328 685.713,299.331 684.157,304.033Z" style="fill:rgb(251,190,190);fill-rule:nonzero;"/>
    </g>
    <g transform="matrix(1,0,0,1,-63.054,-157.885)">
        <path d="M592.977,267.944C591.725,273.561 586.048,276.956 583.081,281.89C579.393,288.013 580.897,295.131 582.282,302.145C579.752,304.325 577.221,306.506 574.689,308.687C573.292,309.886 571.895,311.091 570.391,312.151C568.198,313.621 565.906,314.937 563.531,316.091C561.291,317.242 559.05,318.395 556.81,319.549C554.727,320.72 552.52,321.655 550.23,322.337C545.816,323.47 541.127,322.677 536.76,321.364C536.245,321.229 535.749,321.027 535.287,320.763C535.014,320.601 534.777,320.386 534.588,320.131C534.158,319.359 534.001,318.464 534.145,317.592C534.588,310.241 536.385,303.045 538.176,295.902C539.133,291.617 540.419,287.412 542.024,283.325C543.598,279.823 545.407,276.431 547.439,273.174C549.682,269.075 552.339,265.217 555.369,261.66C556.844,260.291 558.085,258.691 559.044,256.921C560.161,254.373 559.73,251.449 559.957,248.674C560.13,246.589 560.683,244.553 561.59,242.667L561.59,242.664C562.074,241.648 562.658,240.683 563.333,239.782C563.638,240.493 563.943,241.203 564.249,241.912C564.45,242.378 564.649,242.842 564.846,243.306C565.104,243.904 565.36,244.5 565.614,245.093C566.347,246.799 567.079,248.503 567.811,250.207C568.601,252.352 569.726,254.358 571.146,256.151C572.363,257.872 574.344,258.898 576.453,258.898C578.913,258.898 581.172,257.5 582.269,255.298C583.327,253.42 584.093,251.393 584.541,249.285C585.163,246.718 585.248,244.051 584.793,241.45C584.035,236.44 581.904,231.324 580.356,226.67C579.726,225.118 579.361,223.471 579.277,221.799C579.28,221.611 579.299,221.424 579.333,221.239C579.343,221.192 579.352,221.141 579.362,221.094C580.007,220.79 580.677,220.545 581.366,220.361C581.756,220.257 582.15,220.172 582.546,220.106C583.909,227.482 585.273,234.857 586.64,242.233C586.671,242.406 586.706,242.579 586.737,242.755C586.933,243.813 587.131,244.87 587.351,245.924C587.549,246.881 587.763,247.834 588.002,248.781L588.012,248.809C588.094,249.13 588.179,249.448 588.267,249.766L588.27,249.775C588.512,250.644 588.783,251.506 589.088,252.356C590.938,257.475 594.164,262.629 592.977,267.944Z" style="fill:rgb(255,7,82);fill-rule:nonzero;"/>
    </g>
    <g transform="matrix(1,0,0,1,-63.054,-157.885)">
        <path d="M668.321,346.877C668.263,347.959 668.473,349.039 668.931,350.02C670.093,352.144 672.881,352.627 675.294,352.825C689.386,353.984 703.564,353.552 717.559,351.537C718.319,351.486 719.055,351.257 719.711,350.87C721.701,349.475 720.474,346.075 718.301,344.986C716.128,343.898 713.55,344.16 711.166,343.689C708.797,343.093 706.542,342.114 704.488,340.793C699.653,338.015 694.889,335.119 690.195,332.105C687.401,330.31 684.102,328.395 680.955,329.459C672.43,332.343 668.265,337.681 668.321,346.877Z" style="fill:rgb(63,61,86);fill-rule:nonzero;"/>
    </g>
    <g transform="matrix(1,0,0,1,-63.054,-157.885)">
        <path d="M564.437,240.874L564.437,240.877C564.415,241.009 564.393,241.138 564.365,241.267C564.33,241.481 564.289,241.698 564.249,241.912C563.858,243.91 563.38,245.899 562.829,247.875C561.319,253.334 559.296,258.706 557.288,263.998C551.901,278.189 546.513,292.382 541.124,306.575C539.765,310.15 538.408,313.727 536.863,317.23C536.347,318.397 535.816,319.574 535.287,320.763C533.393,325.021 531.574,329.417 530.97,333.948C530.407,336.93 530.342,339.985 530.778,342.988C531.382,345.958 533.185,348.86 536.008,349.958C537.386,350.496 539.359,351.216 538.981,352.648C538.777,353.435 537.883,353.819 537.081,353.951C534.937,354.293 532.748,353.662 531.115,352.233C529.607,350.896 528.449,348.816 526.445,348.592C525.057,348.441 523.78,349.272 522.509,349.854C517.323,352.223 511.281,350.565 505.835,348.882C506.262,346.676 508.478,345.222 510.677,344.782C512.877,344.338 515.152,344.653 517.395,344.593C518.114,344.631 518.827,344.448 519.437,344.067C519.985,343.565 520.369,342.909 520.539,342.186C521.984,337.903 523.059,333.505 523.751,329.039C524.475,324.373 524.777,319.634 525.809,315.024C526.612,311.427 527.851,307.944 528.915,304.414C530.972,297.144 532.66,289.776 533.975,282.337C534.639,279.246 535.115,276.118 535.4,272.969C535.58,270.358 535.495,267.733 535.746,265.131C536.169,261.745 536.875,258.401 537.858,255.134C538.821,251.569 539.782,248.006 540.743,244.445C542.169,239.174 543.698,233.699 547.31,229.602C549.845,226.688 553.479,224.953 557.339,224.813C558.055,224.812 558.769,224.889 559.469,225.043C559.585,225.071 559.702,225.1 559.818,225.131C560.58,225.33 561.312,225.633 561.992,226.031C563.106,225.323 563.673,225.572 564.412,226.663C565.06,227.819 565.366,229.135 565.293,230.458C565.356,233.95 565.069,237.439 564.437,240.874Z" style="fill:rgb(251,190,190);fill-rule:nonzero;"/>
    </g>
    <g transform="matrix(1,0,0,1,-63.054,-157.885)">
        <path d="M565.661,245.046L565.614,245.093L565.359,245.348L562.829,247.875L561.59,242.667L557.339,224.813C558.055,224.812 558.769,224.889 559.469,225.043C559.499,224.838 559.549,224.637 559.617,224.442L559.818,225.131L561.259,230.033L563.987,239.341L564.437,240.874L564.437,240.877L565.661,245.046Z" style="fill:rgb(255,7,82);fill-rule:nonzero;"/>
    </g>
    <g transform="matrix(1,0,0,1,-63.054,-157.885)">
        <path d="M581.715,188.087C581.711,191.425 580.379,194.627 578.015,196.983C577.591,197.408 577.136,197.801 576.655,198.159C574.484,199.796 571.838,200.682 569.119,200.684L554.023,200.684C547.124,200.673 541.452,194.993 541.452,188.093C541.452,181.194 547.124,175.514 554.023,175.503L569.119,175.503C576.018,175.521 581.691,181.189 581.715,188.087Z" style="fill:rgb(47,46,65);fill-rule:nonzero;"/>
    </g>
    <circle cx="532.815" cy="18.25" r="12.901" style="fill:rgb(47,46,65);"/>
    <g transform="matrix(1,0,0,1,-63.054,-157.885)">
        <path d="M595.554,163.234C595.396,163.234 595.239,163.24 595.082,163.246C601.977,163.496 607.512,169.236 607.512,176.135C607.512,183.034 601.977,188.774 595.082,189.024C595.239,189.03 595.396,189.036 595.554,189.036C602.632,189.036 608.456,183.212 608.456,176.135C608.456,169.058 602.632,163.234 595.554,163.234Z" style="fill-opacity:0.1;fill-rule:nonzero;"/>
    </g>
    <g transform="matrix(1,0,0,1,-63.054,-157.885)">
        <path d="M534.195,163.234C534.353,163.234 534.51,163.24 534.667,163.246C527.773,163.496 522.238,169.236 522.238,176.135C522.238,183.034 527.773,188.774 534.667,189.024C534.51,189.03 534.353,189.036 534.195,189.036C527.122,189.03 521.305,183.208 521.305,176.135C521.305,169.062 527.122,163.24 534.195,163.234Z" style="fill-opacity:0.1;fill-rule:nonzero;"/>
    </g>
    <g transform="matrix(1,0,0,1,-63.054,-157.885)">
        <path d="M576.655,198.159C574.484,199.796 571.838,200.682 569.119,200.684L554.023,200.684C551.304,200.682 548.658,199.796 546.487,198.159L576.655,198.159Z" style="fill-opacity:0.1;fill-rule:nonzero;"/>
    </g>
    <g transform="matrix(1,0,0,1,-63.054,-157.885)">
        <path d="M674.14,291.64C674.14,291.64 677.392,301.012 680.369,298.517L677.996,286.267L674.14,291.64Z" style="fill:rgb(251,190,190);fill-rule:nonzero;"/>
    </g>
    <g transform="matrix(1,0,0,1,-63.054,-157.885)">
        <path d="M1069.92,577.434C1072.2,578.263 1074.6,578.687 1077.03,578.687C1088.45,578.687 1097.84,569.291 1097.84,557.874C1097.84,546.457 1088.45,537.062 1077.03,537.062C1075.57,537.062 1074.12,537.215 1072.69,537.519L1073.21,548.231L1068.14,539.051C1063.17,541.387 1059.33,545.606 1057.46,550.773C1056.8,552.584 1056.39,554.479 1056.26,556.403C1055.61,565.65 1061.2,574.271 1069.92,577.434Z" style="fill:rgb(87,184,148);fill-rule:nonzero;"/>
    </g>
    <g transform="matrix(1,0,0,1,-63.054,-157.885)">
        <path d="M1095,701.678C1093.21,692.567 1100.96,684.491 1108.62,679.241C1116.27,673.991 1125.22,668.833 1127.83,659.924C1131.59,647.12 1120.4,635.394 1111.7,625.282C1105.24,617.778 1099.69,609.535 1095.17,600.725C1093.36,597.193 1091.7,593.5 1091.22,589.559C1090.54,583.883 1092.36,578.236 1094.2,572.822C1100.32,554.788 1106.86,536.904 1113.83,519.172" style="fill:none;fill-rule:nonzero;stroke:rgb(63,61,86);stroke-width:1px;"/>
    </g>
    <g transform="matrix(1,0,0,1,-63.054,-157.885)">
        <path d="M1070.78,574.676C1073.05,575.505 1075.46,575.929 1077.89,575.929C1089.3,575.929 1098.7,566.534 1098.7,555.116C1098.7,543.699 1089.3,534.304 1077.89,534.304C1076.43,534.304 1074.97,534.457 1073.55,534.761L1074.07,545.473L1069,536.293C1064.03,538.629 1060.18,542.848 1058.32,548.015C1057.65,549.826 1057.25,551.721 1057.12,553.645C1056.46,562.892 1062.06,571.513 1070.78,574.676Z" style="fill:none;fill-rule:nonzero;stroke:rgb(63,61,86);stroke-width:1px;"/>
    </g>
    <g transform="matrix(1,0,0,1,-63.054,-157.885)">
        <path d="M1092.45,515.473C1094.87,508.814 1100.52,503.83 1107.43,502.275L1109.14,512.459L1112.32,501.763C1123.62,501.931 1132.82,511.271 1132.82,522.571C1132.82,533.987 1123.43,543.381 1112.01,543.381C1100.6,543.381 1091.2,533.987 1091.2,522.571C1091.2,520.15 1091.63,517.748 1092.45,515.473L1092.45,515.473Z" style="fill:rgb(87,184,148);fill-rule:nonzero;"/>
    </g>
    <g transform="matrix(1,0,0,1,-63.054,-157.885)">
        <path d="M1093.59,511.795C1096.01,505.136 1101.66,500.153 1108.57,498.598L1110.29,508.782L1113.46,498.086C1124.76,498.253 1133.97,507.594 1133.97,518.894C1133.97,530.31 1124.57,539.704 1113.16,539.704C1101.74,539.704 1092.35,530.31 1092.35,518.894C1092.35,516.473 1092.77,514.071 1093.59,511.795L1093.59,511.795Z" style="fill:none;fill-rule:nonzero;stroke:rgb(63,61,86);stroke-width:1px;"/>
    </g>
    <g transform="matrix(1,0,0,1,-63.054,-157.885)">
        <path d="M1108.05,625.489C1110.32,626.314 1112.72,626.736 1115.14,626.736C1126.56,626.736 1135.95,617.342 1135.95,605.926C1135.95,598.882 1132.37,592.299 1126.46,588.466L1124.02,596.685L1122.29,586.382C1122.27,586.374 1122.26,586.367 1122.24,586.362C1119.96,585.533 1117.55,585.11 1115.13,585.11C1103.71,585.11 1094.32,594.504 1094.32,605.921C1094.32,614.662 1099.83,622.513 1108.05,625.489L1108.05,625.489Z" style="fill:rgb(87,184,148);fill-rule:nonzero;"/>
    </g>
    <g transform="matrix(1,0,0,1,-63.054,-157.885)">
        <path d="M1109.04,621.764C1111.31,622.589 1113.71,623.011 1116.13,623.011C1127.55,623.011 1136.94,613.617 1136.94,602.201C1136.94,595.157 1133.36,588.574 1127.45,584.742L1125.01,592.961L1123.28,582.657C1123.27,582.649 1123.25,582.642 1123.23,582.637C1120.95,581.809 1118.54,581.385 1116.12,581.385C1104.7,581.385 1095.31,590.78 1095.31,602.196C1095.31,610.937 1100.82,618.788 1109.04,621.764L1109.04,621.764Z" style="fill:none;fill-rule:nonzero;stroke:rgb(63,61,86);stroke-width:1px;"/>
    </g>
    <g transform="matrix(1,0,0,1,-63.054,-157.885)">
        <path d="M1086.38,660.051C1088.12,669.958 1096.81,677.252 1106.87,677.252C1118.28,677.252 1127.67,667.862 1127.67,656.451C1127.67,645.04 1118.28,635.65 1106.87,635.65C1100.42,635.65 1094.32,638.647 1090.39,643.754L1099.66,657.711L1086.99,650.303C1086.01,653.456 1085.8,656.8 1086.38,660.051Z" style="fill:rgb(87,184,148);fill-rule:nonzero;"/>
    </g>
    <g transform="matrix(1,0,0,1,-63.054,-157.885)">
        <path d="M1087.24,657.294C1088.98,667.2 1097.66,674.494 1107.72,674.494C1119.13,674.494 1128.52,665.104 1128.52,653.693C1128.52,642.282 1119.13,632.892 1107.72,632.892C1101.28,632.892 1095.18,635.889 1091.25,640.996L1100.52,654.953L1087.85,647.545C1086.87,650.698 1086.66,654.042 1087.24,657.294Z" style="fill:none;fill-rule:nonzero;stroke:rgb(63,61,86);stroke-width:1px;"/>
    </g>
    <g transform="matrix(1,0,0,1,-63.054,-157.885)">
        <path d="M72.061,628.133C73.559,628.678 75.14,628.956 76.733,628.956C84.235,628.956 90.408,622.783 90.408,615.282C90.408,607.78 84.235,601.608 76.733,601.608C75.775,601.608 74.82,601.708 73.882,601.908L74.225,608.946L70.895,602.915C67.628,604.45 65.102,607.222 63.875,610.617C63.44,611.806 63.175,613.052 63.089,614.316C62.658,620.391 66.337,626.055 72.061,628.133Z" style="fill:rgb(87,184,148);fill-rule:nonzero;"/>
    </g>
    <g transform="matrix(1,0,0,1,-63.054,-157.885)">
        <path d="M88.538,709.763C87.362,703.778 92.456,698.471 97.487,695.022C102.518,691.573 108.397,688.184 110.113,682.331C112.58,673.918 105.232,666.214 99.512,659.57C95.268,654.64 91.624,649.224 88.656,643.436C87.365,641.162 86.486,638.679 86.059,636.099C85.608,632.371 86.806,628.66 88.013,625.103C92.033,613.254 96.332,601.504 100.909,589.854" style="fill:none;fill-rule:nonzero;stroke:rgb(63,61,86);stroke-width:1px;"/>
    </g>
    <g transform="matrix(1,0,0,1,-63.054,-157.885)">
        <path d="M72.625,626.321C74.122,626.866 75.703,627.144 77.297,627.144C84.798,627.144 90.971,620.971 90.971,613.47C90.971,605.968 84.798,599.796 77.297,599.796C76.338,599.796 75.383,599.896 74.446,600.096L74.788,607.134L71.458,601.103C68.191,602.638 65.665,605.41 64.439,608.805C64.003,609.994 63.738,611.24 63.652,612.504C63.222,618.579 66.9,624.243 72.625,626.321Z" style="fill:none;fill-rule:nonzero;stroke:rgb(63,61,86);stroke-width:1px;"/>
    </g>
    <g transform="matrix(1,0,0,1,-63.054,-157.885)">
        <path d="M86.866,587.423C88.452,583.048 92.168,579.774 96.708,578.752L97.834,585.443L99.922,578.416C107.345,578.526 113.392,584.663 113.392,592.087C113.392,599.588 107.22,605.76 99.719,605.76C92.218,605.76 86.046,599.588 86.046,592.087C86.046,590.497 86.324,588.918 86.866,587.423Z" style="fill:rgb(87,184,148);fill-rule:nonzero;"/>
    </g>
    <g transform="matrix(1,0,0,1,-63.054,-157.885)">
        <path d="M87.617,585.007C89.203,580.632 92.919,577.358 97.459,576.336L98.585,583.027L100.673,576C108.096,576.11 114.142,582.247 114.142,589.671C114.142,597.172 107.97,603.344 100.47,603.344C92.969,603.344 86.797,597.172 86.797,589.671C86.797,588.081 87.075,586.502 87.617,585.007Z" style="fill:none;fill-rule:nonzero;stroke:rgb(63,61,86);stroke-width:1px;"/>
    </g>
    <g transform="matrix(1,0,0,1,-63.054,-157.885)">
        <path d="M97.112,659.706C98.606,660.248 100.184,660.526 101.774,660.526C109.274,660.526 115.446,654.354 115.446,646.853C115.446,642.225 113.096,637.9 109.213,635.382L107.609,640.782L106.472,634.012C106.461,634.007 106.449,634.002 106.437,633.999C104.939,633.454 103.358,633.175 101.764,633.175C94.263,633.175 88.091,639.348 88.091,646.849C88.091,652.593 91.71,657.752 97.112,659.706Z" style="fill:rgb(87,184,148);fill-rule:nonzero;"/>
    </g>
    <g transform="matrix(1,0,0,1,-63.054,-157.885)">
        <path d="M97.762,657.259C99.257,657.801 100.835,658.078 102.424,658.078C109.925,658.078 116.097,651.906 116.097,644.406C116.097,639.778 113.747,635.453 109.864,632.934L108.26,638.335L107.123,631.565C107.111,631.559 107.1,631.555 107.088,631.552C105.593,631.009 104.015,630.732 102.425,630.732C94.924,630.732 88.752,636.904 88.752,644.405C88.752,650.145 92.366,655.301 97.762,657.259Z" style="fill:none;fill-rule:nonzero;stroke:rgb(63,61,86);stroke-width:1px;"/>
    </g>
    <g transform="matrix(1,0,0,1,-63.054,-157.885)">
        <path d="M82.876,682.414C84.02,688.923 89.728,693.716 96.337,693.716C103.834,693.716 110.003,687.546 110.003,680.049C110.003,672.551 103.834,666.382 96.337,666.382C92.101,666.382 88.097,668.351 85.511,671.707L91.603,680.876L83.279,676.009C82.634,678.081 82.495,680.278 82.876,682.414Z" style="fill:rgb(87,184,148);fill-rule:nonzero;"/>
    </g>
    <g transform="matrix(1,0,0,1,-63.054,-157.885)">
        <path d="M83.439,680.602C84.583,687.111 90.291,691.904 96.9,691.904C104.397,691.904 110.567,685.734 110.567,678.237C110.567,670.739 104.397,664.57 96.9,664.57C92.664,664.57 88.66,666.539 86.074,669.895L92.166,679.064L83.842,674.197C83.197,676.269 83.058,678.466 83.439,680.602Z" style="fill:none;fill-rule:nonzero;stroke:rgb(63,61,86);stroke-width:1px;"/>
    </g>
    <ellipse cx="480.946" cy="319.116" rx="17" ry="22" style="fill:rgb(47,46,65);"/>
    <ellipse cx="573.446" cy="319.616" rx="17" ry="22" style="fill:rgb(47,46,65);"/>
    <g transform="matrix(1,0,0,1,-63.054,-157.885)">
        <path d="M623.5,542.5C623.5,552.44 609.62,560.5 592.5,560.5C575.38,560.5 561.5,552.44 561.5,542.5C561.5,533.89 571.91,526.69 585.82,524.93C588.035,524.638 590.266,524.494 592.5,524.5C596.243,524.488 599.976,524.89 603.63,525.7C615.25,528.29 623.5,534.84 623.5,542.5Z" style="fill:rgb(47,46,65);fill-rule:nonzero;"/>
    </g>
    <ellipse cx="484.946" cy="314.116" rx="17" ry="22" style="fill:none;stroke:rgb(63,61,86);stroke-width:1px;"/>
    <ellipse cx="577.446" cy="314.616" rx="17" ry="22" style="fill:none;stroke:rgb(63,61,86);stroke-width:1px;"/>
    <ellipse cx="533.446" cy="379.616" rx="31" ry="18" style="fill:none;stroke:rgb(63,61,86);stroke-width:1px;"/>
    <g transform="matrix(1,0,0,1,-63.054,-157.885)">
        <path d="M604,527.2C604.008,528.457 603.536,529.671 602.68,530.592C601.863,531.484 600.709,531.995 599.5,532L589.5,532C586.952,531.911 584.924,529.749 585,527.2C584.995,526.225 585.28,525.271 585.82,524.459C588.033,524.147 590.265,523.994 592.5,524C596.247,523.988 599.983,524.417 603.63,525.28C603.877,525.89 604.003,526.542 604,527.2Z" style="fill:white;fill-rule:nonzero;"/>
    </g>
    <circle cx="484.946" cy="308.116" r="5" style="fill:white;"/>
    <circle cx="577.946" cy="308.116" r="5" style="fill:white;"/>
    <circle cx="582.946" cy="355.116" r="5" style="fill:rgb(255,7,82);fill-opacity:0.3;"/>
    <circle cx="460.946" cy="355.116" r="5" style="fill:rgb(255,7,82);fill-opacity:0.3;"/>
</svg>
