<?xml version="1.0" encoding="UTF-8" standalone="no"?>
<!DOCTYPE svg PUBLIC "-//W3C//DTD SVG 1.1//EN" "http://www.w3.org/Graphics/SVG/1.1/DTD/svg11.dtd">
<svg width="100%" height="100%" viewBox="0 0 1028 799" version="1.1" xmlns="http://www.w3.org/2000/svg" xmlns:xlink="http://www.w3.org/1999/xlink" xml:space="preserve" xmlns:serif="http://www.serif.com/" style="fill-rule:evenodd;clip-rule:evenodd;stroke-miterlimit:10;">
    <g transform="matrix(1,0,0,1,-86.32,-50.56)">
        <path d="M1093.8,263.12C1083.63,239.514 1069.88,217.614 1053.05,198.19L487.68,192.62L953.17,127.24C923.1,115.265 891.084,108.913 858.72,108.5C767.538,35.617 638.41,31.247 542.51,97.8C505.085,78.561 463.591,68.561 421.51,68.64C295.89,68.64 191.21,155.64 167.73,271.02L1093.8,263.12Z" style="fill:rgb(255,7,82);fill-opacity:0.1;fill-rule:nonzero;"/>
    </g>
    <g transform="matrix(1,0,0,1,-86.32,-50.56)">
        <path d="M1113.68,359.88C1113.71,328.593 1107.73,297.591 1096.06,268.56L116.2,371.41C106.096,389.685 98.366,409.177 93.2,429.41L396.63,474.65L86.27,507.65C95.61,638.26 207.58,741.4 344.36,741.4C413.21,741.4 475.78,715.26 522.13,672.64C568.64,716.07 631.8,742.77 701.39,742.77C804.65,742.77 893.77,683.98 935.27,598.97C1018.54,572.55 1083.22,506.19 1105.36,423.18L721.68,363.62L1113.68,363.62C1113.66,362.37 1113.68,361.13 1113.68,359.88Z" style="fill:rgb(255,7,82);fill-opacity:0.1;fill-rule:nonzero;"/>
    </g>
    <ellipse cx="286.68" cy="761.68" rx="227" ry="37.21" style="fill:rgb(255,7,82);"/>
    <g transform="matrix(1,0,0,1,-86.32,-50.56)">
        <path d="M607.77,572.54C597.56,575.1 587.08,570.12 587.08,570.12C587.08,570.12 578.14,559.77 570.6,558.37C563.06,556.97 560.14,569.22 555.66,572.37C552.56,574.58 530.2,573 516.66,571.82L514.33,571.61C514.1,571.44 513.87,571.26 513.62,571.1C513.62,571.1 500.62,567.1 497.91,563.56C495.2,560.02 477.09,553.47 471.47,553.85C465.85,554.23 449.24,555.13 449.24,555.13C449.24,555.13 442.73,547.72 439.79,548.49C436.85,549.26 426.63,548.43 426.63,548.43C426.63,548.43 423.82,541.21 421.01,530.86C419.7,526.03 415.34,522.64 411.07,520.41C414.91,507.41 408.07,470.33 386.83,463.08C382.2,461.5 379.83,456.25 375.89,453.37C372.36,450.8 366.58,444.74 369.41,433.79C373.41,418.46 383.33,394.32 383.33,394.32L390.72,379.56C390.031,380.606 389.247,381.586 388.38,382.49C389.38,381.21 390.38,379.95 391.24,378.89C398.615,382.615 406.658,384.831 414.9,385.41C423.24,388.78 431.57,391.75 434.81,391.64C442.22,391.38 461.12,400.84 461.12,400.84C461.12,400.84 506.59,413.84 516.04,414.89C525.49,415.94 530.09,403.65 530.09,403.65C530.09,403.65 535,379.42 526.28,373C517.56,366.58 512.49,396 512.49,396L453,374.56L449.33,372.63C452.18,369.615 454.442,366.095 456,362.25C456.92,359.96 457.76,357.34 459.95,356.2C460.539,355.907 461.176,355.721 461.83,355.65C462.373,355.615 462.917,355.615 463.46,355.65C473.78,356.28 482.65,364.4 492.99,364.44L494.13,364.44C496.101,364.434 498.026,363.842 499.66,362.74C501.524,361.223 502.676,358.998 502.84,356.6C502.689,356.922 502.522,357.235 502.34,357.54C502.61,356.069 502.61,354.561 502.34,353.09C501.7,349.58 499.87,346.43 498.23,343.26C497.766,342.52 497.504,341.672 497.47,340.8C497.564,339.88 498.03,339.038 498.76,338.47C498.775,338.564 498.795,338.658 498.82,338.75C499.599,338.017 500.466,337.382 501.4,336.86C506.507,333.511 510,328.188 511.04,322.17C510.79,322.91 510.49,323.64 510.17,324.36C511.708,319.285 511.334,313.818 509.12,309C508.547,307.628 507.631,306.427 506.46,305.51C502.73,302.89 497.72,305.68 493.17,305.98C489.17,306.24 485.29,304.45 481.68,302.64C475.52,299.55 469.39,296.21 464.26,291.64C458.43,286.41 454.1,279.74 448.84,273.95C443.58,268.16 436.83,263 429,262.42C414.77,261.32 401.35,275.42 387.82,270.82C381.22,268.59 376.88,262.49 372.29,257.25C367.7,252.01 361.39,246.98 354.51,248.11C349.73,248.91 345.59,252.62 340.75,252.48C338.22,252.4 335.87,251.27 333.47,250.48C327.66,248.53 319.7,249.48 317.63,255.26C316.807,257.642 317.082,260.27 318.38,262.43C318.074,262.859 317.8,263.311 317.56,263.78C317.063,264.696 316.89,265.754 317.07,266.78C310.544,272.638 306.811,281.006 306.811,289.775C306.811,303.549 316.02,315.738 329.27,319.5C329.46,320.23 329.65,320.96 329.83,321.7C331.77,329.87 332.78,339.07 329.91,345.27C329.73,345.65 329.54,346.02 329.33,346.38L329.08,346.49L329.19,346.6L329.08,346.49L328.72,346.12L326.54,343.84C326.42,341.46 325.08,335.08 315.76,323.24C303.49,307.65 301.19,281.85 301.19,281.85C301.19,281.85 298.13,268.57 301.19,264.74C304.25,260.91 309.37,218.74 309.37,218.74L317.83,195C317.83,195 358.96,153.1 341.83,148C330.2,144.53 316.33,162.41 308.63,174.23C304.848,180.034 302.402,186.606 301.47,193.47L278.22,257.08C278.22,257.08 275.92,264.75 278.22,278.03C280.52,291.31 285.63,314.82 285.63,314.82L298.63,347.77C298.63,347.77 303.42,362 303,368.18C302.43,368.55 300.43,372.51 298.7,376.11L297.43,378.11L297.34,378.92C296.49,380.73 295.9,382.03 295.9,382.03C295.9,382.03 288.66,403.4 294.71,416.51C300.76,429.62 301,435.7 301,435.7L305.51,455.12L307.39,472.12L323.61,512.23L338.55,533.56C338.55,533.56 337.15,549.27 334.08,551.44C331.01,553.61 332.42,564.85 332.42,564.85L330.5,594.35C330.5,594.35 324.5,603.17 324.12,617.47C323.74,631.77 321.56,635.87 321.56,635.87C321.56,635.87 320.56,647.87 323.35,653.37C326.14,658.87 318.88,664.61 318.88,664.61L325.11,686L322.68,713.08C322.68,713.08 323.81,713.39 325.68,713.86L325.3,715.8L315.14,767.1C315.14,767.1 309.65,781.16 309.4,784.47L291.64,816.54C291.64,816.54 276.82,831.23 283.85,832.63C290.88,834.03 311.32,821.39 311.32,821.39C311.32,821.39 328.18,803.25 334.82,801.6C341.46,799.95 348.82,795.2 346.7,788.31C344.58,781.42 339.7,770.94 344.4,759.82C347.4,752.82 353.78,733.82 358.16,720.56C358.4,719.83 358.63,719.13 358.86,718.45C360.019,718.346 361.164,718.128 362.28,717.8C373.01,714.48 378.63,716.8 378.63,716.8L397.79,639.27L402,600.37L428.83,622.75C434.138,627.177 440.73,629.782 447.63,630.18C458.2,630.8 474.69,632.33 486.63,636.02L491.63,615.2C491.63,615.2 505.93,615.72 509,610.86C510.25,608.86 511.48,607.16 512.49,605.86L514.81,605.5L578.1,595.71C589.85,595.71 605.95,587.78 605.95,587.78L615.79,585.87C615.79,585.87 630.47,582.93 631.79,580.5C633.11,578.07 618,570 607.77,572.54Z" style="fill:url(#_Linear1);fill-rule:nonzero;"/>
    </g>
    <g transform="matrix(1,0,0,1,-86.32,-50.56)">
        <path d="M320.58,260.27C322.58,254.63 330.4,253.68 336.09,255.59C338.43,256.37 340.74,257.48 343.21,257.59C347.95,257.73 352,254.09 356.68,253.32C363.41,252.2 369.58,257.12 374.07,262.25C378.56,267.38 382.82,273.35 389.28,275.54C402.51,280 415.65,266.24 429.57,267.31C437.21,267.9 443.81,272.93 448.96,278.6C454.11,284.27 458.35,290.79 464.05,295.91C469.05,300.41 475.05,303.68 481.1,306.71C484.63,308.48 488.4,310.23 492.34,309.97C496.8,309.68 501.7,306.97 505.34,309.51C506.485,310.408 507.381,311.586 507.94,312.93C512.42,322.25 508.81,334.66 500.04,340.14C498.51,341.09 496.65,342.14 496.56,343.97C496.588,344.825 496.844,345.657 497.3,346.38C498.9,349.48 500.7,352.57 501.3,356C501.9,359.43 501.09,363.38 498.3,365.46C496.479,366.672 494.314,367.264 492.13,367.15C482.01,367.1 473.33,359.15 463.23,358.54C461.938,358.392 460.629,358.592 459.44,359.12C457.3,360.23 456.44,362.8 455.57,365.04C450.89,376.73 439.27,384.86 426.87,387.09C414.47,389.32 401.52,386.18 390.42,380.22C389.608,379.832 388.863,379.319 388.21,378.7C387.283,377.575 386.63,376.25 386.3,374.83C382.9,364.08 378.3,352.83 368.88,346.62C362.77,342.62 354.48,340.37 351.71,333.62C349.97,329.35 351.06,324.5 350.62,319.9C349.738,311.865 344.31,305.016 336.69,302.32C335.05,301.77 333.25,301.38 332.05,300.13C331.076,298.903 330.453,297.434 330.25,295.88C328.76,289.11 327.77,281.96 325.69,275.35C324.1,270.17 318.45,266.2 320.58,260.27Z" style="fill:rgb(102,61,91);fill-rule:nonzero;"/>
    </g>
    <g opacity="0.1">
        <g transform="matrix(1,0,0,1,-86.32,-50.56)">
            <path d="M499.47,362.35C497.643,363.545 495.48,364.123 493.3,364C483.19,364 474.51,356 464.41,355.4C463.119,355.249 461.81,355.445 460.62,355.97C458.47,357.08 457.62,359.65 456.75,361.89C452.07,373.59 440.44,381.72 428.04,383.95C415.64,386.18 402.69,383.04 391.6,377.08C390.789,376.691 390.044,376.178 389.39,375.56C388.465,374.433 387.812,373.109 387.48,371.69C384.08,360.93 379.48,349.69 370.06,343.47C363.94,339.42 355.65,337.23 352.89,330.47C351.14,326.19 352.23,321.34 351.8,316.75C350.92,308.711 345.487,301.859 337.86,299.17C336.22,298.62 334.42,298.22 333.22,296.98C332.245,295.751 331.625,294.277 331.43,292.72C329.93,285.96 328.95,278.8 326.87,272.2C325.47,267.78 321.06,264.2 321.28,259.48C321.151,259.729 321.037,259.986 320.94,260.25C318.8,266.18 324.46,270.15 326.07,275.25C328.15,281.85 329.13,289.01 330.63,295.77C330.825,297.327 331.445,298.801 332.42,300.03C333.62,301.27 335.42,301.67 337.06,302.22C344.69,304.91 350.124,311.767 351,319.81C351.43,324.4 350.34,329.25 352.09,333.53C354.85,340.32 363.14,342.53 369.26,346.53C378.66,352.76 383.26,363.99 386.68,374.75C387.012,376.169 387.665,377.493 388.59,378.62C389.244,379.238 389.989,379.751 390.8,380.14C401.89,386.14 414.8,389.23 427.24,387.01C439.68,384.79 451.24,376.65 455.95,364.95C456.85,362.71 457.68,360.14 459.82,359.03C461.01,358.505 462.319,358.309 463.61,358.46C473.71,359.07 482.39,367.02 492.5,367.06C494.683,367.174 496.846,366.585 498.67,365.38C500.496,363.9 501.627,361.725 501.79,359.38C501.285,360.553 500.486,361.576 499.47,362.35Z" style="fill-rule:nonzero;"/>
        </g>
        <g transform="matrix(1,0,0,1,-86.32,-50.56)">
            <path d="M501.21,337C499.68,338 497.81,339 497.72,340.83C497.711,341.197 497.769,341.563 497.89,341.91C498.65,341.191 499.496,340.57 500.41,340.06C505.408,336.787 508.826,331.578 509.84,325.69C508.362,330.345 505.31,334.345 501.21,337Z" style="fill-rule:nonzero;"/>
        </g>
    </g>
    <g transform="matrix(1,0,0,1,-86.32,-50.56)">
        <path d="M346.75,754C342.12,764.88 346.88,775.12 349,781.88C351.12,788.64 343.88,793.25 337.38,794.88C330.88,796.51 314.38,814.25 314.38,814.25C314.38,814.25 294.38,826.62 287.5,825.25C280.62,823.88 295.12,809.5 295.12,809.5L312.5,778.12C312.75,774.88 318.12,761.12 318.12,761.12L328.06,710.92L329.38,704.25L364.62,702.12C364.62,702.12 362.77,707.84 360.22,715.57C355.93,728.57 349.65,747.21 346.75,754Z" style="fill:rgb(204,129,140);fill-rule:nonzero;"/>
    </g>
    <g transform="matrix(1,0,0,1,-86.32,-50.56)">
        <path d="M628,578.53C626.75,580.91 612.38,583.78 612.38,583.78L602.75,585.65C602.75,585.65 587,593.41 575.5,593.41L513.56,603L505.25,604.29L505.25,569.15C505.25,569.15 509.43,569.59 515.35,570.15C528.58,571.31 550.47,572.85 553.5,570.69C557.88,567.57 560.75,555.57 568.12,556.95C575.49,558.33 584.25,568.45 584.25,568.45C584.25,568.45 594.5,573.32 604.5,570.82C614.5,568.32 629.25,576.15 628,578.53Z" style="fill:rgb(204,129,140);fill-rule:nonzero;"/>
    </g>
    <g transform="matrix(1,0,0,1,-86.32,-50.56)">
        <path d="M515.75,600.28C515.75,600.28 514.86,601.28 513.56,602.99L505.25,604.28L505.25,569.15C505.25,569.15 509.43,569.59 515.35,570.15C525.29,578 515.75,600.28 515.75,600.28Z" style="fill-opacity:0.1;fill-rule:nonzero;"/>
    </g>
    <g transform="matrix(1,0,0,1,-86.32,-50.56)">
        <path d="M396.13,592.16L429.4,619.92C434.595,624.251 441.047,626.8 447.8,627.19C458.14,627.8 474.28,629.29 486,632.91L490.88,612.53C490.88,612.53 504.88,613.03 507.88,608.28C509.642,605.476 511.604,602.802 513.75,600.28C515.896,597.758 523.88,576.66 512.38,569.41C512.38,569.41 499.63,565.53 497,562.03C494.37,558.53 476.63,552.16 471.13,552.53C465.63,552.9 449.38,553.78 449.38,553.78C449.38,553.78 443,546.53 440.13,547.28C437.26,548.03 427.25,547.28 427.25,547.28C427.25,547.28 424.5,540.21 421.75,530.08C419,519.95 402.63,516.33 402.63,516.33L396.13,592.16Z" style="fill:rgb(86,89,135);fill-rule:nonzero;"/>
    </g>
    <g transform="matrix(1,0,0,1,-86.32,-50.56)">
        <path d="M396.13,592.16L429.4,619.92C434.595,624.251 441.047,626.8 447.8,627.19C458.14,627.8 474.28,629.29 486,632.91L490.88,612.53C490.88,612.53 504.88,613.03 507.88,608.28C509.642,605.476 511.604,602.802 513.75,600.28C515.896,597.758 523.88,576.66 512.38,569.41C512.38,569.41 499.63,565.53 497,562.03C494.37,558.53 476.63,552.16 471.13,552.53C465.63,552.9 449.38,553.78 449.38,553.78C449.38,553.78 443,546.53 440.13,547.28C437.26,548.03 427.25,547.28 427.25,547.28C427.25,547.28 424.5,540.21 421.75,530.08C419,519.95 402.63,516.33 402.63,516.33L396.13,592.16Z" style="fill-opacity:0.1;fill-rule:nonzero;"/>
    </g>
    <g transform="matrix(1,0,0,1,-86.32,-50.56)">
        <path d="M381.25,343.28L377.57,343.97L377.34,343.97L376.8,344.07L370.5,345.24L368.56,347.54L368.48,347.62L362.25,355L357,360.15L356.95,360.21L352.51,364.53L345,372L343.74,375.11L341,382L340.29,383.75L332.79,391.75L328,402L316.8,408.5L304.75,402.25L299.25,394.25L300.5,382.79L300.75,380.5L304.42,374.61L307.75,369.25L314.25,360L326.75,351.5L328.99,350.91L331.5,350.25C331.692,349.976 331.869,349.693 332.03,349.4C332.242,349.048 332.432,348.684 332.6,348.31C335.41,342.25 334.42,333.24 332.52,325.25C331.064,319.273 329.134,313.421 326.75,307.75L359.75,303C359.75,303 359.43,309.4 359.43,319.38C359.43,321.88 359.43,324.59 359.5,327.49C359.66,336.49 368.02,340.39 374.33,342.05C375.955,342.483 377.605,342.817 379.27,343.05C380.49,343.24 381.25,343.28 381.25,343.28Z" style="fill:rgb(204,129,140);fill-rule:nonzero;"/>
    </g>
    <g transform="matrix(1,0,0,1,-86.32,-50.56)">
        <path d="M329.25,348C329.25,348 330.75,342 318.75,326.75C306.75,311.5 304.5,286.25 304.5,286.25C304.5,286.25 301.5,273.25 304.5,269.5C307.5,265.75 312.5,224.5 312.5,224.5L320.75,201.25C320.75,201.25 361,160.25 344.25,155.25C332.87,151.85 319.25,169.36 311.76,180.92C308.061,186.6 305.669,193.032 304.76,199.75L282,262C282,262 279.75,269.5 282,282.5C284.25,295.5 289.25,318.5 289.25,318.5L302,350.78C302,350.78 308.71,370.88 305.23,373.33L313,361.84L329.25,348Z" style="fill:rgb(204,129,140);fill-rule:nonzero;"/>
    </g>
    <g transform="matrix(1,0,0,1,-86.32,-50.56)">
        <path d="M528.5,405.53C528.5,405.53 524,417.53 514.75,416.53C505.5,415.53 461,402.78 461,402.78C461,402.78 442.5,393.53 435.25,393.78C428,394.03 394.75,378.53 394.75,378.53C394.75,378.53 392.41,381.61 389.8,384.85C386.96,388.4 383.8,392.15 383,392.28C381.5,392.53 358.25,395.78 358.25,395.78L342.5,388.53L341,382L340.29,379L343.78,375.11L348.37,370L356.98,360.18L357.03,360.12L368.52,347.63L368.6,347.55L375.96,344.55L377.38,343.97L377.61,343.97C378.49,343.82 381.87,343.51 386.4,346.07C389.555,347.856 393.058,348.941 396.67,349.25C403.858,349.763 410.669,352.68 416,357.53L453,377L511.25,398C511.25,398 516.25,369.25 524.75,375.5C533.25,381.75 528.5,405.53 528.5,405.53Z" style="fill:rgb(204,129,140);fill-rule:nonzero;"/>
    </g>
    <g transform="matrix(1,0,0,1,-86.32,-50.56)">
        <path d="M389.8,384.85C386.96,388.4 383.8,392.15 383,392.28C381.5,392.53 358.25,395.78 358.25,395.78L342.5,388.53L341,382L340.29,383.75L332.79,391.75L328,402L316.8,408.5L304.75,402.25L299.25,394.25L300.5,382.79C301.13,381.43 302.85,377.73 304.42,374.61C305.162,372.891 306.094,371.261 307.2,369.75C308.2,369.09 309.25,362 309.25,362C313.79,348.91 329,346.9 329,346.9L331.43,349.18L332.49,350.28C332.06,350.21 332.57,349.28 332.02,349.43C331.14,349.68 330.75,351.01 329.62,351.74C323.47,355.74 313.86,365.07 310.06,369.5C309.14,370.57 308.19,371.62 307.22,372.64C301.73,378.45 302.74,386.15 302.74,386.15C301.37,392.15 313.49,396.65 313.49,396.65C316.87,391.03 339.74,375.53 339.74,375.53L355.14,358.28C359.86,350.06 369.14,344.63 374.32,342.09C376.61,340.97 378.11,340.41 378.11,340.41L383.87,342.87C382.349,342.463 380.74,342.532 379.26,343.07C378.41,343.333 377.584,343.667 376.79,344.07C376.49,344.22 376.19,344.38 375.91,344.55C374.335,345.465 372.854,346.533 371.49,347.74L358.55,361.87C348.66,372.66 356.11,390.11 370.74,390.36L370.87,390.36C379.81,392.42 386.22,388.28 389.8,384.85Z" style="fill-opacity:0.1;fill-rule:nonzero;"/>
    </g>
    <g transform="matrix(1,0,0,1,-86.32,-50.56)">
        <path d="M364.62,702.15C364.62,702.15 362.77,707.87 360.22,715.6C350.44,716.33 334.29,712.55 328.06,710.95L329.38,704.28L364.62,702.15Z" style="fill-opacity:0.1;fill-rule:nonzero;"/>
    </g>
    <g transform="matrix(1,0,0,1,-86.32,-50.56)">
        <path d="M332.5,350.28L329.3,347C329.3,347 317.75,348.58 310.58,360.92C310.58,360.92 307.23,370.17 306.2,370.83C305.17,371.49 299.25,384.42 299.25,384.42C299.25,384.42 292.17,405.33 298.08,418.17C303.99,431.01 304.25,436.92 304.25,436.92L308.67,455.92L310.5,472.58L326.38,511.83L341,532.66C341,532.66 339.63,548.03 336.63,550.16C333.63,552.29 335,563.28 335,563.28L333.13,592.16C333.13,592.16 327.25,600.78 326.88,614.78C326.51,628.78 324.38,632.78 324.38,632.78C324.38,632.78 323.38,644.53 326.13,649.91C328.88,655.29 321.75,660.91 321.75,660.91L327.88,681.78L325.5,708.28C325.5,708.28 353.75,716.16 364.25,712.91C374.75,709.66 380.25,711.91 380.25,711.91L399,636L405.5,576.38C405.5,576.38 405.88,534.13 411.5,521.25C416.32,510.25 410,471.06 388.29,463.66C383.76,462.12 381.46,456.98 377.59,454.16C374.13,451.65 368.48,445.72 371.25,435C375.13,420 384.88,396.38 384.88,396.38L392.1,382C392.1,382 384.25,394.7 369.88,391.45L369.75,391.45C355.12,391.19 347.67,373.74 357.56,362.96L370.5,348.82C370.5,348.82 377.63,342.25 382.88,343.91L377.13,341.45C377.13,341.45 360.94,347.45 354.13,359.32L338.73,376.57C338.73,376.57 315.88,392 312.5,397.66C312.5,397.66 300.38,393.16 301.75,387.16C301.75,387.16 300.75,379.45 306.23,373.64C307.23,372.64 308.15,371.58 309.07,370.51C314,364.75 327.63,349.47 332.5,350.28Z" style="fill:rgb(86,89,135);fill-rule:nonzero;"/>
    </g>
    <g transform="matrix(1,0,0,1,-86.32,-50.56)">
        <path d="M334.38,453.28C334.38,453.28 330.75,479.66 333.5,485.03L334.38,453.28Z" style="fill-opacity:0.1;fill-rule:nonzero;"/>
    </g>
    <g transform="matrix(1,0,0,1,-86.32,-50.56)">
        <path d="M336.75,463.53L340.63,478.66C340.63,478.66 342,469.41 336.75,463.53Z" style="fill-opacity:0.1;fill-rule:nonzero;"/>
    </g>
    <g transform="matrix(1,0,0,1,-86.32,-50.56)">
        <path d="M313.75,460C313.75,460 321.5,498.5 330,510.13" style="fill-opacity:0.1;fill-rule:nonzero;"/>
    </g>
    <g transform="matrix(1,0,0,1,-86.32,-50.56)">
        <path d="M368.38,506.41C368.38,506.41 355.13,518.91 350,518C350,518 370.38,518.88 376.75,508.13C376.75,508.16 372.63,505.16 368.38,506.41Z" style="fill-opacity:0.1;fill-rule:nonzero;"/>
    </g>
    <g transform="matrix(1,0,0,1,-86.32,-50.56)">
        <path d="M386.75,505.41C386.75,505.41 369.75,517.78 366.38,518.91C366.38,518.91 384.75,513.66 386.75,505.41Z" style="fill-opacity:0.1;fill-rule:nonzero;"/>
    </g>
    <g transform="matrix(1,0,0,1,-86.32,-50.56)">
        <path d="M329.25,413.53C329.25,413.53 320.75,424.41 316.5,423.16C316.5,423.16 326.88,423.53 329.25,413.53Z" style="fill-opacity:0.1;fill-rule:nonzero;"/>
    </g>
    <g transform="matrix(1,0,0,1,-86.32,-50.56)">
        <path d="M338.88,427.53C338.88,427.53 357.38,402.41 366.13,403.41C366.13,403.41 345.13,421.66 338.88,427.53Z" style="fill-opacity:0.1;fill-rule:nonzero;"/>
    </g>
    <g transform="matrix(1,0,0,1,-86.32,-50.56)">
        <path d="M364.5,418.39C364.5,418.39 352.75,424.28 354,426C355.25,427.72 364.5,418.39 364.5,418.39Z" style="fill-opacity:0.1;fill-rule:nonzero;"/>
    </g>
    <g transform="matrix(1,0,0,1,-86.32,-50.56)">
        <path d="M373,611.28C373,611.28 333.75,634.16 330.13,635.28C330.13,635.28 336.88,640.41 343.25,637.91C349.62,635.41 373,611.28 373,611.28Z" style="fill-opacity:0.1;fill-rule:nonzero;"/>
    </g>
    <g transform="matrix(1,0,0,1,-86.32,-50.56)">
        <path d="M340.13,658.91C340.13,658.91 324.38,657.28 325,662.41C325.62,667.54 340.13,658.91 340.13,658.91Z" style="fill-opacity:0.1;fill-rule:nonzero;"/>
    </g>
    <g transform="matrix(1,0,0,1,-86.32,-50.56)">
        <path d="M359.75,303C359.75,303 359.43,309.4 359.43,319.38C351.925,325.531 341.903,327.713 332.52,325.24C331.064,319.263 329.134,313.411 326.75,307.74L359.75,303Z" style="fill-opacity:0.1;fill-rule:nonzero;"/>
    </g>
    <circle cx="253.93" cy="243.48" r="30.25" style="fill:rgb(204,129,140);"/>
    <g transform="matrix(1,0,0,1,-86.32,-50.56)">
        <path d="M348.18,312.5C349.03,324.87 351.63,339.02 362.37,345.24C370.13,349.73 379.91,348.55 388.5,345.99C397.09,343.43 405.5,339.61 414.44,339.18C421.31,338.85 428.1,340.54 434.95,340.97C441.8,341.4 449.3,340.33 454.19,335.51C461.19,328.65 459.91,316.18 453.28,308.97C446.65,301.76 436.28,299.14 426.46,299.41C414.46,299.74 401.06,303.41 391.57,296.13C385.2,291.23 382.79,282.73 377.43,276.74C368.48,266.74 328.9,252.3 320.52,268.6C316.59,276.23 334.45,281.68 338.59,287.2C345.13,295.91 347.4,301.08 348.18,312.5Z" style="fill-opacity:0.1;fill-rule:nonzero;"/>
    </g>
    <g transform="matrix(1,0,0,1,-86.32,-50.56)">
        <path d="M349.11,311.43C349.97,323.81 352.56,337.96 363.3,344.17C371.06,348.66 380.84,347.48 389.43,344.93C398.02,342.38 406.43,338.55 415.38,338.12C422.24,337.79 429.03,339.47 435.89,339.91C442.75,340.35 450.23,339.27 455.12,334.45C462.12,327.58 460.84,315.12 454.21,307.91C447.58,300.7 437.21,298.08 427.4,298.35C415.4,298.67 401.99,302.35 392.5,295.06C386.13,290.16 383.72,281.67 378.36,275.67C369.41,265.67 329.83,251.24 321.45,267.54C317.52,275.16 335.38,280.61 339.53,286.14C346.06,294.84 348.33,300 349.11,311.43Z" style="fill:rgb(102,61,91);fill-rule:nonzero;"/>
    </g>
    <g transform="matrix(1,0,0,1,-86.32,-50.56)">
        <path d="M312.73,396.64C313.668,388.66 318.005,381.461 324.62,376.9" style="fill-opacity:0.1;fill-rule:nonzero;"/>
    </g>
    <g transform="matrix(1,0,0,1,-86.32,-50.56)">
        <path d="M426.15,553.28C426.057,554.26 425.818,555.221 425.44,556.13C424.13,560.056 422.553,563.889 420.72,567.6C423.39,567.37 425.59,565.27 426.72,562.85C427.707,560.36 428.252,557.717 428.33,555.04C428.428,554.204 428.452,553.36 428.4,552.52C428.33,551.74 427.83,548.76 426.54,549.29C425.5,549.73 426.17,552.49 426.15,553.28Z" style="fill-opacity:0.1;fill-rule:nonzero;"/>
    </g>
    <g transform="matrix(1,0,0,1,-86.32,-50.56)">
        <path d="M456.92,331.32C452.02,336.14 444.54,337.22 437.68,336.78C430.82,336.34 424,334.66 417.17,335C408.17,335.43 399.83,339.25 391.23,341.81C382.63,344.37 372.86,345.55 365.09,341.06C354.36,334.84 351.76,320.69 350.91,308.32C350.13,296.9 347.85,291.73 341.32,283.02C337.37,277.75 320.97,272.55 322.85,265.47C322.307,266.108 321.837,266.806 321.45,267.55C317.52,275.17 335.38,280.62 339.53,286.15C346.06,294.85 348.33,300.03 349.11,311.44C349.97,323.82 352.56,337.97 363.3,344.18C371.06,348.67 380.84,347.49 389.43,344.94C398.02,342.39 406.43,338.56 415.38,338.13C422.24,337.8 429.03,339.48 435.89,339.92C442.75,340.36 450.23,339.28 455.12,334.46C456.509,333.082 457.613,331.444 458.37,329.64C457.931,330.236 457.446,330.798 456.92,331.32Z" style="fill-opacity:0.1;fill-rule:nonzero;"/>
    </g>
    <path d="M224.24,371.69L220.57,379.69L232.24,377.36L224.24,371.69Z" style="fill:rgb(204,129,140);fill-rule:nonzero;"/>
    <path d="M224.24,371.69L221.22,379.69L220.57,379.69L224.24,371.69Z" style="fill-opacity:0.1;fill-rule:nonzero;"/>
    <ellipse cx="513.02" cy="729.17" rx="41" ry="5.63" style="fill:rgb(255,7,82);fill-opacity:0.1;"/>
    <ellipse cx="670.07" cy="745.09" rx="41" ry="5.63" style="fill:rgb(255,7,82);fill-opacity:0.1;"/>
    <ellipse cx="855.06" cy="723.54" rx="41" ry="5.63" style="fill:rgb(255,7,82);fill-opacity:0.1;"/>
    <ellipse cx="607.21" cy="790.43" rx="29.14" ry="4" style="fill:rgb(255,7,82);fill-opacity:0.1;"/>
    <ellipse cx="770.21" cy="786.43" rx="29.14" ry="4" style="fill:rgb(255,7,82);fill-opacity:0.1;"/>
    <g transform="matrix(1,0,0,1,-86.32,-50.56)">
        <path d="M757.28,794.39C757.28,794.39 699.78,605.89 766.28,530.39C816.02,473.91 872.49,480.67 897.78,487.65C911.017,491.175 922.055,500.35 927.94,512.72C936.78,531.8 935.19,562.72 872.78,598.89C768.28,659.39 761.78,742.39 761.78,742.39L757.28,794.39Z" style="fill:rgb(255,7,82);fill-rule:nonzero;"/>
    </g>
    <g transform="matrix(1,0,0,1,-86.32,-50.56)">
        <path d="M888.78,514.39C888.78,514.39 719.28,567.39 757.28,794.39" style="fill:none;fill-rule:nonzero;stroke:rgb(86,89,135);stroke-width:1px;"/>
    </g>
    <g transform="matrix(1,0,0,1,-86.32,-50.56)">
        <path d="M789.78,533.39C789.78,533.39 813.11,549.12 805.7,572.75" style="fill:none;fill-rule:nonzero;stroke:rgb(86,89,135);stroke-width:1px;"/>
    </g>
    <g transform="matrix(1,0,0,1,-86.32,-50.56)">
        <path d="M871.78,547.39C871.78,547.39 857.51,532.87 840.14,540.88" style="fill:none;fill-rule:nonzero;stroke:rgb(86,89,135);stroke-width:1px;"/>
    </g>
    <g transform="matrix(1,0,0,1,-86.32,-50.56)">
        <path d="M804.78,620.39C804.78,620.39 779.72,607.67 773.24,623.6" style="fill:none;fill-rule:nonzero;stroke:rgb(86,89,135);stroke-width:1px;"/>
    </g>
    <g transform="matrix(1,0,0,1,-86.32,-50.56)">
        <path d="M742.78,646.89C742.78,646.89 761.59,645.39 761.93,654.39" style="fill:none;fill-rule:nonzero;stroke:rgb(86,89,135);stroke-width:1px;"/>
    </g>
    <g transform="matrix(1,0,0,1,-86.32,-50.56)">
        <path d="M755,795.89C755,795.89 822.34,658.89 840.84,661.89C849.63,663.31 853.68,671.96 855.51,680.64C857.769,691.875 856.469,703.539 851.79,714C842.24,735.91 816.57,777.54 755,795.89Z" style="fill:rgb(255,7,82);fill-rule:nonzero;"/>
    </g>
    <g transform="matrix(1,0,0,1,-86.32,-50.56)">
        <path d="M840.29,687.89C840.29,687.89 769.61,790.39 755.95,794.89" style="fill:none;fill-rule:nonzero;stroke:rgb(86,89,135);stroke-width:1px;"/>
    </g>
    <path d="M760.47,653.33L743.97,653.33" style="fill:none;fill-rule:nonzero;stroke:rgb(86,89,135);stroke-width:1px;"/>
    <path d="M740.71,690.83L714.85,691.94" style="fill:none;fill-rule:nonzero;stroke:rgb(86,89,135);stroke-width:1px;"/>
    <path d="M724.97,660.83L727.78,674.3" style="fill:none;fill-rule:nonzero;stroke:rgb(86,89,135);stroke-width:1px;"/>
    <path d="M697.47,701.83L697.97,714.07" style="fill:none;fill-rule:nonzero;stroke:rgb(86,89,135);stroke-width:1px;"/>
    <g transform="matrix(1,0,0,1,-86.32,-50.56)">
        <path d="M757,795.89C757,795.89 689.66,658.89 671.16,661.89C662.37,663.31 658.32,671.96 656.49,680.64C654.199,691.864 655.465,703.528 660.11,714C669.66,735.91 695.33,777.54 757,795.89Z" style="fill:rgb(255,7,82);fill-rule:nonzero;"/>
    </g>
    <g transform="matrix(1,0,0,1,-86.32,-50.56)">
        <path d="M671.61,687.89C671.61,687.89 742.29,790.39 755.95,794.89" style="fill:none;fill-rule:nonzero;stroke:rgb(86,89,135);stroke-width:1px;"/>
    </g>
    <path d="M578.78,653.33L595.28,653.33" style="fill:none;fill-rule:nonzero;stroke:rgb(86,89,135);stroke-width:1px;"/>
    <path d="M598.55,690.83L624.41,691.94" style="fill:none;fill-rule:nonzero;stroke:rgb(86,89,135);stroke-width:1px;"/>
    <path d="M614.28,660.83L611.48,674.3" style="fill:none;fill-rule:nonzero;stroke:rgb(86,89,135);stroke-width:1px;"/>
    <path d="M641.78,701.83L641.28,714.07" style="fill:none;fill-rule:nonzero;stroke:rgb(86,89,135);stroke-width:1px;"/>
    <g transform="matrix(1,0,0,1,-86.32,-50.56)">
        <path d="M872.58,827.88C874.418,826.389 875.758,824.372 876.42,822.1C876.91,819.8 875.93,817.05 873.74,816.21C871.28,815.27 868.65,816.97 866.66,818.69C864.67,820.41 862.38,822.38 859.77,822.01C862.494,819.538 863.722,815.806 863,812.2C862.892,811.463 862.58,810.77 862.1,810.2C860.74,808.74 858.26,809.37 856.62,810.52C851.42,814.18 849.97,821.24 849.95,827.6C849.42,825.3 849.86,822.91 849.85,820.6C849.84,818.29 849.19,815.6 847.21,814.38C845.987,813.703 844.608,813.358 843.21,813.38C840.87,813.3 838.27,813.53 836.67,815.24C834.67,817.36 835.2,820.93 836.93,823.24C838.66,825.55 841.28,827.04 843.69,828.66C845.633,829.808 847.289,831.385 848.53,833.27C848.678,833.53 848.798,833.805 848.89,834.09L863.54,834.09C866.819,832.437 869.86,830.348 872.58,827.88Z" style="fill:rgb(255,7,82);fill-rule:nonzero;"/>
    </g>
    <g transform="matrix(1,0,0,1,-86.32,-50.56)">
        <path d="M616,772.71C617.836,771.215 619.172,769.194 619.83,766.92C620.33,764.62 619.35,761.92 617.15,761.03C614.69,760.09 612.07,761.79 610.07,763.52C608.07,765.25 605.79,767.2 603.19,766.84C605.911,764.355 607.132,760.612 606.4,757C606.288,756.264 605.977,755.572 605.5,755C604.13,753.54 601.66,754.16 600.02,755.31C594.82,758.97 593.37,766.03 593.34,772.39C592.82,770.1 593.26,767.71 593.25,765.39C593.24,763.07 592.59,760.39 590.6,759.16C589.373,758.5 587.993,758.176 586.6,758.22C584.27,758.13 581.66,758.36 580.07,760.07C578.07,762.2 578.6,765.76 580.32,768.07C582.04,770.38 584.67,771.87 587.09,773.49C589.026,774.644 590.677,776.22 591.92,778.1C592.07,778.363 592.191,778.641 592.28,778.93L606.94,778.93C610.225,777.271 613.272,775.179 616,772.71Z" style="fill:rgb(255,7,82);fill-rule:nonzero;"/>
    </g>
    <g transform="matrix(1,0,0,1,-86.32,-50.56)">
        <path d="M701.49,827.88C703.328,826.389 704.668,824.372 705.33,822.1C705.82,819.8 704.84,817.05 702.65,816.21C700.19,815.27 697.56,816.97 695.57,818.69C693.58,820.41 691.29,822.38 688.68,822.01C691.407,819.54 692.64,815.808 691.92,812.2C691.812,811.463 691.5,810.77 691.02,810.2C689.66,808.74 687.18,809.37 685.54,810.52C680.34,814.18 678.89,821.24 678.87,827.6C678.34,825.3 678.78,822.91 678.77,820.6C678.76,818.29 678.11,815.6 676.13,814.38C674.907,813.703 673.528,813.358 672.13,813.38C669.79,813.3 667.19,813.53 665.59,815.24C663.59,817.36 664.12,820.93 665.85,823.24C667.58,825.55 670.2,827.04 672.61,828.66C674.553,829.808 676.209,831.385 677.45,833.27C677.598,833.53 677.718,833.805 677.81,834.09L692.46,834.09C695.736,832.436 698.773,830.347 701.49,827.88Z" style="fill:rgb(255,7,82);fill-rule:nonzero;"/>
    </g>
    <g transform="matrix(1,0,0,1,-86.32,-50.56)">
        <path d="M944,716.35C944,716.35 949.5,723.53 941.47,734.35C933.44,745.17 926.82,754.35 929.47,761.11C929.47,761.11 941.59,740.97 951.47,740.69C961.35,740.41 954.89,728.46 944,716.35Z" style="fill:rgb(255,7,82);fill-rule:nonzero;"/>
    </g>
    <g transform="matrix(1,0,0,1,-86.32,-50.56)">
        <path d="M944,716.35C944.481,717.041 944.858,717.799 945.12,718.6C954.75,729.9 959.87,740.45 950.62,740.72C942.01,740.96 931.68,756.37 929.2,760.26C929.282,760.558 929.378,760.852 929.49,761.14C929.602,761.428 941.61,741 951.49,740.72C961.37,740.44 954.89,728.46 944,716.35Z" style="fill-opacity:0.1;fill-rule:nonzero;"/>
    </g>
    <g transform="matrix(1,0,0,1,-86.32,-50.56)">
        <path d="M954.25,725.5C954.25,728.03 953.97,730.08 953.62,730.08C953.27,730.08 953,728 953,725.5C953,723 953.35,724.17 953.7,724.17C954.05,724.17 954.25,723 954.25,725.5Z" style="fill:rgb(255,208,55);fill-rule:nonzero;"/>
    </g>
    <g transform="matrix(1,0,0,1,-86.32,-50.56)">
        <path d="M957.76,728.52C955.54,729.73 953.6,730.46 953.44,730.16C953.28,729.86 954.93,728.62 957.15,727.41C959.37,726.2 958.5,727.08 958.66,727.41C958.82,727.74 960,727.31 957.76,728.52Z" style="fill:rgb(255,208,55);fill-rule:nonzero;"/>
    </g>
    <g transform="matrix(1,0,0,1,-86.32,-50.56)">
        <path d="M915,716.35C915,716.35 909.5,723.53 917.53,734.35C925.56,745.17 932.18,754.35 929.53,761.11C929.53,761.11 917.42,740.97 907.53,740.69C897.64,740.41 904.18,728.46 915,716.35Z" style="fill:rgb(255,7,82);fill-rule:nonzero;"/>
    </g>
    <g transform="matrix(1,0,0,1,-86.32,-50.56)">
        <path d="M915,716.35C914.518,717.042 914.137,717.8 913.87,718.6C904.25,729.9 899.13,740.45 908.37,740.72C916.99,740.96 927.37,756.37 929.8,760.26C929.72,760.56 929.619,760.854 929.5,761.14C929.381,761.426 917.39,741 907.5,740.72C897.61,740.44 904.18,728.46 915,716.35Z" style="fill-opacity:0.1;fill-rule:nonzero;"/>
    </g>
    <g transform="matrix(1,0,0,1,-86.32,-50.56)">
        <path d="M904.81,725.5C904.81,728.03 905.1,730.08 905.45,730.08C905.8,730.08 906.08,728.03 906.08,725.5C906.08,722.97 905.73,724.17 905.38,724.17C905.03,724.17 904.81,723 904.81,725.5Z" style="fill:rgb(255,208,55);fill-rule:nonzero;"/>
    </g>
    <g transform="matrix(1,0,0,1,-86.32,-50.56)">
        <path d="M901.31,728.52C903.53,729.73 905.46,730.46 905.63,730.16C905.8,729.86 904.14,728.62 901.92,727.41C899.7,726.2 900.57,727.08 900.4,727.41C900.23,727.74 899.09,727.31 901.31,728.52Z" style="fill:rgb(255,208,55);fill-rule:nonzero;"/>
    </g>
    <g transform="matrix(1,0,0,1,-86.32,-50.56)">
        <path d="M906.56,760.2C906.56,760.2 921.92,759.73 926.56,756.43C931.2,753.13 950.19,749.2 951.34,754.49C952.49,759.78 974.42,780.78 957.08,780.92C939.74,781.06 916.79,778.22 912.17,775.4C907.55,772.58 906.56,760.2 906.56,760.2Z" style="fill:rgb(168,168,168);fill-rule:nonzero;"/>
    </g>
    <g transform="matrix(1,0,0,1,-86.32,-50.56)">
        <path d="M957.38,779.08C940.04,779.22 917.08,776.38 912.46,773.56C908.95,771.42 907.54,763.73 907.08,760.18L906.56,760.18C906.56,760.18 907.56,772.57 912.16,775.38C916.76,778.19 939.73,781.04 957.07,780.9C962.07,780.9 963.8,779.08 963.71,776.44C963,778.05 961.1,779.05 957.38,779.08Z" style="fill-opacity:0.2;fill-rule:nonzero;"/>
    </g>
    <defs>
        <linearGradient id="_Linear1" x1="0" y1="0" x2="1" y2="0" gradientUnits="userSpaceOnUse" gradientTransform="matrix(4.19552e-14,-685.18,685.18,4.19552e-14,454.54,832.71)"><stop offset="0" style="stop-color:rgb(128,128,128);stop-opacity:0.25"/><stop offset="0.54" style="stop-color:rgb(128,128,128);stop-opacity:0.12"/><stop offset="1" style="stop-color:rgb(128,128,128);stop-opacity:0.1"/></linearGradient>
    </defs>
</svg>
