<svg width="178" height="160" viewBox="0 0 178 160" fill="none" xmlns="http://www.w3.org/2000/svg">
<path opacity="0.211021" fill-rule="evenodd" clip-rule="evenodd" d="M163.934 86.4446C171.702 86.4446 178 82.8506 178 78.4172C178 73.9838 171.702 70.3898 163.934 70.3898C156.165 70.3898 149.868 73.9838 149.868 78.4172C149.868 82.8506 156.165 86.4446 163.934 86.4446Z" fill="url(#paint0_linear)"/>
<path d="M160.195 46.8429H166.605V76.461C166.605 78.231 165.17 79.6659 163.4 79.6659V79.6659C161.63 79.6659 160.195 78.231 160.195 76.461V46.8429Z" fill="#AC6A5A"/>
<mask id="mask0" mask-type="alpha" maskUnits="userSpaceOnUse" x="160" y="46" width="7" height="34">
<path d="M160.195 46.8429H166.605V76.461C166.605 78.231 165.17 79.6659 163.4 79.6659V79.6659C161.63 79.6659 160.195 78.231 160.195 76.461V46.8429Z" fill="white"/>
</mask>
<g mask="url(#mask0)">
<path opacity="0.3" d="M162.077 56.1711C162.077 56.1711 161.563 60.2305 167.77 62.2491C173.977 64.2676 163.662 60.7184 160.195 62.2491C156.728 63.7798 160.559 63.2544 162.562 63.2544C164.565 63.2544 164.461 66.0551 162.562 66.0551C160.663 66.0551 152.689 73.9401 157.625 72.891C162.562 71.8419 166.926 61.6577 169.509 66.0551C172.091 70.4524 159.111 75.5622 159.111 78.0939C159.111 80.6256 160.916 76.159 167.339 74.3318C173.763 72.5045 172.223 85.1868 164.565 83.8887C156.907 82.5906 156.254 78.6191 158.225 77.0223C160.195 75.4256 164.371 72.6323 163.885 71.2545C163.4 69.8766 158.244 74.3318 158.244 74.3318" stroke="white" stroke-width="0.5"/>
<g style="mix-blend-mode:multiply" opacity="0.255999">
<path d="M161.36 51.0657H167.77V80.6838C167.77 82.4538 166.335 83.8887 164.565 83.8887V83.8887C162.795 83.8887 161.36 82.4538 161.36 80.6838V51.0657Z" fill="#AC6A5A"/>
</g>
</g>
<path fill-rule="evenodd" clip-rule="evenodd" d="M162.555 0.819351C169.448 0.819351 164.971 11.3624 170.317 22.9948C175.664 34.6272 182.273 56.2523 167.105 57.4783C151.937 58.7044 151.855 43.0967 152.136 25.5702C152.418 8.04365 155.662 0.819351 162.555 0.819351Z" fill="url(#paint1_linear)"/>
<mask id="mask1" mask-type="alpha" maskUnits="userSpaceOnUse" x="152" y="0" width="25" height="58">
<path fill-rule="evenodd" clip-rule="evenodd" d="M162.555 0.819351C169.448 0.819351 164.971 11.3624 170.317 22.9948C175.664 34.6272 182.273 56.2523 167.105 57.4783C151.937 58.7044 151.855 43.0967 152.136 25.5702C152.418 8.04365 155.662 0.819351 162.555 0.819351Z" fill="white"/>
</mask>
<g mask="url(#mask1)">
<g style="mix-blend-mode:multiply">
<path fill-rule="evenodd" clip-rule="evenodd" d="M167.474 4.08835C174.367 4.08835 169.891 14.6314 175.237 26.2638C180.583 37.8962 187.192 59.5213 172.025 60.7473C156.857 61.9734 156.774 46.3657 157.056 28.8392C157.337 11.3126 160.582 4.08835 167.474 4.08835Z" fill="url(#paint2_linear)"/>
</g>
</g>
<path fill-rule="evenodd" clip-rule="evenodd" d="M95.0524 61.8729C95.0524 61.8729 95.4996 61.2348 95.8257 61.4475C96.1517 61.6602 96.2613 62.2229 95.8257 62.9483C95.39 63.6736 94.9384 63.102 94.9384 63.102L95.0524 61.8729Z" fill="url(#paint3_linear)"/>
<path fill-rule="evenodd" clip-rule="evenodd" d="M64.9895 102.601L60.4618 145.059C60.4618 145.059 60.3692 146.118 58.8129 145.982C57.2567 145.845 57.4524 144.796 57.4524 144.796L59.2776 101.581L64.9895 102.601Z" fill="url(#paint4_linear)"/>
<mask id="mask2" mask-type="alpha" maskUnits="userSpaceOnUse" x="55" y="101" width="11" height="46">
<path fill-rule="evenodd" clip-rule="evenodd" d="M64.9895 102.601L60.4618 145.059C60.4618 145.059 60.3692 146.118 58.8129 145.982C57.2567 145.845 57.4524 144.796 57.4524 144.796L59.2776 101.581L64.9895 102.601Z" fill="white"/>
</mask>
<g mask="url(#mask2)">
<g style="mix-blend-mode:multiply">
<path fill-rule="evenodd" clip-rule="evenodd" d="M66.3947 103.627L61.867 146.085C61.867 146.085 61.7744 147.143 60.2181 147.007C58.6619 146.871 58.8576 145.822 58.8576 145.822L60.6827 102.607L66.3947 103.627Z" fill="url(#paint5_linear)"/>
</g>
</g>
<path fill-rule="evenodd" clip-rule="evenodd" d="M36.7538 86.4747L30.8755 128.767C30.8755 128.767 30.7094 129.816 32.2523 130.061C33.7953 130.305 33.8592 129.24 33.8592 129.24L42.5429 86.8667L36.7538 86.4747Z" fill="url(#paint6_linear)"/>
<mask id="mask3" mask-type="alpha" maskUnits="userSpaceOnUse" x="29" y="85" width="14" height="46">
<path fill-rule="evenodd" clip-rule="evenodd" d="M36.7538 86.4747L30.8755 128.767C30.8755 128.767 30.7094 129.816 32.2523 130.061C33.7953 130.305 33.8592 129.24 33.8592 129.24L42.5429 86.8667L36.7538 86.4747Z" fill="white"/>
</mask>
<g mask="url(#mask3)">
<g style="mix-blend-mode:multiply">
<path fill-rule="evenodd" clip-rule="evenodd" d="M35.1423 87.1298L29.264 129.422C29.264 129.422 29.0978 130.471 30.6408 130.716C32.1837 130.96 32.2477 129.895 32.2477 129.895L40.9314 87.5219L35.1423 87.1298Z" fill="url(#paint7_linear)"/>
</g>
</g>
<path fill-rule="evenodd" clip-rule="evenodd" d="M133.637 60.6017L138.776 102.99C138.776 102.99 138.924 104.042 137.377 104.26C135.83 104.477 135.785 103.411 135.785 103.411L127.842 60.8927L133.637 60.6017Z" fill="url(#paint8_linear)"/>
<mask id="mask4" mask-type="alpha" maskUnits="userSpaceOnUse" x="127" y="60" width="13" height="45">
<path fill-rule="evenodd" clip-rule="evenodd" d="M133.637 60.6017L138.776 102.99C138.776 102.99 138.924 104.042 137.377 104.26C135.83 104.477 135.785 103.411 135.785 103.411L127.842 60.8927L133.637 60.6017Z" fill="white"/>
</mask>
<g mask="url(#mask4)">
<g style="mix-blend-mode:multiply">
<path fill-rule="evenodd" clip-rule="evenodd" d="M135.237 61.2849L140.376 103.673C140.376 103.673 140.524 104.725 138.977 104.943C137.43 105.16 137.384 104.094 137.384 104.094L129.442 61.5758L135.237 61.2849Z" fill="url(#paint9_linear)"/>
</g>
</g>
<path fill-rule="evenodd" clip-rule="evenodd" d="M95.7213 51.329L96.5198 93.8872C96.5198 93.8872 96.5198 94.9461 98.0597 94.9461C99.5997 94.9461 99.4976 93.8872 99.4976 93.8872L101.418 50.8122L95.7213 51.329Z" fill="url(#paint10_linear)"/>
<mask id="mask5" mask-type="alpha" maskUnits="userSpaceOnUse" x="95" y="50" width="7" height="45">
<path fill-rule="evenodd" clip-rule="evenodd" d="M95.7213 51.329L96.5198 93.8872C96.5198 93.8872 96.5198 94.9461 98.0597 94.9461C99.5997 94.9461 99.4976 93.8872 99.4976 93.8872L101.418 50.8122L95.7213 51.329Z" fill="white"/>
</mask>
<g mask="url(#mask5)">
<g style="mix-blend-mode:multiply">
<path fill-rule="evenodd" clip-rule="evenodd" d="M94.2533 52.2254L95.0518 94.7836C95.0518 94.7836 95.0518 95.8425 96.5918 95.8425C98.1317 95.8425 98.0296 94.7836 98.0296 94.7836L99.9501 51.7086L94.2533 52.2254Z" fill="url(#paint11_linear)"/>
</g>
</g>
<path fill-rule="evenodd" clip-rule="evenodd" d="M63.0903 105.3C61.9253 106.007 60.4674 106.021 59.2887 105.338L31.7671 89.3777C31.001 88.9334 30.9916 87.8305 31.75 87.3733L104.767 43.3507C105.933 42.6477 107.39 42.6367 108.566 43.3219L135.796 59.1821C136.559 59.6266 136.569 60.7257 135.813 61.1838L63.0903 105.3Z" fill="#80B1FF"/>
<path fill-rule="evenodd" clip-rule="evenodd" d="M63.0903 104.124C61.9253 104.831 60.4674 104.846 59.2887 104.162L31.7671 88.2019C31.001 87.7576 30.9916 86.6547 31.75 86.1975L104.767 42.1749C105.933 41.4719 107.39 41.4609 108.566 42.1462L135.796 58.0063C136.559 58.4509 136.569 59.5499 135.813 60.008L63.0903 104.124Z" fill="white"/>
<path fill-rule="evenodd" clip-rule="evenodd" d="M63.4409 103.887C62.2774 104.591 60.8226 104.606 59.6454 103.924L32.1123 87.9925C31.345 87.5485 31.3356 86.444 32.0953 85.987L105.143 42.0419C106.307 41.3414 107.761 41.3304 108.936 42.0133L136.176 57.8455C136.941 58.2898 136.951 59.3905 136.194 59.8483L63.4409 103.887Z" fill="#DCE9FF"/>
<mask id="mask6" mask-type="alpha" maskUnits="userSpaceOnUse" x="31" y="41" width="106" height="64">
<path fill-rule="evenodd" clip-rule="evenodd" d="M63.4409 103.887C62.2774 104.591 60.8226 104.606 59.6454 103.924L32.1123 87.9925C31.345 87.5485 31.3356 86.444 32.0953 85.987L105.143 42.0419C106.307 41.3414 107.761 41.3304 108.936 42.0133L136.176 57.8455C136.941 58.2898 136.951 59.3905 136.194 59.8483L63.4409 103.887Z" fill="white"/>
</mask>
<g mask="url(#mask6)">
<g style="mix-blend-mode:multiply" opacity="0.2">
<rect width="9.22303" height="16.7882" transform="matrix(-1 0 0 1 54.579 88.2971)" fill="url(#paint12_linear)"/>
</g>
<path opacity="0.4" fill-rule="evenodd" clip-rule="evenodd" d="M38.5157 84.6017C30.6005 89.21 37.0109 96.6208 41.6469 98.4987C46.2829 100.377 53.8215 96.6208 55.3063 95.6886C56.7912 94.7564 60.8965 92.4644 68.1554 93.2114C75.4142 93.9585 92.2522 98.6518 82.3606 98.6518C72.469 98.6518 67.2782 94.5729 63.3454 96.0786C59.4126 97.5843 40.7513 96.7984 51.4078 93.1361C62.0643 89.4738 67.3049 87.9356 76.7261 90.563C86.1473 93.1903 111.979 89.265 108.219 84.9341C104.458 80.6031 82.1117 85.7916 83.771 76.923C85.4303 68.0544 134.688 66.0761 111.472 68.6093C88.2571 71.1425 83.9739 69.7755 77.4339 74.8082C70.8938 79.8409 102.141 96.9172 114.854 97.6238C129.291 98.4263 121.441 80.1386 104.849 78.5914C88.2571 77.0442 90.9515 75.4305 109.615 75.1798C116.901 75.0819 130.882 77.0057 137.59 75.4652C148.064 73.0599 148.256 66.9174 134.796 67.6333C112.717 68.8077 94.3097 69.8756 84.5121 68.965C74.7145 68.0544 63.823 65.2708 88.2571 64.7873C112.691 64.3039 125.701 64.8715 131.765 63.9662C137.829 63.061 145.905 58.1055 131.553 59.6428C117.201 61.1802 118.692 64.2915 109.12 61.9236C99.5472 59.5557 95.5572 54.671 98.21 53.7388C100.863 52.8066 104.647 57.6787 111.5 58.0891C118.352 58.4996 112.53 53.0391 113.812 47.6835C115.095 42.3279 117.169 37.1793 117.454 45.8829C117.74 54.5865 137.352 42.9949 137.352 42.9949C137.352 42.9949 138.164 43.0901 126.648 51.1514C115.131 59.2127 114.939 60.5042 108.45 59.3321C101.962 58.16 110.73 64.0062 124.279 59.1522C137.829 54.2981 145.112 52.2669 145.112 52.2669C145.112 52.2669 154.57 32.7598 126.648 40.377C98.7251 47.9942 74.8899 49.6188 86.6866 54.9817C98.4833 60.3447 104.963 61.5549 100.695 61.9236C96.428 62.2923 81.5019 60.3447 81.5019 60.3447C81.5019 60.3447 57.7827 67.6064 63.9031 71.8501C70.0236 76.0937 68.0427 81.0854 59.0195 81.2539C49.9963 81.4225 46.431 79.9933 38.5157 84.6017Z" stroke="#C5D6FF" stroke-width="0.5"/>
<g style="mix-blend-mode:multiply" opacity="0.2">
<path fill-rule="evenodd" clip-rule="evenodd" d="M100.163 44.8079V81.7444L63.6725 105.211L63.1548 65.4852L100.163 44.8079Z" fill="url(#paint13_linear)"/>
</g>
</g>
<path fill-rule="evenodd" clip-rule="evenodd" d="M115.682 44.3233H103.318V56.2962H115.859C116.196 56.2962 116.469 56.0232 116.469 55.6865L116.469 54.9104L115.682 44.3233Z" fill="#092965"/>
<path d="M116.469 54.8812C116.469 54.3402 116.03 53.9016 115.489 53.9016H103.88V55.8608H115.489C116.03 55.8608 116.469 55.4222 116.469 54.8812V54.8812Z" fill="white"/>
<mask id="mask7" mask-type="alpha" maskUnits="userSpaceOnUse" x="103" y="53" width="14" height="3">
<path d="M116.469 54.8812C116.469 54.3402 116.03 53.9016 115.489 53.9016H103.88V55.8608H115.489C116.03 55.8608 116.469 55.4222 116.469 54.8812V54.8812Z" fill="white"/>
</mask>
<g mask="url(#mask7)">
<path d="M103.694 54.8812H115.608" stroke="#D8D8D8" stroke-width="0.5" stroke-linecap="round"/>
<path d="M110.439 55.3166H115.608" stroke="#D8D8D8" stroke-width="0.5" stroke-linecap="round"/>
<path d="M103.919 55.3166H109.089" stroke="#D8D8D8" stroke-width="0.5" stroke-linecap="round"/>
</g>
<path fill-rule="evenodd" clip-rule="evenodd" d="M103.318 42.5817V54.5547H115.504C116.037 54.5547 116.469 54.9864 116.469 55.519V55.519V43.4963C116.469 42.9912 116.059 42.5817 115.554 42.5817H103.318Z" fill="#73BC48"/>
<mask id="mask8" mask-type="alpha" maskUnits="userSpaceOnUse" x="103" y="42" width="14" height="14">
<path fill-rule="evenodd" clip-rule="evenodd" d="M103.318 42.5817V54.5547H115.504C116.037 54.5547 116.469 54.9864 116.469 55.519V55.519V43.4963C116.469 42.9912 116.059 42.5817 115.554 42.5817H103.318Z" fill="white"/>
</mask>
<g mask="url(#mask8)">
<path fill-rule="evenodd" clip-rule="evenodd" d="M108.191 46.9859C108.191 47.0233 108.198 47.0569 108.214 47.0851C108.243 47.1408 108.295 47.1707 108.37 47.1743V46.7986C108.315 46.8149 108.276 46.8319 108.252 46.8501C108.212 46.881 108.191 46.9263 108.191 46.9859ZM108.433 46.3153L108.433 46.6512C108.483 46.6407 108.522 46.622 108.551 46.5955C108.581 46.5685 108.595 46.5318 108.595 46.4846C108.595 46.4457 108.583 46.4082 108.558 46.3725C108.533 46.3367 108.492 46.3178 108.433 46.3153ZM108.402 47.5873C108.823 47.5873 109.164 47.2198 109.164 46.766C109.164 46.3124 108.823 45.9444 108.402 45.9444C107.981 45.9444 107.64 46.3124 107.64 46.766C107.64 47.2196 107.981 47.5873 108.402 47.5873ZM108.645 46.6835C108.6 46.7293 108.529 46.7621 108.433 46.7819V47.1712C108.508 47.1644 108.559 47.1343 108.587 47.0805C108.602 47.0503 108.612 47.0027 108.615 46.9375H108.733C108.733 47.0194 108.72 47.0846 108.695 47.1325C108.649 47.2215 108.562 47.2707 108.433 47.2797V47.4183H108.37V47.2797C108.291 47.2702 108.229 47.2507 108.187 47.221C108.11 47.1675 108.072 47.0776 108.072 46.9508C108.072 46.8633 108.102 46.7969 108.162 46.7521C108.198 46.7252 108.268 46.696 108.371 46.6651V46.317C108.31 46.3192 108.265 46.3445 108.237 46.3927C108.222 46.4189 108.213 46.4501 108.21 46.4863H108.094C108.096 46.4053 108.121 46.3406 108.168 46.2913C108.215 46.2421 108.282 46.2141 108.37 46.2076V46.114H108.433V46.209C108.522 46.2098 108.591 46.2395 108.64 46.2976C108.69 46.3557 108.714 46.4209 108.714 46.4934C108.714 46.5743 108.691 46.6378 108.645 46.6835ZM109.708 45.6202C109.708 45.6487 109.714 45.6735 109.725 45.6946C109.746 45.7365 109.786 45.7588 109.842 45.7615V45.4796C109.801 45.4921 109.771 45.5047 109.754 45.5183C109.723 45.5417 109.708 45.5757 109.708 45.6202ZM109.89 45.1177V45.37C109.927 45.3622 109.956 45.3481 109.978 45.3281C110 45.3079 110.011 45.2804 110.011 45.2449C110.011 45.2158 110.002 45.1875 109.983 45.1608C109.964 45.1338 109.934 45.1197 109.89 45.1177ZM109.867 46.0716C110.182 46.0716 110.438 45.7958 110.438 45.4553C110.438 45.115 110.182 44.8392 109.867 44.8392C109.551 44.8392 109.295 45.115 109.295 45.4553C109.295 45.7956 109.551 46.0716 109.867 46.0716ZM110.049 45.3935C110.015 45.4278 109.962 45.4524 109.889 45.4672V45.7593C109.945 45.7542 109.984 45.7316 110.005 45.6912C110.016 45.6686 110.024 45.6328 110.026 45.5839H110.115C110.115 45.6455 110.105 45.6944 110.086 45.7304C110.052 45.7972 109.986 45.834 109.89 45.8408V45.9449H109.843V45.8408C109.783 45.8335 109.737 45.8189 109.705 45.7968C109.648 45.7566 109.619 45.6893 109.619 45.5942C109.619 45.5283 109.641 45.4786 109.686 45.4451C109.714 45.4247 109.766 45.4028 109.843 45.3797V45.1187C109.797 45.1204 109.764 45.1394 109.743 45.1754C109.731 45.195 109.725 45.2186 109.722 45.2456H109.635C109.637 45.1851 109.655 45.1364 109.69 45.0995C109.726 45.0625 109.777 45.0418 109.843 45.0367V44.9665H109.89V45.0377C109.956 45.0382 110.008 45.0605 110.045 45.1041C110.082 45.1476 110.101 45.1967 110.101 45.251C110.101 45.3118 110.083 45.3592 110.049 45.3935ZM110.258 48.3614C110.45 48.3746 110.641 48.4133 110.825 48.4777C111.014 48.2844 111.132 48.0117 111.132 47.7087C111.132 47.122 110.691 46.6466 110.147 46.6466C109.603 46.6466 109.161 47.122 109.161 47.7087C109.161 48.0027 109.272 48.2685 109.451 48.4611C109.641 48.3996 109.837 48.3653 110.035 48.358C109.967 48.3439 109.908 48.3252 109.868 48.297C109.769 48.2279 109.72 48.1117 109.72 47.9477C109.72 47.8344 109.758 47.7488 109.835 47.6909C109.883 47.6561 109.973 47.6184 110.105 47.5783V47.1283C110.026 47.1313 109.969 47.1641 109.933 47.2261C109.913 47.2601 109.902 47.3005 109.898 47.3472H109.748C109.751 47.2429 109.783 47.1589 109.844 47.0952C109.904 47.0318 109.992 46.9958 110.105 46.987V46.8659H110.187V46.9887C110.302 46.9901 110.391 47.0283 110.455 47.1033C110.518 47.1787 110.55 47.2628 110.55 47.3565C110.55 47.461 110.521 47.543 110.461 47.6024C110.402 47.6615 110.311 47.7035 110.187 47.7288V48.2325C110.284 48.2238 110.35 48.1848 110.385 48.115C110.405 48.0761 110.418 48.0146 110.423 47.9302H110.574C110.574 48.0363 110.558 48.1204 110.525 48.1824C110.475 48.2797 110.384 48.3378 110.258 48.3614ZM110.339 47.489C110.377 47.4543 110.396 47.4068 110.395 47.346C110.395 47.2954 110.38 47.2471 110.347 47.2008C110.315 47.1546 110.261 47.1301 110.186 47.1269V47.5613C110.25 47.5477 110.301 47.5236 110.339 47.489ZM109.952 47.8179C109.9 47.858 109.874 47.9161 109.874 47.9935C109.874 48.0419 109.883 48.0849 109.903 48.1219C109.94 48.1939 110.007 48.2323 110.105 48.2374V47.7515C110.033 47.7724 109.983 47.7945 109.952 47.8179Z" fill="#FBE5A9"/>
<path fill-rule="evenodd" clip-rule="evenodd" d="M106.656 49.7772C106.636 50.1126 106.647 50.3633 106.767 50.4988C107.389 51.1961 108.308 51.4478 108.487 51.4841C108.539 51.6968 108.512 51.9136 108.485 52.1211C108.485 52.1259 108.484 52.1306 108.484 52.1354H109.226C109.314 52.0194 109.387 51.8882 109.46 51.7571C109.47 51.7383 109.481 51.7195 109.491 51.7008C110.034 51.7484 110.575 51.7158 111.031 51.6044C111.048 51.7961 111.028 51.9712 111.008 52.1356H111.758C111.987 51.8168 112.07 51.3413 112.124 50.8349C112.495 50.4978 112.469 49.5795 112.191 49.1516C112.524 49.0631 112.334 48.3697 111.99 48.6226C112.201 48.5652 112.22 48.9218 112.057 48.9352C111.806 48.6533 111.484 48.4575 111.133 48.3325C111.133 48.3332 111.132 48.3342 111.131 48.3352L110.907 48.6596C110.399 48.4663 109.838 48.4641 109.327 48.654L109.155 48.3247C108.879 48.4242 108.644 48.5655 108.486 48.7428C108.31 48.5242 108.032 48.2856 107.705 48.3099C107.84 48.4298 107.871 48.6603 107.883 48.9111C107.516 49.0933 107.259 49.3929 107.08 49.7772C107.042 49.7849 106.968 49.782 106.887 49.7786C106.809 49.7755 106.725 49.7721 106.656 49.7772ZM107.608 49.6235C107.608 49.514 107.69 49.425 107.792 49.425C107.894 49.425 107.977 49.5143 107.976 49.6235C107.976 49.7332 107.894 49.8224 107.792 49.8224C107.69 49.8224 107.608 49.7336 107.608 49.6235Z" fill="white"/>
<g style="mix-blend-mode:multiply" opacity="0.228306">
<rect width="3.59684" height="17.6328" transform="matrix(-1 0 0 1 119.391 41.4933)" fill="#828EB7"/>
</g>
</g>
<path fill-rule="evenodd" clip-rule="evenodd" d="M112.55 40.7959H100.186V52.7688H112.727C113.064 52.7688 113.337 52.4958 113.337 52.1591L113.337 51.383L112.55 40.7959Z" fill="#092965"/>
<path d="M113.337 51.3538C113.337 50.8128 112.899 50.3742 112.358 50.3742H100.748V52.3334H112.358C112.899 52.3334 113.337 51.8949 113.337 51.3538V51.3538Z" fill="white"/>
<mask id="mask9" mask-type="alpha" maskUnits="userSpaceOnUse" x="100" y="50" width="14" height="3">
<path d="M113.337 51.3538C113.337 50.8128 112.899 50.3742 112.358 50.3742H100.748V52.3334H112.358C112.899 52.3334 113.337 51.8949 113.337 51.3538V51.3538Z" fill="white"/>
</mask>
<g mask="url(#mask9)">
<path d="M100.563 51.3538H112.477" stroke="#D8D8D8" stroke-width="0.5" stroke-linecap="round"/>
<path d="M107.307 51.7892H112.477" stroke="#D8D8D8" stroke-width="0.5" stroke-linecap="round"/>
<path d="M100.788 51.7892H105.957" stroke="#D8D8D8" stroke-width="0.5" stroke-linecap="round"/>
</g>
<path fill-rule="evenodd" clip-rule="evenodd" d="M100.186 39.0544V51.0273H112.373C112.905 51.0273 113.337 51.4591 113.337 51.9917V51.9917V39.9689C113.337 39.4638 112.928 39.0544 112.423 39.0544H100.186Z" fill="#80B1FF"/>
<mask id="mask10" mask-type="alpha" maskUnits="userSpaceOnUse" x="100" y="39" width="14" height="13">
<path fill-rule="evenodd" clip-rule="evenodd" d="M100.186 39.0544V51.0273H112.373C112.905 51.0273 113.337 51.4591 113.337 51.9917V51.9917V39.9689C113.337 39.4638 112.928 39.0544 112.423 39.0544H100.186Z" fill="white"/>
</mask>
<g mask="url(#mask10)">
<path d="M104.078 46.772C103.519 46.772 103.065 46.3228 103.065 45.7687C103.065 45.2145 103.519 44.7653 104.078 44.7653C104.637 44.7653 105.091 45.2145 105.091 45.7687C105.091 46.3228 104.637 46.772 104.078 46.772Z" fill="#FDB62F"/>
<rect width="0.289347" height="2.72333" transform="matrix(-1 0 0 1 106.827 41.7553)" fill="#6B962A"/>
<path d="M106.682 41.7553H106.972C107.531 41.7553 107.984 41.3061 107.984 40.752H107.695C107.136 40.752 106.682 41.2012 106.682 41.7553Z" fill="#88B337"/>
<rect width="2.0254" height="0.573329" transform="matrix(-1 0 0 1 107.984 45.052)" fill="#FFA83D"/>
<rect width="2.0254" height="0.573329" transform="matrix(-1 0 0 1 107.695 45.6253)" fill="#FDB62F"/>
<rect width="2.0254" height="0.573329" transform="matrix(-1 0 0 1 107.984 46.1987)" fill="#FFA83D"/>
<rect width="2.0254" height="0.573329" transform="matrix(-1 0 0 1 107.695 46.772)" fill="#FDB62F"/>
<rect width="2.0254" height="0.573329" transform="matrix(-1 0 0 1 107.695 47.3453)" fill="#FFA83D"/>
<rect width="2.0254" height="0.573329" transform="matrix(-1 0 0 1 107.406 47.9187)" fill="#FDB62F"/>
<rect width="2.0254" height="0.573329" transform="matrix(-1 0 0 1 107.695 48.492)" fill="#FFA83D"/>
<path d="M108.418 42.1853H108.129C107.33 42.1853 106.682 42.827 106.682 43.6187V43.6187V43.6187H106.972C107.771 43.6187 108.418 42.977 108.418 42.1853V42.1853V42.1853Z" fill="#88B337"/>
<path d="M105.38 40.752H105.67C106.229 40.752 106.682 41.2012 106.682 41.7553H106.393C105.834 41.7553 105.38 41.3061 105.38 40.752Z" fill="#6B962A"/>
<path d="M106.393 43.6187H106.682V43.6187V43.6187C106.682 42.827 106.035 42.1853 105.236 42.1853H104.946V42.1853V42.1853C104.946 42.977 105.594 43.6187 106.393 43.6187Z" fill="#6B962A"/>
<rect width="2.0254" height="0.573329" transform="matrix(-1 0 0 1 110.588 46.1987)" fill="#FDB62F"/>
<rect width="2.0254" height="0.573329" transform="matrix(-1 0 0 1 110.588 46.772)" fill="#FFA83D"/>
<rect width="2.0254" height="0.573329" transform="matrix(-1 0 0 1 110.299 47.3453)" fill="#FDB62F"/>
<rect width="2.0254" height="0.573329" transform="matrix(-1 0 0 1 110.588 47.9187)" fill="#FFA83D"/>
<rect width="2.0254" height="0.573329" transform="matrix(-1 0 0 1 110.299 48.492)" fill="#FDB62F"/>
<rect width="2.0254" height="0.573329" transform="matrix(-1 0 0 1 105.091 46.772)" fill="#FDB62F"/>
<rect width="2.0254" height="0.573329" transform="matrix(-1 0 0 1 104.802 47.3453)" fill="#FFA83D"/>
<rect width="2.0254" height="0.573329" transform="matrix(-1 0 0 1 104.802 47.9187)" fill="#FDB62F"/>
<rect width="2.0254" height="0.573329" transform="matrix(-1 0 0 1 104.802 48.492)" fill="#FFA83D"/>
<path d="M104.078 46.342C103.759 46.342 103.5 46.0853 103.5 45.7687C103.5 45.452 103.759 45.1953 104.078 45.1953C104.398 45.1953 104.657 45.452 104.657 45.7687C104.657 46.0853 104.398 46.342 104.078 46.342Z" fill="#FFA83D"/>
<path d="M104.078 46.342V46.0553C103.918 46.0553 103.789 45.9271 103.789 45.7687H103.499C103.5 46.0853 103.759 46.342 104.078 46.342Z" fill="#FD7B2F"/>
<path d="M104.368 45.7687H104.657C104.657 45.4521 104.398 45.1953 104.078 45.1953V45.482C104.238 45.482 104.368 45.6103 104.368 45.7687Z" fill="#FD7B2F"/>
<path d="M103.789 42.1853V42.1853C103.838 41.8912 104.071 41.6607 104.368 41.612V41.612C104.071 41.5633 103.838 41.3328 103.789 41.0387V41.0387C103.74 41.3328 103.507 41.5633 103.21 41.612V41.612C103.507 41.6607 103.74 41.8912 103.789 42.1853Z" fill="#FDB62F"/>
<path d="M109.576 45.3387V45.3387C109.625 45.0446 109.858 44.8141 110.154 44.7653V44.7653C109.858 44.7166 109.625 44.4861 109.576 44.192V44.192C109.527 44.4861 109.294 44.7166 108.997 44.7653V44.7653C109.294 44.8141 109.526 45.0446 109.576 45.3387Z" fill="#FDB62F"/>
<rect width="2.0254" height="0.573329" transform="matrix(-1 0 0 1 107.695 44.4787)" fill="#FDB62F"/>
<path d="M102.342 44.0487H102.776V43.6187H103.066V44.0487H103.5V44.3353H103.066V44.7653H102.776V44.3353H102.342V44.0487Z" fill="#FDB62F"/>
<rect width="8.68025" height="0.286673" transform="matrix(-1 0 0 1 111.022 48.922)" fill="white"/>
<path d="M108.129 44.0487C108.608 44.0487 108.997 43.6637 108.997 43.1887V43.0453H108.708V43.1887C108.708 43.5053 108.449 43.762 108.129 43.762V44.0487Z" fill="white"/>
<g style="mix-blend-mode:multiply" opacity="0.228306">
<rect width="3.59684" height="17.6328" transform="matrix(-1 0 0 1 116.26 37.9659)" fill="#828EB7"/>
</g>
</g>
<path fill-rule="evenodd" clip-rule="evenodd" d="M97.6588 102.16L97.4033 104.947C97.4033 104.947 99.2547 109.549 100.073 115.433C100.891 121.316 100.618 131.577 101.68 133.387C102.742 135.197 102.128 136.523 101.333 136.905C100.538 137.287 99.1447 136.502 96.6104 134.707C94.0761 132.912 91.2274 131.936 91.6501 130.862C92.0729 129.789 96.536 131.651 97.0034 130.862C97.4709 130.073 91.4292 106.546 91.6501 104.947C91.8711 103.348 92.0729 98.3742 92.0729 98.3742L97.6588 102.16Z" fill="#FFBBB0"/>
<path fill-rule="evenodd" clip-rule="evenodd" d="M95.1922 103.386L94.7526 107.054C94.7526 107.054 96.2116 114.505 96.9244 119.202C97.6372 123.899 99.1153 135.322 99.1153 135.322L97.9815 135.966L91.6004 104.24L95.1922 103.386Z" fill="#F29E98"/>
<path fill-rule="evenodd" clip-rule="evenodd" d="M101.585 132.797C101.585 132.797 100.965 132.407 100.631 132.797C100.297 133.187 98.0643 134.181 96.5474 133.793C95.0305 133.405 93.2065 132.09 93.2065 131.594C93.2065 131.098 95.3259 130.033 95.3259 130.033C95.3259 130.033 92.4551 129.368 91.3892 130.033C90.3234 130.699 91.5275 132.871 92.5605 133.332C93.5935 133.793 99.0864 137.23 99.4625 137.23C99.8386 137.23 100.631 140.258 100.631 140.258C100.631 140.258 101.052 140.445 101.435 140.258C101.435 140.258 102.247 136.44 102.247 135.026C102.247 133.612 101.585 132.797 101.585 132.797Z" fill="#181E36"/>
<path fill-rule="evenodd" clip-rule="evenodd" d="M92.8976 101.488L92.7118 105.892C92.7118 105.892 94.6333 111.858 95.4755 116.117C96.3177 120.376 97.4531 132.04 97.9298 133.106C98.4065 134.172 98.9802 136.999 97.7554 137.699C96.9755 138.144 97.6716 137.314 95.4755 137.351C94.2223 137.372 90.0212 139.098 88.7794 139.098C85.3618 139.098 85.5319 137.64 86.036 137.118C86.2981 136.846 87.3044 136.313 88.7794 135.784C90.1407 135.296 91.9699 134.828 92.3943 134.195C93.2785 132.877 93.3933 131.179 93.0526 129.271C92.7118 127.362 86.2186 107.231 85.901 105.375C85.5834 103.518 85.3379 98.3742 85.3379 98.3742L92.8976 101.488Z" fill="#FFBBB0"/>
<path fill-rule="evenodd" clip-rule="evenodd" d="M97.5035 102.27C97.5035 102.27 99.1696 107.408 99.7171 110.262C100.056 112.03 99.9861 112.666 100.165 114.382C100.165 114.382 97.0983 116.466 95.4145 115.51C94.6223 111.06 90.3479 99.6273 90.3479 99.6273L97.5035 102.27Z" fill="#092965"/>
<mask id="mask11" mask-type="alpha" maskUnits="userSpaceOnUse" x="90" y="99" width="11" height="17">
<path fill-rule="evenodd" clip-rule="evenodd" d="M97.5035 102.27C97.5035 102.27 99.1696 107.408 99.7171 110.262C100.056 112.03 99.9861 112.666 100.165 114.382C100.165 114.382 97.0983 116.466 95.4145 115.51C94.6223 111.06 90.3479 99.6273 90.3479 99.6273L97.5035 102.27Z" fill="white"/>
</mask>
<g mask="url(#mask11)">
<g style="mix-blend-mode:multiply">
<path fill-rule="evenodd" clip-rule="evenodd" d="M92.7391 96.4946C92.7391 96.4946 97.5395 99.8765 98.2262 101.566C101.453 109.502 99.9886 114.684 100.29 116.253C100.776 118.787 98.9278 119.837 96.655 116.895C95.0842 114.862 90.9204 105.618 90.9204 105.618L92.7391 96.4946Z" fill="#A9AAC4"/>
</g>
</g>
<path fill-rule="evenodd" clip-rule="evenodd" d="M122.296 133.062C121.489 133.062 120.835 132.4 120.835 131.584C120.835 130.768 121.489 130.107 122.296 130.107C123.102 130.107 123.756 130.768 123.756 131.584C123.756 132.4 123.102 133.062 122.296 133.062Z" fill="#172E56"/>
<path fill-rule="evenodd" clip-rule="evenodd" d="M110.981 130.024L103.871 128.976L103.431 129.584L109.887 132.758L110.981 130.024Z" fill="#103A86"/>
<mask id="mask12" mask-type="alpha" maskUnits="userSpaceOnUse" x="103" y="128" width="8" height="5">
<path fill-rule="evenodd" clip-rule="evenodd" d="M110.981 130.024L103.871 128.976L103.431 129.584L109.887 132.758L110.981 130.024Z" fill="white"/>
</mask>
<g mask="url(#mask12)">
<g style="mix-blend-mode:multiply">
<path fill-rule="evenodd" clip-rule="evenodd" d="M110.185 130.614L100.333 127.8L110.757 129.374L110.185 130.614Z" fill="url(#paint14_linear)"/>
</g>
</g>
<path fill-rule="evenodd" clip-rule="evenodd" d="M110.045 143.411C109.129 143.415 108.597 143.995 108.592 145.317C108.586 146.638 108.889 147.194 109.732 147.191C110.576 147.187 110.978 146.471 111.06 145.477C111.142 144.482 110.962 143.407 110.045 143.411Z" fill="#103A86"/>
<mask id="mask13" mask-type="alpha" maskUnits="userSpaceOnUse" x="107" y="142" width="5" height="6">
<path fill-rule="evenodd" clip-rule="evenodd" d="M110.045 143.411C109.129 143.415 108.597 143.995 108.592 145.317C108.586 146.638 108.889 147.194 109.732 147.191C110.576 147.187 110.978 146.471 111.06 145.477C111.142 144.482 110.962 143.407 110.045 143.411Z" fill="white"/>
</mask>
<g mask="url(#mask13)">
<path fill-rule="evenodd" clip-rule="evenodd" d="M110.921 143.605C110.18 143.344 109.655 144.056 109.586 145.1C109.517 146.144 109.457 146.952 110.194 147.28C110.931 147.608 111.695 146.646 111.7 145.614C111.704 144.582 111.662 143.866 110.921 143.605Z" fill="#083263"/>
</g>
<path fill-rule="evenodd" clip-rule="evenodd" d="M111.808 129.981L122.872 129.981L123.025 130.614L112.084 133.088L111.808 129.981Z" fill="#103A86"/>
<mask id="mask14" mask-type="alpha" maskUnits="userSpaceOnUse" x="111" y="129" width="13" height="5">
<path fill-rule="evenodd" clip-rule="evenodd" d="M111.808 129.981L122.872 129.981L123.025 130.614L112.084 133.088L111.808 129.981Z" fill="white"/>
</mask>
<g mask="url(#mask14)">
<g style="mix-blend-mode:multiply">
<path fill-rule="evenodd" clip-rule="evenodd" d="M123.025 130.107L113.132 130.272V129.584L123.025 130.107Z" fill="url(#paint15_linear)"/>
</g>
</g>
<path fill-rule="evenodd" clip-rule="evenodd" d="M111.509 131.002C110.434 131.002 109.586 130.579 109.586 129.981C109.586 129.382 110.434 128.959 111.509 128.959C112.585 128.959 113.508 129.329 113.508 129.941C113.508 130.553 112.585 131.002 111.509 131.002Z" fill="white"/>
<path fill-rule="evenodd" clip-rule="evenodd" d="M113.508 132.758L109.294 144.846L108.346 144.631L109.53 132.758L109.588 130.024C109.588 130.024 109.887 130.929 111.509 130.929C113.132 130.929 113.508 130.024 113.508 130.024L113.508 132.758Z" fill="#103A86"/>
<mask id="mask15" mask-type="alpha" maskUnits="userSpaceOnUse" x="108" y="130" width="6" height="15">
<path fill-rule="evenodd" clip-rule="evenodd" d="M113.508 132.758L109.294 144.846L108.346 144.631L109.53 132.758L109.588 130.024C109.588 130.024 109.887 130.929 111.509 130.929C113.132 130.929 113.508 130.024 113.508 130.024L113.508 132.758Z" fill="white"/>
</mask>
<g mask="url(#mask15)">
<g style="mix-blend-mode:multiply">
<path fill-rule="evenodd" clip-rule="evenodd" d="M113.508 132.758C113.508 132.758 112.81 133.599 111.198 133.319L109.286 145.099L113.508 132.758Z" fill="url(#paint16_linear)"/>
</g>
</g>
<path fill-rule="evenodd" clip-rule="evenodd" d="M113.132 117.797V129.812C113.132 129.812 112.812 130.614 111.509 130.614C110.207 130.614 109.887 129.812 109.887 129.812V117.797H113.132Z" fill="#80B1FF"/>
<path fill-rule="evenodd" clip-rule="evenodd" d="M110.367 145.782C110.277 145.782 110.205 145.562 110.205 145.29C110.205 145.018 110.277 144.797 110.367 144.797C110.457 144.797 110.529 145.018 110.529 145.29C110.529 145.562 110.457 145.782 110.367 145.782Z" fill="white"/>
<path fill-rule="evenodd" clip-rule="evenodd" d="M122.705 133.227C121.898 133.227 121.245 132.566 121.245 131.75C121.245 130.934 121.898 130.272 122.705 130.272C123.511 130.272 124.165 130.934 124.165 131.75C124.165 132.566 123.511 133.227 122.705 133.227Z" fill="#103A86"/>
<path fill-rule="evenodd" clip-rule="evenodd" d="M103.508 132.029C102.702 132.029 102.048 131.367 102.048 130.551C102.048 129.735 102.702 129.074 103.508 129.074C104.315 129.074 104.969 129.735 104.969 130.551C104.969 131.367 104.315 132.029 103.508 132.029Z" fill="#172E56"/>
<path fill-rule="evenodd" clip-rule="evenodd" d="M103.918 132.194C103.111 132.194 102.457 131.532 102.457 130.717C102.457 129.901 103.111 129.239 103.918 129.239C104.724 129.239 105.378 129.901 105.378 130.717C105.378 131.532 104.724 132.194 103.918 132.194Z" fill="#103A86"/>
<path fill-rule="evenodd" clip-rule="evenodd" d="M103.918 131.209C103.649 131.209 103.431 130.989 103.431 130.717C103.431 130.445 103.649 130.224 103.918 130.224C104.186 130.224 104.404 130.445 104.404 130.717C104.404 130.989 104.186 131.209 103.918 131.209Z" fill="white"/>
<path fill-rule="evenodd" clip-rule="evenodd" d="M122.705 132.242C122.436 132.242 122.218 132.022 122.218 131.75C122.218 131.478 122.436 131.257 122.705 131.257C122.974 131.257 123.192 131.478 123.192 131.75C123.192 132.022 122.974 132.242 122.705 132.242Z" fill="white"/>
<path fill-rule="evenodd" clip-rule="evenodd" d="M116.65 100.354L114.299 118.825C114.299 118.825 113.647 119.676 111.657 119.676C109.668 119.676 108.891 118.825 108.891 118.825L106.63 98.3742L116.65 100.354Z" fill="#092965"/>
<path fill-rule="evenodd" clip-rule="evenodd" d="M99.4928 111.376C96.4317 109.685 96.4097 105.292 99.4538 103.571L106.297 99.7001C111.519 96.7467 117.905 96.7385 123.134 99.6784L129.397 103.199C131.162 104.192 131.173 106.729 129.416 107.736L117.133 114.774C113.631 116.781 109.337 116.814 105.805 114.863L99.4928 111.376Z" fill="url(#paint17_linear)"/>
<path fill-rule="evenodd" clip-rule="evenodd" d="M99.4928 109.496C96.4317 107.805 96.4097 103.413 99.4538 101.691L106.297 97.8205C111.519 94.8672 117.905 94.8589 123.134 97.7988L129.397 101.32C131.162 102.312 131.173 104.85 129.416 105.856L117.133 112.895C113.631 114.901 109.337 114.935 105.805 112.983L99.4928 109.496Z" fill="white"/>
<path fill-rule="evenodd" clip-rule="evenodd" d="M99.4928 109.496C96.4317 107.805 96.4097 103.413 99.4538 101.691L106.297 97.8205C111.519 94.8672 117.905 94.8589 123.134 97.7988L129.397 101.32C131.162 102.312 131.173 104.85 129.416 105.856L117.133 112.895C113.631 114.901 109.337 114.935 105.805 112.983L99.4928 109.496Z" fill="#80B1FF"/>
<path fill-rule="evenodd" clip-rule="evenodd" d="M119.518 88.9763C119.518 88.9763 123.233 98.6215 120.505 100.974C119.632 101.727 119.251 102.161 118.262 102.785C116.159 104.109 113.678 105.447 109.714 105.153C103.883 104.72 93.2253 101.578 93.2253 101.578C93.2253 101.578 96.001 110.011 96.6104 116.007C95.1311 119.273 90.0393 119.739 89.4902 118.184C88.9411 116.63 84.9405 104.283 84.1674 99.0212C83.3943 93.7594 88.9197 92.4659 90.8659 92.9196C90.9013 89.9545 119.518 88.9763 119.518 88.9763Z" fill="#092965"/>
<path d="M109.762 95.2416C109.762 95.2416 107.819 100.744 101.33 100.744C94.8418 100.744 87.8429 98.6879 87.8429 98.6879L92.9922 118.572" stroke="#1C478A" stroke-width="0.5"/>
<path fill-rule="evenodd" clip-rule="evenodd" d="M119.126 87.7233C119.126 87.7233 119.504 90.3336 114.934 91.875C110.364 93.4164 104.752 92.7853 104.752 90.7905C104.752 88.7957 119.126 87.7233 119.126 87.7233Z" fill="#092965"/>
<path fill-rule="evenodd" clip-rule="evenodd" d="M116.37 67.6744C116.37 67.6744 118.729 67.8622 119.799 72.9805C120.87 78.0988 123.851 83.711 121.248 85.7019C118.644 87.6929 115.618 79.843 115.618 79.843L116.37 67.6744Z" fill="#586DFF"/>
<mask id="mask16" mask-type="alpha" maskUnits="userSpaceOnUse" x="115" y="67" width="8" height="20">
<path fill-rule="evenodd" clip-rule="evenodd" d="M116.37 67.6744C116.37 67.6744 118.729 67.8622 119.799 72.9805C120.87 78.0988 123.851 83.711 121.248 85.7019C118.644 87.6929 115.618 79.843 115.618 79.843L116.37 67.6744Z" fill="white"/>
</mask>
<g mask="url(#mask16)">
<g style="mix-blend-mode:multiply">
<path fill-rule="evenodd" clip-rule="evenodd" d="M115.734 67.0295C115.734 67.0295 118.093 67.2173 119.164 72.3356C120.234 77.4539 123.215 83.0661 120.612 85.057C118.008 87.048 114.982 79.1982 114.982 79.1982L115.734 67.0295Z" fill="#D8D8D8"/>
</g>
</g>
<path fill-rule="evenodd" clip-rule="evenodd" d="M119.068 71.0361C118.75 70.4952 118.171 67.9558 116.662 67.4707C114.768 66.8622 112.087 66.9536 110.501 67.4707C107.554 68.4316 102.777 71.2441 102.346 72.0708C101.916 72.8974 101.3 76.1739 100.942 77.9879C100.584 79.802 99.7406 84.4749 103.35 84.2226C103.35 84.2226 104.353 86.0197 104.353 87.6326C104.353 89.2456 103.991 90.1843 105.424 91.4167C106.858 92.649 112.817 92.3464 115.441 91.4167C118.065 90.487 119.506 88.6656 120.223 87.6326C120.94 86.5996 118.868 82.4295 118.868 82.4295C118.868 82.4295 119.785 72.2552 119.068 71.0361Z" fill="#586DFF"/>
<mask id="mask17" mask-type="alpha" maskUnits="userSpaceOnUse" x="100" y="67" width="21" height="26">
<path fill-rule="evenodd" clip-rule="evenodd" d="M119.068 71.0361C118.75 70.4952 118.171 67.9558 116.662 67.4707C114.768 66.8622 112.087 66.9536 110.501 67.4707C107.554 68.4316 102.777 71.2441 102.346 72.0708C101.916 72.8974 101.3 76.1739 100.942 77.9879C100.584 79.802 99.7406 84.4749 103.35 84.2226C103.35 84.2226 104.353 86.0197 104.353 87.6326C104.353 89.2456 103.991 90.1843 105.424 91.4167C106.858 92.649 112.817 92.3464 115.441 91.4167C118.065 90.487 119.506 88.6656 120.223 87.6326C120.94 86.5996 118.868 82.4295 118.868 82.4295C118.868 82.4295 119.785 72.2552 119.068 71.0361Z" fill="white"/>
</mask>
<g mask="url(#mask17)">
<g style="mix-blend-mode:multiply">
<path fill-rule="evenodd" clip-rule="evenodd" d="M103.804 73.4992C103.804 73.4992 105.431 80.6959 102.712 84.4422C99.9926 88.1885 103.804 87.8904 103.804 87.8904C103.804 87.8904 105.119 83.9805 105.304 80.5824C105.49 77.1842 103.804 73.4992 103.804 73.4992Z" fill="#D8D8D8"/>
</g>
</g>
<rect width="1.93633" height="0.650487" rx="0.325243" transform="matrix(-0.984808 -0.173648 -0.173648 0.984808 104.661 56.8218)" fill="#30334F"/>
<path fill-rule="evenodd" clip-rule="evenodd" d="M104.489 53.9648C104.489 53.9648 102.983 56.1883 103.149 57.3542C103.315 58.5201 102.81 59.6907 102.052 60.0178C101.294 60.3448 102.477 61.162 102.477 61.162C102.477 61.162 102.334 62.5377 102.601 63.7238C102.867 64.9099 102.61 65.7744 103.9 66.0018C105.19 66.2293 106.72 66.2255 106.72 66.2255C106.72 66.2255 107.483 67.637 107.021 68.3912C106.558 69.1455 105.848 68.6573 106.137 69.2261C106.426 69.795 113.007 67.2049 113.007 67.2049C112.7 66.3563 112.598 65.8022 112.648 64.9009C112.835 61.5162 114.381 53.2585 110.53 52.5794C106.679 51.9004 104.489 53.9648 104.489 53.9648Z" fill="#FFBBB0"/>
<path fill-rule="evenodd" clip-rule="evenodd" d="M104.819 70.4015C104.819 70.4015 105.689 67.7907 107.175 67.0453C108.662 66.2999 113.548 64.4282 113.928 67.3457C113.928 67.3457 111.803 67.7946 110.723 68.1569C108.767 68.8132 104.819 70.4015 104.819 70.4015Z" fill="#4A5CD8"/>
<path fill-rule="evenodd" clip-rule="evenodd" d="M105.706 57.3363C105.706 57.3363 101.177 54.5949 101.644 51.9432C102.112 49.2915 104.26 47.9487 107.451 48.9063C113.182 47.2034 116.243 50.771 116.462 56.0895C116.681 61.408 114.599 60.9178 112.648 63.9592C108.701 65.2331 105.706 57.3363 105.706 57.3363Z" fill="#30334F"/>
<path fill-rule="evenodd" clip-rule="evenodd" d="M114.498 56.659C112.454 56.2987 111.09 54.3491 111.45 52.3045C111.811 50.2599 113.76 48.8946 115.803 49.2549C117.847 49.6153 119.211 51.5649 118.851 53.6095C118.49 55.654 116.541 57.0194 114.498 56.659Z" fill="#F0F0F0"/>
<path fill-rule="evenodd" clip-rule="evenodd" d="M115.786 57.368C113.231 56.9175 111.525 54.4805 111.976 51.9248C112.427 49.3691 114.863 47.6624 117.418 48.1128C119.972 48.5633 121.678 51.0003 121.227 53.556C120.776 56.1117 118.34 57.8184 115.786 57.368Z" fill="#30334F"/>
<path fill-rule="evenodd" clip-rule="evenodd" d="M125.83 72.4539C126.25 72.0755 126.86 71.9921 127.364 72.2507L128.324 72.7441C128.831 73.0044 129.118 73.5562 129.04 74.1203L127.365 86.2716C127.229 87.262 126.696 88.1546 125.889 88.745L111.221 99.4765C110.668 99.8809 109.924 99.9084 109.343 99.546L107.888 98.6386C107.495 98.3936 107.257 97.9634 107.257 97.5004V85.3555C107.257 83.8433 108.177 82.4856 109.577 81.9131C112.469 80.7301 117.271 78.7151 119.222 77.5979C121.404 76.349 124.47 73.6767 125.83 72.4539Z" fill="#80B1FF"/>
<path fill-rule="evenodd" clip-rule="evenodd" d="M127.546 73.0551C127.986 72.6355 128.748 72.9482 128.748 73.5564V87.4132C128.748 88.0427 128.588 88.6629 128.226 89.1779C127.346 90.4295 125.337 92.8873 122.085 94.7022C118.801 96.5345 113.361 98.4579 110.593 99.3846C109.735 99.6719 108.86 99.0303 108.86 98.1255V85.9968C108.86 84.4416 109.834 83.054 111.284 82.4914C113.504 81.6299 116.867 80.2631 119.7 78.8501C122.894 77.2569 125.932 74.5937 127.546 73.0551Z" fill="white"/>
<path fill-rule="evenodd" clip-rule="evenodd" d="M127.867 73.3782C128.307 72.9586 129.068 73.2714 129.068 73.8796V87.7364C129.068 88.3659 128.909 88.9861 128.547 89.501C127.667 90.7527 125.658 93.2104 122.406 95.0253C119.122 96.8577 113.682 98.781 110.914 99.7077C110.056 99.995 109.181 99.3535 109.181 98.4486V86.3199C109.181 84.7647 110.155 83.3771 111.604 82.8146C113.825 81.9531 117.188 80.5862 120.021 79.1732C123.215 77.58 126.253 74.9168 127.867 73.3782Z" fill="url(#paint18_linear)"/>
<path fill-rule="evenodd" clip-rule="evenodd" d="M120.868 84.956C119.995 85.398 119.445 86.293 119.445 87.271V113.094L119.723 113.265C120.132 113.517 120.656 113.479 121.025 113.171L124.636 110.158V87.271C124.636 85.3357 122.594 84.0813 120.868 84.956V84.956Z" fill="#80B1FF"/>
<path fill-rule="evenodd" clip-rule="evenodd" d="M121.83 85.6023C120.958 86.0443 120.408 86.9393 120.408 87.9172V113.032C120.408 113.355 120.024 113.523 119.786 113.305V113.305V113.305C120.166 113.571 120.665 113.595 121.068 113.367L125.265 110.993C125.471 110.877 125.598 110.658 125.598 110.422V87.9172C125.598 85.982 123.556 84.7276 121.83 85.6023V85.6023Z" fill="#092965"/>
<path fill-rule="evenodd" clip-rule="evenodd" d="M88.7131 74.4253L86.1861 68.1167L82.4534 65.0559C82.4534 65.0559 82.1852 70.2009 83.0239 72.0601C83.8627 73.9194 86.4182 76.5093 86.4182 76.5093C86.4182 76.5093 94.7316 94.9007 99.1153 89.9506C99.9039 89.0602 101.976 87.0099 101.888 86.4702C101.599 84.706 97.3968 84.9519 97.5469 84.8156C97.9438 84.4551 88.7131 74.4253 88.7131 74.4253Z" fill="#FFBBB0"/>
<path fill-rule="evenodd" clip-rule="evenodd" d="M102.89 71.5272C102.89 71.5272 100.123 73.1345 98.5721 78.6131C97.0214 84.0918 96.0718 83.9641 96.0718 83.9641C96.0718 83.9641 98.2068 88.3796 102.105 86.9178C103.714 83.8567 105.065 79.9729 105.065 77.652C105.065 74.0583 102.89 71.5272 102.89 71.5272Z" fill="#586DFF"/>
<path fill-rule="evenodd" clip-rule="evenodd" d="M88.4371 72.8155L95.8102 66.3979L95.3579 64.752L86.5904 54.948L80.9055 60.653L70.2645 60.8932L69.9513 63.2034L78.3063 76.1325L88.4371 72.8155Z" fill="#D24747"/>
<path fill-rule="evenodd" clip-rule="evenodd" d="M87.8201 70.9684L95.3579 64.752L86.9035 52.6378L80.0093 58.6875L70.2645 60.8932L78.6194 73.8223L87.8201 70.9684Z" fill="#F0F0F0"/>
<path fill-rule="evenodd" clip-rule="evenodd" d="M87.8429 71.0016L80.0093 58.6875C80.0093 58.6875 74.5031 59.1179 70.0725 57.1309L79.5131 71.4336C79.5131 71.4336 81.9567 71.8719 84.1041 71.7469C86.2514 71.6218 87.8429 71.0016 87.8429 71.0016Z" fill="white"/>
<path fill-rule="evenodd" clip-rule="evenodd" d="M84.6104 74.4253C84.6104 74.4253 83.464 71.8787 83.7376 70.2452C84.0111 68.6116 84.2933 67.2906 84.9492 68.301C85.6051 69.3114 85.0355 70.9401 85.3203 71.1869C85.6051 71.4336 87.3491 72.5611 86.9524 73.9194C86.5557 75.2777 84.6104 74.4253 84.6104 74.4253Z" fill="#FFBBB0"/>
<path d="M81.8674 59.1508L86.5557 54.9163" stroke="#1C478A" stroke-width="0.5"/>
<path d="M83.1199 59.7773L87.182 56.1694" stroke="#1C478A" stroke-width="0.5"/>
<path d="M86.8774 66.0426L90.9395 62.4346" stroke="#1C478A" stroke-width="0.5"/>
<path d="M87.182 58.5242L88.4345 57.4224" stroke="#1C478A" stroke-width="0.5"/>
<path d="M84.677 61.0303L85.9295 59.9285" stroke="#1C478A" stroke-width="0.5"/>
<path fill-rule="evenodd" clip-rule="evenodd" d="M98.0402 133.665C97.7797 133.354 97.5875 133.354 96.8573 133.964C95.9907 134.687 92.7089 135.934 91.2873 136.294C90.3777 136.525 88.0904 136.64 88.1642 136.294C88.242 135.93 88.648 135.899 88.7459 135.781C88.9366 135.549 85.3127 137.25 84.5042 137.881C83.6957 138.513 83.6957 139.638 87.8648 140.512C88.2894 140.601 90.6059 140.333 91.3984 140.027C93.1762 139.34 93.9582 138.12 95.8585 137.881L96.6874 141.467C96.6874 141.467 97.3015 141.793 97.7797 141.347C97.7797 141.347 98.8022 136.219 98.8022 135.352C98.8022 134.486 98.1765 133.829 98.0402 133.665Z" fill="#181E36"/>
<path fill-rule="evenodd" clip-rule="evenodd" d="M34.496 112.781L34.6913 117.204C34.6913 117.204 32.6727 123.197 31.788 127.476C30.9033 131.754 29.7105 143.469 29.2098 144.541C28.709 145.612 27.6495 147.867 28.9362 148.57C29.7554 149.018 30.711 148.534 33.018 148.57C34.3345 148.591 37.5178 150.56 38.8222 150.56C42.4124 150.56 42.2337 149.095 41.7042 148.57C41.4288 148.297 40.3717 147.762 38.8222 147.23C37.3922 146.74 35.7072 145.176 35.2614 144.541C34.3325 143.216 33.9754 142.605 34.3333 140.688C34.6913 138.771 41.5124 118.55 41.846 116.685C42.1796 114.82 42.4375 109.653 42.4375 109.653L34.496 112.781Z" fill="#FFBBB0"/>
<path fill-rule="evenodd" clip-rule="evenodd" d="M17.4603 139.207C17.4603 139.207 17.3188 140.155 17.3188 140.639C17.3188 141.123 18.1687 141.905 19.8548 141.775C21.541 141.644 22.9871 140.08 23.133 139.913C23.2789 139.746 22.982 138.437 23.987 138.096C24.9921 137.754 25.1817 138.455 26.8226 137.403C28.4634 136.352 28.3906 133.592 27.4523 132.942C26.5141 132.292 17.4603 139.207 17.4603 139.207Z" fill="#30334F"/>
<path fill-rule="evenodd" clip-rule="evenodd" d="M18.083 134.126C17.7538 134.738 17.4923 134.964 17.3188 139.179C17.3188 139.179 17.6966 140.927 20.0089 140.639C22.3212 140.351 21.8657 139.266 25.3123 137.524C28.759 135.782 28.5417 133.448 27.637 132.886C26.7323 132.323 25.5987 131.984 22.7034 132.776C20.7991 133.297 18.4122 133.513 18.083 134.126Z" fill="#181E36"/>
<path fill-rule="evenodd" clip-rule="evenodd" d="M18.8504 130.874L18.5287 134.252C18.5287 134.252 19.3205 133.847 19.6103 134.641C19.9002 135.434 21.7935 135.679 23.4847 134.641C23.1906 133.16 23.517 130.107 23.517 130.107L18.8504 130.874Z" fill="#FFBBB0"/>
<path fill-rule="evenodd" clip-rule="evenodd" d="M17.833 130.421C17.833 130.421 20.4168 132.885 25.4824 130.944L29.8383 108.442L19.1567 108.211L17.833 130.421Z" fill="#092965"/>
<g style="mix-blend-mode:multiply">
<path fill-rule="evenodd" clip-rule="evenodd" d="M17.833 130.421C17.833 130.421 20.4168 132.885 25.4824 130.944L29.8383 108.442L19.1567 108.211L17.833 130.421Z" fill="#A9AAC4"/>
</g>
<path fill-rule="evenodd" clip-rule="evenodd" d="M28.2744 149.023C28.2744 149.023 27.9942 149.74 27.9942 150.559C27.9942 151.379 29.6553 151.819 31.6554 151.819C33.6556 151.819 32.8779 151.019 34.2264 150.789C35.5749 150.559 35.4021 151.362 37.3705 151.362C39.3389 151.362 42.04 150.984 42.4275 149.023C42.815 147.062 28.2744 149.023 28.2744 149.023Z" fill="#30334F"/>
<path fill-rule="evenodd" clip-rule="evenodd" d="M35.2159 143.432C35.7705 143.756 36.1715 144.777 38.8962 145.424C41.6208 146.072 43.3006 147.028 43.0352 148.168C42.7699 149.308 41.3128 150.656 38.0795 150.357C34.8462 150.059 34.1768 150.346 32.5303 150.493C30.8837 150.641 28.9468 150.644 28.1398 149.406C28.1398 149.406 27.8487 147.942 28.1398 145.748C28.4308 143.554 28.3661 143.335 28.9286 142.645C29.1459 142.379 29.6909 142.735 29.6909 143.061C29.6909 143.483 30.6831 143.777 31.9119 143.777C32.8042 143.777 33.71 143.662 34.6294 143.432C34.4424 143.188 34.3642 142.999 34.3882 142.901C34.4263 142.746 34.6889 142.991 35.2159 143.432Z" fill="#181E36"/>
<path fill-rule="evenodd" clip-rule="evenodd" d="M21.5926 71.0953C21.5926 71.0953 21.1144 70.4805 20.7656 70.6855C20.4169 70.8904 20.2997 71.4326 20.7656 72.1314C21.2316 72.8302 21.7145 72.2795 21.7145 72.2795L21.5926 71.0953Z" fill="url(#paint19_linear)"/>
<path fill-rule="evenodd" clip-rule="evenodd" d="M12.2885 123.498L11.4187 158.909C11.4187 158.909 12.5689 160.21 13.5841 159.061L16.0471 123.762L12.2885 123.498Z" fill="#092965"/>
<path fill-rule="evenodd" clip-rule="evenodd" d="M24.194 120.348L29.9925 154.542C29.9925 154.542 31.3661 155.573 32.147 154.277L27.9337 119.888L24.194 120.348Z" fill="#092965"/>
<path fill-rule="evenodd" clip-rule="evenodd" d="M4.93111 113.156L2.21332 148.473C2.21332 148.473 3.29404 149.832 4.36783 148.738L8.67085 113.617L4.93111 113.156Z" fill="#092965"/>
<path fill-rule="evenodd" clip-rule="evenodd" d="M16.0486 108.394L17.0421 143.064C17.0421 143.064 18.2591 144.277 19.2125 143.102L19.8158 108.46L16.0486 108.394Z" fill="#092965"/>
<path fill-rule="evenodd" clip-rule="evenodd" d="M16.3768 124.757C23.8334 124.757 29.8781 121.94 29.8781 118.464C29.8781 114.988 23.8334 112.17 16.3768 112.17C8.92022 112.17 2.87547 114.988 2.87547 118.464C2.87547 121.94 8.92022 124.757 16.3768 124.757Z" fill="url(#paint20_linear)"/>
<path fill-rule="evenodd" clip-rule="evenodd" d="M16.3768 123.162C23.8334 123.162 29.8781 120.345 29.8781 116.869C29.8781 113.393 23.8334 110.576 16.3768 110.576C8.92022 110.576 2.87547 113.393 2.87547 116.869C2.87547 120.345 8.92022 123.162 16.3768 123.162Z" fill="white"/>
<path fill-rule="evenodd" clip-rule="evenodd" d="M16.3768 122.869C23.8334 122.869 29.8781 120.052 29.8781 116.576C29.8781 113.1 23.8334 110.282 16.3768 110.282C8.92022 110.282 2.87547 113.1 2.87547 116.576C2.87547 120.052 8.92022 122.869 16.3768 122.869Z" fill="#80B1FF"/>
<path fill-rule="evenodd" clip-rule="evenodd" d="M8.16358 100.213C8.16358 100.213 4.43775 109.901 7.17378 112.264C8.04951 113.021 8.43098 113.457 9.42332 114.083C11.5314 115.413 14.0197 116.758 17.9949 116.462C23.8413 116.027 32.39 114.058 32.39 114.058C32.39 114.058 31.2658 119.137 30.6547 125.16C30.0436 131.183 28.378 139.402 28.378 139.402C28.378 139.402 34.2848 141.575 36.3152 139.897C36.3152 139.897 38.8488 131.359 39.3994 129.797C39.95 128.236 43.9616 115.834 44.7368 110.548C45.5121 105.263 38.8459 103.718 36.8944 104.174C36.8589 101.196 8.16358 100.213 8.16358 100.213Z" fill="#092965"/>
<path d="M17.9467 106.506C17.9467 106.506 19.895 112.033 26.4012 112.033C32.9075 112.033 39.9257 109.968 39.9257 109.968L32.0349 140.491" stroke="#1C478A" stroke-width="0.5"/>
<path fill-rule="evenodd" clip-rule="evenodd" d="M8.55605 98.9544C8.55605 98.9544 8.17768 101.576 12.7603 103.125C17.3428 104.673 22.9705 104.039 22.9705 102.035C22.9705 100.032 8.55605 98.9544 8.55605 98.9544Z" fill="#092965"/>
<path fill-rule="evenodd" clip-rule="evenodd" d="M5.52596 93.2903C5.52596 93.2903 3.93799 99.5592 8.9762 99.0728C14.0144 98.5865 22.2978 90.8547 22.2978 90.8547L17.3188 90.5389L5.52596 93.2903Z" fill="#FFBBB0"/>
<path fill-rule="evenodd" clip-rule="evenodd" d="M10.692 78.8446C10.692 78.8446 8.32646 79.0127 7.25325 83.5955C6.18004 88.1784 5.50618 91.2709 5.04933 93.441C13.8702 96.9232 11.4464 89.7402 11.4464 89.7402L10.692 78.8446Z" fill="url(#paint21_linear)"/>
<mask id="mask18" mask-type="alpha" maskUnits="userSpaceOnUse" x="5" y="78" width="7" height="17">
<path fill-rule="evenodd" clip-rule="evenodd" d="M10.692 78.8446C10.692 78.8446 8.32646 79.0127 7.25325 83.5955C6.18004 88.1784 5.50618 91.2709 5.04933 93.441C13.8702 96.9232 11.4464 89.7402 11.4464 89.7402L10.692 78.8446Z" fill="white"/>
</mask>
<g mask="url(#mask18)">
<g style="mix-blend-mode:multiply">
<path fill-rule="evenodd" clip-rule="evenodd" d="M11.948 78.1863C11.948 78.1863 9.5824 78.3749 8.50919 83.5161C7.43598 88.6573 4.44616 94.2947 7.05712 96.2946C9.66807 98.2945 12.7024 90.4095 12.7024 90.4095L11.948 78.1863Z" fill="#D8D8D8"/>
</g>
</g>
<path fill-rule="evenodd" clip-rule="evenodd" d="M7.54406 82.6712C7.90702 82.063 8.5671 79.2072 10.2898 78.6617C12.4504 77.9774 15.5093 78.0802 17.3188 78.6617C20.6818 79.7423 26.1327 82.9051 26.6235 83.8347C27.1143 84.7643 27.8177 88.4489 28.2258 90.4889C28.6339 92.5289 29.5967 97.7838 25.4786 97.5001C25.4786 97.5001 24.3345 99.521 24.3345 101.335C24.3345 103.149 24.7472 104.204 23.1115 105.59C21.4757 106.976 14.6768 106.636 11.6825 105.59C8.68827 104.545 7.04389 102.496 6.22567 101.335C5.40746 100.173 7.77178 95.4837 7.77178 95.4837C7.77178 95.4837 6.72584 84.0422 7.54406 82.6712Z" fill="url(#paint22_linear)"/>
<mask id="mask19" mask-type="alpha" maskUnits="userSpaceOnUse" x="6" y="78" width="23" height="29">
<path fill-rule="evenodd" clip-rule="evenodd" d="M7.54406 82.6712C7.90702 82.063 8.5671 79.2072 10.2898 78.6617C12.4504 77.9774 15.5093 78.0802 17.3188 78.6617C20.6818 79.7423 26.1327 82.9051 26.6235 83.8347C27.1143 84.7643 27.8177 88.4489 28.2258 90.4889C28.6339 92.5289 29.5967 97.7838 25.4786 97.5001C25.4786 97.5001 24.3345 99.521 24.3345 101.335C24.3345 103.149 24.7472 104.204 23.1115 105.59C21.4757 106.976 14.6768 106.636 11.6825 105.59C8.68827 104.545 7.04389 102.496 6.22567 101.335C5.40746 100.173 7.77178 95.4837 7.77178 95.4837C7.77178 95.4837 6.72584 84.0422 7.54406 82.6712Z" fill="white"/>
</mask>
<g mask="url(#mask19)">
<g style="mix-blend-mode:multiply">
<path fill-rule="evenodd" clip-rule="evenodd" d="M24.7545 85.109C24.7545 85.109 22.8429 93.2791 26.0364 97.5321C29.2299 101.785 24.7545 101.447 24.7545 101.447C24.7545 101.447 23.2101 97.008 22.9921 93.1502C22.7741 89.2924 24.7545 85.109 24.7545 85.109Z" fill="#D8D8D8"/>
</g>
</g>
<rect x="25.0507" y="68.2786" width="1.94165" height="0.653405" rx="0.326702" transform="rotate(-2 25.0507 68.2786)" fill="#30334F"/>
<path fill-rule="evenodd" clip-rule="evenodd" d="M25.6199 65.4607C25.6199 65.4607 26.806 67.8832 26.4785 69.0197C26.151 70.1562 26.4886 71.3912 27.1955 71.8225C27.9025 72.2538 26.614 72.9012 26.614 72.9012C26.614 72.9012 26.564 74.2897 26.1341 75.4322C25.7042 76.5747 25.8384 77.4706 24.5258 77.5164C23.2131 77.5622 21.6948 77.3445 21.6948 77.3445C21.6948 77.3445 21.3415 78.9376 21.6959 79.7526C22.0503 80.5676 22.3414 80.547 21.9753 81.0725C21.6092 81.5979 15.5646 78.253 15.5646 78.253C15.8371 77.7139 16.197 77.0723 16.1748 76.4342C16.0662 73.3262 15.8958 63.3747 19.8146 63.2379C23.7334 63.101 25.6199 65.4607 25.6199 65.4607Z" fill="#FFBBB0"/>
<path fill-rule="evenodd" clip-rule="evenodd" d="M15.9592 75.9647L19.236 76.7546C19.236 76.7546 21.625 73.2981 21.7629 72.3145C21.9007 71.3309 20.1987 70.0099 21.7789 69.2396C23.359 68.4693 22.8951 70.9815 23.0165 70.9922C23.138 71.0028 23.6016 70.9088 23.8082 68.5402C24.0148 66.1716 26.1379 66.2376 26.449 65.5989C26.76 64.9602 27.1397 64.3224 26.5432 63.1046C25.9466 61.8867 23.8367 61.5894 23.8367 61.5894C23.8367 61.5894 20.9879 58.8893 18.0517 61.0817C15.1156 63.2741 12.9661 63.9817 13.3896 67.8446C13.8132 71.7074 15.9592 75.9647 15.9592 75.9647Z" fill="#30334F"/>
<path fill-rule="evenodd" clip-rule="evenodd" d="M45.9157 90.4254C46.4668 89.9484 47.5615 88.3227 48.7462 89.2326C50.2557 88.6141 51.9099 88.1223 52.6544 87.9986C53.9234 87.7877 55.2335 88.1128 55.8717 88.0364C56.5099 87.9599 55.9649 89.1073 55.1263 89.0661C54.2877 89.0249 52.8293 89.0706 52.433 89.2567C52.0366 89.4428 51.2907 89.9041 51.2907 89.9041C51.2907 89.9041 52.9467 89.7601 53.4195 89.9849C53.8924 90.2097 54.2304 91.5104 54.6527 91.9558C55.0749 92.4011 54.2346 92.7475 53.932 92.3996C53.932 92.3996 53.9856 92.9193 54.0204 93.1532C54.0652 93.4543 54.188 93.7975 54.0786 93.8657C53.7871 94.0477 53.0997 93.8804 53.0315 93.1157C53.0315 93.1157 52.8084 93.4835 52.6544 93.948C52.5003 94.4125 51.9167 94.0255 51.9167 93.5706C51.9167 93.1157 52.0366 92.7727 52.0366 92.7727C52.0366 92.7727 49.7409 94.4804 48.7231 94.7724C47.7053 95.0643 46.1446 94.525 46.1446 94.525C46.1446 94.525 43.0426 96.437 37.6491 99.1523C32.2557 101.867 28.2012 104.809 27.0141 98.8894C26.3842 95.7484 29.167 97.6974 28.9362 97.3286C28.5045 96.6385 43.3795 92.4678 43.3795 92.4678C43.3795 92.4678 44.5824 91.5796 45.9157 90.4254Z" fill="#FFBBB0"/>
<mask id="mask20" mask-type="alpha" maskUnits="userSpaceOnUse" x="25" y="81" width="34" height="27">
<path fill-rule="evenodd" clip-rule="evenodd" d="M45.9157 90.4254C46.4668 89.9484 47.5615 88.3227 48.7462 89.2326C50.2557 88.6141 51.9099 88.1223 52.6544 87.9986C53.9234 87.7877 55.2335 88.1128 55.8717 88.0364C56.5099 87.9599 55.9649 89.1073 55.1263 89.0661C54.2877 89.0249 52.8293 89.0706 52.433 89.2567C52.0366 89.4428 51.2907 89.9041 51.2907 89.9041C51.2907 89.9041 52.9467 89.7601 53.4195 89.9849C53.8924 90.2097 54.2304 91.5104 54.6527 91.9558C55.0749 92.4011 54.2346 92.7475 53.932 92.3996C53.932 92.3996 53.9856 92.9193 54.0204 93.1532C54.0652 93.4543 54.188 93.7975 54.0786 93.8657C53.7871 94.0477 53.0997 93.8804 53.0315 93.1157C53.0315 93.1157 52.8084 93.4835 52.6544 93.948C52.5003 94.4125 51.9167 94.0255 51.9167 93.5706C51.9167 93.1157 52.0366 92.7727 52.0366 92.7727C52.0366 92.7727 49.7409 94.4804 48.7231 94.7724C47.7053 95.0643 46.1446 94.525 46.1446 94.525C46.1446 94.525 43.0426 96.437 37.6491 99.1523C32.2557 101.867 28.2012 104.809 27.0141 98.8894C26.3842 95.7484 29.167 97.6974 28.9362 97.3286C28.5045 96.6385 43.3795 92.4678 43.3795 92.4678C43.3795 92.4678 44.5824 91.5796 45.9157 90.4254Z" fill="white"/>
</mask>
<g mask="url(#mask20)">
<path fill-rule="evenodd" clip-rule="evenodd" d="M53.932 92.3996C53.932 92.3996 53.7013 90.4878 52.872 90.3987C52.0427 90.3096 51.5757 90.283 51.5757 90.283C51.5757 90.283 53.0138 89.8704 53.4138 90.283C53.5928 90.4676 54.3814 91.9038 54.4757 92.4761C54.1292 92.6248 53.932 92.3996 53.932 92.3996Z" fill="#F29E98"/>
<path fill-rule="evenodd" clip-rule="evenodd" d="M53.0257 93.1011C53.0257 93.1011 53.5234 91.6835 53.1986 91.306C52.8739 90.9285 51.6654 90.8985 51.6654 90.8985C51.6654 90.8985 52.6202 90.4895 53.1986 91.0063C53.5067 91.2814 53.4808 92.0387 53.4773 93.1011C53.4764 93.3687 53.6232 93.8903 53.6232 93.8903C53.6232 93.8903 53.3551 93.8225 53.1986 93.5555C53.0421 93.2885 53.0257 93.1011 53.0257 93.1011Z" fill="#F29E98"/>
<path fill-rule="evenodd" clip-rule="evenodd" d="M48.7462 89.2326L47.6105 89.6177L48.548 88.5406L48.7462 89.2326Z" fill="#F29E98"/>
</g>
<path fill-rule="evenodd" clip-rule="evenodd" d="M23.135 81.6488C23.135 81.6488 22.1149 79.1877 20.6243 78.439C19.1337 77.6904 14.4943 75.7317 14.1136 78.6623L23.135 81.6488Z" fill="#D24747"/>
<path fill-rule="evenodd" clip-rule="evenodd" d="M24.8544 82.6366C24.8544 82.6366 26.6314 83.3422 27.3663 84.5952C28.0562 85.7715 29.0619 88.3002 29.5639 90.0767C31.1188 95.58 31.8998 96.6439 31.8998 96.6439C31.8998 96.6439 29.4886 100.539 25.9444 98.1883C24.3195 94.5903 22.9705 89.8239 22.9705 88.1876C22.9705 85.7744 24.8544 82.6366 24.8544 82.6366Z" fill="url(#paint23_linear)"/>
<defs>
<linearGradient id="paint0_linear" x1="171.916" y1="68.7458" x2="162.087" y2="82.4249" gradientUnits="userSpaceOnUse">
<stop stop-color="#364D83" stop-opacity="0.602491"/>
<stop offset="1" stop-color="#B2C4FF"/>
</linearGradient>
<linearGradient id="paint1_linear" x1="152.076" y1="0.819351" x2="152.076" y2="57.5461" gradientUnits="userSpaceOnUse">
<stop stop-color="#80E9FF"/>
<stop offset="1" stop-color="#1F9BB1"/>
</linearGradient>
<linearGradient id="paint2_linear" x1="153.454" y1="19.3837" x2="196.432" y2="63.5878" gradientUnits="userSpaceOnUse">
<stop stop-color="white"/>
<stop offset="1" stop-color="#E6EDFF"/>
</linearGradient>
<linearGradient id="paint3_linear" x1="95.1811" y1="61.6876" x2="96.1484" y2="61.5954" gradientUnits="userSpaceOnUse">
<stop stop-color="#F8A29B"/>
<stop offset="1" stop-color="#C47770"/>
</linearGradient>
<linearGradient id="paint4_linear" x1="57.5722" y1="157.392" x2="48.987" y2="155.719" gradientUnits="userSpaceOnUse">
<stop stop-color="#215EA2"/>
<stop offset="1" stop-color="#7E9EEF"/>
</linearGradient>
<linearGradient id="paint5_linear" x1="58.9774" y1="158.418" x2="50.3922" y2="156.744" gradientUnits="userSpaceOnUse">
<stop stop-color="#CED0FF"/>
<stop offset="1" stop-color="white"/>
</linearGradient>
<linearGradient id="paint6_linear" x1="30.6958" y1="141.432" x2="39.4307" y2="141.886" gradientUnits="userSpaceOnUse">
<stop stop-color="#215EA2"/>
<stop offset="1" stop-color="#7E9EEF"/>
</linearGradient>
<linearGradient id="paint7_linear" x1="29.0842" y1="142.087" x2="37.8192" y2="142.541" gradientUnits="userSpaceOnUse">
<stop stop-color="#CED0FF"/>
<stop offset="1" stop-color="white"/>
</linearGradient>
<linearGradient id="paint8_linear" x1="138.735" y1="115.657" x2="129.993" y2="115.958" gradientUnits="userSpaceOnUse">
<stop stop-color="#215EA2"/>
<stop offset="1" stop-color="#7E9EEF"/>
</linearGradient>
<linearGradient id="paint9_linear" x1="140.335" y1="116.34" x2="131.593" y2="116.641" gradientUnits="userSpaceOnUse">
<stop stop-color="#CED0FF"/>
<stop offset="1" stop-color="white"/>
</linearGradient>
<linearGradient id="paint10_linear" x1="98.2978" y1="106.386" x2="106.874" y2="105.49" gradientUnits="userSpaceOnUse">
<stop stop-color="#215EA2"/>
<stop offset="1" stop-color="#7E9EEF"/>
</linearGradient>
<linearGradient id="paint11_linear" x1="96.8299" y1="107.282" x2="105.406" y2="106.386" gradientUnits="userSpaceOnUse">
<stop stop-color="#CED0FF"/>
<stop offset="1" stop-color="white"/>
</linearGradient>
<linearGradient id="paint12_linear" x1="4.1714" y1="21.1397" x2="15.8924" y2="15.9299" gradientUnits="userSpaceOnUse">
<stop stop-color="#80B1FF"/>
<stop offset="1" stop-color="white"/>
</linearGradient>
<linearGradient id="paint13_linear" x1="83.4249" y1="120.868" x2="38.2114" y2="98.4556" gradientUnits="userSpaceOnUse">
<stop stop-color="#80B1FF"/>
<stop offset="1" stop-color="white"/>
</linearGradient>
<linearGradient id="paint14_linear" x1="106.042" y1="131.344" x2="104.453" y2="126.58" gradientUnits="userSpaceOnUse">
<stop stop-color="#CED0FF"/>
<stop offset="1" stop-color="white"/>
</linearGradient>
<linearGradient id="paint15_linear" x1="118.551" y1="130.451" x2="118.44" y2="129.166" gradientUnits="userSpaceOnUse">
<stop stop-color="#CED0FF"/>
<stop offset="1" stop-color="white"/>
</linearGradient>
<linearGradient id="paint16_linear" x1="111.598" y1="148.298" x2="105.629" y2="146.645" gradientUnits="userSpaceOnUse">
<stop stop-color="#CED0FF"/>
<stop offset="1" stop-color="white"/>
</linearGradient>
<linearGradient id="paint17_linear" x1="131.054" y1="97.1212" x2="131.054" y2="116.543" gradientUnits="userSpaceOnUse">
<stop stop-color="#56ABEA"/>
<stop offset="1" stop-color="#134A8E"/>
</linearGradient>
<linearGradient id="paint18_linear" x1="129.068" y1="73.0295" x2="129.068" y2="99.8497" gradientUnits="userSpaceOnUse">
<stop stop-color="#56ABEA"/>
<stop offset="1" stop-color="#134A8E"/>
</linearGradient>
<linearGradient id="paint19_linear" x1="21.455" y1="70.9169" x2="20.4227" y2="70.8076" gradientUnits="userSpaceOnUse">
<stop stop-color="#F8A29B"/>
<stop offset="1" stop-color="#C47770"/>
</linearGradient>
<linearGradient id="paint20_linear" x1="2.87547" y1="112.17" x2="2.87547" y2="124.757" gradientUnits="userSpaceOnUse">
<stop stop-color="#56ABEA"/>
<stop offset="1" stop-color="#134A8E"/>
</linearGradient>
<linearGradient id="paint21_linear" x1="5.04933" y1="78.8446" x2="5.04933" y2="94.578" gradientUnits="userSpaceOnUse">
<stop stop-color="#FB6464"/>
<stop offset="1" stop-color="#FA4E40"/>
</linearGradient>
<linearGradient id="paint22_linear" x1="6.01531" y1="78.1863" x2="6.01531" y2="106.506" gradientUnits="userSpaceOnUse">
<stop stop-color="#FB6464"/>
<stop offset="1" stop-color="#FA4E40"/>
</linearGradient>
<linearGradient id="paint23_linear" x1="22.9705" y1="82.6366" x2="22.9705" y2="99.0728" gradientUnits="userSpaceOnUse">
<stop stop-color="#FB6464"/>
<stop offset="1" stop-color="#FA4E40"/>
</linearGradient>
</defs>
</svg>
