<?xml version="1.0" encoding="UTF-8" standalone="no"?>
<!DOCTYPE svg PUBLIC "-//W3C//DTD SVG 1.1//EN" "http://www.w3.org/Graphics/SVG/1.1/DTD/svg11.dtd">
<svg width="100%" height="100%" viewBox="0 0 885 857" version="1.1" xmlns="http://www.w3.org/2000/svg" xmlns:xlink="http://www.w3.org/1999/xlink" xml:space="preserve" xmlns:serif="http://www.serif.com/" style="fill-rule:evenodd;clip-rule:evenodd;stroke-linejoin:round;stroke-miterlimit:2;">
    <g opacity="0.5">
        <g transform="matrix(0.909816,-0.415011,0.415011,0.909816,-288.4,273.74)">
            <rect x="356.07" y="95.34" width="512.51" height="708.13" style="fill:url(#_Linear1);"/>
        </g>
    </g>
    <g transform="matrix(0.909816,-0.415011,0.415011,0.909816,-287.52,273.08)">
        <rect x="361.51" y="100.79" width="499.47" height="692.48" style="fill:white;"/>
    </g>
    <g transform="matrix(0.909816,-0.415011,0.415011,0.909816,-173.56,188.23)">
        <rect x="349.12" y="112.4" width="247.78" height="60.02" style="fill:url(#_Linear2);"/>
    </g>
    <g transform="matrix(1,0,0,1,-157.12,-20.92)">
        <path d="M436.21,61.74C418.81,69.68 411.29,90.56 419.42,108.38C427.55,126.2 448.25,134.21 465.65,126.27C483.05,118.33 490.57,97.45 482.44,79.63C474.31,61.81 453.61,53.8 436.21,61.74ZM459.42,112.62C456.635,113.971 453.58,114.673 450.485,114.673C439.255,114.673 430.015,105.432 430.015,94.203C430.015,82.973 439.255,73.733 450.485,73.733C458.489,73.733 465.789,78.427 469.11,85.71C470.378,88.405 471.036,91.347 471.036,94.325C471.036,102.148 466.498,109.299 459.42,112.63L459.42,112.62Z" style="fill:url(#_Linear3);fill-rule:nonzero;"/>
    </g>
    <g transform="matrix(0.909816,-0.415011,0.415011,0.909816,-173.12,187.91)">
        <rect x="351.19" y="112.55" width="242.56" height="57.38" style="fill:rgb(255,7,82);"/>
    </g>
    <g transform="matrix(1,0,0,1,-157.12,-20.92)">
        <path d="M437.29,64.12C425.226,69.621 417.449,81.714 417.449,94.974C417.449,113.576 432.756,128.884 451.359,128.884C469.961,128.884 485.269,113.576 485.269,94.974C485.269,90.118 484.225,85.318 482.21,80.9C474.49,63.977 454.214,56.403 437.29,64.12ZM459.48,112.77C456.933,113.931 454.166,114.532 451.366,114.532C440.636,114.532 431.806,105.703 431.806,94.972C431.806,84.242 440.636,75.412 451.366,75.412C459.012,75.412 465.985,79.895 469.16,86.85C473.611,96.612 469.241,108.307 459.48,112.76L459.48,112.77Z" style="fill:rgb(255,7,82);fill-rule:nonzero;"/>
    </g>
    <g transform="matrix(0.909816,-0.415011,0.415011,0.909816,-270.02,168.37)">
        <rect x="325.61" y="300.95" width="106.94" height="106.94" style="fill:url(#_Linear4);"/>
    </g>
    <g transform="matrix(0.909816,-0.415011,0.415011,0.909816,-342.01,222.39)">
        <rect x="413.89" y="493.6" width="106.94" height="106.94" style="fill:url(#_Linear5);"/>
    </g>
    <g transform="matrix(0.909816,-0.415011,0.415011,0.909816,-270.02,168.37)">
        <rect x="329.52" y="304.86" width="99.11" height="99.11" style="fill:rgb(105,240,174);"/>
    </g>
    <g transform="matrix(0.909816,-0.415011,0.415011,0.909816,-341.44,221.76)">
        <rect x="416.66" y="495.88" width="99.11" height="99.11" style="fill:rgb(255,7,82);"/>
    </g>
    <g transform="matrix(0.909816,-0.415011,0.415011,0.909816,-218.73,226.9)">
        <rect x="471.46" y="260.92" width="135.85" height="9.48" style="fill:rgb(224,224,224);"/>
    </g>
    <g transform="matrix(0.909816,-0.415011,0.415011,0.909816,-212.31,245.56)">
        <rect x="473.37" y="255.5" width="224.31" height="9.48" style="fill:rgb(224,224,224);"/>
    </g>
    <g transform="matrix(0.909816,-0.415011,0.415011,0.909816,-219.16,246.49)">
        <rect x="479.98" y="271.71" width="208.51" height="9.48" style="fill:rgb(224,224,224);"/>
    </g>
    <g transform="matrix(0.909816,-0.415011,0.415011,0.909816,-290.15,280.29)">
        <rect x="558.6" y="451.95" width="135.85" height="9.48" style="fill:rgb(224,224,224);"/>
    </g>
    <g transform="matrix(0.909816,-0.415011,0.415011,0.909816,-283.73,298.95)">
        <rect x="560.51" y="446.52" width="224.31" height="9.48" style="fill:rgb(224,224,224);"/>
    </g>
    <g transform="matrix(0.909816,-0.415011,0.415011,0.909816,-290.58,299.88)">
        <rect x="567.12" y="462.74" width="208.51" height="9.48" style="fill:rgb(224,224,224);"/>
    </g>
    <path d="M199.04,337.46L222.26,345L229.9,300.31L241.2,303.4L228.49,358.65L193.47,343.3L199.04,337.46Z" style="fill:url(#_Linear6);fill-rule:nonzero;"/>
    <path d="M202,336.87L222.19,343.42L228.83,304.56L238.65,307.25L227.6,355.29L197.15,341.95L202,336.87Z" style="fill:white;fill-rule:nonzero;"/>
    <path d="M289.68,529.08L309.87,535.63L316.51,496.77L326.33,499.46L315.28,547.5L284.83,534.16L289.68,529.08Z" style="fill:white;fill-rule:nonzero;"/>
    <g transform="matrix(0.909816,-0.415011,0.415011,0.909816,-370.25,334.93)">
        <rect x="553.74" y="615.49" width="316.9" height="105.63" style="fill:rgb(224,224,224);"/>
    </g>
    <g transform="matrix(1,0,0,1,-157.12,-20.92)">
        <path d="M792.63,631.1C781.55,627.94 770.21,628.54 766.68,641.21C765.49,645.48 765.35,652.11 760.77,654.31C754.03,657.55 745.9,651.07 740.05,648.43C729.15,643.51 717.96,646.86 711.65,657.2C708.45,662.44 707.08,668.47 705.99,674.44C705.52,677.03 705.46,680.23 704.37,682.67C702.28,687.34 695.74,686.92 691.45,686.74C690.51,686.74 689.55,686.63 688.59,686.53C691.981,681.858 693.675,676.165 693.39,670.4C693.11,660.93 686.96,650.57 676.21,651.73C666.58,652.73 659.8,662.03 660.88,671.44C661.8,679.44 667.01,685.64 673.69,689.44C670.41,690.89 666.91,692.02 663.81,693.52C662.362,694.221 660.957,695.006 659.6,695.87C650.23,691.35 637.92,690.5 629.49,695.11C625.41,697.34 628.39,703.97 632.49,701.72C638.91,698.21 645.99,699.09 652.7,701.32L653.26,701.52C652.597,702.369 652.011,703.276 651.51,704.23C647.72,711.59 651.51,723.23 660.73,724.03C673.73,725.14 674.34,707.96 667.28,701.12C666.98,700.83 666.68,700.55 666.36,700.28C669.28,698.87 672.44,697.81 675.23,696.62C677.661,695.591 679.974,694.303 682.13,692.78L682.63,692.91C692.56,695.16 708.06,695.86 711.63,683.83C714.69,673.39 714.98,651.22 731.48,653.27C738.21,654.1 743.73,659.27 750.13,661.14C755.86,662.85 762.49,662.92 767.19,658.7C771.07,655.22 771.94,650.08 773.13,645.28C773.74,642.8 774.34,639.84 776.36,638.07C780.01,634.88 786.04,636.76 790.11,637.92C794.56,639.18 797.14,632.38 792.63,631.1ZM663.63,715.69C661.44,717.86 659.12,716.14 657.95,713.87C656.53,711.11 657.14,708.39 658.95,705.96C659.246,705.563 659.563,705.183 659.9,704.82C664.23,707.62 667.77,711.63 663.67,715.69L663.63,715.69ZM671.31,661.69C675.81,657.51 682.08,658.43 684.76,664.17C687.44,669.91 686.26,678.01 682.5,683.07C682.002,683.734 681.45,684.356 680.85,684.93C678.23,684.054 675.807,682.671 673.72,680.86C668.4,676.06 665.39,667.19 671.35,661.66L671.31,661.69Z" style="fill:rgb(255,7,82);fill-rule:nonzero;"/>
    </g>
    <g transform="matrix(1,0,0,1,-157.12,-20.92)">
        <path d="M852.6,242.63L771.88,274.1C756.7,272.97 724.76,268.85 693.06,253.9C657.77,237.26 617.34,237.3 583.06,254.73C504.06,256.62 460.58,246.5 437.38,236.92L443.5,224.36L361.68,192.46L157.12,100.78L157.12,476.54L228.71,508.44L267.11,416.32L351.44,455.32L367.63,414.18L423,455.27L426.77,458.44L421.58,463.83C411.756,474.205 411.756,490.665 421.58,501.04C426.232,505.958 432.711,508.747 439.48,508.747C446.249,508.747 452.728,505.958 457.38,501.04L454.54,504.04C444.716,514.415 444.716,530.875 454.54,541.25C459.192,546.168 465.671,548.957 472.44,548.957C479.209,548.957 485.688,546.168 490.34,541.25L506.74,524.2L495.48,535.9C485.656,546.275 485.656,562.735 495.48,573.11C500.132,578.028 506.611,580.817 513.38,580.817C520.149,580.817 526.628,578.028 531.28,573.11L547.47,556.28L540.66,563.36C533.792,570.608 533.792,582.112 540.66,589.36C543.909,592.793 548.433,594.741 553.16,594.741C557.887,594.741 562.411,592.793 565.66,589.36L576.46,578.14C595.01,591.69 610.02,601.58 617.37,604.14C648,614.76 648,593.49 648,593.49C688.91,614.75 709.37,572.23 709.37,572.23C760.51,593.49 760.51,540.33 760.51,540.33C773.29,549.19 782.51,545.13 788.95,537.33C797.72,526.75 798.79,511.82 792.77,499.84L841.65,454.67L862.79,497.89L947.12,458.89L985.52,544.02L1042.07,518.77L1042.07,146.94L852.6,242.63Z" style="fill:url(#_Linear7);fill-rule:nonzero;"/>
    </g>
    <path d="M681.9,418.48L592.88,497.6L523.65,369.02L681.9,329.46L681.9,418.48Z" style="fill:rgb(190,124,94);fill-rule:nonzero;"/>
    <g transform="matrix(1,0,0,1,-157.12,-20.92)">
        <path d="M413.72,231.69C413.72,231.69 442.29,271.25 611.53,261.36L710.44,409.72L776.72,484.29C787.13,496.01 787.72,513.78 777.5,525.66C771.29,532.87 762.36,536.66 750,528.41C750,528.41 750,577.86 700.55,558.08C700.55,558.08 680.77,597.64 641.21,577.86C641.21,577.86 641.21,597.64 611.54,587.75C581.87,577.86 423.61,449.29 423.61,449.29L354.38,399.84L413.72,231.69Z" style="fill:rgb(253,165,125);fill-rule:nonzero;"/>
    </g>
    <g transform="matrix(1,0,0,1,-157.12,-20.92)">
        <path d="M769.78,281.15C769.78,281.15 727.04,281.15 684.78,261.96C646.35,244.53 601.6,246.75 566.14,269.63C537.24,288.28 512.2,319.16 512.67,370.16C512.67,370.16 551.13,409.72 591.79,330.6L621.46,330.6C621.46,330.6 650.03,429.51 730.26,419.6C810.49,409.69 829.17,399.82 829.17,399.82L769.78,281.15Z" style="fill:rgb(190,124,94);fill-rule:nonzero;"/>
    </g>
    <g transform="matrix(0.707107,0.707107,-0.707107,0.707107,338.85,-214.21)">
        <path d="M505.79,485.78C505.79,473.522 495.838,463.57 483.58,463.57L479.04,463.57C466.782,463.57 456.83,473.522 456.83,485.78L456.83,518.29C456.83,530.548 466.782,540.5 479.04,540.5L483.58,540.5C495.838,540.5 505.79,530.548 505.79,518.29L505.79,485.78Z" style="fill:rgb(190,124,94);"/>
    </g>
    <g transform="matrix(0.707107,0.707107,-0.707107,0.707107,303.09,-202.62)">
        <path d="M473.92,448.42C473.92,436.162 463.968,426.21 451.71,426.21L447.17,426.21C434.912,426.21 424.96,436.162 424.96,448.42L424.96,480.93C424.96,493.188 434.912,503.14 447.17,503.14L451.71,503.14C463.968,503.14 473.92,493.188 473.92,480.93L473.92,448.42Z" style="fill:rgb(190,124,94);"/>
    </g>
    <g transform="matrix(0.707107,0.707107,-0.707107,0.707107,370.39,-235.97)">
        <path d="M547.82,509.48C547.82,497.222 537.868,487.27 525.61,487.27L521.07,487.27C508.812,487.27 498.86,497.222 498.86,509.48L498.86,548.98C498.86,561.238 508.812,571.19 521.07,571.19L525.61,571.19C537.868,571.19 547.82,561.238 547.82,548.98L547.82,509.48Z" style="fill:rgb(190,124,94);"/>
    </g>
    <g transform="matrix(0.707107,0.707107,-0.707107,0.707107,397.97,-252.54)">
        <path d="M574.23,541.77C574.23,533.21 567.28,526.26 558.72,526.26L555.55,526.26C546.99,526.26 540.04,533.21 540.04,541.77L540.04,566.7C540.04,575.26 546.99,582.21 555.55,582.21L558.72,582.21C567.28,582.21 574.23,575.26 574.23,566.7L574.23,541.77Z" style="fill:rgb(190,124,94);"/>
    </g>
    <path d="M780.8,438.26L691.79,477.82L602.77,260.23L681.9,230.56L780.8,438.26Z" style="fill:white;fill-rule:nonzero;"/>
    <path d="M108.25,388.81L197.26,428.37L286.28,210.78L207.15,181.1L108.25,388.81Z" style="fill:white;fill-rule:nonzero;"/>
    <path d="M9.34,92.09L207.15,181.1L78.58,477.82L9.34,448.15L9.34,92.09Z" style="fill:rgb(51,51,51);fill-rule:nonzero;"/>
    <path d="M879.71,141.54L681.9,230.56L810.48,527.27L879.71,497.6L879.71,141.54Z" style="fill:rgb(77,138,240);fill-rule:nonzero;"/>
    <defs>
        <linearGradient id="_Linear1" x1="0" y1="0" x2="1" y2="0" gradientUnits="userSpaceOnUse" gradientTransform="matrix(4.33605e-14,-708.13,708.13,4.33605e-14,612.33,803.47)"><stop offset="0" style="stop-color:rgb(128,128,128);stop-opacity:0.25"/><stop offset="0.54" style="stop-color:rgb(128,128,128);stop-opacity:0.12"/><stop offset="1" style="stop-color:rgb(128,128,128);stop-opacity:0.1"/></linearGradient>
        <linearGradient id="_Linear2" x1="0" y1="0" x2="1" y2="0" gradientUnits="userSpaceOnUse" gradientTransform="matrix(3.67517e-15,-60.02,60.02,3.67517e-15,473,172.42)"><stop offset="0" style="stop-color:rgb(128,128,128);stop-opacity:0.25"/><stop offset="0.54" style="stop-color:rgb(128,128,128);stop-opacity:0.12"/><stop offset="1" style="stop-color:rgb(128,128,128);stop-opacity:0.1"/></linearGradient>
        <linearGradient id="_Linear3" x1="0" y1="0" x2="1" y2="0" gradientUnits="userSpaceOnUse" gradientTransform="matrix(-29.4409,-64.5424,64.5424,-29.4409,465.647,126.29)"><stop offset="0" style="stop-color:rgb(128,128,128);stop-opacity:0.25"/><stop offset="0.54" style="stop-color:rgb(128,128,128);stop-opacity:0.12"/><stop offset="1" style="stop-color:rgb(128,128,128);stop-opacity:0.1"/></linearGradient>
        <linearGradient id="_Linear4" x1="0" y1="0" x2="1" y2="0" gradientUnits="userSpaceOnUse" gradientTransform="matrix(6.54757e-15,-106.93,106.93,6.54757e-15,379.08,407.88)"><stop offset="0" style="stop-color:rgb(128,128,128);stop-opacity:0.25"/><stop offset="0.54" style="stop-color:rgb(128,128,128);stop-opacity:0.12"/><stop offset="1" style="stop-color:rgb(128,128,128);stop-opacity:0.1"/></linearGradient>
        <linearGradient id="_Linear5" x1="0" y1="0" x2="1" y2="0" gradientUnits="userSpaceOnUse" gradientTransform="matrix(6.54819e-15,-106.94,106.94,6.54819e-15,467.36,600.53)"><stop offset="0" style="stop-color:rgb(128,128,128);stop-opacity:0.25"/><stop offset="0.54" style="stop-color:rgb(128,128,128);stop-opacity:0.12"/><stop offset="1" style="stop-color:rgb(128,128,128);stop-opacity:0.1"/></linearGradient>
        <linearGradient id="_Linear6" x1="0" y1="0" x2="1" y2="0" gradientUnits="userSpaceOnUse" gradientTransform="matrix(-21.7839,-47.7563,47.7563,-21.7839,232.586,356.784)"><stop offset="0" style="stop-color:rgb(128,128,128);stop-opacity:0.25"/><stop offset="0.54" style="stop-color:rgb(128,128,128);stop-opacity:0.12"/><stop offset="1" style="stop-color:rgb(128,128,128);stop-opacity:0.1"/></linearGradient>
        <linearGradient id="_Linear7" x1="0" y1="0" x2="1" y2="0" gradientUnits="userSpaceOnUse" gradientTransform="matrix(3.10032e-14,-506.32,506.32,3.10032e-14,599.62,607.1)"><stop offset="0" style="stop-color:rgb(128,128,128);stop-opacity:0.25"/><stop offset="0.54" style="stop-color:rgb(128,128,128);stop-opacity:0.12"/><stop offset="1" style="stop-color:rgb(128,128,128);stop-opacity:0.1"/></linearGradient>
    </defs>
</svg>
