<?xml version="1.0" encoding="UTF-8" standalone="no"?>
<!DOCTYPE svg PUBLIC "-//W3C//DTD SVG 1.1//EN" "http://www.w3.org/Graphics/SVG/1.1/DTD/svg11.dtd">
<svg width="100%" height="100%" viewBox="0 0 877 640" version="1.1" xmlns="http://www.w3.org/2000/svg" xmlns:xlink="http://www.w3.org/1999/xlink" xml:space="preserve" xmlns:serif="http://www.serif.com/" style="fill-rule:evenodd;clip-rule:evenodd;stroke-linejoin:round;stroke-miterlimit:2;">
    <g transform="matrix(1.31747,0,0,1.31747,0,14.9125)">
        <rect x="0.275" y="0.366" width="644.725" height="412.91" style="fill:rgb(230,230,230);"/>
    </g>
    <g transform="matrix(1.31747,0,0,1.31747,0,14.9125)">
        <rect x="18.711" y="52.155" width="607.853" height="336.693" style="fill:white;"/>
    </g>
    <g transform="matrix(1.31747,0,0,1.31747,0,14.9125)">
        <rect x="0" y="0" width="644.725" height="27.39" style="fill:rgb(245,0,87);"/>
    </g>
    <g transform="matrix(1.31747,0,0,1.31747,0,14.9125)">
        <circle cx="20.354" cy="14.003" r="5.077" style="fill:white;"/>
    </g>
    <g transform="matrix(1.31747,0,0,1.31747,0,14.9125)">
        <circle cx="39.624" cy="14.003" r="5.077" style="fill:white;"/>
    </g>
    <g transform="matrix(1.31747,0,0,1.31747,0,14.9125)">
        <circle cx="58.893" cy="14.003" r="5.077" style="fill:white;"/>
    </g>
    <g transform="matrix(1.31747,0,0,1.31747,0,14.9125)">
        <rect x="93.501" y="79.848" width="118.887" height="128.982" style="fill:rgb(230,230,230);"/>
    </g>
    <g transform="matrix(1.31747,0,0,1.31747,0,14.9125)">
        <rect x="263.193" y="79.848" width="118.887" height="128.982" style="fill:rgb(230,230,230);"/>
    </g>
    <g transform="matrix(1.31747,0,0,1.31747,0,14.9125)">
        <rect x="432.885" y="79.848" width="118.887" height="128.982" style="fill:rgb(230,230,230);"/>
    </g>
    <g transform="matrix(1.31747,0,0,1.31747,0,14.9125)">
        <rect x="93.501" y="232.176" width="118.887" height="128.982" style="fill:rgb(230,230,230);"/>
    </g>
    <g transform="matrix(1.31747,0,0,1.31747,0,14.9125)">
        <rect x="263.193" y="232.176" width="118.887" height="128.982" style="fill:rgb(230,230,230);"/>
    </g>
    <g transform="matrix(1.31747,0,0,1.31747,0,14.9125)">
        <rect x="432.885" y="232.176" width="118.887" height="128.982" style="fill:rgb(230,230,230);"/>
    </g>
    <g transform="matrix(1.31747,0,0,1.31747,-212.771,-156.704)">
        <path d="M453.428,395.588L475.15,387L477.675,429.939C477.675,429.939 482.222,443.073 480.706,448.125C480.706,448.125 481.717,456.713 479.191,457.218C476.665,457.723 469.593,458.733 469.088,458.228C468.583,457.723 468.583,456.207 468.583,456.207C468.583,456.207 463.531,459.744 463.026,463.785C463.026,463.785 441.809,470.352 441.304,464.29C440.799,458.228 451.912,453.176 451.912,453.176L460.5,440.042L453.428,395.588Z" style="fill:white;fill-rule:nonzero;"/>
    </g>
    <g transform="matrix(1.31747,0,0,1.31747,-212.771,-156.704)">
        <path d="M499.397,395.588L521.119,387L523.645,429.939C523.645,429.939 528.192,443.073 526.676,448.125C526.676,448.125 527.687,456.713 525.161,457.218C522.635,457.723 515.563,458.733 515.057,458.228C514.552,457.723 514.552,456.207 514.552,456.207C514.552,456.207 509.501,459.744 508.996,463.785C508.996,463.785 487.779,470.352 487.274,464.29C486.768,458.228 497.882,453.176 497.882,453.176L506.47,440.042L499.397,395.588Z" style="fill:white;fill-rule:nonzero;"/>
    </g>
    <g transform="matrix(1.31747,0,0,1.31747,-212.771,-156.704)">
        <path d="M501.522,229.773C501.522,229.773 496.897,242.696 502.256,248.525L497.789,263.877C497.789,263.877 513.662,311.499 509.127,318.151C509.127,318.151 492.195,326.617 458.331,315.127L472.088,261.761L470.123,239.235L472.844,228.652L478.891,228.047C478.891,228.047 475.263,241.654 481.915,243.77C488.567,245.887 495.056,228.387 495.056,228.387L501.522,229.773Z" style="fill:rgb(63,61,86);fill-rule:nonzero;"/>
    </g>
    <g transform="matrix(1.31747,0,0,1.31747,-212.771,-156.704)">
        <path d="M287.921,313.204L293.758,315.592L321.616,278.979L330.371,321.959L336.208,320.898C339.952,283.843 343.005,246.048 339.259,228.172L317.636,227.244L307.82,258.55L303.044,279.775L287.921,313.204Z" style="fill:white;fill-rule:nonzero;"/>
    </g>
    <g transform="matrix(1.31747,0,0,1.31747,-212.771,-156.704)">
        <path d="M642.178,227.875C642.178,227.875 634.212,238.95 634.601,243.418C634.989,247.887 640.041,320.745 640.041,320.745L651.892,321.328L648.395,268.87L651.31,254.687L658.498,320.745L673.07,321.133L660.052,235.453L657.527,227.875L642.178,227.875Z" style="fill:white;fill-rule:nonzero;"/>
    </g>
    <g transform="matrix(1.31747,0,0,1.31747,-212.771,-156.704)">
        <path d="M687.2,406.281C685.085,403.743 681.449,402.37 677.958,401.629C678.062,401.311 667.339,399.097 667.16,399.553L663.119,396.334L650.704,402.781L643.726,398.031L640.485,399.182C640.617,398.61 630.424,400.375 630.424,400.375C628.477,400.445 625.99,400.567 623.206,400.781C613.457,401.531 612.707,426.779 612.707,426.779C617.193,424.944 621.976,423.942 626.821,423.824L629.456,454.026C643.008,452.863 657.222,454.216 671.951,457.526L678.86,433.785L694.949,427.529C694.949,427.529 692.2,412.28 687.2,406.281Z" style="fill:rgb(63,61,86);fill-rule:nonzero;"/>
    </g>
    <g transform="matrix(1.31747,0,0,1.31747,-212.771,-156.704)">
        <path d="M341.941,391.901C340.198,389.81 337.203,388.679 334.326,388.068C334.412,387.807 325.577,385.982 325.429,386.358L322.099,383.706L311.869,389.018L306.12,385.104L303.45,386.052C303.559,385.581 295.16,387.036 295.16,387.036C293.556,387.093 291.506,387.194 289.213,387.37C281.18,387.988 280.562,408.791 280.562,408.791C284.258,407.279 288.199,406.454 292.191,406.356L294.362,467.27C305.529,466.312 317.241,467.427 329.377,470.154L335.069,414.564L348.326,409.409C348.326,409.409 346.06,396.845 341.941,391.901Z" style="fill:white;fill-rule:nonzero;"/>
    </g>
    <g transform="matrix(1.31747,0,0,1.31747,-74.2103,-189.316)">
        <path d="M613,612.618L532.578,629.079L530.745,628.892L460.071,621.759L460.071,532.196L546.587,517.569L609.346,524.888L609.369,525.285L609.369,525.472L613,612.618Z" style="fill:rgb(230,230,230);fill-rule:nonzero;"/>
        <path d="M613,612.618L532.578,629.079L530.745,628.892L530.745,537.076L609.369,525.285L613,612.618Z" style="fill-opacity:0.1;fill-rule:nonzero;"/>
        <path d="M609.369,525.472L609.346,525.495L530.745,537.076L460.071,532.196L546.587,517.569L609.346,524.888L609.369,525.285L609.369,525.472Z" style="fill-opacity:0.05;fill-rule:nonzero;"/>
        <g transform="matrix(0.997877,0.0651264,-0.0651264,0.997877,-114.079,-171.42)">
            <rect x="630.5" y="695.287" width="49" height="23" style="fill:white;"/>
        </g>
        <g transform="matrix(0.997877,0.0651264,-0.0651264,0.997877,-114.079,-171.42)">
            <rect x="642" y="702.787" width="26" height="8" style="fill:rgb(245,0,87);"/>
        </g>
        <path d="M722,612.618L641.578,629.079L639.745,628.892L569.071,621.759L569.071,532.196L655.587,517.569L718.346,524.888L718.369,525.285L718.369,525.472L722,612.618Z" style="fill:rgb(245,0,87);fill-rule:nonzero;"/>
        <path d="M722,612.618L641.578,629.079L639.745,628.892L639.745,537.076L718.369,525.285L722,612.618Z" style="fill-opacity:0.1;fill-rule:nonzero;"/>
        <path d="M718.369,525.472L718.346,525.495L639.745,537.076L569.071,532.196L655.587,517.569L718.346,524.888L718.369,525.285L718.369,525.472Z" style="fill-opacity:0.05;fill-rule:nonzero;"/>
        <g transform="matrix(0.997877,0.0651264,-0.0651264,0.997877,-113.847,-178.519)">
            <rect x="739.5" y="695.287" width="49" height="23" style="fill:white;"/>
        </g>
        <g transform="matrix(0.997877,0.0651264,-0.0651264,0.997877,-113.847,-178.519)">
            <rect x="751" y="702.787" width="26" height="8" style="fill:rgb(245,0,87);"/>
        </g>
        <g>
            <g transform="matrix(1,0,0,1,-429.738,128.555)">
                <path d="M877,483.618L796.578,500.079L794.745,499.892L724.071,492.759L724.071,403.196L810.587,388.569L873.346,395.888L873.369,396.285L873.369,396.472L877,483.618Z" style="fill:rgb(230,230,230);fill-rule:nonzero;"/>
            </g>
            <g transform="matrix(1,0,0,1,-429.738,128.555)">
                <path d="M877,483.618L796.578,500.079L794.745,499.892L794.745,408.076L873.369,396.285L877,483.618Z" style="fill-opacity:0.1;fill-rule:nonzero;"/>
            </g>
            <g transform="matrix(1,0,0,1,-431,129)">
                <path d="M873.369,396.472L873.346,396.495L794.745,408.076L724.071,403.196L810.587,388.569L873.346,395.888L873.369,396.285L873.369,396.472Z" style="fill-opacity:0.05;fill-rule:nonzero;"/>
            </g>
            <g transform="matrix(0.997877,0.0651264,-0.0651264,0.997877,-551.657,-60.3328)">
                <rect x="894.5" y="566.287" width="49" height="23" style="fill:white;"/>
            </g>
            <g transform="matrix(0.997877,0.0651264,-0.0651264,0.997877,-551.657,-60.3328)">
                <rect x="906" y="573.787" width="26" height="8" style="fill:rgb(245,0,87);"/>
            </g>
        </g>
    </g>
</svg>
