<?xml version="1.0" encoding="UTF-8" standalone="no"?>
<!DOCTYPE svg PUBLIC "-//W3C//DTD SVG 1.1//EN" "http://www.w3.org/Graphics/SVG/1.1/DTD/svg11.dtd">
<svg width="100%" height="100%" viewBox="0 0 862 704" version="1.1" xmlns="http://www.w3.org/2000/svg" xmlns:xlink="http://www.w3.org/1999/xlink" xml:space="preserve" xmlns:serif="http://www.serif.com/" style="fill-rule:evenodd;clip-rule:evenodd;stroke-miterlimit:10;">
    <g opacity="0.5">
        <path d="M465.71,23.88C465.71,21.396 463.694,19.38 461.21,19.38L4.5,19.38C2.016,19.38 0,21.396 0,23.88L0,444.56C0,447.044 2.016,449.06 4.5,449.06L461.21,449.06C463.694,449.06 465.71,447.044 465.71,444.56L465.71,23.88Z" style="fill:url(#_Linear1);"/>
    </g>
    <path d="M460.65,27.21C460.65,24.726 458.634,22.71 456.15,22.71L10.18,22.71C7.696,22.71 5.68,24.726 5.68,27.21L5.68,437.47C5.68,439.954 7.696,441.97 10.18,441.97L456.15,441.97C458.634,441.97 460.65,439.954 460.65,437.47L460.65,27.21Z" style="fill:rgb(245,245,245);"/>
    <path d="M117.48,96.27C117.48,93.786 115.464,91.77 112.98,91.77L45.25,91.77C42.766,91.77 40.75,93.786 40.75,96.27L40.75,156.33C40.75,158.814 42.766,160.83 45.25,160.83L112.98,160.83C115.464,160.83 117.48,158.814 117.48,156.33L117.48,96.27Z" style="fill:rgb(255,7,82);"/>
    <path d="M445.51,95.21C445.51,93.311 443.969,91.77 442.07,91.77L143.93,91.77C142.031,91.77 140.49,93.311 140.49,95.21L140.49,96C140.49,97.899 142.031,99.44 143.93,99.44L442.07,99.44C443.969,99.44 445.51,97.899 445.51,96L445.51,95.21Z" style="fill:rgb(224,224,224);"/>
    <path d="M445.51,118.23C445.51,116.331 443.969,114.79 442.07,114.79L143.93,114.79C142.031,114.79 140.49,116.331 140.49,118.23L140.49,119.02C140.49,120.919 142.031,122.46 143.93,122.46L442.07,122.46C443.969,122.46 445.51,120.919 445.51,119.02L445.51,118.23Z" style="fill:rgb(224,224,224);"/>
    <path d="M445.51,201.78C445.51,199.881 443.969,198.34 442.07,198.34L36.51,198.34C34.611,198.34 33.07,199.881 33.07,201.78L33.07,202.57C33.07,204.469 34.611,206.01 36.51,206.01L442.07,206.01C443.969,206.01 445.51,204.469 445.51,202.57L445.51,201.78Z" style="fill:rgb(224,224,224);"/>
    <path d="M445.51,224.79C445.51,222.891 443.969,221.35 442.07,221.35L36.51,221.35C34.611,221.35 33.07,222.891 33.07,224.79L33.07,225.58C33.07,227.479 34.611,229.02 36.51,229.02L442.07,229.02C443.969,229.02 445.51,227.479 445.51,225.58L445.51,224.79Z" style="fill:rgb(224,224,224);"/>
    <path d="M445.51,255.49C445.51,253.591 443.969,252.05 442.07,252.05L36.51,252.05C34.611,252.05 33.07,253.591 33.07,255.49L33.07,256.28C33.07,258.179 34.611,259.72 36.51,259.72L442.07,259.72C443.969,259.72 445.51,258.179 445.51,256.28L445.51,255.49Z" style="fill:rgb(224,224,224);"/>
    <path d="M270.93,278.5C270.93,276.601 269.389,275.06 267.49,275.06L36.51,275.06C34.611,275.06 33.07,276.601 33.07,278.5L33.07,279.29C33.07,281.189 34.611,282.73 36.51,282.73L267.49,282.73C269.389,282.73 270.93,281.189 270.93,279.29L270.93,278.5Z" style="fill:rgb(224,224,224);"/>
    <path d="M445.51,309.12C445.51,307.221 443.969,305.68 442.07,305.68L36.51,305.68C34.611,305.68 33.07,307.221 33.07,309.12L33.07,309.91C33.07,311.809 34.611,313.35 36.51,313.35L442.07,313.35C443.969,313.35 445.51,311.809 445.51,309.91L445.51,309.12Z" style="fill:rgb(224,224,224);"/>
    <path d="M445.51,332.14C445.51,330.241 443.969,328.7 442.07,328.7L36.51,328.7C34.611,328.7 33.07,330.241 33.07,332.14L33.07,332.93C33.07,334.829 34.611,336.37 36.51,336.37L442.07,336.37C443.969,336.37 445.51,334.829 445.51,332.93L445.51,332.14Z" style="fill:rgb(224,224,224);"/>
    <path d="M445.51,362.83C445.51,360.931 443.969,359.39 442.07,359.39L36.51,359.39C34.611,359.39 33.07,360.931 33.07,362.83L33.07,363.62C33.07,365.519 34.611,367.06 36.51,367.06L442.07,367.06C443.969,367.06 445.51,365.519 445.51,363.62L445.51,362.83Z" style="fill:rgb(224,224,224);"/>
    <path d="M270.93,385.85C270.93,383.951 269.389,382.41 267.49,382.41L36.51,382.41C34.611,382.41 33.07,383.951 33.07,385.85L33.07,386.64C33.07,388.539 34.611,390.08 36.51,390.08L267.49,390.08C269.389,390.08 270.93,388.539 270.93,386.64L270.93,385.85Z" style="fill:rgb(224,224,224);"/>
    <g opacity="0.5">
        <path d="M536,123.17C536,120.686 533.984,118.67 531.5,118.67L74.79,118.67C72.306,118.67 70.29,120.686 70.29,123.17L70.29,543.85C70.29,546.334 72.306,548.35 74.79,548.35L531.5,548.35C533.984,548.35 536,546.334 536,543.85L536,123.17Z" style="fill:url(#_Linear2);"/>
    </g>
    <path d="M530.94,126.5C530.94,124.016 528.924,122 526.44,122L80.47,122C77.986,122 75.97,124.016 75.97,126.5L75.97,536.76C75.97,539.244 77.986,541.26 80.47,541.26L526.44,541.26C528.924,541.26 530.94,539.244 530.94,536.76L530.94,126.5Z" style="fill:white;"/>
    <path d="M187.76,195.56C187.76,193.076 185.744,191.06 183.26,191.06L115.53,191.06C113.046,191.06 111.03,193.076 111.03,195.56L111.03,255.62C111.03,258.104 113.046,260.12 115.53,260.12L183.26,260.12C185.744,260.12 187.76,258.104 187.76,255.62L187.76,195.56Z" style="fill:rgb(255,7,82);"/>
    <path d="M515.8,194.5C515.8,192.601 514.259,191.06 512.36,191.06L214.22,191.06C212.321,191.06 210.78,192.601 210.78,194.5L210.78,195.29C210.78,197.189 212.321,198.73 214.22,198.73L512.36,198.73C514.259,198.73 515.8,197.189 515.8,195.29L515.8,194.5Z" style="fill:rgb(224,224,224);"/>
    <path d="M515.8,217.52C515.8,215.621 514.259,214.08 512.36,214.08L214.22,214.08C212.321,214.08 210.78,215.621 210.78,217.52L210.78,218.31C210.78,220.209 212.321,221.75 214.22,221.75L512.36,221.75C514.259,221.75 515.8,220.209 515.8,218.31L515.8,217.52Z" style="fill:rgb(224,224,224);"/>
    <path d="M515.8,301.07C515.8,299.171 514.259,297.63 512.36,297.63L106.8,297.63C104.901,297.63 103.36,299.171 103.36,301.07L103.36,301.86C103.36,303.759 104.901,305.3 106.8,305.3L512.36,305.3C514.259,305.3 515.8,303.759 515.8,301.86L515.8,301.07Z" style="fill:rgb(224,224,224);"/>
    <path d="M515.8,324.09C515.8,322.191 514.259,320.65 512.36,320.65L106.8,320.65C104.901,320.65 103.36,322.191 103.36,324.09L103.36,324.88C103.36,326.779 104.901,328.32 106.8,328.32L512.36,328.32C514.259,328.32 515.8,326.779 515.8,324.88L515.8,324.09Z" style="fill:rgb(224,224,224);"/>
    <path d="M515.8,354.78C515.8,352.881 514.259,351.34 512.36,351.34L106.8,351.34C104.901,351.34 103.36,352.881 103.36,354.78L103.36,355.57C103.36,357.469 104.901,359.01 106.8,359.01L512.36,359.01C514.259,359.01 515.8,357.469 515.8,355.57L515.8,354.78Z" style="fill:rgb(224,224,224);"/>
    <path d="M341.22,377.8C341.22,375.901 339.679,374.36 337.78,374.36L106.8,374.36C104.901,374.36 103.36,375.901 103.36,377.8L103.36,378.59C103.36,380.489 104.901,382.03 106.8,382.03L337.78,382.03C339.679,382.03 341.22,380.489 341.22,378.59L341.22,377.8Z" style="fill:rgb(224,224,224);"/>
    <path d="M515.8,408.41C515.8,406.511 514.259,404.97 512.36,404.97L106.8,404.97C104.901,404.97 103.36,406.511 103.36,408.41L103.36,409.2C103.36,411.099 104.901,412.64 106.8,412.64L512.36,412.64C514.259,412.64 515.8,411.099 515.8,409.2L515.8,408.41Z" style="fill:rgb(224,224,224);"/>
    <path d="M515.8,431.43C515.8,429.531 514.259,427.99 512.36,427.99L106.8,427.99C104.901,427.99 103.36,429.531 103.36,431.43L103.36,432.22C103.36,434.119 104.901,435.66 106.8,435.66L512.36,435.66C514.259,435.66 515.8,434.119 515.8,432.22L515.8,431.43Z" style="fill:rgb(224,224,224);"/>
    <path d="M515.8,462.12C515.8,460.221 514.259,458.68 512.36,458.68L106.8,458.68C104.901,458.68 103.36,460.221 103.36,462.12L103.36,462.91C103.36,464.809 104.901,466.35 106.8,466.35L512.36,466.35C514.259,466.35 515.8,464.809 515.8,462.91L515.8,462.12Z" style="fill:rgb(224,224,224);"/>
    <path d="M341.22,485.14C341.22,483.241 339.679,481.7 337.78,481.7L106.8,481.7C104.901,481.7 103.36,483.241 103.36,485.14L103.36,485.93C103.36,487.829 104.901,489.37 106.8,489.37L337.78,489.37C339.679,489.37 341.22,487.829 341.22,485.93L341.22,485.14Z" style="fill:rgb(224,224,224);"/>
    <path d="M536,276.74L540.36,272.62" style="fill:none;fill-rule:nonzero;stroke:rgb(83,84,97);stroke-width:1px;"/>
    <path d="M549.5,263.97L709.45,112.61" style="fill:none;fill-rule:nonzero;stroke:rgb(83,84,97);stroke-width:1px;stroke-dasharray:12.58,12.58;"/>
    <path d="M714.02,108.28L718.37,104.16" style="fill:none;fill-rule:nonzero;stroke:rgb(83,84,97);stroke-width:1px;"/>
    <path d="M537.63,427.99L542.1,432" style="fill:none;fill-rule:nonzero;stroke:rgb(83,84,97);stroke-width:1px;"/>
    <path d="M551.36,440.31L713.39,585.77" style="fill:none;fill-rule:nonzero;stroke:rgb(83,84,97);stroke-width:1px;stroke-dasharray:12.44,12.44;"/>
    <path d="M718.02,589.93L722.48,593.93" style="fill:none;fill-rule:nonzero;stroke:rgb(83,84,97);stroke-width:1px;"/>
    <g opacity="0.5">
        <circle cx="730.3" cy="573.91" r="129.29" style="fill:url(#_Linear3);"/>
    </g>
    <circle cx="730.3" cy="573.2" r="126.56" style="fill:rgb(245,245,245);"/>
    <g transform="matrix(1,0,0,1,-169,-98.4)">
        <path d="M969.3,683C969.3,729.61 938.88,781.5 901.37,781.5C863.86,781.5 833.44,729.6 833.44,683C833.44,636.4 863.86,612.73 901.37,612.73C938.88,612.73 969.3,636.38 969.3,683Z" style="fill:rgb(253,216,53);fill-rule:nonzero;"/>
    </g>
    <g transform="matrix(1,0,0,1,-169,-98.4)">
        <path d="M899.66,798.54C924.388,798.578 948.588,791.335 969.23,777.72C964.57,752.23 946.82,750.78 946.82,750.78L849,750.78C849,750.78 832.25,752.16 827,775.6C848.269,790.56 873.657,798.575 899.66,798.54Z" style="fill:rgb(255,7,82);fill-rule:nonzero;"/>
    </g>
    <path d="M709.61,621.29L748.75,621.29L748.75,654.63C748.75,664.252 740.832,672.17 731.21,672.17L727.15,672.17C717.528,672.17 709.61,664.252 709.61,654.63L709.61,621.29Z" style="fill-opacity:0.1;fill-rule:nonzero;"/>
    <path d="M713,619.84L745.45,619.84C747.288,619.84 748.8,621.352 748.8,623.19L748.8,653.19C748.8,662.812 740.882,670.73 731.26,670.73L727.2,670.73C717.578,670.73 709.66,662.812 709.66,653.19L709.66,623.19C709.66,621.356 711.166,619.845 713,619.84Z" style="fill:rgb(253,183,151);fill-rule:nonzero;"/>
    <g transform="matrix(1,0,0,1,-169,-98.4)">
        <path d="M878.68,734.48C891.291,739.193 905.183,739.232 917.82,734.59L917.82,729.78L878.68,729.78L878.68,734.48Z" style="fill-opacity:0.1;fill-rule:nonzero;"/>
    </g>
    <circle cx="729.33" cy="582.59" r="56.1" style="fill:rgb(253,183,151);"/>
    <ellipse cx="674.38" cy="580.2" rx="5.22" ry="9.79" style="fill:rgb(253,183,151);"/>
    <ellipse cx="783.98" cy="580.2" rx="5.22" ry="9.79" style="fill:rgb(253,183,151);"/>
    <g transform="matrix(1,0,0,1,-169,-98.4)">
        <path d="M848.61,650.56C848.61,650.56 880.37,694 953.07,679.15C953.07,679.15 961.19,669.27 941.42,638.92C921.65,608.57 866.61,613.51 848.61,650.56Z" style="fill-opacity:0.1;fill-rule:nonzero;"/>
    </g>
    <g transform="matrix(1,0,0,1,-169,-98.4)">
        <path d="M848.61,649.86C848.61,649.86 880.37,693.27 953.07,678.45C953.07,678.45 961.19,668.57 941.42,638.22C921.65,607.87 866.61,612.8 848.61,649.86Z" style="fill:rgb(253,216,53);fill-rule:nonzero;"/>
    </g>
    <g opacity="0.5">
        <circle cx="732.71" cy="129.29" r="129.29" style="fill:url(#_Linear4);"/>
    </g>
    <circle cx="732.97" cy="128.46" r="126.56" style="fill:rgb(245,245,245);"/>
    <g transform="matrix(1,0,0,1,-169,-98.4)">
        <path d="M902.07,353.92C926.798,353.958 950.998,346.715 971.64,333.1C966.98,307.61 949.23,306.16 949.23,306.16L851.37,306.16C851.37,306.16 834.62,307.54 829.37,330.98C850.65,345.948 876.053,353.964 902.07,353.92Z" style="fill:rgb(255,7,82);fill-rule:nonzero;"/>
    </g>
    <circle cx="731.74" cy="125.79" r="61.09" style="fill:rgb(51,51,51);"/>
    <path d="M712,176.67L751.14,176.67L751.14,210C751.14,219.622 743.222,227.54 733.6,227.54L729.54,227.54C719.918,227.54 712,219.622 712,210L712,176.67Z" style="fill-opacity:0.1;fill-rule:nonzero;"/>
    <path d="M715.37,175.22L747.82,175.22C749.658,175.22 751.17,176.732 751.17,178.57L751.17,208.57C751.17,218.192 743.252,226.11 733.63,226.11L729.57,226.11C729.56,226.11 729.55,226.11 729.54,226.11C719.918,226.11 712,218.192 712,208.57L712,178.57C712,176.732 713.512,175.22 715.35,175.22C715.357,175.22 715.363,175.22 715.37,175.22Z" style="fill:rgb(253,183,151);fill-rule:nonzero;"/>
    <g transform="matrix(1,0,0,1,-169,-98.4)">
        <path d="M881.1,289.86C893.711,294.573 907.603,294.612 920.24,289.97L920.24,285.16L881.1,285.16L881.1,289.86Z" style="fill-opacity:0.1;fill-rule:nonzero;"/>
    </g>
    <circle cx="731.74" cy="137.97" r="56.1" style="fill:rgb(253,183,151);"/>
    <g transform="matrix(1,0,0,1,-169,-98.4)">
        <path d="M860.78,185.34C860.78,185.34 884.42,233.34 951.12,205.46L935.59,181.11L908.06,171.23L860.78,185.34Z" style="fill-opacity:0.1;fill-rule:nonzero;"/>
    </g>
    <g transform="matrix(1,0,0,1,-169,-98.4)">
        <path d="M860.78,184.64C860.78,184.64 884.42,232.64 951.12,204.76L935.59,180.4L908.06,170.52L860.78,184.64Z" style="fill:rgb(51,51,51);fill-rule:nonzero;"/>
    </g>
    <g transform="matrix(1,0,0,1,-169,-98.4)">
        <path d="M860.57,181.39C862.153,176.457 864.897,171.974 868.57,168.32C879.57,157.41 897.7,155.11 906.98,142.67C907.611,143.77 907.943,145.016 907.943,146.284C907.943,149.14 906.257,151.743 903.65,152.91C912.53,152.85 922.84,152.07 927.87,144.75C930.403,150.643 929.31,157.497 925.07,162.31C932.95,162.67 941.36,168.02 941.87,175.89C942.21,181.13 938.92,186.1 934.61,189.11C930.3,192.12 925.09,193.5 919.95,194.63C905,197.94 850.79,211.79 860.57,181.39Z" style="fill:rgb(51,51,51);fill-rule:nonzero;"/>
    </g>
    <ellipse cx="675.61" cy="137.92" rx="5.22" ry="9.79" style="fill:rgb(253,183,151);"/>
    <ellipse cx="787.84" cy="137.92" rx="5.22" ry="9.79" style="fill:rgb(253,183,151);"/>
    <defs>
        <linearGradient id="_Linear1" x1="0" y1="0" x2="1" y2="0" gradientUnits="userSpaceOnUse" gradientTransform="matrix(2.63103e-14,-429.68,429.68,2.63103e-14,232.86,449.06)"><stop offset="0" style="stop-color:rgb(128,128,128);stop-opacity:0.25"/><stop offset="0.54" style="stop-color:rgb(128,128,128);stop-opacity:0.12"/><stop offset="1" style="stop-color:rgb(128,128,128);stop-opacity:0.1"/></linearGradient>
        <linearGradient id="_Linear2" x1="0" y1="0" x2="1" y2="0" gradientUnits="userSpaceOnUse" gradientTransform="matrix(2.63103e-14,-429.68,429.68,2.63103e-14,303.14,548.35)"><stop offset="0" style="stop-color:rgb(128,128,128);stop-opacity:0.25"/><stop offset="0.54" style="stop-color:rgb(128,128,128);stop-opacity:0.12"/><stop offset="1" style="stop-color:rgb(128,128,128);stop-opacity:0.1"/></linearGradient>
        <linearGradient id="_Linear3" x1="0" y1="0" x2="1" y2="0" gradientUnits="userSpaceOnUse" gradientTransform="matrix(1.58328e-14,-258.57,258.57,1.58328e-14,730.3,703.19)"><stop offset="0" style="stop-color:rgb(128,128,128);stop-opacity:0.25"/><stop offset="0.54" style="stop-color:rgb(128,128,128);stop-opacity:0.12"/><stop offset="1" style="stop-color:rgb(128,128,128);stop-opacity:0.1"/></linearGradient>
        <linearGradient id="_Linear4" x1="0" y1="0" x2="1" y2="0" gradientUnits="userSpaceOnUse" gradientTransform="matrix(1.58328e-14,-258.57,258.57,1.58328e-14,732.71,258.57)"><stop offset="0" style="stop-color:rgb(128,128,128);stop-opacity:0.25"/><stop offset="0.54" style="stop-color:rgb(128,128,128);stop-opacity:0.12"/><stop offset="1" style="stop-color:rgb(128,128,128);stop-opacity:0.1"/></linearGradient>
    </defs>
</svg>
