<?xml version="1.0" encoding="UTF-8" standalone="no"?>
<!DOCTYPE svg PUBLIC "-//W3C//DTD SVG 1.1//EN" "http://www.w3.org/Graphics/SVG/1.1/DTD/svg11.dtd">
<svg width="100%" height="100%" viewBox="0 0 3318 1878" version="1.1" xmlns="http://www.w3.org/2000/svg" xmlns:xlink="http://www.w3.org/1999/xlink" xml:space="preserve" xmlns:serif="http://www.serif.com/" style="fill-rule:evenodd;clip-rule:evenodd;stroke-linejoin:round;stroke-miterlimit:2;">
    <g id="Plan-de-travail1" serif:id="Plan de travail1" transform="matrix(0.983325,0,0,0.757507,-326.295,-329.325)">
        <rect x="331.828" y="434.749" width="3373.86" height="2478" style="fill:none;"/>
        <g transform="matrix(1.01696,0,0,1.32012,-45.4635,-613.347)">
            <g transform="matrix(1.40697,0,0,1.40697,-240.505,-3268.98)">
                <path d="M1746.31,3466.35L1700.56,3300.28L1680.78,3292.08L1680.78,3268.64L1764.67,3267.23L1764.67,3292.08L1744.05,3300.56L1768.34,3402.8L1807.88,3269.49L1846.02,3267.23L1883.86,3402.52L1910.98,3300.56L1889.8,3292.08L1889.8,3268.64L1970.29,3267.23L1970.29,3292.08L1949.96,3300.56L1901.66,3466.35L1861.55,3466.35L1824.55,3332.19C1820.03,3350.64 1812.64,3376.68 1802.38,3410.29C1792.12,3443.9 1786.42,3462.59 1785.29,3466.35L1746.31,3466.35Z" style="fill:url(#_Linear1);fill-rule:nonzero;"/>
                <path d="M2052.2,3300.56L2052.2,3347.73L2109.26,3347.73L2109.26,3378.8L2052.2,3378.8L2052.2,3433.31L2102.2,3433.31L2108.69,3409.86L2134.68,3409.86L2134.68,3466.35L1987.24,3466.35L1987.24,3441.78L2008.42,3434.72L2008.42,3300.56L1987.24,3292.08L1987.24,3268.64L2052.2,3267.23L2131.29,3267.23L2131.29,3321.74L2105.02,3321.74L2097.96,3300.56L2052.2,3300.56Z" style="fill:url(#_Linear2);fill-rule:nonzero;"/>
                <path d="M2346.51,3267.23L2407.24,3435.28L2427.01,3441.78L2427.01,3466.35L2337.19,3466.35L2337.19,3441.78L2358.37,3435.28L2351.6,3414.1L2288.89,3414.1L2281.83,3435L2303.86,3441.78L2303.86,3466.35L2218.56,3466.35L2218.56,3441.78L2239.18,3435.28L2301.32,3268.08L2346.51,3267.23ZM2321.09,3316.94L2298.78,3383.88L2342.27,3383.88L2321.09,3316.94Z" style="fill:url(#_Linear3);fill-rule:nonzero;"/>
                <path d="M2526.99,3441.78L2526.99,3466.35L2441.7,3466.35L2441.7,3441.78L2462.88,3434.72L2462.88,3300.56L2441.7,3292.08L2441.7,3268.64L2506.66,3267.23L2528.12,3267.23C2551.66,3267.23 2569.78,3272.08 2582.49,3281.77C2595.2,3291.47 2601.56,3305.83 2601.56,3324.85C2601.56,3349.89 2590.92,3367.68 2569.64,3378.23C2574.35,3383.69 2578.31,3389.81 2581.51,3396.59L2600.43,3435.28L2619.64,3441.78L2619.64,3466.35L2567.38,3466.35L2543.66,3414.1C2538.58,3402.8 2534.57,3395.65 2531.66,3392.64C2528.74,3389.62 2523.7,3388.12 2516.54,3388.12L2506.66,3388.12L2506.66,3434.72L2526.99,3441.78ZM2506.66,3300.56L2506.66,3358.46L2522.76,3358.46C2533.87,3358.46 2542.53,3355.87 2548.74,3350.69C2554.96,3345.51 2558.06,3338.22 2558.06,3328.8C2558.06,3320.33 2555.52,3313.5 2550.44,3308.32C2545.35,3303.15 2538.48,3300.56 2529.82,3300.56L2506.66,3300.56Z" style="fill:url(#_Linear4);fill-rule:nonzero;"/>
                <path d="M2702.96,3300.56L2702.96,3347.73L2760.01,3347.73L2760.01,3378.8L2702.96,3378.8L2702.96,3433.31L2752.95,3433.31L2759.45,3409.86L2785.43,3409.86L2785.43,3466.35L2638,3466.35L2638,3441.78L2659.18,3434.72L2659.18,3300.56L2638,3292.08L2638,3268.64L2702.96,3267.23L2782.04,3267.23L2782.04,3321.74L2755.78,3321.74L2748.72,3300.56L2702.96,3300.56Z" style="fill:url(#_Linear5);fill-rule:nonzero;"/>
            </g>
            <g transform="matrix(3.17117,0,0,3.17117,-3222.03,-8871.34)">
                <path d="M1733,3346.2L1733,3442.4L1764.32,3442.4L1768.82,3419.27L1788.27,3419.27L1788.27,3466.35L1685.92,3466.35L1685.92,3448.55L1701.27,3443.43L1701.27,3346.2L1685.92,3340.06L1685.92,3323.07L1748.35,3322.04L1748.35,3340.06L1733,3346.2Z" style="fill:url(#_Linear6);fill-rule:nonzero;"/>
                <path d="M1859.5,3448.55L1859.5,3466.35L1797.07,3466.35L1797.07,3448.55L1812.42,3443.43L1812.42,3346.2L1797.07,3340.06L1797.07,3323.07L1859.5,3322.04L1859.5,3340.06L1844.15,3346.2L1844.15,3443.43L1859.5,3448.55Z" style="fill:url(#_Linear7);fill-rule:nonzero;"/>
                <path d="M1945.48,3319.59C1965.94,3319.59 1981.81,3325.97 1993.07,3338.73C2004.33,3351.49 2009.95,3369.33 2009.95,3392.25C2009.95,3415.32 2003.64,3433.88 1991.02,3447.93C1978.4,3461.99 1961.85,3469.01 1941.38,3469.01C1920.91,3469.01 1905.22,3462.74 1894.3,3450.18C1883.38,3437.63 1877.93,3419.34 1877.93,3395.32C1877.93,3371.85 1883.96,3353.36 1896.04,3339.85C1908.12,3326.34 1924.6,3319.59 1945.48,3319.59ZM1944.45,3345.17C1933.81,3345.17 1925.76,3348.96 1920.3,3356.53C1914.84,3364.11 1912.11,3376.7 1912.11,3394.3C1912.11,3411.09 1914.6,3423.47 1919.58,3431.45C1924.56,3439.44 1932.17,3443.43 1942.4,3443.43C1953.18,3443.43 1961.41,3439.5 1967.07,3431.66C1972.73,3423.81 1975.57,3411.02 1975.57,3393.28C1975.57,3376.63 1972.97,3364.45 1967.79,3356.74C1962.6,3349.03 1954.82,3345.17 1944.45,3345.17Z" style="fill:url(#_Linear8);fill-rule:nonzero;"/>
                <path d="M2087.74,3448.55L2087.74,3466.35L2028.38,3466.35L2028.38,3448.55L2043.73,3443.43L2043.73,3346.2L2028.38,3340.06L2028.38,3323.07L2077.5,3322.04L2132.77,3416.61L2132.77,3346.2L2117.83,3340.06L2117.83,3323.07L2176.17,3322.04L2176.17,3340.06L2160.81,3346.2L2160.81,3466.35L2126.63,3466.35L2071.77,3373.63L2071.77,3443.43L2087.74,3448.55Z" style="fill:url(#_Linear9);fill-rule:nonzero;"/>
            </g>
        </g>
        <g id="LION" transform="matrix(1.01696,0,0,1.24354,-4.78515,-723.061)">
            <g transform="matrix(0.827905,0,0,0.827905,1298.03,1831.39)">
                <path d="M0,456.836C-16.396,508.843 -83.479,545.794 -83.479,545.794C-75.356,531.149 -72.509,505.777 -85.833,500.339C-99.161,494.9 -104.58,505.554 -127.505,534.795C-145.968,558.346 -174.032,570.594 -184.268,574.475C-194.502,570.594 -222.566,558.346 -241.03,534.795C-263.955,505.554 -269.374,494.9 -282.701,500.339C-296.025,505.777 -293.178,531.149 -285.055,545.794C-285.055,545.794 -352.138,508.843 -368.535,456.836C-377.763,427.588 -369.13,412.587 -359.809,405.059C-315.274,409.098 -267.98,398.555 -233.552,386.834C-213.685,380.071 -193.864,377.497 -184.268,377.364C-174.67,377.497 -154.85,380.071 -134.982,386.834C-100.554,398.555 -53.26,409.098 -8.726,405.059C0.597,412.587 9.229,427.588 0,456.836M322.165,-83.507C322.165,-83.507 353.999,-48.537 415.453,-45.435C415.453,-45.435 370.412,-92.771 341.581,-174.496C314.872,-250.217 234.375,-432.403 116.497,-485.873C116.497,-485.873 258.447,-371.798 252.577,-121.396C249.48,10.872 200.717,84.035 146.44,201.263C138.57,218.26 132.09,235.161 126.861,251.88C120.835,229.606 108.814,201.515 84.808,178.115C84.808,178.115 103.843,243.201 80.322,305.922C62.116,354.47 33.979,375.552 4.525,383.364C-24.932,391.177 -106.661,368.235 -133.305,356.022C-152.846,347.065 -166.613,340.309 -172.569,334.704C-172.616,328.237 -172.683,318.571 -172.74,310.116C-160.498,306.484 -143.606,297.329 -132.508,274.13C-113.396,234.171 -112.045,220.816 -108.213,211.487C-104.382,202.159 -97.962,182.158 -82.923,186.273C-67.888,190.387 -72.081,205.541 -81.846,211.672C-86.408,214.538 -81.943,223.746 -74.356,225.263C-66.774,226.779 -46.06,214.464 -25.811,191.887C-5.562,169.308 -3.477,137.38 -4.648,125.344C-5.823,113.308 -18.416,118.565 -18.416,118.565C-18.416,118.565 -21.271,167.992 -48.996,182.5C-48.996,182.5 -51.257,146.4 -78.858,143.534C-106.463,140.67 -109.136,163.37 -143.089,171.151C-153.375,173.509 -168.823,174.687 -184.268,174.687C-199.711,174.687 -215.159,173.509 -225.445,171.151C-259.399,163.37 -262.072,140.67 -289.676,143.534C-317.278,146.4 -319.538,182.5 -319.538,182.5C-347.264,167.992 -350.119,118.565 -350.119,118.565C-350.119,118.565 -362.711,113.308 -363.886,125.344C-365.058,137.38 -362.972,169.308 -342.724,191.887C-322.475,214.464 -301.76,226.779 -294.178,225.263C-286.591,223.746 -282.126,214.538 -286.689,211.672C-296.453,205.541 -300.647,190.387 -285.611,186.273C-270.572,182.158 -264.152,202.159 -260.321,211.487C-256.489,220.816 -255.139,234.171 -236.026,274.13C-224.927,297.329 -208.036,306.484 -195.794,310.116C-195.852,318.571 -195.918,328.237 -195.965,334.704C-201.921,340.309 -215.688,347.065 -235.229,356.022C-261.873,368.235 -343.603,391.177 -373.059,383.364C-402.513,375.552 -430.65,354.47 -448.856,305.922C-472.377,243.201 -453.342,178.115 -453.342,178.115C-477.349,201.515 -489.37,229.606 -495.395,251.88C-500.624,235.161 -507.105,218.26 -514.975,201.263C-569.251,84.035 -618.015,10.872 -621.111,-121.396C-626.982,-371.798 -485.031,-485.873 -485.031,-485.873C-602.909,-432.403 -683.406,-250.217 -710.116,-174.496C-738.946,-92.771 -783.987,-45.435 -783.987,-45.435C-722.533,-48.537 -690.699,-83.507 -690.699,-83.507C-686.892,79.512 -797.098,165.337 -797.098,165.337C-712.139,159.269 -662.76,90.034 -662.76,90.034C-699.542,181.17 -669.28,260.208 -641.341,304.91C-600.886,369.641 -604.185,439.771 -604.185,439.771C-540.771,338.752 -588.99,247.583 -598.7,231.205C-516.756,360.97 -528.867,508.739 -528.867,508.739C-498.422,468.425 -481.235,418.482 -479.391,363.326C-461.297,424.793 -454.431,479.581 -470.093,538.545C-488.334,607.21 -526.735,726.667 -419.551,806.002C-419.551,806.002 -462.001,720.599 -414.058,636.236C-414.058,636.236 -426.604,748.917 -325.462,816.682C-325.462,816.682 -351.854,740.044 -312.186,679.627C-312.186,679.627 -329.271,772.019 -255.668,846.574C-217.069,885.676 -194.712,915.396 -184.268,942.709C-173.822,915.396 -151.465,885.676 -112.866,846.574C-39.264,772.019 -56.349,679.627 -56.349,679.627C-16.681,740.044 -43.071,816.682 -43.071,816.682C58.07,748.917 45.523,636.236 45.523,636.236C93.468,720.599 51.018,806.002 51.018,806.002C158.2,726.667 119.8,607.21 101.559,538.545C85.896,479.581 92.763,424.793 110.857,363.326C112.701,418.482 129.888,468.425 160.332,508.739C160.332,508.739 148.222,360.97 230.165,231.205C220.455,247.583 172.236,338.752 235.65,439.771C235.65,439.771 232.352,369.641 272.807,304.91C300.746,260.208 331.008,181.17 294.227,90.034C294.227,90.034 343.604,159.269 428.563,165.337C428.563,165.337 318.357,79.512 322.165,-83.507" style="fill:url(#_Linear10);fill-rule:nonzero;"/>
            </g>
            <g transform="matrix(0.827905,0,0,0.827905,1632.77,1452.82)">
                <path d="M0,-41.896C0,-41.896 -52.657,-67.136 -81.22,-40.199C-81.22,-40.199 -79.862,-87.893 -39.602,-111.667C-39.602,-111.667 -111.805,-106.827 -128.252,-48.138C-144.699,10.55 -84.974,69.771 -84.974,69.771C-84.974,69.771 -81.22,-40.199 0,-41.896" style="fill:url(#_Linear11);fill-rule:nonzero;"/>
            </g>
            <g transform="matrix(0.827905,0,0,0.827905,1347.58,1613.06)">
                <path d="M0,44.058C-23.466,55.254 -42.765,43.76 -42.765,43.76L-37.995,31.096C-37.995,31.096 -18.198,40.354 -5.252,30.657C11.542,18.078 3.665,-2.023 3.665,-2.023C13.028,-3.294 26.442,-10.551 26.442,-10.551C26.442,-10.551 32.258,28.668 0,44.058M-14.429,5.2C-14.429,5.2 -10.651,13.692 -15.853,17.887C-23.244,23.849 -28.539,16.462 -28.539,16.462C-28.539,16.462 -26.492,10.462 -14.429,5.2M64.955,-71.089C64.955,-71.089 38.19,-31.428 -42.765,-17.293L-35.841,-44.292C-35.841,-44.292 -71.237,-25.075 -75.283,23.219C-78.527,61.931 -66.001,117.769 -66.001,117.769L-57.248,108.475C-57.248,108.475 -54.4,73.181 -42.294,61.905C-42.294,61.905 -7.018,76.532 25.594,46.735C51.418,23.141 43.197,-17.784 43.197,-17.784C43.197,-17.784 72.156,-49.656 72.238,-61.684C72.323,-73.711 64.955,-71.089 64.955,-71.089" style="fill:url(#_Linear12);fill-rule:nonzero;"/>
            </g>
            <g transform="matrix(0.827905,0,0,0.827905,1439.27,1957.81)">
                <path d="M0,-348.63C0,-348.63 -38.521,-259.425 -134.968,-219.475C-71.249,-154.239 -70.735,-74.845 -86.413,0C-86.413,0 -13.791,-105.568 -47.979,-226.049C-47.979,-226.049 -17.634,-185.593 -22.12,-115.355C29.76,-208.987 0,-348.63 0,-348.63" style="fill:url(#_Linear13);fill-rule:nonzero;"/>
            </g>
            <g transform="matrix(0.827905,0,0,0.827905,1729.76,1876.87)">
                <path d="M0,80.978C-35.502,99.634 -70.811,151.654 -87.262,210.451C-96.622,243.899 -95.517,296.665 -95.237,309.695C-91.211,495.181 -234.091,607.048 -234.091,607.048C-231.143,548.09 -270.585,498.784 -270.585,498.784C-296.377,772.927 -500.78,904.546 -500.78,904.546C-481.645,843.205 -502.745,802.963 -502.745,802.963C-633.512,929.332 -701.333,1048.54 -705.355,1099.31L-705.737,1099.31L-706.118,1099.31C-710.141,1048.54 -777.962,929.332 -908.729,802.963C-908.729,802.963 -929.829,843.205 -910.693,904.546C-910.693,904.546 -1115.1,772.927 -1140.89,498.784C-1140.89,498.784 -1180.33,548.09 -1177.38,607.048C-1177.38,607.048 -1320.26,495.181 -1316.24,309.695C-1315.96,296.665 -1314.85,243.899 -1324.21,210.451C-1340.66,151.654 -1375.97,99.634 -1411.47,80.978C-1328.32,13.498 -1319.45,-133.278 -1367.82,-200.067C-1257.89,-312.477 -1304.26,-446.272 -1339.38,-479.395C-1347.25,-486.815 -1355.22,-494.249 -1358.48,-497.129C-1390.07,-525.042 -1439.71,-584.641 -1394.43,-656.302C-1358.1,-713.785 -1280.9,-710.817 -1239.1,-688.706C-1205.7,-671.034 -1187.36,-633.108 -1187.36,-633.108L-1186.25,-680.323C-1140.69,-657.557 -1088.63,-660.468 -1041.96,-670.479C-1160.13,-694.838 -1183.3,-826.81 -1183.3,-826.81C-1038.67,-700.647 -904.106,-758.45 -904.106,-758.45C-904.106,-758.45 -909.721,-758.761 -919.68,-760.848C-914.56,-759.957 -909.375,-759.15 -904.106,-758.45C-957.734,-822.646 -970.941,-899.587 -970.941,-899.587C-925.705,-835.467 -858.339,-800.379 -806.987,-781.771C-789.124,-855.897 -804.412,-922.95 -804.412,-922.95C-740.594,-871.589 -715.314,-811.006 -705.737,-764.49C-696.159,-811.006 -670.88,-871.589 -607.062,-922.95C-607.062,-922.95 -622.35,-855.897 -604.486,-781.771C-553.135,-800.379 -485.769,-835.467 -440.532,-899.587C-440.532,-899.587 -453.74,-822.646 -507.367,-758.45C-502.1,-759.15 -496.914,-759.957 -491.794,-760.848C-501.753,-758.761 -507.367,-758.45 -507.367,-758.45C-507.367,-758.45 -372.8,-700.647 -228.17,-826.81C-228.17,-826.81 -251.344,-694.838 -369.517,-670.479C-322.842,-660.468 -270.787,-657.557 -225.221,-680.323L-224.112,-633.108C-224.112,-633.108 -205.777,-671.034 -172.373,-688.706C-130.575,-710.817 -53.374,-713.785 -17.047,-656.302C28.238,-584.641 -21.404,-525.042 -52.997,-497.129C-56.257,-494.249 -64.22,-486.815 -72.09,-479.395C-107.219,-446.272 -153.587,-312.477 -43.653,-200.067C-92.027,-133.278 -83.15,13.498 0,80.978M257.87,-40.83C284.576,-84.973 267.005,-240.943 99.64,-308.816C23.897,-339.531 -51.97,-389.974 -68.355,-473.256C-10.162,-418.165 105.884,-424.299 105.884,-424.299C105.884,-424.299 -9.912,-512.623 70.168,-573.939C101.76,-598.127 124.339,-619.424 130.913,-653.306C138.662,-693.243 117.465,-725.877 117.465,-725.877C117.764,-694.269 103.732,-669.157 81.352,-653.812C62.527,-640.904 27.418,-644.297 13.16,-665.17C-3.604,-689.717 4.543,-718.336 21.174,-732.196C39.38,-747.367 58.784,-750.057 58.784,-750.057C-36.241,-794.396 -120.247,-759.181 -171.801,-724.439C-164.888,-733.174 -158.337,-742.969 -152.26,-754.057C-96.408,-855.993 -101.921,-960.258 -22.288,-970.143C-62.862,-1000.94 -183.397,-1033.42 -279.431,-911.244C-308.429,-874.354 -337.243,-846.368 -364.145,-825.122C-343.32,-848.641 -327.518,-879.354 -317.847,-919.192C-287.43,-1044.52 -220.055,-1074.12 -178.756,-1082.33C-234.013,-1100.99 -434.779,-1083.46 -524.687,-904.621C-512.502,-993.208 -478.669,-1115.41 -427.633,-1132.44C-609.727,-1166.91 -704.398,-899.187 -705.737,-894.906C-707.075,-899.187 -801.747,-1166.91 -983.841,-1132.44C-932.805,-1115.41 -898.972,-993.208 -886.788,-904.621C-976.694,-1083.46 -1177.46,-1100.99 -1232.72,-1082.33C-1191.42,-1074.12 -1124.04,-1044.52 -1093.63,-919.192C-1083.96,-879.354 -1068.15,-848.641 -1047.33,-825.122C-1074.23,-846.368 -1103.05,-874.354 -1132.04,-911.244C-1228.08,-1033.42 -1348.61,-1000.94 -1389.19,-970.143C-1309.55,-960.258 -1315.07,-855.993 -1259.21,-754.057C-1253.14,-742.969 -1246.59,-733.174 -1239.67,-724.439C-1291.23,-759.181 -1375.23,-794.396 -1470.26,-750.057C-1470.26,-750.057 -1450.85,-747.367 -1432.65,-732.196C-1416.02,-718.336 -1407.87,-689.717 -1424.63,-665.17C-1438.89,-644.297 -1474,-640.904 -1492.83,-653.812C-1515.21,-669.157 -1529.24,-694.269 -1528.94,-725.877C-1528.94,-725.877 -1550.14,-693.243 -1542.39,-653.306C-1535.81,-619.424 -1513.23,-598.127 -1481.64,-573.939C-1401.56,-512.623 -1517.36,-424.299 -1517.36,-424.299C-1517.36,-424.299 -1401.31,-418.165 -1343.12,-473.256C-1359.5,-389.974 -1435.37,-339.531 -1511.11,-308.816C-1678.48,-240.943 -1696.05,-84.973 -1669.34,-40.83C-1660.59,-71.444 -1631.83,-105.209 -1561.26,-139.865C-1562.32,-101.211 -1552.58,-69.08 -1539.94,-55.062C-1538.12,-93.616 -1496.01,-114.83 -1391.68,-181.332C-1390.4,-182.151 -1389.19,-183.066 -1387.93,-183.919C-1388.1,-182.993 -1388.28,-182.044 -1388.47,-181.087C-1399.63,-153.594 -1432.98,-103.038 -1532.69,-42.651C-1676.33,44.344 -1679.56,200.289 -1645.21,238.787C-1642.63,211.484 -1625.86,179.154 -1581.01,140.679C-1581.31,177.996 -1571.55,208.268 -1558.38,221.197C-1558.9,183.38 -1519.74,159.798 -1424,90.447C-1420.88,142.582 -1439.65,195.39 -1510.5,283.125C-1591.17,383.025 -1580.02,506.874 -1478.67,630.375C-1486.49,584.896 -1482.61,543.644 -1472.51,507.502C-1461.06,530.995 -1446.65,547.523 -1433.75,553.593C-1445.56,521.268 -1422.46,489.207 -1367.38,410.542C-1383.44,463.867 -1393.58,532.427 -1379.08,608.015C-1360.99,702.257 -1324.29,776.414 -1313.84,794.62C-1305.28,733.935 -1283.6,706.686 -1283.6,706.686C-1283.6,706.686 -1239.85,848.042 -1281.92,947.232C-1281.92,947.232 -1209.91,925.346 -1197.68,762.217C-1197.68,762.217 -1171.63,926.343 -1059.54,1023.19C-1071.86,975.156 -1068.03,956.429 -1068.03,956.429C-1068.03,956.429 -930.331,1042.13 -838.227,1217.89C-838.227,1217.89 -815.468,1154.17 -832.916,1039.63C-832.916,1039.63 -727.476,1123.83 -705.737,1247.89C-683.998,1123.83 -578.558,1039.63 -578.558,1039.63C-596.005,1154.17 -573.247,1217.89 -573.247,1217.89C-481.143,1042.13 -343.445,956.429 -343.445,956.429C-343.445,956.429 -339.613,975.156 -351.93,1023.19C-239.845,926.343 -213.791,762.217 -213.791,762.217C-201.568,925.346 -129.553,947.232 -129.553,947.232C-171.625,848.042 -127.872,706.686 -127.872,706.686C-127.872,706.686 -106.196,733.935 -97.633,794.62C-87.181,776.414 -50.48,702.257 -32.398,608.015C-17.896,532.427 -28.034,463.867 -44.088,410.542C10.989,489.207 34.082,521.268 22.271,553.593C35.179,547.523 49.588,530.995 61.037,507.502C71.132,543.644 75.019,584.896 67.195,630.375C168.543,506.874 179.696,383.025 99.021,283.125C28.173,195.39 9.41,142.582 12.521,90.447C108.268,159.798 147.423,183.38 146.91,221.197C160.074,208.268 169.831,177.996 169.531,140.679C214.386,179.154 231.16,211.484 233.739,238.787C268.091,200.289 264.854,44.344 121.215,-42.651C21.508,-103.038 -11.846,-153.594 -23.007,-181.087C-23.194,-182.044 -23.377,-182.993 -23.541,-183.919C-22.283,-183.066 -21.073,-182.151 -19.79,-181.332C84.534,-114.83 126.649,-93.616 128.466,-55.062C141.105,-69.08 150.843,-101.211 149.789,-139.865C220.354,-105.209 249.114,-71.444 257.87,-40.83" style="fill:url(#_Linear14);fill-rule:nonzero;"/>
            </g>
            <g transform="matrix(0.827905,0,0,0.827905,658.186,1452.82)">
                <path d="M0,-41.896C81.22,-40.199 84.974,69.771 84.974,69.771C84.974,69.771 144.7,10.55 128.252,-48.138C111.805,-106.827 39.603,-111.667 39.603,-111.667C79.862,-87.893 81.22,-40.199 81.22,-40.199C52.658,-67.136 0,-41.896 0,-41.896" style="fill:url(#_Linear15);fill-rule:nonzero;"/>
            </g>
            <g transform="matrix(0.827905,0,0,0.827905,943.382,1613.06)">
                <path d="M0,44.058C-32.258,28.668 -26.442,-10.551 -26.442,-10.551C-26.442,-10.551 -13.028,-3.294 -3.665,-2.023C-3.665,-2.023 -11.542,18.078 5.251,30.657C18.198,40.354 37.995,31.096 37.995,31.096L42.765,43.76C42.765,43.76 23.465,55.254 0,44.058M14.428,5.2C26.492,10.462 28.539,16.462 28.539,16.462C28.539,16.462 23.244,23.849 15.852,17.887C10.651,13.692 14.428,5.2 14.428,5.2M57.248,108.475L66,117.769C66,117.769 78.527,61.931 75.283,23.219C71.237,-25.075 35.84,-44.292 35.84,-44.292L42.765,-17.293C-38.191,-31.428 -64.956,-71.089 -64.956,-71.089C-64.956,-71.089 -72.323,-73.711 -72.238,-61.684C-72.156,-49.656 -43.198,-17.784 -43.198,-17.784C-43.198,-17.784 -51.417,23.141 -25.594,46.735C7.018,76.532 42.294,61.905 42.294,61.905C54.4,73.181 57.248,108.475 57.248,108.475" style="fill:url(#_Linear16);fill-rule:nonzero;"/>
            </g>
            <g transform="matrix(0.827905,0,0,0.827905,851.684,1957.81)">
                <path d="M0,-348.63C0,-348.63 -29.76,-208.987 22.12,-115.355C17.634,-185.593 47.978,-226.049 47.978,-226.049C13.791,-105.568 86.413,0 86.413,0C70.735,-74.845 71.249,-154.239 134.967,-219.475C38.521,-259.425 0,-348.63 0,-348.63" style="fill:url(#_Linear17);fill-rule:nonzero;"/>
            </g>
            <g transform="matrix(0.827905,0,0,0.827905,1082.42,1554.05)">
                <path d="M0,-68.306C64.107,25.982 76.17,107.602 76.17,107.602C76.17,107.602 88.233,25.982 152.341,-68.306C202.727,-142.408 257.221,-159.787 257.221,-159.787L245.31,-175.908C245.31,-175.908 131.727,-167.197 76.17,-68.838C20.614,-167.197 -92.968,-175.908 -92.968,-175.908L-104.88,-159.787C-104.88,-159.787 -50.386,-142.408 0,-68.306" style="fill:url(#_Linear18);fill-rule:nonzero;"/>
            </g>
            <g transform="matrix(0.827905,0,0,0.827905,1145.14,1289.09)">
                <path d="M0,165.663L0.823,165.663C91.528,7.262 280.391,44.628 280.391,44.628C212.378,8.739 154.238,0 108.816,2.445C78.625,4.071 54.062,10.616 36.007,17.498C12.902,26.307 0.411,35.6 0.411,35.6C0.411,35.6 -12.079,26.307 -35.184,17.498C-53.238,10.616 -77.802,4.071 -107.993,2.445C-153.415,0 -211.555,8.739 -279.567,44.628C-279.567,44.628 -90.705,7.262 0,165.663" style="fill:url(#_Linear19);fill-rule:nonzero;"/>
            </g>
        </g>
    </g>
    <defs>
        <linearGradient id="_Linear1" x1="0" y1="0" x2="1" y2="0" gradientUnits="userSpaceOnUse" gradientTransform="matrix(1951.27,-454.05,402.897,1731.44,1043.4,2342.15)"><stop offset="0" style="stop-color:rgb(255,45,101);stop-opacity:1"/><stop offset="1" style="stop-color:rgb(255,92,59);stop-opacity:1"/></linearGradient>
        <linearGradient id="_Linear2" x1="0" y1="0" x2="1" y2="0" gradientUnits="userSpaceOnUse" gradientTransform="matrix(1951.27,-454.05,402.897,1731.44,1043.4,2342.15)"><stop offset="0" style="stop-color:rgb(255,45,101);stop-opacity:1"/><stop offset="1" style="stop-color:rgb(255,92,59);stop-opacity:1"/></linearGradient>
        <linearGradient id="_Linear3" x1="0" y1="0" x2="1" y2="0" gradientUnits="userSpaceOnUse" gradientTransform="matrix(1951.27,-454.05,402.897,1731.44,1043.4,2342.15)"><stop offset="0" style="stop-color:rgb(255,45,101);stop-opacity:1"/><stop offset="1" style="stop-color:rgb(255,92,59);stop-opacity:1"/></linearGradient>
        <linearGradient id="_Linear4" x1="0" y1="0" x2="1" y2="0" gradientUnits="userSpaceOnUse" gradientTransform="matrix(1951.27,-454.05,402.897,1731.44,1043.4,2342.15)"><stop offset="0" style="stop-color:rgb(255,45,101);stop-opacity:1"/><stop offset="1" style="stop-color:rgb(255,92,59);stop-opacity:1"/></linearGradient>
        <linearGradient id="_Linear5" x1="0" y1="0" x2="1" y2="0" gradientUnits="userSpaceOnUse" gradientTransform="matrix(1951.27,-454.05,402.897,1731.44,1043.4,2342.15)"><stop offset="0" style="stop-color:rgb(255,45,101);stop-opacity:1"/><stop offset="1" style="stop-color:rgb(255,92,59);stop-opacity:1"/></linearGradient>
        <linearGradient id="_Linear6" x1="0" y1="0" x2="1" y2="0" gradientUnits="userSpaceOnUse" gradientTransform="matrix(1951.27,-454.05,402.897,1731.44,1043.4,2342.15)"><stop offset="0" style="stop-color:rgb(255,45,101);stop-opacity:1"/><stop offset="1" style="stop-color:rgb(255,92,59);stop-opacity:1"/></linearGradient>
        <linearGradient id="_Linear7" x1="0" y1="0" x2="1" y2="0" gradientUnits="userSpaceOnUse" gradientTransform="matrix(1951.27,-454.05,402.897,1731.44,1043.4,2342.15)"><stop offset="0" style="stop-color:rgb(255,45,101);stop-opacity:1"/><stop offset="1" style="stop-color:rgb(255,92,59);stop-opacity:1"/></linearGradient>
        <linearGradient id="_Linear8" x1="0" y1="0" x2="1" y2="0" gradientUnits="userSpaceOnUse" gradientTransform="matrix(1951.27,-454.05,402.897,1731.44,1043.4,2342.15)"><stop offset="0" style="stop-color:rgb(255,45,101);stop-opacity:1"/><stop offset="1" style="stop-color:rgb(255,92,59);stop-opacity:1"/></linearGradient>
        <linearGradient id="_Linear9" x1="0" y1="0" x2="1" y2="0" gradientUnits="userSpaceOnUse" gradientTransform="matrix(1951.27,-454.05,402.897,1731.44,1043.4,2342.15)"><stop offset="0" style="stop-color:rgb(255,45,101);stop-opacity:1"/><stop offset="1" style="stop-color:rgb(255,92,59);stop-opacity:1"/></linearGradient>
        <linearGradient id="_Linear10" x1="0" y1="0" x2="1" y2="0" gradientUnits="userSpaceOnUse" gradientTransform="matrix(1951.27,-482.012,402.897,1838.07,-1165.75,484.166)"><stop offset="0" style="stop-color:rgb(255,45,101);stop-opacity:1"/><stop offset="1" style="stop-color:rgb(255,92,59);stop-opacity:1"/></linearGradient>
        <linearGradient id="_Linear11" x1="0" y1="0" x2="1" y2="0" gradientUnits="userSpaceOnUse" gradientTransform="matrix(1951.27,-482.012,402.897,1838.07,-1570.07,941.431)"><stop offset="0" style="stop-color:rgb(255,45,101);stop-opacity:1"/><stop offset="1" style="stop-color:rgb(255,92,59);stop-opacity:1"/></linearGradient>
        <linearGradient id="_Linear12" x1="0" y1="0" x2="1" y2="0" gradientUnits="userSpaceOnUse" gradientTransform="matrix(1951.27,-482.012,402.897,1838.07,-1225.59,747.875)"><stop offset="0" style="stop-color:rgb(255,45,101);stop-opacity:1"/><stop offset="1" style="stop-color:rgb(255,92,59);stop-opacity:1"/></linearGradient>
        <linearGradient id="_Linear13" x1="0" y1="0" x2="1" y2="0" gradientUnits="userSpaceOnUse" gradientTransform="matrix(1951.27,-482.012,402.897,1838.07,-1336.35,331.472)"><stop offset="0" style="stop-color:rgb(255,45,101);stop-opacity:1"/><stop offset="1" style="stop-color:rgb(255,92,59);stop-opacity:1"/></linearGradient>
        <linearGradient id="_Linear14" x1="0" y1="0" x2="1" y2="0" gradientUnits="userSpaceOnUse" gradientTransform="matrix(1951.27,-482.012,402.897,1838.07,-1687.22,429.233)"><stop offset="0" style="stop-color:rgb(255,45,101);stop-opacity:1"/><stop offset="1" style="stop-color:rgb(255,92,59);stop-opacity:1"/></linearGradient>
        <linearGradient id="_Linear15" x1="0" y1="0" x2="1" y2="0" gradientUnits="userSpaceOnUse" gradientTransform="matrix(1951.27,-482.012,402.897,1838.07,-392.9,941.431)"><stop offset="0" style="stop-color:rgb(255,45,101);stop-opacity:1"/><stop offset="1" style="stop-color:rgb(255,92,59);stop-opacity:1"/></linearGradient>
        <linearGradient id="_Linear16" x1="0" y1="0" x2="1" y2="0" gradientUnits="userSpaceOnUse" gradientTransform="matrix(1951.27,-482.012,402.897,1838.07,-737.379,747.875)"><stop offset="0" style="stop-color:rgb(255,45,101);stop-opacity:1"/><stop offset="1" style="stop-color:rgb(255,92,59);stop-opacity:1"/></linearGradient>
        <linearGradient id="_Linear17" x1="0" y1="0" x2="1" y2="0" gradientUnits="userSpaceOnUse" gradientTransform="matrix(1951.27,-482.012,402.897,1838.07,-626.62,331.472)"><stop offset="0" style="stop-color:rgb(255,45,101);stop-opacity:1"/><stop offset="1" style="stop-color:rgb(255,92,59);stop-opacity:1"/></linearGradient>
        <linearGradient id="_Linear18" x1="0" y1="0" x2="1" y2="0" gradientUnits="userSpaceOnUse" gradientTransform="matrix(1951.27,-482.012,402.897,1838.07,-905.315,819.16)"><stop offset="0" style="stop-color:rgb(255,45,101);stop-opacity:1"/><stop offset="1" style="stop-color:rgb(255,92,59);stop-opacity:1"/></linearGradient>
        <linearGradient id="_Linear19" x1="0" y1="0" x2="1" y2="0" gradientUnits="userSpaceOnUse" gradientTransform="matrix(1951.27,-482.012,402.897,1838.07,-981.074,1139.2)"><stop offset="0" style="stop-color:rgb(255,45,101);stop-opacity:1"/><stop offset="1" style="stop-color:rgb(255,92,59);stop-opacity:1"/></linearGradient>
    </defs>
</svg>
