<svg xmlns="http://www.w3.org/2000/svg" width="570" height="696" fill="none" viewBox="0 0 570 696">
    <path fill="#A9AAC4" fill-rule="evenodd" d="M183.558 78.244c0-9.114 9.839-14.834 17.759-10.323l316.336 180.152c14.84 8.451 24.003 24.216 24.003 41.293v228.593c0 9.114-9.839 14.833-17.759 10.323L207.561 348.129c-14.839-8.451-24.003-24.215-24.003-41.293V78.244z" clip-rule="evenodd"/>
    <path fill="#F9F9F9" fill-rule="evenodd" d="M180.157 81.644c0-9.114 9.84-14.834 17.76-10.323l316.335 180.152c14.84 8.452 24.004 24.216 24.004 41.294v228.592c0 9.114-9.839 14.833-17.759 10.323L204.161 351.529c-14.84-8.451-24.004-24.215-24.004-41.293V81.644z" clip-rule="evenodd"/>
    <path fill="#80B1FF" fill-rule="evenodd" d="M164.573 163.894c-3.96-2.309-8.932.547-8.932 5.131v115.752c0 6.351 3.379 12.221 8.871 15.41l139.724 81.142c3.96 2.3 8.923-.557 8.923-5.136v-115.41c0-6.338-3.367-12.2-8.843-15.393l-139.743-81.496z" clip-rule="evenodd"/>
    <path fill="#fff" fill-rule="evenodd" d="M276.283 265.931l-37.917-21.832.062-3.804 37.658 21.683.197 3.953zm0 13.378l-33.473-19.281-.243-3.795 33.588 19.347.128 3.729zm17.869 9.068v-17.482l-12.759-7.341v17.459l12.759 7.364zM276.283 298.802l-37.917-21.833.062-3.804 37.658 21.684.197 3.953zm0 13.378l-33.473-19.281-.243-3.796 33.588 19.347.128 3.73zm17.869 9.067v-17.482l-12.759-7.341v17.46l12.759 7.363zM276.283 329.405l-37.917-21.833.062-3.804 37.658 21.684.197 3.953zm0 13.378l-33.473-19.281-.243-3.795 33.588 19.347.128 3.729zm17.869 9.068v-17.482l-12.759-7.341v17.459l12.759 7.364z" clip-rule="evenodd"/>
    <path fill="url(#prefix__paint0_linear)" fill-rule="evenodd" d="M212.526 290.868c13.722-3.706 19.906-25.296 13.812-48.222-6.095-22.926-22.159-38.506-35.882-34.8-3.381.913-12.137 1.926-12.137 1.926s-6.267 29.019-1.675 46.296c4.129 15.533 19.278 37.241 19.278 37.241s12.179-1.246 16.604-2.441z" clip-rule="evenodd"/>
    <path fill="#ADCCFF" fill-rule="evenodd" d="M200.388 292.794c13.723-3.707 19.907-25.296 13.813-48.222-6.095-22.926-22.159-38.506-35.882-34.8-13.722 3.706-19.906 25.296-13.812 48.222 6.094 22.925 22.159 38.506 35.881 34.8z" clip-rule="evenodd"/>
    <path fill="#fff" fill-rule="evenodd" d="M210.976 235.142l-26.049 17.173 16.712 40.084c12.842-4.648 18.467-25.61 12.561-47.827-.88-3.308-1.967-6.464-3.224-9.43z" clip-rule="evenodd"/>
    <mask id="prefix__a" width="33" height="58" x="184" y="235" maskUnits="userSpaceOnUse">
        <path fill="#fff" fill-rule="evenodd" d="M210.976 235.142l-26.049 17.173 16.712 40.084c12.842-4.648 18.467-25.61 12.561-47.827-.88-3.308-1.967-6.464-3.224-9.43z" clip-rule="evenodd"/>
    </mask>
    <path fill="#80B1FF" fill-rule="evenodd" d="M164.573 5.21c-3.96-2.31-8.932.546-8.932 5.13v115.752c0 6.351 3.379 12.221 8.871 15.41l139.724 81.143c3.96 2.299 8.923-.558 8.923-5.137v-115.41c0-6.338-3.367-12.2-8.843-15.393L164.573 5.209z" clip-rule="evenodd"/>
    <path fill="#528BE1" fill-rule="evenodd" d="M168.826 31.737l15.866 8.993v81.61l-15.866-8.994V31.737zM197.156 48.739l15.865 8.993v80.476l-15.865-8.993V48.739zM225.488 63.474l15.865 8.993v81.61l-15.865-8.993v-81.61zM253.818 79.343l15.865 8.993v81.609l-15.865-8.993v-81.61zM282.146 94.078l15.866 8.993v79.342l-15.866-8.993V94.078z" clip-rule="evenodd"/>
    <path fill="#fff" fill-rule="evenodd" d="M168.826 81.61l15.866 8.993v45.338l-15.866-8.993V81.609zM197.156 120.147l15.865 8.994v22.669l-15.865-8.993v-22.67zM225.488 113.347l15.865 8.993v45.338l-15.865-8.993v-45.338zM253.818 115.613l15.865 8.994v58.94l-15.865-8.993v-58.941zM282.146 107.679l15.866 8.993v79.343l-15.866-8.993v-79.343z" clip-rule="evenodd"/>
    <path fill="url(#prefix__paint1_linear)" fill-rule="evenodd" d="M37.292 501.448C16.696 501.448 0 491.935 0 480.201c0-11.735 16.696-21.248 37.292-21.248 20.595 0 37.291 9.513 37.291 21.248 0 11.734-16.696 21.247-37.291 21.247z" clip-rule="evenodd" opacity=".211"/>
    <path fill="#AC6A5A" d="M47.205 396.625H30.21v78.383c0 4.693 3.804 8.497 8.497 8.497s8.497-3.804 8.497-8.497v-78.383z"/>
    <mask id="prefix__b" width="18" height="88" x="30" y="396" maskUnits="userSpaceOnUse">
        <path fill="#fff" d="M47.205 396.625H30.21v78.383c0 4.693 3.804 8.497 8.497 8.497s8.497-3.804 8.497-8.497v-78.383z"/>
    </mask>
    <g mask="url(#prefix__b)">
        <path stroke="#fff" stroke-width=".99" d="M42.214 421.316s1.364 10.745-15.092 16.088c-16.456 5.343 10.892-4.052 20.083 0 9.192 4.052-.965 2.661-6.276 2.661-5.31 0-5.035 7.413 0 7.413 5.036 0 26.175 20.871 13.088 18.094-13.088-2.776-24.658-29.733-31.504-18.094-6.846 11.64 27.566 25.165 27.566 31.866 0 6.702-4.786-5.121-21.816-9.958s-12.947 28.733 7.356 25.297c20.302-3.436 22.033-13.949 16.81-18.175-5.224-4.227-16.295-11.62-15.008-15.267 1.287-3.648 14.955 8.145 14.955 8.145" opacity=".3"/>
        <path fill="#AC6A5A" d="M44.115 407.803H27.12v78.383c0 4.693 3.804 8.497 8.497 8.497s8.497-3.804 8.497-8.497v-78.383z" opacity=".256"/>
    </g>
    <path fill="url(#prefix__paint2_linear)" fill-rule="evenodd" d="M40.947 274.804c-18.273 0-6.406 27.906-20.58 58.697-14.173 30.79-31.696 88.03 8.517 91.275 40.212 3.246 40.431-38.067 39.685-84.459-.747-46.391-9.349-65.513-27.622-65.513z" clip-rule="evenodd"/>
    <mask id="prefix__c" width="65" height="151" x="4" y="274" maskUnits="userSpaceOnUse">
        <path fill="#fff" fill-rule="evenodd" d="M40.947 274.804c-18.273 0-6.406 27.906-20.58 58.697-14.173 30.79-31.696 88.03 8.517 91.275 40.212 3.246 40.431-38.067 39.685-84.459-.747-46.391-9.349-65.513-27.622-65.513z" clip-rule="evenodd"/>
    </mask>
    <g mask="url(#prefix__c)">
        <path fill="url(#prefix__paint3_linear)" fill-rule="evenodd" d="M27.906 283.456c-18.273 0-6.406 27.907-20.58 58.697-14.173 30.79-31.696 88.031 8.516 91.276 40.213 3.245 40.431-38.067 39.685-84.459-.746-46.392-9.348-65.514-27.621-65.514z" clip-rule="evenodd"/>
    </g>
    <path fill="url(#prefix__paint4_linear)" fill-rule="evenodd" d="M299.617 544.215l11.988 112.384s.245 2.801 4.371 2.44c4.126-.361 3.607-3.138 3.607-3.138l-4.823-114.388-15.143 2.702z" clip-rule="evenodd"/>
    <mask id="prefix__d" width="21" height="119" x="299" y="541" maskUnits="userSpaceOnUse">
        <path fill="#fff" fill-rule="evenodd" d="M299.617 544.215l11.988 112.384s.245 2.801 4.371 2.44c4.126-.361 3.607-3.138 3.607-3.138l-4.823-114.388-15.143 2.702z" clip-rule="evenodd"/>
    </mask>
    <g mask="url(#prefix__d)">
        <path fill="#426BB0" fill-rule="evenodd" d="M295.891 546.93l11.988 112.384s.245 2.801 4.371 2.44c4.126-.361 3.608-3.138 3.608-3.138l-4.823-114.388-15.144 2.702z" clip-rule="evenodd"/>
    </g>
    <path fill="url(#prefix__paint5_linear)" fill-rule="evenodd" d="M374.479 501.526l15.557 111.946s.439 2.777-3.651 3.425c-4.091.648-4.26-2.172-4.26-2.172l-22.993-112.157 15.347-1.042z" clip-rule="evenodd"/>
    <mask id="prefix__e" width="32" height="116" x="359" y="501" maskUnits="userSpaceOnUse">
        <path fill="#fff" fill-rule="evenodd" d="M374.479 501.526l15.557 111.946s.439 2.777-3.651 3.425c-4.091.648-4.26-2.172-4.26-2.172l-22.993-112.157 15.347-1.042z" clip-rule="evenodd"/>
    </mask>
    <g mask="url(#prefix__e)">
        <path fill="#426BB0" fill-rule="evenodd" d="M378.754 503.259l15.556 111.946s.44 2.777-3.651 3.425c-4.091.648-4.259-2.172-4.259-2.172l-22.994-112.157 15.348-1.042z" clip-rule="evenodd"/>
    </g>
    <path fill="url(#prefix__paint6_linear)" fill-rule="evenodd" d="M117.602 433.042l-13.6 112.2s-.392 2.784 3.71 3.361c4.101.576 4.221-2.246 4.221-2.246l21.032-112.542-15.363-.773z" clip-rule="evenodd"/>
    <mask id="prefix__f" width="30" height="116" x="103" y="433" maskUnits="userSpaceOnUse">
        <path fill="#fff" fill-rule="evenodd" d="M117.602 433.042l-13.6 112.2s-.392 2.784 3.71 3.361c4.101.576 4.221-2.246 4.221-2.246l21.032-112.542-15.363-.773z" clip-rule="evenodd"/>
    </mask>
    <g mask="url(#prefix__f)">
        <path fill="#426BB0" fill-rule="evenodd" d="M113.36 434.849L99.76 547.05s-.391 2.784 3.71 3.36c4.101.577 4.221-2.246 4.221-2.246l21.032-112.541-15.363-.774z" clip-rule="evenodd"/>
    </g>
    <path fill="url(#prefix__paint7_linear)" fill-rule="evenodd" d="M218.132 408.499l-2.117 112.649s0 2.803-4.082 2.803c-4.083 0-3.812-2.803-3.812-2.803l-5.092-114.017 15.103 1.368z" clip-rule="evenodd"/>
    <mask id="prefix__g" width="16" height="117" x="203" y="407" maskUnits="userSpaceOnUse">
        <path fill="#fff" fill-rule="evenodd" d="M218.132 408.499l-2.117 112.649s0 2.803-4.082 2.803c-4.083 0-3.812-2.803-3.812-2.803l-5.092-114.017 15.103 1.368z" clip-rule="evenodd"/>
    </mask>
    <g mask="url(#prefix__g)">
        <path fill="url(#prefix__paint8_linear)" fill-rule="evenodd" d="M222.024 410.872l-2.117 112.649s0 2.803-4.082 2.803c-4.083 0-3.812-2.803-3.812-2.803l-5.092-114.017 15.103 1.368z" clip-rule="evenodd"/>
    </g>
    <path fill="#80B1FF" fill-rule="evenodd" d="M304.409 551.217c3.233 1.958 7.277 1.998 10.548.104l72.503-41.978c2.131-1.234 2.157-4.301.048-5.57L194.384 387.522c-3.236-1.948-7.276-1.978-10.541-.08l-71.73 41.714c-2.123 1.235-2.15 4.291-.05 5.563l192.346 116.498z" clip-rule="evenodd"/>
    <path fill="#fff" fill-rule="evenodd" d="M304.409 548.104c3.233 1.958 7.277 1.998 10.548.104l72.503-41.978c2.131-1.234 2.157-4.301.048-5.57L194.384 384.409c-3.236-1.947-7.276-1.978-10.541-.079l-71.73 41.714c-2.123 1.234-2.15 4.29-.05 5.562l192.346 116.498z" clip-rule="evenodd"/>
    <path fill="#DCE9FF" fill-rule="evenodd" d="M303.481 547.477c3.229 1.951 7.264 1.991 10.531.104l72.533-41.905c2.134-1.233 2.161-4.304.048-5.573L193.389 384.057c-3.232-1.941-7.263-1.971-10.524-.079l-71.76 41.64c-2.126 1.234-2.153 4.294-.05 5.566l192.426 116.293z" clip-rule="evenodd"/>
    <mask id="prefix__h" width="280" height="167" x="109" y="382" maskUnits="userSpaceOnUse">
        <path fill="#fff" fill-rule="evenodd" d="M303.481 547.477c3.229 1.951 7.264 1.991 10.531.104l72.533-41.905c2.134-1.233 2.161-4.304.048-5.573L193.389 384.057c-3.232-1.941-7.263-1.971-10.524-.079l-71.76 41.64c-2.126 1.234-2.153 4.294-.05 5.566l192.426 116.293z" clip-rule="evenodd"/>
    </mask>
    <g mask="url(#prefix__h)">
        <path fill-rule="evenodd" stroke="#C5D6FF" stroke-width=".647" d="M369.795 496.57c20.984 12.198 3.989 31.814-8.301 36.785-12.291 4.971-32.277-4.971-36.214-7.438-3.936-2.468-14.82-8.535-34.065-6.557-19.244 1.977-63.884 14.4-37.66 14.4 26.224 0 39.986-10.797 50.412-6.811 10.427 3.985 59.901 1.905 31.649-7.789-28.252-9.694-42.146-13.765-67.123-6.811-24.977 6.955-93.462-3.435-83.491-14.899 9.97-11.464 69.213 2.27 64.814-21.205-4.399-23.474-134.988-28.711-73.441-22.006 61.548 6.706 72.903 3.087 90.242 16.408 17.338 13.322-65.503 58.522-99.207 60.392-38.274 2.124-17.464-46.282 26.524-50.378 43.989-4.095 36.845-8.366-12.635-9.03-19.317-.259-56.382 4.833-74.166.756-27.769-6.367-28.277-22.626 7.407-20.731 58.536 3.108 107.336 5.935 133.311 3.525 25.975-2.41 54.85-9.779-9.928-11.058-64.779-1.28-99.271.223-115.347-2.174-16.076-2.396-37.488-15.513.562-11.443 38.05 4.069 34.097 12.304 59.475 6.037 25.378-6.268 35.956-19.197 28.923-21.665-7.033-2.467-17.066 10.429-35.233 11.515-18.167 1.087-2.731-13.367-6.132-27.543-3.4-14.176-8.898-27.804-9.655-4.766-.758 23.038-52.752-7.644-52.752-7.644s-2.152.252 28.379 21.589c30.531 21.338 31.043 24.757 48.244 21.654 17.202-3.102-6.043 12.372-41.965-.476-35.922-12.848-55.23-18.225-55.23-18.225s-25.076-51.634 48.951-31.472c74.027 20.163 137.218 24.463 105.943 38.658-31.275 14.195-48.453 17.399-37.139 18.375 11.313.976 50.884-4.18 50.884-4.18s62.884 19.222 46.658 30.455c-16.227 11.232-10.975 24.445 12.947 24.891 23.922.446 33.374-3.337 54.359 8.861z" clip-rule="evenodd" opacity=".4"/>
    </g>
    <path fill="url(#prefix__paint9_linear)" fill-rule="evenodd" d="M244.397 438.043c.372-.199.82-.197 1.189.007l51.943 28.714v1.721c0 .221-.118.426-.309.537l-32.786 19.06c-.385.224-.862.224-1.248 0l-51.602-29.984c-.191-.111-.309-.315-.309-.537v-1.721l33.122-17.797z" clip-rule="evenodd"/>
    <path fill="url(#prefix__paint10_linear)" fill-rule="evenodd" d="M244.397 437.635c.372-.2.82-.197 1.189.007l51.943 28.713v1.722c0 .221-.118.425-.309.537l-32.786 19.059c-.385.224-.862.224-1.248 0l-51.602-29.983c-.191-.111-.309-.316-.309-.537v-1.722l33.122-17.796z" clip-rule="evenodd"/>
    <path fill="url(#prefix__paint11_linear)" fill-rule="evenodd" d="M244.369 435.894c.385-.223.861-.223 1.246 0l51.578 29.924c.412.239.412.835 0 1.074l-32.761 19.001c-.385.223-.861.223-1.246 0l-51.577-29.924c-.413-.24-.413-.835 0-1.075l32.76-19z" clip-rule="evenodd"/>
    <path fill="url(#prefix__paint12_linear)" fill-rule="evenodd" d="M247.182 440.164c-.341-.2-.764-.196-1.101.01l-10.221 6.252c-.231.141-.226.479.009.613l41.98 24.02c.654.374 1.458.376 2.114.005l9.518-5.379c.239-.135.242-.478.005-.617l-42.304-24.904z" clip-rule="evenodd" opacity=".246"/>
    <path fill="url(#prefix__paint13_linear)" fill-rule="evenodd" d="M242.99 455.559c.137-.079.306-.079.444 0l18.668 10.688c.15.086.15.302 0 .388l-11.857 6.786c-.138.079-.307.079-.444 0l-18.669-10.688c-.15-.086-.15-.302 0-.388l11.858-6.786z" clip-rule="evenodd"/>
    <mask id="prefix__i" width="32" height="19" x="231" y="455" maskUnits="userSpaceOnUse">
        <path fill="#fff" fill-rule="evenodd" d="M242.99 455.559c.137-.079.306-.079.444 0l18.668 10.688c.15.086.15.302 0 .388l-11.857 6.786c-.138.079-.307.079-.444 0l-18.669-10.688c-.15-.086-.15-.302 0-.388l11.858-6.786z" clip-rule="evenodd"/>
    </mask>
    <g mask="url(#prefix__i)">
        <path fill="url(#prefix__paint14_linear)" fill-rule="evenodd" d="M242.99 456.449c.137-.079.306-.079.444 0l18.668 10.688c.15.086.15.302 0 .388l-11.857 6.787c-.138.078-.307.078-.444 0l-18.669-10.689c-.15-.085-.15-.302 0-.388l11.858-6.786z" clip-rule="evenodd"/>
    </g>
    <path fill="#80B1FF" fill-rule="evenodd" d="M246.19 395.848c.177-.071.376-.057.541.038l51.651 29.72c.386.222.623.632.623 1.077v38.134c0 .218-.114.42-.301.532l-.697.42c-.296.178-.666.178-.962 0l-50.582-30.477c-.364-.22-.59-.61-.6-1.035l-.857-37.282c-.009-.388.224-.741.584-.886l.6-.241z" clip-rule="evenodd"/>
    <path fill="url(#prefix__paint15_linear)" fill-rule="evenodd" d="M244.991 396.813c0-.478.519-.777.933-.537l51.575 29.923c.383.222.618.631.618 1.074v38.004c0 .478-.518.777-.932.537l-51.575-29.923c-.383-.222-.619-.631-.619-1.074v-38.004z" clip-rule="evenodd"/>
    <path fill="url(#prefix__paint16_linear)" fill-rule="evenodd" d="M247.064 399.596l48.802 28.388v34.575l-48.802-28.388v-34.575z" clip-rule="evenodd"/>
    <path fill="url(#prefix__paint17_linear)" fill-rule="evenodd" d="M331.399 485.367c-.372-.2-.819-.197-1.189.007l-51.942 28.713v1.722c0 .221.117.426.309.537l32.785 19.059c.386.225.862.225 1.248 0l51.602-29.983c.191-.111.309-.316.309-.537v-1.721l-33.122-17.797z" clip-rule="evenodd"/>
    <path fill="url(#prefix__paint18_linear)" fill-rule="evenodd" d="M331.399 484.959c-.372-.2-.819-.197-1.189.007l-51.942 28.713v1.722c0 .221.117.425.309.536l32.785 19.06c.386.224.862.224 1.248 0l51.602-29.983c.191-.112.309-.316.309-.537v-1.722l-33.122-17.796z" clip-rule="evenodd"/>
    <path fill="url(#prefix__paint19_linear)" fill-rule="evenodd" d="M331.426 483.217c-.386-.223-.861-.223-1.247 0l-51.577 29.924c-.413.239-.412.835 0 1.074l32.76 19.001c.386.223.861.223 1.247 0l51.577-29.924c.413-.24.413-.835 0-1.075l-32.76-19z" clip-rule="evenodd"/>
    <path fill="url(#prefix__paint20_linear)" fill-rule="evenodd" d="M328.614 487.487c.34-.2.763-.196 1.1.01l10.221 6.252c.232.141.227.479-.009.613l-41.98 24.019c-.654.375-1.457.377-2.114.006l-9.518-5.379c-.238-.135-.242-.478-.005-.617l42.305-24.904z" clip-rule="evenodd" opacity=".246"/>
    <path fill="url(#prefix__paint21_linear)" fill-rule="evenodd" d="M332.804 502.882c-.138-.079-.307-.079-.444 0l-18.668 10.688c-.15.086-.15.302 0 .388l11.857 6.787c.138.078.307.078.444 0l18.668-10.688c.15-.086.15-.303 0-.388l-11.857-6.787z" clip-rule="evenodd"/>
    <mask id="prefix__j" width="32" height="19" x="313" y="502" maskUnits="userSpaceOnUse">
        <path fill="#fff" fill-rule="evenodd" d="M332.804 502.882c-.138-.079-.307-.079-.444 0l-18.668 10.688c-.15.086-.15.302 0 .388l11.857 6.787c.138.078.307.078.444 0l18.668-10.688c.15-.086.15-.303 0-.388l-11.857-6.787z" clip-rule="evenodd"/>
    </mask>
    <g mask="url(#prefix__j)">
        <path fill="url(#prefix__paint22_linear)" fill-rule="evenodd" d="M332.804 503.773c-.138-.079-.307-.079-.444 0l-18.668 10.688c-.15.086-.15.302 0 .388l11.857 6.786c.138.079.307.079.444 0l18.668-10.688c.15-.086.15-.302 0-.388l-11.857-6.786z" clip-rule="evenodd"/>
    </g>
    <path fill="#80B1FF" fill-rule="evenodd" d="M329.604 443.171c-.176-.071-.376-.057-.541.038l-51.651 29.72c-.385.222-.622.632-.622 1.077v38.134c0 .218.114.42.3.532l.698.42c.295.179.665.179.961 0l50.582-30.477c.364-.22.591-.61.601-1.035l.857-37.282c.009-.388-.224-.741-.584-.886l-.601-.241z" clip-rule="evenodd"/>
    <path fill="url(#prefix__paint23_linear)" fill-rule="evenodd" d="M330.804 444.136c0-.478-.519-.777-.933-.537l-51.575 29.923c-.383.222-.619.631-.619 1.074V512.6c0 .479.519.777.933.537l51.575-29.922c.383-.223.619-.632.619-1.075v-38.004z" clip-rule="evenodd"/>
    <path fill="url(#prefix__paint24_linear)" fill-rule="evenodd" d="M328.733 446.919l-48.803 28.388v34.575l48.803-28.388v-34.575z" clip-rule="evenodd"/>
    <path fill="#FFBBB0" fill-rule="evenodd" d="M212.998 543.047l.677 7.376s-4.908 12.182-7.077 27.755c-2.169 15.573-1.444 42.734-4.26 47.524-2.816 4.791-1.189 8.301.919 9.312 2.108 1.011 5.801-1.067 12.52-5.819 6.719-4.752 14.271-7.334 13.151-10.176-1.121-2.842-12.954 2.089-14.193 0-1.239-2.089 14.778-64.364 14.193-68.596-.586-4.232-1.121-17.398-1.121-17.398l-14.809 10.022z" clip-rule="evenodd"/>
    <path fill="#F29E98" fill-rule="evenodd" d="M219.536 546.292l1.166 9.709s-3.868 19.721-5.758 32.154c-1.89 12.434-5.809 42.668-5.809 42.668l3.006 1.705 16.918-83.977-9.523-2.259z" clip-rule="evenodd"/>
    <path fill="#181E36" fill-rule="evenodd" d="M202.588 624.14s1.643-1.031 2.529 0c.886 1.032 6.805 3.663 10.827 2.636 4.022-1.026 8.857-4.506 8.857-5.82 0-1.313-5.619-4.131-5.619-4.131s7.611-1.762 10.437 0c2.826 1.762-.366 7.511-3.105 8.731-2.739 1.22-17.301 10.318-18.298 10.318-.997 0-3.099 8.015-3.099 8.015s-1.115.495-2.13 0c0 0-2.152-10.107-2.152-13.849 0-3.742 1.753-5.9 1.753-5.9z" clip-rule="evenodd"/>
    <path fill="#FFBBB0" fill-rule="evenodd" d="M225.619 541.266l.493 11.657s-5.094 15.793-7.327 27.067c-2.233 11.273-5.243 42.145-6.507 44.968-1.263 2.822-2.784 10.304.463 12.157 2.067 1.179.222-1.018 6.044-.921 3.323.055 14.461 4.626 17.753 4.626 9.06 0 8.609-3.86 7.273-5.243-.695-.72-3.363-2.131-7.273-3.531-3.609-1.292-8.459-2.531-9.584-4.205-2.344-3.49-2.649-7.982-1.745-13.035.903-5.052 18.118-58.337 18.96-63.251.842-4.914 1.493-18.53 1.493-18.53l-20.043 8.241z" clip-rule="evenodd"/>
    <path fill="#091C3F" fill-rule="evenodd" d="M213.409 543.336s-4.417 13.601-5.868 21.156c-.899 4.679-.714 6.362-1.189 10.905 0 0 8.131 5.515 12.595 2.986 2.101-11.778 13.433-42.041 13.433-42.041l-18.971 6.994z" clip-rule="evenodd"/>
    <mask id="prefix__k" width="27" height="44" x="206" y="536" maskUnits="userSpaceOnUse">
        <path fill="#fff" fill-rule="evenodd" d="M213.409 543.336s-4.417 13.601-5.868 21.156c-.899 4.679-.714 6.362-1.189 10.905 0 0 8.131 5.515 12.595 2.986 2.101-11.778 13.433-42.041 13.433-42.041l-18.971 6.994z" clip-rule="evenodd"/>
    </mask>
    <path fill="#172E56" fill-rule="evenodd" d="M147.682 624.841c2.138 0 3.871-1.751 3.871-3.91 0-2.16-1.733-3.911-3.871-3.911-2.139 0-3.872 1.751-3.872 3.911 0 2.159 1.733 3.91 3.872 3.91z" clip-rule="evenodd"/>
    <path fill="#103A86" fill-rule="evenodd" d="M177.675 616.8l18.851-2.773 1.167 1.609-17.116 8.401-2.902-7.237z" clip-rule="evenodd"/>
    <mask id="prefix__l" width="21" height="11" x="177" y="614" maskUnits="userSpaceOnUse">
        <path fill="#fff" fill-rule="evenodd" d="M177.675 616.8l18.851-2.773 1.167 1.609-17.116 8.401-2.902-7.237z" clip-rule="evenodd"/>
    </mask>
    <g mask="url(#prefix__l)">
        <path fill="url(#prefix__paint25_linear)" fill-rule="evenodd" d="M179.787 618.363l26.119-7.45-27.635 4.168 1.516 3.282z" clip-rule="evenodd"/>
    </g>
    <path fill="#103A86" fill-rule="evenodd" d="M180.162 652.233c2.43.009 3.837 1.544 3.85 5.044.013 3.5-.791 4.972-3.026 4.963-2.235-.008-3.3-1.903-3.516-4.535-.217-2.633.262-5.481 2.692-5.472z" clip-rule="evenodd"/>
    <mask id="prefix__m" width="8" height="11" x="177" y="652" maskUnits="userSpaceOnUse">
        <path fill="#fff" fill-rule="evenodd" d="M180.162 652.233c2.43.009 3.837 1.544 3.85 5.044.013 3.5-.791 4.972-3.026 4.963-2.235-.008-3.3-1.903-3.516-4.535-.217-2.633.262-5.481 2.692-5.472z" clip-rule="evenodd"/>
    </mask>
    <g mask="url(#prefix__m)">
        <path fill="#083263" fill-rule="evenodd" d="M177.84 652.749c1.964-.691 3.355 1.191 3.536 3.956.181 2.764.339 4.903-1.615 5.772-1.953.87-3.978-1.675-3.988-4.408-.01-2.733.103-4.629 2.067-5.32z" clip-rule="evenodd"/>
    </g>
    <path fill="#103A86" fill-rule="evenodd" d="M175.487 616.686h-29.334l-.405 1.676 29.005 6.55.734-8.226z" clip-rule="evenodd"/>
    <mask id="prefix__n" width="31" height="9" x="145" y="616" maskUnits="userSpaceOnUse">
        <path fill="#fff" fill-rule="evenodd" d="M175.487 616.686h-29.334l-.405 1.676 29.005 6.55.734-8.226z" clip-rule="evenodd"/>
    </mask>
    <g mask="url(#prefix__n)">
        <path fill="url(#prefix__paint26_linear)" fill-rule="evenodd" d="M145.748 617.02l26.228.437v-1.821l-26.228 1.384z" clip-rule="evenodd"/>
    </g>
    <path fill="#fff" fill-rule="evenodd" d="M176.276 619.389c2.851 0 5.098-1.12 5.098-2.704s-2.247-2.704-5.098-2.704-5.3.981-5.3 2.6c0 1.619 2.449 2.808 5.3 2.808z" clip-rule="evenodd"/>
    <path fill="#103A86" fill-rule="evenodd" d="M170.976 624.037l11.174 31.996 2.513-.568-3.14-31.428-.153-7.238s-.793 2.396-5.094 2.396c-4.302 0-5.3-2.396-5.3-2.396v7.238z" clip-rule="evenodd"/>
    <mask id="prefix__o" width="15" height="41" x="170" y="616" maskUnits="userSpaceOnUse">
        <path fill="#fff" fill-rule="evenodd" d="M170.976 624.037l11.174 31.996 2.513-.568-3.14-31.428-.153-7.238s-.793 2.396-5.094 2.396c-4.302 0-5.3-2.396-5.3-2.396v7.238z" clip-rule="evenodd"/>
    </mask>
    <g mask="url(#prefix__o)">
        <path fill="url(#prefix__paint27_linear)" fill-rule="evenodd" d="M170.976 624.037s1.851 2.225 6.125 1.483l5.07 31.182-11.195-32.665z" clip-rule="evenodd"/>
    </g>
    <path fill="#80B1FF" fill-rule="evenodd" d="M171.974 584.435v31.803s.848 2.124 4.302 2.124c3.454 0 4.301-2.124 4.301-2.124v-31.803h-8.603z" clip-rule="evenodd"/>
    <path fill="#fff" fill-rule="evenodd" d="M179.306 658.511c.237 0 .43-.583.43-1.303s-.193-1.304-.43-1.304c-.238 0-.43.584-.43 1.304 0 .72.192 1.303.43 1.303z" clip-rule="evenodd"/>
    <path fill="#103A86" fill-rule="evenodd" d="M146.594 625.278c2.138 0 3.872-1.751 3.872-3.911 0-2.159-1.734-3.91-3.872-3.91s-3.871 1.751-3.871 3.91c0 2.16 1.733 3.911 3.871 3.911z" clip-rule="evenodd"/>
    <path fill="#172E56" fill-rule="evenodd" d="M197.49 622.107c2.138 0 3.871-1.751 3.871-3.91 0-2.16-1.733-3.911-3.871-3.911s-3.872 1.751-3.872 3.911c0 2.159 1.734 3.91 3.872 3.91z" clip-rule="evenodd"/>
    <path fill="#103A86" fill-rule="evenodd" d="M196.402 622.544c2.138 0 3.872-1.751 3.872-3.911 0-2.159-1.734-3.91-3.872-3.91s-3.871 1.751-3.871 3.91c0 2.16 1.733 3.911 3.871 3.911z" clip-rule="evenodd"/>
    <path fill="#fff" fill-rule="evenodd" d="M196.403 619.937c.713 0 1.291-.584 1.291-1.304 0-.72-.578-1.303-1.291-1.303-.712 0-1.29.583-1.29 1.303s.578 1.304 1.29 1.304zM146.596 622.671c.713 0 1.29-.583 1.29-1.303s-.577-1.304-1.29-1.304c-.713 0-1.291.584-1.291 1.304 0 .72.578 1.303 1.291 1.303z" clip-rule="evenodd"/>
    <path fill="#092965" fill-rule="evenodd" d="M162.647 538.265l6.235 48.893s1.729 2.252 7.002 2.252c5.274 0 7.335-2.252 7.335-2.252l5.993-54.133-26.565 5.24z" clip-rule="evenodd"/>
    <path fill="url(#prefix__paint28_linear)" fill-rule="evenodd" d="M207.211 567.95c8.513-4.695 8.574-16.909.108-21.69l-16.186-9.139c-14.49-8.183-32.201-8.206-46.712-.061l-15.037 8.441c-4.909 2.755-4.938 9.81-.052 12.606l31.342 17.931c9.716 5.559 21.627 5.652 31.429.245l15.108-8.333z" clip-rule="evenodd"/>
    <path fill="#fff" fill-rule="evenodd" d="M207.211 562.975c8.513-4.695 8.574-16.909.108-21.69l-16.186-9.14c-14.49-8.182-32.201-8.205-46.712-.06l-15.037 8.44c-4.909 2.755-4.938 9.811-.052 12.607l31.342 17.931c9.716 5.559 21.627 5.652 31.429.245l15.108-8.333z" clip-rule="evenodd"/>
    <path fill="#80B1FF" fill-rule="evenodd" d="M207.211 562.975c8.513-4.695 8.574-16.909.108-21.69l-16.186-9.14c-14.49-8.182-32.201-8.205-46.712-.06l-15.037 8.44c-4.909 2.755-4.938 9.811-.052 12.607l31.342 17.931c9.716 5.559 21.627 5.652 31.429.245l15.108-8.333z" clip-rule="evenodd"/>
    <path fill="#092965" fill-rule="evenodd" d="M155.045 508.15s-9.85 25.53-2.616 31.756c2.315 1.993 3.323 3.144 5.947 4.793 5.573 3.505 12.152 7.049 22.662 6.27 15.458-1.147 43.713-9.463 43.713-9.463s-7.358 22.322-8.974 38.193c3.922 8.644 17.421 9.878 18.877 5.763 1.455-4.115 12.062-36.796 14.111-50.724 2.05-13.927-12.599-17.351-17.759-16.15-.093-7.849-75.961-10.438-75.961-10.438z" clip-rule="evenodd"/>
    <path stroke="#1C478A" stroke-width="1.035" d="M180.911 524.734s5.151 14.563 22.353 14.563 35.757-5.441 35.757-5.441l-13.652 52.631"/>
    <path fill="#092965" fill-rule="evenodd" d="M156.083 504.833s-1.001 6.909 11.115 10.989c12.116 4.08 26.995 2.41 26.995-2.87s-38.11-8.119-38.11-8.119z" clip-rule="evenodd"/>
    <path fill="#586DFF" fill-rule="evenodd" d="M163.392 451.765s-6.255.497-9.092 14.045c-2.838 13.547-10.742 28.402-3.839 33.672 6.903 5.27 14.925-15.508 14.925-15.508l-1.994-32.209z" clip-rule="evenodd"/>
    <mask id="prefix__p" width="19" height="50" x="147" y="451" maskUnits="userSpaceOnUse">
        <path fill="#fff" fill-rule="evenodd" d="M163.392 451.765s-6.255.497-9.092 14.045c-2.838 13.547-10.742 28.402-3.839 33.672 6.903 5.27 14.925-15.508 14.925-15.508l-1.994-32.209z" clip-rule="evenodd"/>
    </mask>
    <g mask="url(#prefix__p)">
        <path fill="#4756BE" fill-rule="evenodd" d="M165.075 450.058s-6.255.497-9.092 14.045c-2.838 13.547-10.742 28.403-3.839 33.672 6.903 5.27 14.925-15.508 14.925-15.508l-1.994-32.209z" clip-rule="evenodd"/>
    </g>
    <path fill="#586DFF" fill-rule="evenodd" d="M156.238 460.663c.844-1.431 2.377-8.153 6.38-9.437 5.02-1.611 12.128-1.369 16.332 0 7.814 2.543 20.479 9.988 21.62 12.176 1.14 2.188 2.775 10.861 3.723 15.662.948 4.802 3.185 17.171-6.383 16.503 0 0-2.659 4.757-2.659 9.026 0 4.27.959 6.754-2.841 10.016-3.801 3.262-19.599 2.461-26.556 0-6.957-2.46-10.778-7.282-12.679-10.016-1.901-2.734 3.592-13.772 3.592-13.772s-2.43-26.931-.529-30.158z" clip-rule="evenodd"/>
    <mask id="prefix__q" width="54" height="67" x="152" y="450" maskUnits="userSpaceOnUse">
        <path fill="#fff" fill-rule="evenodd" d="M156.238 460.663c.844-1.431 2.377-8.153 6.38-9.437 5.02-1.611 12.128-1.369 16.332 0 7.814 2.543 20.479 9.988 21.62 12.176 1.14 2.188 2.775 10.861 3.723 15.662.948 4.802 3.185 17.171-6.383 16.503 0 0-2.659 4.757-2.659 9.026 0 4.27.959 6.754-2.841 10.016-3.801 3.262-19.599 2.461-26.556 0-6.957-2.46-10.778-7.282-12.679-10.016-1.901-2.734 3.592-13.772 3.592-13.772s-2.43-26.931-.529-30.158z" clip-rule="evenodd"/>
    </mask>
    <g mask="url(#prefix__q)">
        <path fill="#4756BE" fill-rule="evenodd" d="M196.706 467.182s-4.316 19.05 2.894 28.966c7.209 9.916-2.894 9.127-2.894 9.127s-3.487-10.349-3.979-19.344c-.492-8.995 3.979-18.749 3.979-18.749z" clip-rule="evenodd"/>
    </g>
    <rect width="5.134" height="1.722" x="194.434" y="423.034" fill="#30334F" rx=".861" transform="rotate(-10 194.434 423.034)"/>
    <path fill="#FFBBB0" fill-rule="evenodd" d="M194.891 415.472s3.993 5.884 3.552 8.971c-.441 3.086.896 6.184 2.905 7.049 2.009.866-1.128 3.03-1.128 3.03s.378 3.641-.329 6.781c-.706 3.14-.027 5.428-3.447 6.031-3.419.603-7.474.594-7.474.594s-2.026 3.737-.799 5.733c1.226 1.996 3.107.704 2.341 2.21s-18.211-5.346-18.211-5.346c.814-2.246 1.085-3.713.953-6.099-.493-8.959-4.586-30.817 5.624-32.617 10.209-1.8 16.013 3.663 16.013 3.663z" clip-rule="evenodd"/>
    <path fill="#4A5CD8" fill-rule="evenodd" d="M194.004 458.981s-2.303-6.911-6.243-8.883c-3.941-1.972-16.893-6.923-17.901.8 0 0 5.633 1.187 8.495 2.145 5.186 1.736 15.649 5.938 15.649 5.938z" clip-rule="evenodd"/>
    <path fill="#30334F" fill-rule="evenodd" d="M191.662 424.397s12.011-7.26 10.773-14.279c-1.237-7.019-6.93-10.572-15.391-8.034-15.191-4.504-23.31 4.942-23.895 19.021-.584 14.078 4.937 12.779 10.106 20.828 10.464 3.37 18.407-17.536 18.407-17.536z" clip-rule="evenodd"/>
    <path fill="#F0F0F0" fill-rule="evenodd" d="M168.356 422.611c5.418-.956 9.037-6.117 8.082-11.529-.954-5.412-6.12-9.025-11.538-8.07-5.418.956-9.037 6.117-8.082 11.529.954 5.412 6.12 9.025 11.538 8.07z" clip-rule="evenodd"/>
    <path fill="#30334F" fill-rule="evenodd" d="M164.942 424.488c6.773-1.194 11.296-7.647 10.103-14.411-1.193-6.765-7.65-11.281-14.423-10.087-6.772 1.194-11.296 7.646-10.103 14.411 1.193 6.765 7.65 11.281 14.423 10.087z" clip-rule="evenodd"/>
    <path fill="#80B1FF" fill-rule="evenodd" d="M138.403 464.498c-1.169-1.049-2.865-1.283-4.262-.567l-2.333 1.197c-1.408.722-2.207 2.256-1.99 3.825l4.395 31.832c.38 2.753 1.862 5.233 4.106 6.873l38.611 28.203c1.534 1.12 3.595 1.197 5.208.192l3.657-2.276c1.093-.681 1.757-1.876 1.757-3.163v-31.716c0-4.203-2.559-7.975-6.449-9.566-7.697-3.146-20.167-8.381-25.274-11.3-5.736-3.278-13.779-10.262-17.426-13.534z" clip-rule="evenodd"/>
    <path fill="#fff" fill-rule="evenodd" d="M133.915 466.152c-1.226-1.162-3.338-.29-3.338 1.399v36.332c0 1.751.441 3.474 1.454 4.902 2.369 3.343 7.675 9.766 16.209 14.521 8.62 4.802 22.847 9.841 30.249 12.321 2.383.798 4.812-.984 4.812-3.496v-31.525c0-4.322-2.712-8.179-6.741-9.744-5.886-2.286-14.619-5.842-21.997-9.516-8.369-4.167-16.332-11.101-20.648-15.194z" clip-rule="evenodd"/>
    <path fill="url(#prefix__paint29_linear)" fill-rule="evenodd" d="M133.064 467.008c-1.226-1.162-3.338-.29-3.338 1.398v36.333c0 1.751.441 3.473 1.454 4.902 2.369 3.343 7.675 9.765 16.209 14.52 8.62 4.803 22.847 9.842 30.249 12.321 2.383.799 4.812-.983 4.812-3.496v-31.524c0-4.322-2.712-8.18-6.741-9.744-5.886-2.286-14.619-5.842-21.997-9.516-8.369-4.168-16.332-11.101-20.648-15.194z" clip-rule="evenodd"/>
    <path fill="#80B1FF" fill-rule="evenodd" d="M151.462 497.506c2.315 1.171 3.775 3.545 3.775 6.14v68.342l-.651.4c-1.136.699-2.59.594-3.614-.259l-9.496-7.912v-60.571c0-5.129 5.41-8.455 9.986-6.14z" clip-rule="evenodd"/>
    <path fill="#092965" fill-rule="evenodd" d="M148.912 499.217c2.315 1.171 3.774 3.545 3.774 6.139v66.465c0 .856 1.018 1.303 1.649.725-1.008.704-2.329.768-3.399.164l-11.126-6.283c-.546-.308-.884-.887-.884-1.515v-59.556c0-5.129 5.41-8.454 9.986-6.139z" clip-rule="evenodd"/>
    <path fill="#FFBBB0" fill-rule="evenodd" d="M236.716 469.634l6.7-16.698 9.896-8.102s.711 13.618-1.513 18.54c-2.224 4.921-8.999 11.776-8.999 11.776s-22.04 48.681-33.662 35.579c-2.09-2.357-7.585-7.784-7.351-9.213.766-4.669 11.907-4.018 11.509-4.379-1.052-.954 23.42-27.503 23.42-27.503z" clip-rule="evenodd"/>
    <path fill="#586DFF" fill-rule="evenodd" d="M199.131 461.963s7.336 4.255 11.447 18.756c4.111 14.502 6.629 14.164 6.629 14.164s-5.661 11.688-15.995 7.818c-4.265-8.102-7.847-18.382-7.847-24.526 0-9.512 5.766-16.212 5.766-16.212z" clip-rule="evenodd"/>
    <path fill="#D24747" fill-rule="evenodd" d="M237.448 465.373l-19.547-16.987 1.199-4.356 23.244-25.951 15.072 15.101 28.211.636.83 6.115-22.151 34.222-26.858-8.78z" clip-rule="evenodd"/>
    <path fill="#F0F0F0" fill-rule="evenodd" d="M239.083 460.484L219.1 444.03l22.413-32.066 18.278 16.013 25.835 5.839-22.15 34.222-24.393-7.554z" clip-rule="evenodd"/>
    <path fill="#fff" fill-rule="evenodd" d="M239.023 460.572l20.768-32.595s14.598 1.14 26.344-4.12l-25.029 37.858s-6.478 1.161-12.171.83c-5.693-.331-9.912-1.973-9.912-1.973z" clip-rule="evenodd"/>
    <path fill="#FFBBB0" fill-rule="evenodd" d="M247.593 469.634s3.039-6.74 2.314-11.064c-.726-4.324-1.474-7.821-3.213-5.146-1.738 2.674-.228 6.985-.983 7.638-.755.653-5.379 3.638-4.327 7.233 1.051 3.596 6.209 1.339 6.209 1.339z" clip-rule="evenodd"/>
    <path stroke="#1C478A" stroke-width=".941" d="M254.865 429.204l-12.43-11.209M251.544 430.862l-10.769-9.55M241.583 447.446l-10.77-9.55M240.775 427.545l-3.32-2.916M247.415 434.179l-3.321-2.917"/>
    <path fill="#181E36" fill-rule="evenodd" d="M211.986 626.439c.691-.825 1.2-.825 3.136.789 2.297 1.916 10.998 5.216 14.767 6.17 2.412.61 8.476.915 8.28 0-.206-.966-1.283-1.046-1.542-1.36-.506-.612 9.102 3.888 11.245 5.56 2.144 1.672 2.144 4.651-8.909 6.963-1.126.236-7.267-.473-9.369-1.284-4.713-1.817-6.786-5.048-11.824-5.679l-2.197 9.49s-1.629.864-2.896-.316c0 0-2.711-13.575-2.711-15.868 0-2.292 1.659-4.033 2.02-4.465z" clip-rule="evenodd"/>
    <path fill="#FFBBB0" fill-rule="evenodd" d="M380.452 571.158l-.517 11.709s5.351 15.863 7.697 27.187c2.345 11.325 5.507 42.335 6.835 45.17 1.327 2.836 4.136 8.806.725 10.667-2.172 1.185-4.705-.097-10.821 0-3.491.055-11.93 5.266-15.388 5.266-9.518 0-9.045-3.877-7.641-5.266.73-.723 3.533-2.14 7.641-3.546 3.791-1.298 8.258-5.438 9.44-7.121 2.463-3.505 3.41-5.122 2.461-10.196-.949-5.075-19.033-58.6-19.918-63.536-.884-4.936-1.568-18.613-1.568-18.613l21.054 8.279z" clip-rule="evenodd"/>
    <path fill="#30334F" fill-rule="evenodd" d="M425.617 641.107s.376 2.51.376 3.791c0 1.281-2.254 3.349-6.724 3.005-4.47-.344-8.304-4.485-8.691-4.927-.387-.443.4-3.906-2.264-4.811-2.665-.904-3.167.951-7.518-1.833-4.35-2.783-4.157-10.089-1.669-11.809 2.487-1.721 26.49 16.584 26.49 16.584z" clip-rule="evenodd"/>
    <path fill="#181E36" fill-rule="evenodd" d="M423.966 627.657c.873 1.621 1.566 2.218 2.027 13.376 0 0-1.002 4.628-7.132 3.865-6.131-.763-4.923-3.634-14.061-8.246-9.137-4.612-8.561-10.788-6.163-12.277 2.399-1.49 5.404-2.388 13.08-.29 5.049 1.379 11.377 1.951 12.249 3.572z" clip-rule="evenodd"/>
    <path fill="#FFBBB0" fill-rule="evenodd" d="M421.932 619.05l.853 8.942s-2.099-1.072-2.868 1.029c-.768 2.1-5.788 2.748-10.271 0 .78-3.919-.086-12.003-.086-12.003l12.372 2.032z" clip-rule="evenodd"/>
    <path fill="#092965" fill-rule="evenodd" d="M424.63 617.851s-6.851 6.523-20.28 1.384l-11.548-59.562 28.318-.609 3.51 58.787z" clip-rule="evenodd"/>
    <path fill="#A9AAC4" fill-rule="evenodd" d="M424.63 617.851s-6.851 6.523-20.28 1.384l-11.548-59.562 28.318-.609 3.51 58.787z" clip-rule="evenodd"/>
    <path fill="#30334F" fill-rule="evenodd" d="M396.947 667.089s.743 1.897.743 4.066c0 2.17-4.404 3.334-9.707 3.334-5.302 0-3.241-2.117-6.816-2.725-3.575-.609-3.117 1.516-8.335 1.516-5.219 0-12.38-1-13.407-6.191-1.027-5.19 37.522 0 37.522 0z" clip-rule="evenodd"/>
    <path fill="#181E36" fill-rule="evenodd" d="M378.544 652.29c-1.47.858-2.533 3.559-9.757 5.274-7.223 1.715-11.677 4.245-10.973 7.262.703 3.017 4.566 6.587 13.138 5.795 8.572-.791 10.347-.03 14.712.36 4.365.391 9.5.399 11.64-2.878 0 0 .772-3.875 0-9.683s-.6-6.386-2.091-8.213c-.576-.705-2.021.238-2.021 1.1 0 1.117-2.631 1.895-5.889 1.895-2.365 0-4.766-.304-7.204-.912.496-.646.703-1.145.639-1.404-.101-.411-.797.236-2.194 1.404z" clip-rule="evenodd"/>
    <path fill="url(#prefix__paint30_linear)" fill-rule="evenodd" d="M414.662 460.819s1.268-1.627 2.192-1.085c.925.543 1.236 1.978 0 3.828-1.235 1.849-2.515.392-2.515.392l.323-3.135z" clip-rule="evenodd"/>
    <path fill="#092965" fill-rule="evenodd" d="M439.329 599.528l2.306 93.73s-3.05 3.442-5.741.401l-6.53-93.434 9.965-.697zM407.766 591.189l-15.373 90.509s-3.641 2.73-5.712-.702l11.17-91.025 9.915 1.218zM458.835 572.153l7.205 93.481s-2.865 3.597-5.712.701l-11.408-92.964 9.915-1.218zM429.361 559.548l-2.634 91.768s-3.227 3.211-5.754.101l-1.6-91.695 9.988-.174z" clip-rule="evenodd"/>
    <path fill="url(#prefix__paint31_linear)" fill-rule="evenodd" d="M428.491 602.859c-19.768 0-35.794-7.458-35.794-16.658 0-9.2 16.026-16.658 35.794-16.658 19.769 0 35.794 7.458 35.794 16.658 0 9.2-16.025 16.658-35.794 16.658z" clip-rule="evenodd"/>
    <path fill="#fff" fill-rule="evenodd" d="M428.491 598.638c-19.768 0-35.794-7.458-35.794-16.658 0-9.2 16.026-16.658 35.794-16.658 19.769 0 35.794 7.458 35.794 16.658 0 9.2-16.025 16.658-35.794 16.658z" clip-rule="evenodd"/>
    <path fill="#80B1FF" fill-rule="evenodd" d="M428.491 597.861c-19.768 0-35.794-7.458-35.794-16.658 0-9.2 16.026-16.658 35.794-16.658 19.769 0 35.794 7.458 35.794 16.658 0 9.2-16.025 16.658-35.794 16.658z" clip-rule="evenodd"/>
    <path fill="#092965" fill-rule="evenodd" d="M450.264 537.892s9.878 25.645 2.624 31.899c-2.321 2.002-3.333 3.157-5.964 4.815-5.588 3.52-12.185 7.08-22.724 6.297-15.5-1.151-38.164-6.363-38.164-6.363s2.98 13.442 4.601 29.384c1.62 15.943 6.035 37.699 6.035 37.699s-15.659 5.751-21.042 1.31c0 0-6.717-22.6-8.177-26.733-1.46-4.133-12.095-36.961-14.15-50.951-2.056-13.99 15.617-18.079 20.791-16.872.094-7.884 76.17-10.485 76.17-10.485z" clip-rule="evenodd"/>
    <path stroke="#1C478A" stroke-width="1.035" d="M424.328 554.551s-5.165 14.628-22.414 14.628c-17.249 0-35.856-5.465-35.856-5.465l20.92 80.791"/>
    <path fill="#092965" fill-rule="evenodd" d="M449.223 534.561s1.003 6.94-11.146 11.038c-12.149 4.099-27.069 2.421-27.069-2.883s38.215-8.155 38.215-8.155z" clip-rule="evenodd"/>
    <path fill="#FFBBB0" fill-rule="evenodd" d="M457.258 519.568s4.21 16.594-9.148 15.306c-13.357-1.287-35.317-21.753-35.317-21.753l13.2-.835 31.265 7.282z" clip-rule="evenodd"/>
    <path fill="url(#prefix__paint32_linear)" fill-rule="evenodd" d="M443.561 481.331s6.272.445 9.117 12.576c2.845 12.13 4.632 20.316 5.843 26.06-23.386 9.217-16.96-9.796-16.96-9.796l2-28.84z" clip-rule="evenodd"/>
    <mask id="prefix__r" width="19" height="42" x="440" y="481" maskUnits="userSpaceOnUse">
        <path fill="#fff" fill-rule="evenodd" d="M443.561 481.331s6.272.445 9.117 12.576c2.845 12.13 4.632 20.316 5.843 26.06-23.386 9.217-16.96-9.796-16.96-9.796l2-28.84z" clip-rule="evenodd"/>
    </mask>
    <g mask="url(#prefix__r)">
        <path fill="#C64B45" fill-rule="evenodd" d="M440.229 479.589s6.272.499 9.117 14.107c2.845 13.609 10.772 28.531 3.85 33.824-6.922 5.294-14.967-15.577-14.967-15.577l2-32.354z" clip-rule="evenodd"/>
    </g>
    <path fill="url(#prefix__paint33_linear)" fill-rule="evenodd" d="M451.906 491.46c-.962-1.61-2.712-9.169-7.279-10.613-5.729-1.811-13.838-1.539-18.635 0-8.916 2.86-23.367 11.232-24.669 13.693-1.301 2.46-3.166 12.213-4.248 17.613-1.082 5.4-3.634 19.309 7.284 18.558 0 0 3.033 5.349 3.033 10.151 0 4.801-1.094 7.595 3.242 11.263 4.337 3.668 22.362 2.768 30.3 0 7.938-2.767 12.298-8.189 14.467-11.263 2.169-3.075-4.099-15.488-4.099-15.488s2.773-30.285.604-33.914z" clip-rule="evenodd"/>
    <mask id="prefix__s" width="60" height="76" x="396" y="479" maskUnits="userSpaceOnUse">
        <path fill="#fff" fill-rule="evenodd" d="M451.906 491.46c-.962-1.61-2.712-9.169-7.279-10.613-5.729-1.811-13.838-1.539-18.635 0-8.916 2.86-23.367 11.232-24.669 13.693-1.301 2.46-3.166 12.213-4.248 17.613-1.082 5.4-3.634 19.309 7.284 18.558 0 0 3.033 5.349 3.033 10.151 0 4.801-1.094 7.595 3.242 11.263 4.337 3.668 22.362 2.768 30.3 0 7.938-2.767 12.298-8.189 14.467-11.263 2.169-3.075-4.099-15.488-4.099-15.488s2.773-30.285.604-33.914z" clip-rule="evenodd"/>
    </mask>
    <g mask="url(#prefix__s)">
        <path fill="#C64B45" fill-rule="evenodd" d="M406.279 497.913s5.068 21.626-3.399 32.884c-8.467 11.257 3.399 10.361 3.399 10.361s4.094-11.749 4.672-21.96c.578-10.212-4.672-21.285-4.672-21.285z" clip-rule="evenodd"/>
    </g>
    <rect width="5.148" height="1.73" fill="#30334F" rx=".865" transform="scale(-1 1) rotate(-2 12783.826 11842.048)"/>
    <path fill="#FFBBB0" fill-rule="evenodd" d="M403.983 445.904s-3.144 6.412-2.276 9.42c.869 3.008-.026 6.277-1.9 7.419-1.875 1.141 1.541 2.855 1.541 2.855s.133 3.676 1.273 6.7.784 5.395 4.264 5.517c3.48.121 7.506-.455 7.506-.455s.937 4.217-.003 6.374c-.939 2.157-1.711 2.103-.74 3.494.97 1.391 16.995-7.462 16.995-7.462-.723-1.427-1.677-3.125-1.618-4.815.287-8.226.738-34.567-9.652-34.93-10.389-.363-15.39 5.883-15.39 5.883z" clip-rule="evenodd"/>
    <path fill="#30334F" fill-rule="evenodd" d="M429.598 473.709l-8.688 2.09s-6.334-9.149-6.699-11.753c-.366-2.604 4.146-6.1-.043-8.139-4.19-2.039-2.959 4.61-3.281 4.639-.322.028-1.551-.221-2.099-6.491-.548-6.269-6.177-6.095-7.002-7.785-.825-1.691-1.831-3.379-.25-6.603 1.581-3.223 7.175-4.01 7.175-4.01s7.552-7.147 15.337-1.343c7.784 5.803 13.483 7.677 12.361 17.902-1.122 10.224-6.811 21.493-6.811 21.493z" clip-rule="evenodd"/>
    <path fill="#FFBBB0" fill-rule="evenodd" d="M350.177 511.985c-1.461-1.263-4.363-5.566-7.504-3.157-4.002-1.637-8.387-2.939-10.361-3.267-3.365-.558-6.838.303-8.53.101-1.692-.203-.247 2.834 1.976 2.725 2.224-.109 6.09.012 7.141.505 1.051.492 3.028 1.713 3.028 1.713s-4.39-.381-5.644.214c-1.253.595-2.149 4.038-3.269 5.217-1.119 1.179 1.108 2.096 1.911 1.175 0 0-.143 1.375-.235 1.994-.118.798-.444 1.706-.154 1.886.773.482 2.595.039 2.776-1.985 0 0 .591.974 1 2.203.408 1.23 1.955.205 1.955-.999s-.317-2.112-.317-2.112 6.086 4.521 8.784 5.293c2.699.773 6.836-.654 6.836-.654s8.224 5.061 22.523 12.248c14.299 7.187 25.048 14.974 28.195-.696 1.67-8.314-5.707-3.155-5.096-4.132 1.145-1.826-38.291-12.866-38.291-12.866s-3.189-2.351-6.724-5.406z" clip-rule="evenodd"/>
    <mask id="prefix__t" width="78" height="39" x="323" y="505" maskUnits="userSpaceOnUse">
        <path fill="#fff" fill-rule="evenodd" d="M350.177 511.985c-1.461-1.263-4.363-5.566-7.504-3.157-4.002-1.637-8.387-2.939-10.361-3.267-3.365-.558-6.838.303-8.53.101-1.692-.203-.247 2.834 1.976 2.725 2.224-.109 6.09.012 7.141.505 1.051.492 3.028 1.713 3.028 1.713s-4.39-.381-5.644.214c-1.253.595-2.149 4.038-3.269 5.217-1.119 1.179 1.108 2.096 1.911 1.175 0 0-.143 1.375-.235 1.994-.118.798-.444 1.706-.154 1.886.773.482 2.595.039 2.776-1.985 0 0 .591.974 1 2.203.408 1.23 1.955.205 1.955-.999s-.317-2.112-.317-2.112 6.086 4.521 8.784 5.293c2.699.773 6.836-.654 6.836-.654s8.224 5.061 22.523 12.248c14.299 7.187 25.048 14.974 28.195-.696 1.67-8.314-5.707-3.155-5.096-4.132 1.145-1.826-38.291-12.866-38.291-12.866s-3.189-2.351-6.724-5.406z" clip-rule="evenodd"/>
    </mask>
    <g fill="#F29E98" fill-rule="evenodd" clip-rule="evenodd" mask="url(#prefix__t)">
        <path d="M328.924 517.211s.612-5.061 2.81-5.296c2.199-.236 3.437-.307 3.437-.307s-3.813-1.092-4.873 0c-.475.489-2.565 4.291-2.815 5.805.918.394 1.441-.202 1.441-.202z"/>
        <path d="M331.327 519.067s-1.319-3.752-.458-4.751c.861-.999 4.065-1.079 4.065-1.079s-2.532-1.082-4.065.286c-.817.728-.748 2.732-.739 5.544.002.709-.387 2.089-.387 2.089s.711-.179 1.126-.886c.415-.706.458-1.203.458-1.203zM342.673 508.828l3.011 1.019-2.485-2.851-.526 1.832z"/>
    </g>
    <path fill="#D24747" fill-rule="evenodd" d="M410.573 488.754s2.705-6.515 6.657-8.496c3.952-1.982 16.251-7.166 17.261.591l-23.918 7.905z" clip-rule="evenodd"/>
    <path fill="url(#prefix__paint34_linear)" fill-rule="evenodd" d="M406.014 491.368s-4.711 1.868-6.66 5.185c-1.829 3.113-4.495 9.807-5.826 14.509-4.122 14.567-6.193 17.383-6.193 17.383s6.393 10.309 15.789 4.088c4.308-9.524 7.884-22.14 7.884-26.471 0-6.388-4.994-14.694-4.994-14.694z" clip-rule="evenodd"/>
    <path fill="#fff" fill-rule="evenodd" d="M551.798 273.149v9.667l-75.915-44.595v-9.585l75.915 44.513zM551.798 290.815v9.667l-75.915-44.595v-9.584l75.915 44.512zM551.798 308.482v9.667l-58.575-34.671v-9.584l58.575 34.588zM551.798 327.916v9.667l-75.915-44.595v-9.585l75.915 44.513zM551.798 345.582v9.668l-75.915-44.596v-9.584l75.915 44.512zM551.798 363.249v9.667l-58.575-34.671v-9.584l58.575 34.588zM466.245 296.881v9.667l-75.915-44.595v-9.584l75.915 44.512zM466.246 314.548v9.667l-75.915-44.595v-9.585l75.915 44.513zM466.246 332.214v9.668l-58.575-34.671v-9.585l58.575 34.588z" clip-rule="evenodd"/>
    <path fill="url(#prefix__paint35_linear)" fill-rule="evenodd" d="M376.6 113.133c-3.826-2.214-8.612.547-8.612 4.966v184.483c0 6.052 3.178 11.66 8.37 14.769l184.956 110.752c3.825 2.29 8.686-.465 8.686-4.923V234.984c0-6.144-3.274-11.822-8.592-14.899L376.6 113.133z" clip-rule="evenodd"/>
    <mask id="prefix__u" width="203" height="317" x="367" y="112" maskUnits="userSpaceOnUse">
        <path fill="#fff" fill-rule="evenodd" d="M376.6 113.133c-3.826-2.214-8.612.547-8.612 4.966v184.483c0 6.052 3.178 11.66 8.37 14.769l184.956 110.752c3.825 2.29 8.686-.465 8.686-4.923V234.984c0-6.144-3.274-11.822-8.592-14.899L376.6 113.133z" clip-rule="evenodd"/>
    </mask>
    <g fill-rule="evenodd" clip-rule="evenodd" mask="url(#prefix__u)">
        <path fill="#DF477D" d="M398.68 139.26c-1.45.417-3.074-.817-3.629-2.755-.554-1.938.172-3.848 1.622-4.264 1.449-.417 3.073.816 3.628 2.755.554 1.938-.172 3.847-1.621 4.264z"/>
        <path fill="#FBC642" d="M387.826 132.952c-1.45.416-3.074-.817-3.629-2.755-.554-1.939.172-3.848 1.622-4.265 1.449-.417 3.073.817 3.628 2.755.554 1.938-.172 3.848-1.621 4.265z"/>
        <path fill="#11C58D" d="M376.836 126.481c-1.45.417-3.074-.817-3.628-2.755-.554-1.938.172-3.848 1.621-4.264 1.45-.417 3.074.816 3.628 2.754.554 1.939-.171 3.848-1.621 4.265z"/>
        <path fill="#80B1FF" d="M367.988 126.405v187.929c0 10.086 5.297 19.432 13.95 24.614l179.376 107.411c3.825 2.29 8.686-.465 8.686-4.923V243.313L367.988 126.405z"/>
        <path fill="#fff" d="M546.337 276.8v9.667l-75.915-44.595v-9.585l75.915 44.513zM546.337 294.466v9.668l-75.915-44.596v-9.584l75.915 44.512zM546.337 312.133v9.667l-58.575-34.671v-9.584l58.575 34.588zM546.337 331.567v9.667l-75.915-44.595v-9.585l75.915 44.513zM546.337 349.233v9.668l-75.915-44.596v-9.584l75.915 44.512zM546.337 366.9v9.667l-58.575-34.671v-9.584l58.575 34.588zM460.785 300.532v9.667l-75.915-44.595v-9.584l75.915 44.512zM460.785 318.199v9.667l-75.915-44.595v-9.585l75.915 44.513zM460.785 335.866v9.667l-58.575-34.671v-9.585l58.575 34.589z"/>
        <path fill="url(#prefix__paint36_linear)" d="M395.654 187.242c-22.828-13.294-51.474 3.174-51.474 29.59 0 11.964 6.244 23.061 16.471 29.27l67.055 40.71c23.298 14.144 53.101-2.628 53.101-29.883 0-12.442-6.613-23.947-17.366-30.209l-67.787-39.478z" opacity=".539"/>
    </g>
    <path fill="url(#prefix__paint37_linear)" fill-rule="evenodd" d="M399.48 168.015c-22.925-13.351-51.695 3.187-51.695 29.717 0 11.832 6.083 22.833 16.104 29.124l76.473 48.013c12.262 7.698 28.162 6.225 38.801-3.596 8.097-7.474 11.789-18.583 9.777-29.417l-1.007-5.421c-2.235-12.036-9.604-22.5-20.182-28.661l-68.271-39.759z" clip-rule="evenodd"/>
    <path fill="url(#prefix__paint38_linear)" fill-rule="evenodd" d="M380.227 168.43c-18.344-10.683-41.364 2.55-41.364 23.778 0 19.229 10.036 37.063 26.473 47.042l64.586 39.21c19.992 12.138 45.568-2.362 45.568-25.751 0-17.796-9.459-34.309-24.837-43.264l-70.426-41.015z" clip-rule="evenodd"/>
    <path fill="#fff" fill-rule="evenodd" d="M396.199 186.671c-.348-.07-.608.023-.782.278-.174.255-.207.611-.101 1.066l14.966 67.343c.107.455.314.866.622 1.235.307.368.622.58.943.635l2.487.594c.348.071.609-.022.783-.277.174-.254.207-.61.1-1.066l-14.965-67.342c-.107-.455-.315-.867-.622-1.236-.307-.367-.623-.579-.943-.634l-2.488-.596zm22.72 23.986c0 .394.125.815.375 1.265l14.75 26.485-14.749 9.212c-.251.156-.376.431-.376.824 0 .394.125.816.376 1.265l1.876 3.369c.25.449.538.769.864.959.325.191.613.209.863.052l17.489-10.922c.25-.156.375-.431.375-.824 0-.394-.125-.815-.375-1.265l-17.489-31.405c-.25-.449-.538-.77-.864-.96-.325-.191-.613-.208-.863-.051l-1.877 1.171c-.25.156-.375.432-.375.825zm-46.952-9.33c-.25.156-.375.431-.375.824 0 .394.125.816.375 1.265l17.491 31.406c.25.449.538.769.863.959.325.191.612.208.863.052l1.876-1.171c.251-.156.375-.432.375-.826 0-.393-.125-.814-.375-1.263l-14.75-26.487 14.75-9.211c.251-.156.375-.431.375-.825 0-.394-.125-.815-.375-1.264l-1.876-3.37c-.251-.449-.538-.769-.863-.96-.325-.19-.613-.207-.863-.051l-17.491 10.922z" clip-rule="evenodd"/>
    <defs>
        <linearGradient id="prefix__paint0_linear" x1="167.944" x2="222.312" y1="270.253" y2="278.467" gradientUnits="userSpaceOnUse">
            <stop stop-color="#56A1FF"/>
            <stop offset="1" stop-color="#5187DC"/>
        </linearGradient>
        <linearGradient id="prefix__paint1_linear" x1="16.13" x2="42.133" y1="454.601" y2="490.848" gradientUnits="userSpaceOnUse">
            <stop stop-color="#364D83" stop-opacity=".602"/>
            <stop offset="1" stop-color="#B2C4FF"/>
        </linearGradient>
        <linearGradient id="prefix__paint2_linear" x1="68.728" x2="68.728" y1="274.804" y2="424.956" gradientUnits="userSpaceOnUse">
            <stop stop-color="#80E9FF"/>
            <stop offset="1" stop-color="#1F9BB1"/>
        </linearGradient>
        <linearGradient id="prefix__paint3_linear" x1="23.37" x2="23.37" y1="283.456" y2="433.608" gradientUnits="userSpaceOnUse">
            <stop stop-color="#66D1E0"/>
            <stop offset="1" stop-color="#30A9BE" stop-opacity="0"/>
        </linearGradient>
        <linearGradient id="prefix__paint4_linear" x1="319.261" x2="342.021" y1="689.242" y2="684.802" gradientUnits="userSpaceOnUse">
            <stop stop-color="#215EA2"/>
            <stop offset="1" stop-color="#7E9EEF"/>
        </linearGradient>
        <linearGradient id="prefix__paint5_linear" x1="390.504" x2="367.346" y1="646.998" y2="648.196" gradientUnits="userSpaceOnUse">
            <stop stop-color="#215EA2"/>
            <stop offset="1" stop-color="#7E9EEF"/>
        </linearGradient>
        <linearGradient id="prefix__paint6_linear" x1="104.119" x2="127.293" y1="578.771" y2="579.564" gradientUnits="userSpaceOnUse">
            <stop stop-color="#215EA2"/>
            <stop offset="1" stop-color="#7E9EEF"/>
        </linearGradient>
        <linearGradient id="prefix__paint7_linear" x1="211.302" x2="188.565" y1="554.231" y2="551.853" gradientUnits="userSpaceOnUse">
            <stop stop-color="#215EA2"/>
            <stop offset="1" stop-color="#7E9EEF"/>
        </linearGradient>
        <linearGradient id="prefix__paint8_linear" x1="215.194" x2="192.457" y1="556.604" y2="554.225" gradientUnits="userSpaceOnUse">
            <stop stop-color="#CED0FF"/>
            <stop offset="1" stop-color="#fff"/>
        </linearGradient>
        <linearGradient id="prefix__paint9_linear" x1="293.909" x2="209.82" y1="436.423" y2="442.317" gradientUnits="userSpaceOnUse">
            <stop stop-color="#7187B5"/>
            <stop offset="1" stop-color="#BFCDED"/>
        </linearGradient>
        <linearGradient id="prefix__paint10_linear" x1="228.517" x2="299.574" y1="485.104" y2="475.033" gradientUnits="userSpaceOnUse">
            <stop stop-color="#C4D5FF"/>
            <stop offset=".5" stop-color="#C9DDFF"/>
            <stop offset=".532" stop-color="#E1ECFF"/>
            <stop offset="1" stop-color="#D5E1FF"/>
        </linearGradient>
        <linearGradient id="prefix__paint11_linear" x1="276.942" x2="211.377" y1="423.535" y2="466.138" gradientUnits="userSpaceOnUse">
            <stop stop-color="#C0E1FF"/>
            <stop offset="1" stop-color="#fff"/>
        </linearGradient>
        <linearGradient id="prefix__paint12_linear" x1="239.531" x2="300.27" y1="476.372" y2="470.765" gradientUnits="userSpaceOnUse">
            <stop stop-color="#6D94E7"/>
            <stop offset="1" stop-color="#7E9EEF"/>
        </linearGradient>
        <linearGradient id="prefix__paint13_linear" x1="254.785" x2="252.398" y1="457.502" y2="473.112" gradientUnits="userSpaceOnUse">
            <stop stop-color="#6D7FE7"/>
            <stop offset="1" stop-color="#4E60CD"/>
        </linearGradient>
        <linearGradient id="prefix__paint14_linear" x1="261.264" x2="221.628" y1="452.808" y2="460.532" gradientUnits="userSpaceOnUse">
            <stop stop-color="#4F6FCE"/>
            <stop offset="1" stop-color="#3B3B5D"/>
        </linearGradient>
        <linearGradient id="prefix__paint15_linear" x1="285.251" x2="232.809" y1="379.03" y2="393.9" gradientUnits="userSpaceOnUse">
            <stop stop-color="#C0E1FF"/>
            <stop offset="1" stop-color="#fff"/>
        </linearGradient>
        <linearGradient id="prefix__paint16_linear" x1="294.051" x2="231.093" y1="387.941" y2="393.455" gradientUnits="userSpaceOnUse">
            <stop stop-color="#4F6FCE"/>
            <stop offset="1" stop-color="#3B3B5D"/>
        </linearGradient>
        <linearGradient id="prefix__paint17_linear" x1="281.888" x2="365.976" y1="483.746" y2="489.641" gradientUnits="userSpaceOnUse">
            <stop stop-color="#7187B5"/>
            <stop offset="1" stop-color="#BFCDED"/>
        </linearGradient>
        <linearGradient id="prefix__paint18_linear" x1="347.279" x2="276.222" y1="532.428" y2="522.357" gradientUnits="userSpaceOnUse">
            <stop stop-color="#C4D5FF"/>
            <stop offset=".5" stop-color="#C9DDFF"/>
            <stop offset=".532" stop-color="#E1ECFF"/>
            <stop offset="1" stop-color="#D5E1FF"/>
        </linearGradient>
        <linearGradient id="prefix__paint19_linear" x1="298.852" x2="364.418" y1="470.858" y2="513.461" gradientUnits="userSpaceOnUse">
            <stop stop-color="#C0E1FF"/>
            <stop offset="1" stop-color="#fff"/>
        </linearGradient>
        <linearGradient id="prefix__paint20_linear" x1="336.265" x2="275.525" y1="523.695" y2="518.088" gradientUnits="userSpaceOnUse">
            <stop stop-color="#6D94E7"/>
            <stop offset="1" stop-color="#7E9EEF"/>
        </linearGradient>
        <linearGradient id="prefix__paint21_linear" x1="321.009" x2="323.396" y1="504.826" y2="520.435" gradientUnits="userSpaceOnUse">
            <stop stop-color="#6D7FE7"/>
            <stop offset="1" stop-color="#4E60CD"/>
        </linearGradient>
        <linearGradient id="prefix__paint22_linear" x1="314.53" x2="354.166" y1="500.132" y2="507.855" gradientUnits="userSpaceOnUse">
            <stop stop-color="#4F6FCE"/>
            <stop offset="1" stop-color="#3B3B5D"/>
        </linearGradient>
        <linearGradient id="prefix__paint23_linear" x1="290.544" x2="342.985" y1="426.353" y2="441.224" gradientUnits="userSpaceOnUse">
            <stop stop-color="#C0E1FF"/>
            <stop offset="1" stop-color="#fff"/>
        </linearGradient>
        <linearGradient id="prefix__paint24_linear" x1="281.746" x2="344.704" y1="435.264" y2="440.778" gradientUnits="userSpaceOnUse">
            <stop stop-color="#4F6FCE"/>
            <stop offset="1" stop-color="#3B3B5D"/>
        </linearGradient>
        <linearGradient id="prefix__paint25_linear" x1="190.77" x2="194.973" y1="620.294" y2="607.68" gradientUnits="userSpaceOnUse">
            <stop stop-color="#CED0FF"/>
            <stop offset="1" stop-color="#fff"/>
        </linearGradient>
        <linearGradient id="prefix__paint26_linear" x1="157.611" x2="157.903" y1="617.929" y2="614.529" gradientUnits="userSpaceOnUse">
            <stop stop-color="#CED0FF"/>
            <stop offset="1" stop-color="#fff"/>
        </linearGradient>
        <linearGradient id="prefix__paint27_linear" x1="176.04" x2="191.861" y1="665.169" y2="660.782" gradientUnits="userSpaceOnUse">
            <stop stop-color="#CED0FF"/>
            <stop offset="1" stop-color="#fff"/>
        </linearGradient>
        <linearGradient id="prefix__paint28_linear" x1="124.462" x2="124.462" y1="529.709" y2="581.118" gradientUnits="userSpaceOnUse">
            <stop stop-color="#56ABEA"/>
            <stop offset="1" stop-color="#134A8E"/>
        </linearGradient>
        <linearGradient id="prefix__paint29_linear" x1="129.726" x2="129.726" y1="465.94" y2="536.931" gradientUnits="userSpaceOnUse">
            <stop stop-color="#56ABEA"/>
            <stop offset="1" stop-color="#134A8E"/>
        </linearGradient>
        <linearGradient id="prefix__paint30_linear" x1="415.027" x2="417.763" y1="460.347" y2="460.057" gradientUnits="userSpaceOnUse">
            <stop stop-color="#F8A29B"/>
            <stop offset="1" stop-color="#C47770"/>
        </linearGradient>
        <linearGradient id="prefix__paint31_linear" x1="464.285" x2="464.285" y1="569.543" y2="602.859" gradientUnits="userSpaceOnUse">
            <stop stop-color="#56ABEA"/>
            <stop offset="1" stop-color="#134A8E"/>
        </linearGradient>
        <linearGradient id="prefix__paint32_linear" x1="458.521" x2="458.521" y1="481.331" y2="522.976" gradientUnits="userSpaceOnUse">
            <stop stop-color="#FB6464"/>
            <stop offset="1" stop-color="#FA4E40"/>
        </linearGradient>
        <linearGradient id="prefix__paint33_linear" x1="455.959" x2="455.959" y1="479.589" y2="554.55" gradientUnits="userSpaceOnUse">
            <stop stop-color="#FB6464"/>
            <stop offset="1" stop-color="#FA4E40"/>
        </linearGradient>
        <linearGradient id="prefix__paint34_linear" x1="411.008" x2="411.008" y1="491.368" y2="534.874" gradientUnits="userSpaceOnUse">
            <stop stop-color="#FB6464"/>
            <stop offset="1" stop-color="#FA4E40"/>
        </linearGradient>
        <linearGradient id="prefix__paint35_linear" x1="623.314" x2="408.367" y1="266.127" y2="394.471" gradientUnits="userSpaceOnUse">
            <stop stop-color="#fff"/>
            <stop offset="1" stop-color="#fff"/>
        </linearGradient>
        <linearGradient id="prefix__paint36_linear" x1="583.452" x2="371.572" y1="300.256" y2="337.048" gradientUnits="userSpaceOnUse">
            <stop stop-color="#AECAE2"/>
            <stop offset="1" stop-color="#E3E3FD"/>
        </linearGradient>
        <linearGradient id="prefix__paint37_linear" x1="352.867" x2="527.97" y1="129.809" y2="150.762" gradientUnits="userSpaceOnUse">
            <stop stop-color="#4F6FCE"/>
            <stop offset="1" stop-color="#3B3B5D"/>
        </linearGradient>
        <linearGradient id="prefix__paint38_linear" x1="475.49" x2="475.49" y1="160.945" y2="288.314" gradientUnits="userSpaceOnUse">
            <stop stop-color="#80E9FF"/>
            <stop offset="1" stop-color="#1F9BB1"/>
        </linearGradient>
    </defs>
</svg>
