<svg xmlns="http://www.w3.org/2000/svg" width="570" height="443" fill="none" viewBox="0 0 570 443">
    <path fill="#477FCC" fill-rule="evenodd" d="M386.89 229.647l-34.75 19.552V85.397l34.75-20.435v164.685z" clip-rule="evenodd"/>
    <path fill="#528CE2" fill-rule="evenodd" d="M352.14 249.199l-33.211-19.668V66.34l33.211 19.057V249.2z" clip-rule="evenodd"/>
    <path fill="#80B1FF" fill-rule="evenodd" d="M352.139 85.397l34.75-20.435-32.573-18.806-35.387 20.184 33.21 19.057z" clip-rule="evenodd"/>
    <path fill="#477FCC" fill-rule="evenodd" d="M446.088 264.133l-34.75 19.552v-130.41l34.75-20.435v131.293z" clip-rule="evenodd"/>
    <path fill="#528CE2" fill-rule="evenodd" d="M411.338 283.685l-33.211-19.668V134.218l33.211 19.057v130.41z" clip-rule="evenodd"/>
    <path fill="#80B1FF" fill-rule="evenodd" d="M411.337 153.275l34.75-20.435-32.573-18.806-35.387 20.184 33.21 19.057z" clip-rule="evenodd"/>
    <path fill="#477FCC" fill-rule="evenodd" d="M507.78 300.533l-34.75 19.552v-79.238l34.75-20.436v80.122z" clip-rule="evenodd"/>
    <path fill="#528CE2" fill-rule="evenodd" d="M473.03 320.085l-33.21-19.668v-78.628l33.21 19.058v79.238z" clip-rule="evenodd"/>
    <path fill="#80B1FF" fill-rule="evenodd" d="M473.03 240.847l34.75-20.436-32.573-18.805-35.388 20.183 33.211 19.058z" clip-rule="evenodd"/>
    <path fill="#477FCC" fill-rule="evenodd" d="M570 336.933l-34.75 19.552v-100.34L570 235.71v101.223z" clip-rule="evenodd"/>
    <path fill="#528CE2" fill-rule="evenodd" d="M535.25 356.486l-33.211-19.669v-99.73l33.211 19.058v100.341z" clip-rule="evenodd"/>
    <path fill="#80B1FF" fill-rule="evenodd" d="M535.25 256.145L570 235.71l-32.573-18.806-35.388 20.183 33.211 19.058z" clip-rule="evenodd"/>
    <path fill="#051B4D" fill-rule="evenodd" d="M436.501 276.396s1.316 2.373-2.415 8.241c-3.732 5.869-7.201 7.925-11.073 8.438-3.872.513-1.071-6.08 1.784-9.013 2.854-2.933 5.077-9.467 5.077-9.467l6.627 1.801z" clip-rule="evenodd"/>
    <path fill="#FFBBB0" fill-rule="evenodd" d="M431.803 261.455l-2.519 14.468s-3.827 7.69-5.808 9.895c-1.982 2.205 2.864 3.91 5.808 1.894 2.945-2.016 6.799-9.578 6.799-9.578l4.112-14.574-8.392-2.105z" clip-rule="evenodd"/>
    <path fill="#051B4D" fill-rule="evenodd" d="M416.478 259.737s.09 3.164-3.097 5.469c-3.186 2.304-5.842 1.594-8.718 3.04-2.876 1.446-11.244.402-11.9-2.638-.656-3.04 9.628-3.791 10.304-4.153.677-.363 13.411-1.718 13.411-1.718z" clip-rule="evenodd"/>
    <path fill="#FFBBB0" fill-rule="evenodd" d="M417.679 247.264l-6.13 7.873c-1.899 2.438-4.389 4.367-7.297 5.412-1.8.647-3.774 1.291-5.138 1.552-3.145.601-2.582 3.232 1.724 4.251 2.615.62 6.768-.383 9.626-1.265 2.101-.649 3.939-1.912 5.46-3.5l8.174-8.531-6.419-5.792z" clip-rule="evenodd"/>
    <path fill="#30334F" fill-rule="evenodd" d="M472.239 148.9c-4.356-.806-4.006-10.103 2.638-9.129 5.206 0 8.978-3.834 13.661 1.273 4.683 5.108 3.268 16.143 3.835 22.706.566 6.563-.966 6.437-5.095 8.053-4.13 1.617-21.177 1.58-17.523-7.313 3.655-8.894 1.84-11.651 2.484-15.59z" clip-rule="evenodd"/>
    <path fill="url(#prefix__paint0_linear)" fill-rule="evenodd" d="M470.014 202.589s-23.573 8.957-28.618 18.4c-5.044 9.442-10.366 41.208-10.366 41.208s4.364 6.013 11.258 3.411l14.165-42.994 22.089-12.885-8.528-7.14z" clip-rule="evenodd"/>
    <path fill="#586DFF" fill-rule="evenodd" d="M489.016 169.404c-1.589-1.007-6.546-1.659-11.239-2.516-1.559-.285-3.098-.831-4.482-1.013-2.184-.287-4.6.557-6.291 1.736-1.692 1.179-.056 2.305-.843 7.23-.788 4.925-2.541 10.571-1.483 13.58 1.058 3.009 3.402 4.245 3.402 4.245s-.095 8.277 1.906 10.932c2 2.656 13.539 7.466 19.03 4.429 5.49-3.037-.518-8.474 1.86-16.269 2.378-7.796 6.881-12.074 6.184-15.74-.698-3.665-5.537-5.024-8.044-6.614z" clip-rule="evenodd"/>
    <mask id="prefix__a" width="34" height="44" x="464" y="165" maskUnits="userSpaceOnUse">
        <path fill="#fff" fill-rule="evenodd" d="M489.016 169.404c-1.589-1.007-6.546-1.659-11.239-2.516-1.559-.285-3.098-.831-4.482-1.013-2.184-.287-4.6.557-6.291 1.736-1.692 1.179-.056 2.305-.843 7.23-.788 4.925-2.541 10.571-1.483 13.58 1.058 3.009 3.402 4.245 3.402 4.245s-.095 8.277 1.906 10.932c2 2.656 13.539 7.466 19.03 4.429 5.49-3.037-.518-8.474 1.86-16.269 2.378-7.796 6.881-12.074 6.184-15.74-.698-3.665-5.537-5.024-8.044-6.614z" clip-rule="evenodd"/>
    </mask>
    <g mask="url(#prefix__a)">
        <path fill="#2F37DA" fill-rule="evenodd" d="M498.803 175.723s-7.226 4.289-9.147 11.667c-1.921 7.378-5.558 7.64-9.764 6.843-4.206-.797-7.636-2.189-13.372-1.604-5.736.584-2.148 2.612 2.017 2.163 4.165-.45 6.405.055 10.425 1.646 4.02 1.591 7.554 1.561 9.842-.832-.69 4.375-.024 7.31-8.813 8.762-8.789 1.453 11.36 14.264 16.778.926 5.418-13.337 2.034-29.571 2.034-29.571z" clip-rule="evenodd"/>
    </g>
    <path fill="url(#prefix__paint1_linear)" fill-rule="evenodd" d="M494.197 207.546s1.872 12.258-4.459 18.896c-6.331 6.639-43.659 7.656-43.659 7.656l-19.871 20.561s-4.748 1.714-11.043-4.389c0 0 15.616-22.133 23.265-28.179 7.649-6.047 40.112-16.264 40.112-16.264l15.655 1.719z" clip-rule="evenodd"/>
    <path fill="#0D3677" fill-rule="evenodd" d="M480.422 204.368s-3.237 1.13-1.88 6.167c1.357 5.036 2.626 5.007 3.634 3.692 1.007-1.315 1.852-5.714.479-7.786-1.373-2.073-2.233-2.073-2.233-2.073z" clip-rule="evenodd"/>
    <path fill="#FFBBB0" fill-rule="evenodd" d="M476.829 163.656s0 2.514-.392 3.125c0 0-1.621-.611-3.132 2.08-1.511 2.69-1.973 5.634-1.141 8.343.832 2.709 5.147 3.8 9.054 1.565 5.326-3.076 5.376-9.591 4.833-10.168-.543-.578-2.75-.484.543-11.472s-9.765 6.527-9.765 6.527z" clip-rule="evenodd"/>
    <mask id="prefix__b" width="17" height="27" x="471" y="153" maskUnits="userSpaceOnUse">
        <path fill="#fff" fill-rule="evenodd" d="M476.829 163.656s0 2.514-.392 3.125c0 0-1.621-.611-3.132 2.08-1.511 2.69-1.973 5.634-1.141 8.343.832 2.709 5.147 3.8 9.054 1.565 5.326-3.076 5.376-9.591 4.833-10.168-.543-.578-2.75-.484.543-11.472s-9.765 6.527-9.765 6.527z" clip-rule="evenodd"/>
    </mask>
    <g mask="url(#prefix__b)">
        <path fill="#A9AAC4" fill-rule="evenodd" d="M484.718 158.64s-1.528 8.491-8.281 8.141c-6.752-.349-1.556-4.344-.778-5.013.778-.67 9.059-3.128 9.059-3.128z" clip-rule="evenodd" opacity=".2"/>
    </g>
    <path fill="#FFBBB0" fill-rule="evenodd" d="M473.356 145.351s-1.184 1.651-1.184 6.775c0 5.123-.526 12.237 3.604 12.36 4.13.123 6.588-.942 8.786-3.749 2.197-2.807 2.186-3.56 2.186-3.56s1.934-.422 2.2-1.821c.265-1.398-.465-2.711-2.425-2.711-1.961 0-8.368.831-10.975-6.859 0 0-.66.273-1.19.158-.529-.114-1.002-.593-1.002-.593z" clip-rule="evenodd"/>
    <path fill="#092965" fill-rule="evenodd" d="M445.583 201.876c1.532-.887 3.42-.888 4.954-.004l30.848 17.796c1.319.762 1.321 2.666.003 3.429l-17.245 9.987c-1.528.885-3.412.889-4.944.01L428.26 215.34c-1.324-.759-1.327-2.666-.007-3.431l17.33-10.033z" clip-rule="evenodd"/>
    <path fill="#fff" fill-rule="evenodd" d="M445.583 200.716c1.532-.887 3.42-.888 4.954-.004l30.848 17.796c1.319.761 1.321 2.665.003 3.429l-17.245 9.986c-1.528.886-3.412.889-4.944.01L428.26 214.18c-1.324-.759-1.327-2.667-.007-3.431l17.33-10.033z" clip-rule="evenodd"/>
    <path fill="#B8D1F8" fill-rule="evenodd" d="M462.367 232.928l-6.191-21.837c-.499-1.76-1.673-3.251-3.267-4.148l-29.886-16.832c-.293-.165-.657-.132-.915.082-.488.404-.696 1.054-.534 1.665l5.543 20.907 34.557 20.589.693-.426z" clip-rule="evenodd"/>
    <path fill="#DCE9FF" fill-rule="evenodd" d="M461.674 233.354l-6.082-21.664c-.497-1.771-1.678-3.272-3.282-4.171l-29.242-16.4c-.751-.421-1.644.249-1.449 1.087l4.917 21.139 35.138 20.009z" clip-rule="evenodd"/>
    <path fill="#092965" fill-rule="evenodd" d="M440.371 213.892c-.544.34-1.399-.046-1.909-.861s-.482-1.751.062-2.091c.544-.339 1.399.046 1.909.861.51.816.483 1.752-.062 2.091z" clip-rule="evenodd"/>
    <path fill="#FFBBB0" fill-rule="evenodd" d="M480.422 204.399s-12.808 2.644-15.037 2.644c-2.063 0-7.459.501-9.951 1.906l2.356 7.832c1.5-.261 3.037-1.254 4.463-2.763 1.675-1.771 3.132-1.885 3.132-1.885h18.78s.382-4.279-.515-6.134c-.898-1.855-3.228-1.6-3.228-1.6z" clip-rule="evenodd"/>
    <path fill="#0D3677" fill-rule="evenodd" d="M454.995 198.098s-.397 4.923 1.271 4.454c1.668-.469 1.849-4.124 1.849-4.124l-3.12-.33z" clip-rule="evenodd"/>
    <path fill="#FFBBB0" fill-rule="evenodd" d="M453.257 193.514l-12.807 6.397 5.637 3.164 10.867-2.314s2.959-2.87.396-5.407c-2.564-2.537-4.093-1.84-4.093-1.84z" clip-rule="evenodd"/>
    <path fill="#586DFF" fill-rule="evenodd" d="M468.549 166.99s-1.362.212-2.652 1.623c-1.447 1.582-5.825 23.639-5.825 23.639l-7.386 1.553s5.101 2.881 3.739 8.784c0 0 6.546-.975 8.181-2.574.819-.801 4.84-9.765 5.908-21.805.355-3.997-1.965-11.22-1.965-11.22zM495.002 172.779s5.038 4.055 5.038 9.939-2.799 24.129-4.016 25.697c-1.217 1.567-14.29 6.415-14.29 6.415s2.735-5.032-1.312-10.431c2.893-1.01 8.856-2.919 8.856-2.919s1.021-11.175 2.013-19.279 3.711-9.422 3.711-9.422z" clip-rule="evenodd"/>
    <path fill="#C7DCFF" fill-rule="evenodd" d="M429.792 149.362c-1.62-.943-3.653.226-3.653 2.1v25.943c0 2.599 1.384 5.002 3.632 6.306l32.477 18.834c1.62.94 3.649-.229 3.649-2.102v-25.862c0-2.595-1.379-4.994-3.621-6.3l-32.484-18.919z" clip-rule="evenodd"/>
    <path fill="#528BE1" fill-rule="evenodd" d="M429.467 155.235l4.004 2.266v20.571l-4.004-2.267v-20.57zM436.618 159.52l4.004 2.267v20.285l-4.004-2.267V159.52zM443.768 163.234l4.005 2.267v20.571l-4.005-2.267v-20.571zM450.92 167.234l4.004 2.267v20.571l-4.004-2.267v-20.571zM458.07 170.948l4.005 2.267v20l-4.005-2.267v-20z" clip-rule="evenodd"/>
    <path fill="#fff" fill-rule="evenodd" d="M429.467 167.806l4.004 2.266v11.429l-4.004-2.267v-11.428zM436.618 177.52l4.004 2.266v5.715l-4.004-2.267v-5.714zM443.768 175.806l4.005 2.266v11.429l-4.005-2.267v-11.428zM450.92 176.377l4.004 2.267V193.5l-4.004-2.267v-14.856zM458.07 174.377l4.005 2.267v19.999l-4.005-2.267v-19.999z" clip-rule="evenodd"/>
    <path fill="#80B1FF" fill-rule="evenodd" d="M93.968 294.396l-3.84 11.804c-7.57 23.274 2.125 48.676 23.278 60.986l24.272 14.125c9.401 5.471 21.012 5.486 30.427.039l33.728-19.514c8.602-4.977 8.657-17.377.1-22.431l-22.187-13.102c-20.789-12.278-30.383-37.257-23.158-60.294l1.64-5.229-64.26 33.616z" clip-rule="evenodd"/>
    <path fill="#DCE9FF" fill-rule="evenodd" d="M96.387 294.08l-3.575 10.725c-7.842 23.529 2.037 49.321 23.592 61.59l21.96 12.5c9.264 5.273 20.618 5.293 29.9.051l34.442-19.449c8.754-4.944 8.817-17.53.113-22.56l-19.101-11.039c-21.181-12.24-30.955-37.597-23.471-60.887l1.359-4.231-65.22 33.3z" clip-rule="evenodd"/>
    <path fill="#BDCCE6" fill-rule="evenodd" d="M93.5 339.599l68.03-39.249c-4.424-10.965-5.112-23.422-1.283-35.339l1.359-4.231-4.365 2.229-62.52 36.069-1.909 5.727c-3.894 11.684-3.418 23.927.687 34.794z" clip-rule="evenodd"/>
    <path fill="#80B1FF" fill-rule="evenodd" d="M254.602 2.32c3.597-2.08 7.995-2.232 11.727-.405 5.334 2.61 8.547 8.197 8.12 14.12l-12.322 170.928c-1.115 15.474-9.379 29.545-22.351 38.056L24.096 366.525c-5.308 3.483-12.044 3.961-17.792 1.262C2.457 365.98 0 362.113 0 357.862V178.257c0-17.78 9.48-34.212 24.872-43.111L254.602 2.32z" clip-rule="evenodd"/>
    <path fill="#fff" fill-rule="evenodd" d="M255.57 8.898c8.669-5.069 19.565 1.194 19.548 11.236l-.285 171.969c-.03 17.702-9.454 34.057-24.754 42.96L27.025 364.844c-8.66 5.039-19.524-1.208-19.524-11.228V182.511c0-17.693 9.388-34.058 24.662-42.989L255.57 8.898z" clip-rule="evenodd"/>
    <path fill="url(#prefix__paint2_linear)" fill-rule="evenodd" d="M267.898 5.6L19.417 151.319c-5.179 3.037-9.377 10.083-9.377 15.739v198.415c0 5.655 4.198 7.778 9.377 4.742l248.481-145.718c5.178-3.036 9.376-10.083 9.376-15.739V10.342c0-5.655-4.198-7.778-9.376-4.742z" clip-rule="evenodd"/>
    <mask id="prefix__c" width="268" height="368" x="10" y="4" maskUnits="userSpaceOnUse">
        <path fill="#fff" fill-rule="evenodd" d="M267.898 5.6L19.417 151.319c-5.179 3.037-9.377 10.083-9.377 15.739v198.415c0 5.655 4.198 7.778 9.377 4.742l248.481-145.718c5.178-3.036 9.376-10.083 9.376-15.739V10.342c0-5.655-4.198-7.778-9.376-4.742z" clip-rule="evenodd"/>
    </mask>
    <g fill-rule="evenodd" clip-rule="evenodd" mask="url(#prefix__c)">
        <path fill="url(#prefix__paint3_linear)" d="M302.675 159.36l-325.11 188.53v95.828l325.11-188.53V159.36z"/>
        <path fill="#DAE8FF" d="M224.682 46.157l43.993-26.142v147.219l-43.993 24.331V46.156z"/>
    </g>
    <path fill="#fff" fill-rule="evenodd" d="M27.108 161.505l241.567-141.49v146.896L27.108 304.343V161.505z" clip-rule="evenodd"/>
    <path fill="#91B2F0" fill-rule="evenodd" d="M239.055 37.364v145.975h.744l28.875-16.428V20.015l-29.619 17.349z" clip-rule="evenodd"/>
    <path fill="#80B1FF" fill-rule="evenodd" d="M115.327 121.927c3.3-1.923 7.442.458 7.442 4.277v52.562c0 5.294-2.818 10.188-7.397 12.845l-65.786 38.173c-3.3 1.915-7.434-.466-7.434-4.282v-52.401c0-5.284 2.808-10.17 7.373-12.83l65.802-38.344z" clip-rule="evenodd"/>
    <path fill="#fff" fill-rule="evenodd" d="M61.026 172.435L80.43 161.27l-.032-1.946-19.273 11.089-.1 2.022zm0 6.841l17.13-9.86.125-1.941-17.19 9.894-.066 1.907zm-9.146 4.637v-8.94l6.53-3.754v8.928l-6.53 3.766zM61.026 189.244l19.405-11.165-.032-1.945-19.273 11.089-.1 2.021zm0 6.842l17.13-9.861.125-1.941-17.19 9.894-.066 1.908zm-9.146 4.637v-8.941l6.53-3.754v8.929l-6.53 3.766zM61.026 204.895L80.43 193.73l-.032-1.946-19.273 11.089-.1 2.022zm0 6.841l17.13-9.86.125-1.941-17.19 9.894-.066 1.907zm-9.146 4.637v-8.94l6.53-3.754v8.928l-6.53 3.766z" clip-rule="evenodd"/>
    <path fill="url(#prefix__paint4_linear)" fill-rule="evenodd" d="M93.654 185.188c-7.023-1.895-10.187-12.935-7.067-24.66 3.12-11.724 11.342-19.693 18.365-17.798 1.73.467 6.212.985 6.212.985s3.206 14.84.855 23.675c-2.114 7.944-9.868 19.045-9.868 19.045s-6.233-.636-8.497-1.247z" clip-rule="evenodd"/>
    <path fill="#ADCCFF" fill-rule="evenodd" d="M101.213 186.485c-6.903-1.722-10.12-12.655-7.187-24.422 2.934-11.766 10.908-19.909 17.811-18.188 6.903 1.721 10.121 12.655 7.187 24.421s-10.908 19.91-17.811 18.189z" clip-rule="evenodd"/>
    <path fill="#fff" d="M110.263 164.367l-4.838 22.1s-7.662 1.633-11.413-7.604c-2.655-6.837 0-17.079 0-17.079l16.251 2.583z"/>
    <path fill="#80B1FF" fill-rule="evenodd" d="M203.661 70.618c3.3-1.923 7.442.457 7.442 4.276v52.563c0 5.294-2.818 10.187-7.397 12.844l-65.786 38.173c-3.3 1.915-7.434-.466-7.434-4.281v-52.401c0-5.284 2.808-10.17 7.373-12.831l65.802-38.343z" clip-rule="evenodd"/>
    <path fill="#fff" fill-rule="evenodd" d="M149.359 121.125l19.405-11.165-.031-1.945-19.274 11.089-.1 2.021zm0 6.842l17.131-9.86.124-1.941-17.19 9.894-.065 1.907zm-9.146 4.637v-8.941l6.53-3.754v8.929l-6.53 3.766zM149.359 137.935l19.405-11.165-.031-1.946-19.274 11.089-.1 2.022zm0 6.841l17.131-9.86.124-1.941-17.19 9.894-.065 1.907zm-9.146 4.637v-8.94l6.53-3.754v8.929l-6.53 3.765zM149.359 153.585l19.405-11.165-.031-1.945-19.274 11.089-.1 2.021zm0 6.842l17.131-9.861.124-1.941-17.19 9.894-.065 1.908zm-9.146 4.637v-8.941l6.53-3.754v8.929l-6.53 3.766z" clip-rule="evenodd"/>
    <path fill="url(#prefix__paint5_linear)" fill-rule="evenodd" d="M181.987 133.878c-7.023-1.894-10.187-12.935-7.067-24.659 3.12-11.724 11.342-19.693 18.365-17.798 1.731.467 6.212.984 6.212.984s3.206 14.84.855 23.675c-2.114 7.944-9.868 19.046-9.868 19.046s-6.232-.637-8.497-1.248z" clip-rule="evenodd"/>
    <path fill="#ADCCFF" fill-rule="evenodd" d="M189.547 135.175c-6.903-1.721-10.121-12.655-7.187-24.421 2.933-11.766 10.908-19.91 17.81-18.189 6.903 1.722 10.121 12.655 7.187 24.422-2.933 11.766-10.907 19.909-17.81 18.188z" clip-rule="evenodd"/>
    <path fill="#fff" d="M198.596 113.058l-4.837 22.099s-7.663 1.634-11.414-7.603c-2.655-6.838 0-17.079 0-17.079l16.251 2.583z"/>
    <path fill-rule="evenodd" stroke="#DDE7F9" stroke-width="1.8" d="M42.197 279.206c0 2.298 2.476 3.743 4.476 2.612l164.695-93.1c3.221-1.821 5.174-5.271 5.076-8.97l-.689-26.045c-.06-2.282-2.548-3.663-4.518-2.508L47.135 247.504c-3.059 1.796-4.938 5.077-4.938 8.625v23.077z" clip-rule="evenodd"/>
    <path fill="url(#prefix__paint6_linear)" fill-rule="evenodd" d="M150.295 274.795c1.846.6 4.192-1.532 5.241-4.761 1.05-3.229.404-6.333-1.441-6.933-1.845-.599-4.192 1.532-5.241 4.762-1.049 3.229-.404 6.333 1.441 6.932z" clip-rule="evenodd"/>
    <path fill="url(#prefix__paint7_linear)" fill-rule="evenodd" d="M286.866 430.26c-21.666 0-39.23-10.355-39.23-23.128s17.564-23.128 39.23-23.128c21.666 0 39.23 10.355 39.23 23.128s-17.564 23.128-39.23 23.128z" clip-rule="evenodd" opacity=".211"/>
    <path fill="#80B1FF" fill-rule="evenodd" d="M316.197 328.311l-42.905-128.494c-.37-1.107-1.605-1.664-2.68-1.207l-20.037 8.518c-.945.402-1.432 1.454-1.127 2.435l42.038 135.083s5.334 11.059 18.215 5.53c12.882-5.53 6.496-21.865 6.496-21.865z" clip-rule="evenodd"/>
    <path fill="url(#prefix__paint8_linear)" fill-rule="evenodd" d="M263.539 209.724c-6.499 2.894-12.887 2.725-14.268-.377-1.381-3.102 2.768-7.962 9.267-10.856 6.499-2.893 12.888-2.725 14.269.377 1.381 3.102-2.768 7.963-9.268 10.856z" clip-rule="evenodd"/>
    <path fill="#DCE9FF" d="M239.45 171.17l15.406-5.608 11.015 30.262c1.548 4.254-.645 8.958-4.9 10.507-4.254 1.548-8.958-.645-10.506-4.9L239.45 171.17z"/>
    <path fill="#A9AAC4" fill-rule="evenodd" d="M242.886 180.496l2.801 7.815s4.768-.042 8.896-1.88c4.127-1.837 5.763-5.935 5.763-5.935l-2.072-5.481-15.388 5.481z" clip-rule="evenodd"/>
    <path fill="url(#prefix__paint9_linear)" fill-rule="evenodd" d="M214.676 184.567c27.069 4.773 54.066-20.014 60.299-55.364 6.233-35.349-10.658-67.875-37.727-72.648-27.07-4.773-54.067 20.014-60.3 55.364-6.233 35.349 10.658 67.875 37.728 72.648z" clip-rule="evenodd"/>
    <path fill="#80B1FF" fill-rule="evenodd" d="M228.143 183.981c27.069 4.773 54.066-20.014 60.299-55.363 6.233-35.35-10.658-67.875-37.727-72.648-27.07-4.773-54.067 20.014-60.3 55.363-6.233 35.35 10.658 67.875 37.728 72.648z" clip-rule="evenodd"/>
    <path fill="#3F699D" fill-rule="evenodd" d="M230.015 174.765c22.929 4.043 45.796-16.947 51.075-46.883 5.278-29.935-9.031-57.48-31.96-61.523-22.93-4.043-45.797 16.947-51.075 46.882-5.278 29.936 9.03 57.481 31.96 61.524z" clip-rule="evenodd"/>
    <mask id="prefix__d" width="87" height="111" x="196" y="65" maskUnits="userSpaceOnUse">
        <path fill="#fff" fill-rule="evenodd" d="M230.015 174.765c22.929 4.043 45.796-16.947 51.075-46.883 5.278-29.935-9.031-57.48-31.96-61.523-22.93-4.043-45.797 16.947-51.075 46.882-5.278 29.936 9.03 57.481 31.96 61.524z" clip-rule="evenodd"/>
    </mask>
    <g mask="url(#prefix__d)">
        <path fill="url(#prefix__paint10_linear)" fill-rule="evenodd" d="M208.984 180.023c31.936 3.922 61.195-20.35 65.353-54.212 4.158-33.862-18.361-64.491-50.297-68.412-31.936-3.922-61.196 20.35-65.354 54.212-4.157 33.862 18.361 64.491 50.298 68.412z" clip-rule="evenodd"/>
        <mask id="prefix__e" width="117" height="125" x="158" y="56" maskUnits="userSpaceOnUse">
            <path fill="#fff" fill-rule="evenodd" d="M208.984 180.023c31.936 3.922 61.195-20.35 65.353-54.212 4.158-33.862-18.361-64.491-50.297-68.412-31.936-3.922-61.196 20.35-65.354 54.212-4.157 33.862 18.361 64.491 50.298 68.412z" clip-rule="evenodd"/>
        </mask>
        <g mask="url(#prefix__e)">
            <path fill="url(#prefix__paint11_linear)" fill-rule="evenodd" d="M239.751 172.527c15.386-6.352 28.19-23.204 31.97-44.645 4.928-27.947-7.216-53.811-27.508-60.413-15.387 6.352-28.19 23.204-31.971 44.645-4.928 27.947 7.216 53.811 27.509 60.413z" clip-rule="evenodd"/>
            <path fill="#80B1FF" fill-rule="evenodd" d="M222.257 59.714c3.213-1.86 7.234.458 7.234 4.17v50.92c0 5.169-2.758 9.944-7.236 12.526l-64.23 37.034c-3.213 1.852-7.226-.467-7.226-4.175v-50.764c0-5.159 2.748-9.927 7.213-12.512l64.245-37.2z" clip-rule="evenodd"/>
            <path fill="url(#prefix__paint12_linear)" fill-rule="evenodd" d="M201.058 121.098c-6.853-1.833-9.934-12.541-6.882-23.916 3.053-11.374 11.084-19.11 17.937-17.276 1.689.452 6.063.951 6.063.951s3.12 14.393.819 22.965c-2.068 7.707-9.644 18.481-9.644 18.481s-6.083-.614-8.293-1.205z" clip-rule="evenodd"/>
            <path fill="#ADCCFF" fill-rule="evenodd" d="M207.12 122.049c-6.853-1.833-9.935-12.541-6.882-23.916 3.053-11.374 11.084-19.11 17.937-17.276 6.854 1.834 9.935 12.541 6.882 23.916-3.053 11.375-11.083 19.109-17.937 17.276z" clip-rule="evenodd"/>
            <mask id="prefix__f" width="28" height="43" x="199" y="80" maskUnits="userSpaceOnUse">
                <path fill="#fff" fill-rule="evenodd" d="M207.12 122.049c-6.853-1.833-9.935-12.541-6.882-23.916 3.053-11.374 11.084-19.11 17.937-17.276 6.854 1.834 9.935 12.541 6.882 23.916-3.053 11.375-11.083 19.109-17.937 17.276z" clip-rule="evenodd"/>
            </mask>
            <g mask="url(#prefix__f)">
                <path fill="#fff" fill-rule="evenodd" d="M200.606 92.639l14.253 9.324-9.429 22.426s-7.311-4.798-7.303-15.871c.008-11.074 2.479-15.88 2.479-15.88z" clip-rule="evenodd"/>
            </g>
            <path fill="#80B1FF" d="M239.054 -31.089H314.928V183.339H239.054z" opacity=".467"/>
        </g>
        <path fill-rule="evenodd" stroke="#DDE7F9" stroke-width="1.8" d="M224.773 136.396c1.809-1.047 4.069.27 4.052 2.359l-.19 23.109c-.021 2.573-1.413 4.938-3.652 6.206l-154.11 87.276c-1.8 1.02-4.03-.281-4.03-2.349v-21.063c0-2.569 1.37-4.944 3.594-6.232l154.336-89.306z" clip-rule="evenodd"/>
    </g>
    <path fill="#30334F" fill-rule="evenodd" d="M311.183 401.634s.275 1.842.275 2.782-1.649 2.457-4.92 2.205c-3.271-.253-6.077-3.291-6.36-3.616-.283-.325.293-2.866-1.656-3.529-1.95-.664-2.318.697-5.501-1.345-3.183-2.043-3.042-7.403-1.222-8.666 1.82-1.262 19.384 12.169 19.384 12.169zM287.99 416.303s.528 1.405.528 3.013c0 1.607-3.132 2.469-6.904 2.469s-2.306-1.568-4.849-2.018c-2.543-.451-2.217 1.123-5.929 1.123s-8.805-.741-9.536-4.587c-.731-3.845 26.69 0 26.69 0z" clip-rule="evenodd"/>
    <path fill="#181E36" fill-rule="evenodd" d="M310.147 391.208s.974 2.185 1.311 10.372c0 0-.733 3.396-5.219 2.836-4.486-.56-3.602-2.667-10.288-6.051-6.687-3.383-6.265-7.915-4.51-9.008 1.755-1.093 3.954-1.752 9.571-.213 5.616 1.539 9.135 2.064 9.135 2.064zM275.064 405.374s-1.355 3.425-6.763 4.267c-5.408.843-8.168 3.162-7.676 5.41.492 2.247 3.194 4.906 9.19 4.316 5.996-.589 7.238-.022 10.291.269 3.054.29 6.646.297 8.142-2.144 0 0 .54-2.887 0-7.213-.54-4.326-1.463-4.636-1.463-6.118 0-1.481-11.721 1.213-11.721 1.213z" clip-rule="evenodd"/>
    <path fill="#C47770" fill-rule="evenodd" d="M274.906 232.651s-.881 1.884-1.579 2.546c-.698.662.106 1.556.843 1.556.736 0 .736-4.102.736-4.102z" clip-rule="evenodd"/>
    <path fill="url(#prefix__paint13_linear)" fill-rule="evenodd" d="M270.953 295.397c-1.651 2.644-1.185 9.258-1.345 15.109-.363 13.327.865 29.297.865 32.391 0 4.453 2.03 36.706 2.03 44.149 0 7.443.795 17.943.795 17.943s8.898 4.335 14.902-.266c0 0-1.258-60.898-1.258-64.568 0-3.67.443-5.773.443-5.773s5.066 22.732 5.066 25.753c0 3.02 5.407 31.654 5.407 31.654s3.267 2.936 7.273 2.154 5.85-3.042 5.85-3.042-1.235-28.275-4.422-35.009c-.449-8.738-2.776-32.503-2.776-38.325 0-5.821 2.756-16.96-.699-26.893-3.455-9.932-26.719-3.944-32.131 4.723z" clip-rule="evenodd"/>
    <path stroke="#1C478A" stroke-width="1.129" d="M274.001 294.289c-1.755 1.51-.703 51.18-.703 61.111 0 9.93 3.186 49.221 3.186 49.221"/>
    <path fill-rule="evenodd" stroke="#30334F" stroke-width="1.129" d="M273.41 234.313c-1.044-.345-1.498-1.854-1.013-3.371.485-1.517 1.724-2.467 2.769-2.122 1.044.345 1.497 1.854 1.013 3.371-.485 1.517-1.725 2.467-2.769 2.122z" clip-rule="evenodd"/>
    <path fill="#092965" fill-rule="evenodd" d="M302.101 285.288s.873.034.873 2.213c0 2.179-2.389 4.896-4.767 6.494-2.377 1.598-9.414 3.395-20.444 2.322-5.543-1.086-6.253-6.011-6.253-6.011l30.591-5.018z" clip-rule="evenodd"/>
    <rect width="3.408" height="1.155" fill="#30334F" rx=".578" transform="matrix(-1 0 0 1 278.548 228.1)"/>
    <path fill="#AC6A5A" fill-rule="evenodd" d="M278.039 223.383s-2.716 5.207-2.716 7.336c0 2.13-1.318 2.043-1.318 4.841 0 2.797-.149 8.539 1.318 9.918 1.467 1.379 5.542.73 5.542.73s.644 4.389 0 5.466c-.644 1.078-1.68 1.701-1.68 1.701s8.062-.529 10.337-1.701c2.275-1.171 1.715-4.143 1.715-4.143s-.834.111-.834-.606v-5.513s.841-12.177-2.035-15.493c-2.876-3.316-10.329-2.536-10.329-2.536zM263.766 244.856c0-2.358-10.275-20.603-10.275-20.603s-.634 20.218 3.625 26.086c0 0 6.65-3.125 6.65-5.483zM308.073 270.467s1.094 10.782-4.661 14.821l-2.264-15.497 6.925.676z" clip-rule="evenodd"/>
    <path fill="#586DFF" fill-rule="evenodd" d="M300.895 250.339s4.6 5.858 7.989 19.342c0 0-1.005 3.533-5.931 3.533l-2.058-22.875z" clip-rule="evenodd"/>
    <path fill="#586DFF" fill-rule="evenodd" d="M277.354 254.665s-2.425-1.658-3.353-2.089c-1.527-.71-9.121-10.31-9.628-10.074-1.887.88-7.203 3.195-8.41 9.192 0 0 9.177 11.549 14.515 18.25 2.333 3.16.489 14.859 0 18.017-.489 3.158 2.14 5.355 2.14 5.355s9.385 3.812 22.972-.589c0 0 5.933-2.385 7.558-6.313 0 0 1.091-2.281 0-10.737 1.183-8.33.774-18.726-1.175-23.101-1.95-4.376-5.712-5.807-9.543-4.156-.901.388-1.082-1.651-1.082-1.651l-13.994 7.896z" clip-rule="evenodd"/>
    <mask id="prefix__g" width="49" height="53" x="255" y="242" maskUnits="userSpaceOnUse">
        <path fill="#fff" fill-rule="evenodd" d="M277.354 254.665s-2.425-1.658-3.353-2.089c-1.527-.71-9.121-10.31-9.628-10.074-1.887.88-7.203 3.195-8.41 9.192 0 0 9.177 11.549 14.515 18.25 2.333 3.16.489 14.859 0 18.017-.489 3.158 2.14 5.355 2.14 5.355s9.385 3.812 22.972-.589c0 0 5.933-2.385 7.558-6.313 0 0 1.091-2.281 0-10.737 1.183-8.33.774-18.726-1.175-23.101-1.95-4.376-5.712-5.807-9.543-4.156-.901.388-1.082-1.651-1.082-1.651l-13.994 7.896z" clip-rule="evenodd"/>
    </mask>
    <g mask="url(#prefix__g)">
        <path stroke="#4558E1" stroke-width=".924" d="M304.882 255.26s-9.005 13.044-33.929 15.207"/>
    </g>
    <path fill="#30334F" fill-rule="evenodd" d="M285.013 235.884c1.1 0 2.923.223 1.462 3.876-1.462 3.653 2.644 5.767 3.934 5.26 1.29-.507 5.53-6.971 7.794-8.684 2.263-1.712-.338-6.667-.338-6.667s1.935-5.086-2.642-7.339-11.979-6.213-15.165-5.395c-3.185.818-2.37 2.328-2.37 2.328s-5.12 2.4-2.458 4.978 7.444 3.518 7.444 3.518-3.193 1.772-2.616 3.967c.577 2.196 1.175 4.764 0 6.579-1.174 1.815-5.637 1.653-6.057 0-.552 1.258-.406 5.216-.203 6.14.203.923-.562 2.324 3.577 2.324s2.568-4.052 3.838-7.009c1.27-2.957 2.7-3.876 3.8-3.876z" clip-rule="evenodd"/>
    <mask id="prefix__h" width="27" height="31" x="273" y="216" maskUnits="userSpaceOnUse">
        <path fill="#fff" fill-rule="evenodd" d="M285.013 235.884c1.1 0 2.923.223 1.462 3.876-1.462 3.653 2.644 5.767 3.934 5.26 1.29-.507 5.53-6.971 7.794-8.684 2.263-1.712-.338-6.667-.338-6.667s1.935-5.086-2.642-7.339-11.979-6.213-15.165-5.395c-3.185.818-2.37 2.328-2.37 2.328s-5.12 2.4-2.458 4.978 7.444 3.518 7.444 3.518-3.193 1.772-2.616 3.967c.577 2.196 1.175 4.764 0 6.579-1.174 1.815-5.637 1.653-6.057 0-.552 1.258-.406 5.216-.203 6.14.203.923-.562 2.324 3.577 2.324s2.568-4.052 3.838-7.009c1.27-2.957 2.7-3.876 3.8-3.876z" clip-rule="evenodd"/>
    </mask>
    <g mask="url(#prefix__h)">
        <path fill="url(#prefix__paint14_linear)" fill-rule="evenodd" d="M282.674 227.759s10.469 1.402 3.762 12.659c-6.707 11.256-2.504-2.283-5.942-3.665-3.438-1.382 0-9.725 0-9.725l2.18.731z" clip-rule="evenodd"/>
    </g>
    <path fill="#4A5CD8" fill-rule="evenodd" d="M290.572 246.013s.245 1.099-3.508 2.076c-3.754.976-6.818 2.175-8.436 4.528l-1.546 2.047s12.192-3.092 14.266-4.734c2.074-1.641.53-2.68.53-2.68l-1.306-1.237z" clip-rule="evenodd"/>
    <path fill="#16335D" fill-rule="evenodd" d="M289.003 304.343v2.904s-5.705 1.842-11.877.548v-2.493s4.25.169 6.338 0c2.087-.168 5.539-.959 5.539-.959zM287.385 334.382l.921-15.564s2.218-.381 3.659-1.25c1.441-.87 3.44-3.034 3.44-3.034s.438 8.46-1.199 15.046c-1.636 6.586-4.448 13.411-4.12 16.964l-2.701-12.162z" clip-rule="evenodd"/>
    <path stroke="#30334F" stroke-width="1.129" d="M272.7 230.08l11.55 5.291"/>
    <path stroke="#1C478A" stroke-width="1.129" d="M287.744 328.672l11.659 64.173"/>
    <path fill="#AC6A5A" fill-rule="evenodd" d="M283.126 236.753s1.773-2.073 3.065-1.382c1.292.691 1.727 2.519 0 4.876-1.727 2.356-3.517.499-3.517.499l.452-3.993z" clip-rule="evenodd"/>
    <path fill="url(#prefix__paint15_linear)" fill-rule="evenodd" d="M283.313 237.612s.865-1.129 1.496-.753c.631.377.843 1.372 0 2.655-.843 1.283-1.717.272-1.717.272l.221-2.174z" clip-rule="evenodd"/>
    <path fill="url(#prefix__paint16_linear)" fill-rule="evenodd" d="M473.296 380.578l4.527-8.227-.096 27.283c.37 4.896-2.019 9.832-7.178 13.971l-31.962-22.531 31.921-13.113c1.04.843 1.97 1.718 2.788 2.617z" clip-rule="evenodd"/>
    <path fill="url(#prefix__paint17_linear)" fill-rule="evenodd" d="M438.587 391.074l-39.077-2.401c.74-5.055 4.444-9.976 11.124-13.833 15.189-8.769 40.016-8.716 55.452.119 1.648.943 3.121 1.948 4.422 3.002l-31.921 13.113z" clip-rule="evenodd"/>
    <path fill="url(#prefix__paint18_linear)" fill-rule="evenodd" d="M438.587 391.074l-39.077-2.401.102-28.052 70.997-10.712-.102 28.052-31.92 13.113z" clip-rule="evenodd"/>
    <path fill="url(#prefix__paint19_linear)" fill-rule="evenodd" d="M438.689 363.023l-39.077-2.402c.74-5.054 4.444-9.975 11.124-13.832 15.189-8.77 40.016-8.716 55.452.119 1.648.943 3.121 1.948 4.422 3.001l-31.921 13.114z" clip-rule="evenodd"/>
    <path fill="url(#prefix__paint20_linear)" fill-rule="evenodd" d="M470.649 385.389l-.068 18.701-31.994-13.016.068-18.701 31.994 13.016z" clip-rule="evenodd"/>
    <path fill="url(#prefix__paint21_linear)" fill-rule="evenodd" d="M470.576 359.26c9.68 7.843 9.73 18.382.073 26.129l-31.994-13.016 31.921-13.113z" clip-rule="evenodd"/>
    <path fill="url(#prefix__paint22_linear)" fill-rule="evenodd" d="M401.674 388.806l36.913 2.268 22.361 9.097c1.982-.778 3.865-1.673 5.62-2.686 1.498-.865 2.847-1.784 4.046-2.746l-.065 18.866c-1.2.962-2.548 1.88-4.047 2.746-15.189 8.769-40.016 8.716-55.452-.12-8.648-4.949-12.514-11.605-11.572-18.043l.066-18.866c-.466 3.186.245 6.425 2.13 9.484z" clip-rule="evenodd"/>
    <path fill="url(#prefix__paint23_linear)" fill-rule="evenodd" d="M399.544 379.322l39.077 2.402 31.993 13.015c-1.199.962-2.548 1.881-4.046 2.746-15.189 8.77-40.016 8.716-55.453-.119-8.647-4.95-12.513-11.605-11.571-18.044z" clip-rule="evenodd"/>
    <defs>
        <linearGradient id="prefix__paint0_linear" x1="487.584" x2="447.76" y1="227.648" y2="262.923" gradientUnits="userSpaceOnUse">
            <stop stop-color="#142B47"/>
            <stop offset="1" stop-color="#092965"/>
        </linearGradient>
        <linearGradient id="prefix__paint1_linear" x1="509.747" x2="484.403" y1="225.153" y2="273.837" gradientUnits="userSpaceOnUse">
            <stop stop-color="#15539E"/>
            <stop offset="1" stop-color="#092965"/>
        </linearGradient>
        <linearGradient id="prefix__paint2_linear" x1="19.98" x2="365.102" y1="-67.042" y2="-39.038" gradientUnits="userSpaceOnUse">
            <stop stop-color="#4F6FCE"/>
            <stop offset="1" stop-color="#3B3B5D"/>
        </linearGradient>
        <linearGradient id="prefix__paint3_linear" x1="56.303" x2="348.717" y1="92.096" y2="218.113" gradientUnits="userSpaceOnUse">
            <stop stop-color="#C0E1FF"/>
            <stop offset="1" stop-color="#fff"/>
        </linearGradient>
        <linearGradient id="prefix__paint4_linear" x1="116.471" x2="88.652" y1="174.649" y2="178.857" gradientUnits="userSpaceOnUse">
            <stop stop-color="#56A1FF"/>
            <stop offset="1" stop-color="#5187DC"/>
        </linearGradient>
        <linearGradient id="prefix__paint5_linear" x1="204.805" x2="176.985" y1="123.339" y2="127.548" gradientUnits="userSpaceOnUse">
            <stop stop-color="#56A1FF"/>
            <stop offset="1" stop-color="#5187DC"/>
        </linearGradient>
        <linearGradient id="prefix__paint6_linear" x1="157.925" x2="149.094" y1="261.838" y2="259.578" gradientUnits="userSpaceOnUse">
            <stop stop-color="#4F6FCE"/>
            <stop offset="1" stop-color="#3B3B5D"/>
        </linearGradient>
        <linearGradient id="prefix__paint7_linear" x1="264.604" x2="293.204" y1="379.267" y2="417.797" gradientUnits="userSpaceOnUse">
            <stop stop-color="#364D83" stop-opacity=".602"/>
            <stop offset="1" stop-color="#B2C4FF"/>
        </linearGradient>
        <linearGradient id="prefix__paint8_linear" x1="246.676" x2="278.705" y1="201.162" y2="195.026" gradientUnits="userSpaceOnUse">
            <stop stop-color="#4F6FCE"/>
            <stop offset="1" stop-color="#3B3B5D"/>
        </linearGradient>
        <linearGradient id="prefix__paint9_linear" x1="286.993" x2="158.579" y1="39.726" y2="28.225" gradientUnits="userSpaceOnUse">
            <stop stop-color="#4F6FCE"/>
            <stop offset="1" stop-color="#3B3B5D"/>
        </linearGradient>
        <linearGradient id="prefix__paint10_linear" x1="257.417" x2="143.138" y1="32.053" y2="57.535" gradientUnits="userSpaceOnUse">
            <stop stop-color="#C0E1FF"/>
            <stop offset="1" stop-color="#fff"/>
        </linearGradient>
        <linearGradient id="prefix__paint11_linear" x1="257.881" x2="195.181" y1="42.618" y2="56.491" gradientUnits="userSpaceOnUse">
            <stop stop-color="#C0E1FF"/>
            <stop offset="1" stop-color="#fff"/>
        </linearGradient>
        <linearGradient id="prefix__paint12_linear" x1="223.339" x2="196.232" y1="110.897" y2="115.043" gradientUnits="userSpaceOnUse">
            <stop stop-color="#56A1FF"/>
            <stop offset="1" stop-color="#5187DC"/>
        </linearGradient>
        <linearGradient id="prefix__paint13_linear" x1="318.868" x2="265.632" y1="333.264" y2="354.85" gradientUnits="userSpaceOnUse">
            <stop stop-color="#15539E"/>
            <stop offset="1" stop-color="#092965"/>
        </linearGradient>
        <linearGradient id="prefix__paint14_linear" x1="281.915" x2="287.349" y1="231.857" y2="229.572" gradientUnits="userSpaceOnUse">
            <stop stop-color="#30334F"/>
            <stop offset="1" stop-color="#181E36"/>
        </linearGradient>
        <linearGradient id="prefix__paint15_linear" x1="283.562" x2="285.43" y1="237.284" y2="237.089" gradientUnits="userSpaceOnUse">
            <stop stop-color="#AC6A5A"/>
            <stop offset="1" stop-color="#884E3F"/>
        </linearGradient>
        <linearGradient id="prefix__paint16_linear" x1="446.576" x2="513.837" y1="439.067" y2="423.553" gradientUnits="userSpaceOnUse">
            <stop stop-color="#BFD5FF"/>
            <stop offset="1" stop-color="#8493F2"/>
        </linearGradient>
        <linearGradient id="prefix__paint17_linear" x1="454.188" x2="396.302" y1="349.694" y2="383.115" gradientUnits="userSpaceOnUse">
            <stop stop-color="#6F49E5"/>
            <stop offset="1" stop-color="#A265E9"/>
        </linearGradient>
        <linearGradient id="prefix__paint18_linear" x1="472.806" x2="458.948" y1="384.88" y2="341.827" gradientUnits="userSpaceOnUse">
            <stop stop-color="#334A98"/>
            <stop offset="1" stop-color="#2F76FF"/>
        </linearGradient>
        <linearGradient id="prefix__paint19_linear" x1="496.436" x2="459.919" y1="331.727" y2="288.329" gradientUnits="userSpaceOnUse">
            <stop stop-color="#334A98"/>
            <stop offset="1" stop-color="#2F76FF"/>
        </linearGradient>
        <linearGradient id="prefix__paint20_linear" x1="447.934" x2="495.114" y1="431.385" y2="414.227" gradientUnits="userSpaceOnUse">
            <stop stop-color="#BFD5FF"/>
            <stop offset="1" stop-color="#8493F2"/>
        </linearGradient>
        <linearGradient id="prefix__paint21_linear" x1="493.365" x2="451.376" y1="355.606" y2="339.405" gradientUnits="userSpaceOnUse">
            <stop stop-color="#E1E9FE"/>
            <stop offset="1" stop-color="#C5D5FD"/>
        </linearGradient>
        <linearGradient id="prefix__paint22_linear" x1="408.275" x2="511.179" y1="471.431" y2="442.327" gradientUnits="userSpaceOnUse">
            <stop stop-color="#BFD5FF"/>
            <stop offset="1" stop-color="#8493F2"/>
        </linearGradient>
        <linearGradient id="prefix__paint23_linear" x1="443.137" x2="446.795" y1="405.631" y2="380.178" gradientUnits="userSpaceOnUse">
            <stop stop-color="#E1E9FE"/>
            <stop offset="1" stop-color="#C5D5FD"/>
        </linearGradient>
    </defs>
</svg>
