<svg xmlns="http://www.w3.org/2000/svg" width="570" height="407" fill="none" viewBox="0 0 570 407">
    <path fill="url(#prefix__paint0_linear)" fill-rule="evenodd" d="M243.567 161.415c-2.652-1.417-5.84-1.398-8.475.05L39.122 269.212v5.314c0 1.588.846 3.055 2.22 3.849l121.819 70.437c2.753 1.592 6.147 1.593 8.9.001l193.523-111.841c1.374-.795 2.221-2.262 2.221-3.849v-5.314l-124.238-66.394z" clip-rule="evenodd"/>
    <path fill="url(#prefix__paint1_linear)" fill-rule="evenodd" d="M243.567 159.865c-2.652-1.417-5.84-1.398-8.475.05L39.122 267.662v5.315c0 1.587.846 3.054 2.22 3.848l121.819 70.438c2.753 1.591 6.147 1.592 8.9.001l193.523-111.842c1.374-.794 2.221-2.261 2.221-3.849v-5.314l-124.238-66.394z" clip-rule="evenodd"/>
    <path fill="url(#prefix__paint2_linear)" fill-rule="evenodd" d="M243.76 153.403c-2.75-1.587-6.137-1.587-8.887 0L43.542 263.811c-2.965 1.711-2.965 5.991 0 7.701l119.625 69.006c2.75 1.587 6.138 1.586 8.887 0L363.385 230.11c2.965-1.711 2.965-5.991 0-7.701L243.76 153.403z" clip-rule="evenodd"/>
    <path fill="url(#prefix__paint3_linear)" fill-rule="evenodd" d="M229.138 169.469c2.429-1.422 5.442-1.397 7.846.066l35.387 21.529c1.662 1.011 1.627 3.435-.064 4.397l-154.693 88.033c-4.67 2.657-10.39 2.672-15.073.04l-30.929-17.385c-1.718-.965-1.74-3.43-.039-4.426l157.565-92.254z" clip-rule="evenodd" opacity=".246"/>
    <path fill="url(#prefix__paint4_linear)" fill-rule="evenodd" d="M247.678 227.16c-.982-.558-2.186-.558-3.168.001l-69.25 39.434c-1.078.614-1.078 2.168 0 2.782l43.296 24.646c.982.559 2.186.559 3.168 0l69.25-39.434c1.078-.614 1.078-2.168 0-2.782l-43.296-24.647z" clip-rule="evenodd"/>
    <mask id="prefix__a" width="118" height="69" x="174" y="226" maskUnits="userSpaceOnUse">
        <path fill="#fff" fill-rule="evenodd" d="M247.678 227.16c-.982-.558-2.186-.558-3.168.001l-69.25 39.434c-1.078.614-1.078 2.168 0 2.782l43.296 24.646c.982.559 2.186.559 3.168 0l69.25-39.434c1.078-.614 1.078-2.168 0-2.782l-43.296-24.647z" clip-rule="evenodd"/>
    </mask>
    <g mask="url(#prefix__a)">
        <path fill="url(#prefix__paint5_linear)" fill-rule="evenodd" d="M247.678 230.538c-.982-.559-2.186-.559-3.168 0l-69.25 39.434c-1.078.614-1.078 2.168 0 2.782l43.296 24.646c.982.559 2.186.559 3.168 0l69.25-39.434c1.078-.614 1.078-2.168 0-2.782l-43.296-24.646z" clip-rule="evenodd"/>
    </g>
    <path fill="#80B1FF" fill-rule="evenodd" d="M235.466.713c-1.128-.45-2.4-.361-3.454.242L37.962 112.01c-2.768 1.584-4.475 4.529-4.475 7.717V260.64c0 1.563.838 3.022 2.178 3.825 2.11 1.264 4.775 1.282 6.885.017l189.18-113.374c2.617-1.569 4.248-4.37 4.318-7.421l3.172-137.29c.058-2.493-1.439-4.759-3.754-5.684z" clip-rule="evenodd"/>
    <path fill="url(#prefix__paint6_linear)" fill-rule="evenodd" d="M239.316 7.698c0-3.422-3.704-5.56-6.668-3.85L41.315 114.256c-2.752 1.588-4.447 4.524-4.447 7.701v138.007c0 3.422 3.704 5.561 6.668 3.85l191.333-110.408c2.752-1.588 4.447-4.524 4.447-7.702V7.698z" clip-rule="evenodd"/>
    <path fill="url(#prefix__paint7_linear)" fill-rule="evenodd" d="M231.427 14.634L45.456 122.229v131.046l185.971-107.596V14.634z" clip-rule="evenodd"/>
    <path fill="#C7DCFF" fill-rule="evenodd" d="M257.196 10.707c5.702-3.332 12.868.78 12.868 7.385v75.015c0 9.137-4.859 17.586-12.757 22.18l-95.098 55.326c-5.702 3.318-12.855-.796-12.855-7.393V88.439c0-9.12 4.842-17.556 12.717-22.157l95.125-55.575z" clip-rule="evenodd"/>
    <path fill="#528BE1" fill-rule="evenodd" d="M259.959 27.553l-12.158 6.904V97.11l12.158-6.904V27.553zM238.249 40.606l-12.158 6.904v61.782l12.158-6.904V40.606zM216.539 51.918l-12.158 6.904v62.652l12.158-6.904V51.918zM194.828 64.1l-12.158 6.904v62.652l12.158-6.904V64.1zM173.118 75.412l-12.158 6.904v60.912l12.158-6.904V75.412z" clip-rule="evenodd"/>
    <path fill="#fff" fill-rule="evenodd" d="M259.959 38.512l-12.158 6.904v62.135l12.158-6.904V38.512zM238.249 68.097l-12.158 6.904v44.733l12.158-6.904V68.097zM216.539 90.205l-12.158 6.904v34.807l12.158-6.904V90.205zM194.828 91.946L182.67 98.85v45.248l12.158-6.904V91.946zM173.118 126.847l-12.158 6.905v19.918l12.158-6.904v-19.919z" clip-rule="evenodd"/>
    <path fill="#C7DCFF" fill-rule="evenodd" d="M107.841 95.881c5.703-3.331 12.869.781 12.869 7.386v75.015c0 9.137-4.859 17.585-12.757 22.18l-95.098 55.326C7.153 259.106 0 254.992 0 248.395v-74.782c0-9.12 4.841-17.555 12.716-22.156l95.125-55.576z" clip-rule="evenodd"/>
    <path fill="#98BDF4" fill-rule="evenodd" d="M110.605 146.46l-12.158 6.904v39.362l12.158-6.904V146.46zM88.894 176.046l-12.157 6.904v21.958l12.157-6.904v-21.958zM67.184 198.154l-12.158 6.904v12.033l12.158-6.905v-12.032zM45.474 199.894l-12.158 6.904v22.475l12.158-6.904v-22.475zM23.763 225.686l-12.158 6.904v6.255l12.158-6.904v-6.255z" clip-rule="evenodd"/>
    <path stroke="#fff" stroke-linecap="round" stroke-width="9" d="M11.687 213.088s14.97-23.602 25.29-29.514c10.318-5.913 15.67 3.433 25.95-2.541s19.232-39.168 43.42-53.12"/>
    <path fill="url(#prefix__paint8_linear)" fill-rule="evenodd" d="M57.84 186.853c1.569.8 4.09-1.005 5.631-4.031 1.541-3.026 1.52-6.127-.05-6.926-1.568-.8-4.089 1.005-5.63 4.031-1.541 3.026-1.52 6.127.05 6.926z" clip-rule="evenodd"/>
    <path stroke="#fff" stroke-opacity=".286" stroke-width="7.2" d="M56.206 190.061c2.593 1.321 5.143.149 6.555-.862 1.578-1.129 2.94-2.824 3.918-4.743.978-1.919 1.547-4.018 1.534-5.958-.013-1.736-.564-4.488-3.156-5.81-2.593-1.321-5.144-.149-6.556.862-1.577 1.129-2.94 2.824-3.918 4.743-.977 1.92-1.547 4.018-1.533 5.958.012 1.736.563 4.488 3.156 5.81z"/>
    <path fill="url(#prefix__paint9_linear)" fill-rule="evenodd" d="M474.751 303.398c-16.975 0-30.736-8.157-30.736-18.219 0-10.063 13.761-18.22 30.736-18.22s30.736 8.157 30.736 18.22c0 10.062-13.761 18.219-30.736 18.219z" clip-rule="evenodd" opacity=".211"/>
    <path fill="#051B4D" fill-rule="evenodd" d="M488.867 269.658s1.851 2.011 1.085 5.313c-.765 3.301-2.893 4.339-3.943 6.907-1.05 2.567-7.08 6.614-9.229 5.004-2.148-1.611 4.11-7.91 4.345-8.529.234-.618 7.742-8.695 7.742-8.695z" clip-rule="evenodd"/>
    <path fill="#FFBBB0" fill-rule="evenodd" d="M482.582 260.851l.44 7.944c.171 3.088-.431 6.186-1.964 8.872-.719 1.26-1.496 2.525-2.137 3.341-1.703 2.169.153 3.565 3.529 1.797 2.049-1.074 4.18-4.071 5.537-6.26.999-1.612 1.478-3.474 1.568-5.369l.48-10.177-7.453-.148z" clip-rule="evenodd"/>
    <path fill="#0D3677" fill-rule="evenodd" d="M466.391 178.015s-2.061 2.304.659 4.912c2.721 2.608 3.388 2.116 4.076 1.509.689-.606-.652-3.425-1.829-4.527-1.177-1.103-2.906-1.894-2.906-1.894z" clip-rule="evenodd"/>
    <path fill="#FFBBB0" fill-rule="evenodd" d="M472.412 181.936l-12.235 9.15s-.962 3.007-2.781 5.113c-1.819 2.106-2.004 3.404-3.143 3.689-1.139.285.195-3.327.195-3.327l-3.56 2.024s-.315 3.026-1.203 3.869c-.888.842-.99-1.944-1.014-3.012-.608 1.459-1.66 2.518-2.29 2.158-.386-.221.11-.863.554-2.004.281-.721.398-1.964.714-2.401.815-1.129 2.062-2.363 2.062-2.363l5.202-5.106 12.566-12.677s3.414-.157 3.9.621c.821 1.314 1.033 4.266 1.033 4.266z" clip-rule="evenodd"/>
    <mask id="prefix__b" width="27" height="26" x="446" y="177" maskUnits="userSpaceOnUse">
        <path fill="#fff" fill-rule="evenodd" d="M472.412 181.936l-12.235 9.15s-.962 3.007-2.781 5.113c-1.819 2.106-2.004 3.404-3.143 3.689-1.139.285.195-3.327.195-3.327l-3.56 2.024s-.315 3.026-1.203 3.869c-.888.842-.99-1.944-1.014-3.012-.608 1.459-1.66 2.518-2.29 2.158-.386-.221.11-.863.554-2.004.281-.721.398-1.964.714-2.401.815-1.129 2.062-2.363 2.062-2.363l5.202-5.106 12.566-12.677s3.414-.157 3.9.621c.821 1.314 1.033 4.266 1.033 4.266z" clip-rule="evenodd"/>
    </mask>
    <g mask="url(#prefix__b)">
        <path fill="#A9AAC4" fill-rule="evenodd" d="M450.909 198.816c-.069-.169-.088-2.062 1.385-3.018s2.464-2.311 2.472-1.656c.009.654-.521 3.084-.521 3.084s-3.267 1.76-3.336 1.59zM449.827 194.661s-1.245 2.41-1.156 4.781c.089 2.371.374 3.077.329 3.557-.045.48-1.057-1.845-1.457-4.862-.4-3.017 2.284-3.476 2.284-3.476z" clip-rule="evenodd" opacity=".2"/>
    </g>
    <path fill="#586DFF" fill-rule="evenodd" d="M473.534 146.638s-5.103 2.344-3.702 9.575c1.401 7.232 3.176 14.216 3.176 14.216l-6.919 7.876s4.148 1.239 4.781 6.418c0 0 8.364-8.353 9.22-10.13.429-.889 1.052-9.331-1.627-19.389-.889-3.34-4.929-8.566-4.929-8.566z" clip-rule="evenodd"/>
    <path fill="#051B4D" fill-rule="evenodd" d="M472.47 267.608s1.472 1.821-.813 7.369-4.918 7.815-8.125 8.83c-3.206 1.015-1.819-5.01.161-7.931 1.981-2.921 2.887-8.808 2.887-8.808l5.89.54z" clip-rule="evenodd"/>
    <path fill="#FFBBB0" fill-rule="evenodd" d="M466.246 255.606l.033 12.679s-2.093 7.111-3.442 9.282c-1.35 2.172 3.015 2.897 5.209.742 2.195-2.154 4.33-9.16 4.33-9.16l1.302-13.008-7.432-.535z" clip-rule="evenodd"/>
    <path fill="url(#prefix__paint10_linear)" fill-rule="evenodd" d="M482.114 178.556s1.707 12.486-2.06 20.808c-2.824 12.305-4.166 20.984-4.166 20.984l-.622 40.012s-1.109 2.231-5.183 2.231c-4.073 0-4.185-2.231-4.185-2.231s-1.979-25.604-1.979-41.514c0-15.909 9.085-43.016 9.085-43.016l9.11 2.726z" clip-rule="evenodd"/>
    <path fill="url(#prefix__paint11_linear)" fill-rule="evenodd" d="M493.262 182.734s4.067 12.315.301 20.637c.299 13.579-2.061 22.125-2.061 26.368v32.996s-2.176 2.518-4.989 2.518c-2.813 0-4.926-1.265-4.926-1.265l-.787-41.118-3.929-43.154 16.391 3.018z" clip-rule="evenodd"/>
    <path fill="#586DFF" fill-rule="evenodd" d="M490.164 149.893c-1.367-.87-5.636-1.432-9.677-2.173-2.339-.428-4.672-1.11-6.141-1.444-2.667 0-3.184 4.059-3.862 8.311-.679 4.253-2.188 9.128-1.277 11.726.911 2.598 2.93 3.665 2.93 3.665s-1.723 7.445 0 9.738c1.722 2.292 13.299 6.147 18.027 3.525 4.728-2.623 1.477-7.729 3.525-14.46 2.047-6.731 4.003-10.012 3.402-13.177-.6-3.165-4.767-4.338-6.927-5.711z" clip-rule="evenodd"/>
    <mask id="prefix__c" width="30" height="39" x="468" y="146" maskUnits="userSpaceOnUse">
        <path fill="#fff" fill-rule="evenodd" d="M490.164 149.893c-1.367-.87-5.636-1.432-9.677-2.173-2.339-.428-4.672-1.11-6.141-1.444-2.667 0-3.184 4.059-3.862 8.311-.679 4.253-2.188 9.128-1.277 11.726.911 2.598 2.93 3.665 2.93 3.665s-1.723 7.445 0 9.738c1.722 2.292 13.299 6.147 18.027 3.525 4.728-2.623 1.477-7.729 3.525-14.46 2.047-6.731 4.003-10.012 3.402-13.177-.6-3.165-4.767-4.338-6.927-5.711z" clip-rule="evenodd"/>
    </mask>
    <g mask="url(#prefix__c)">
        <path fill="#434ACC" fill-rule="evenodd" d="M498.592 155.349s-6.222 3.703-7.876 10.073c-1.655 6.37-4.787 6.597-8.409 5.909-3.621-.689-6.575-1.89-11.514-1.385-4.94.504-1.85 2.256 1.737 1.867 3.586-.388 5.515.048 8.977 1.422 3.461 1.373 6.504 1.348 8.475-.719-.595 3.778 3.02 10.31-4.549 11.564-7.568 1.254 6.742 8.317 11.407-3.199 4.666-11.516 1.752-25.532 1.752-25.532z" clip-rule="evenodd"/>
    </g>
    <path fill="#FFBBB0" fill-rule="evenodd" d="M479.753 145.641s.145 2.073-.157 2.601c0 0-1.427-.407-2.57 1.903-1.144 2.31-1.371 4.765-.5 6.949.87 2.184 4.64 2.824 7.867.746 4.398-2.857 4.066-8.232 3.566-8.676-.499-.444-2.39-.233-.194-9.493s-8.012 5.97-8.012 5.97z" clip-rule="evenodd"/>
    <mask id="prefix__d" width="14" height="24" x="475" y="136" maskUnits="userSpaceOnUse">
        <path fill="#fff" fill-rule="evenodd" d="M479.753 145.641s.145 2.073-.157 2.601c0 0-1.427-.407-2.57 1.903-1.144 2.31-1.371 4.765-.5 6.949.87 2.184 4.64 2.824 7.867.746 4.398-2.857 4.066-8.232 3.566-8.676-.499-.444-2.39-.233-.194-9.493s-8.012 5.97-8.012 5.97z" clip-rule="evenodd"/>
    </mask>
    <g mask="url(#prefix__d)">
        <path fill="#A9AAC4" fill-rule="evenodd" d="M486.463 140.888s-1.316 7.02-7.13 6.731c-5.815-.289-1.34-3.591-.67-4.145.67-.553 7.8-2.586 7.8-2.586z" clip-rule="evenodd" opacity=".2"/>
    </g>
    <path fill="#30334F" fill-rule="evenodd" d="M490.267 129.613c-3.243.689-6.432-1.384-7.122-4.631-.69-3.248 1.379-6.439 4.623-7.128 3.243-.69 6.432 1.384 7.122 4.631.69 3.247-1.379 6.438-4.623 7.128z" clip-rule="evenodd"/>
    <path fill="#fff" fill-rule="evenodd" d="M486.805 131.373c-2.027.431-4.02-.865-4.452-2.895-.431-2.029.863-4.024 2.89-4.455 2.027-.43 4.02.865 4.451 2.895.432 2.029-.862 4.024-2.889 4.455z" clip-rule="evenodd"/>
    <path fill="#30334F" fill-rule="evenodd" d="M474.526 134.91c-3.72.091-5.073-7.689.555-8.04 4.276-.909 5.69-4.439 11.444-1.328 5.753 3.112 7.995 13.657.162 15.321-7.833 1.665-11.995-2.57-12.161-5.953z" clip-rule="evenodd"/>
    <path fill="#FFBBB0" fill-rule="evenodd" d="M474.82 131.36s-.709 1.564.182 5.76c.892 4.196 1.687 10.116 5.187 9.477 3.501-.638 5.386-1.951 6.748-4.643 1.362-2.692 1.222-3.307 1.222-3.307s1.555-.692 1.535-1.885c-.019-1.193-.862-2.137-2.514-1.786-1.652.351-6.904 2.179-10.438-3.653 0 0-.508.342-.974.343-.466.001-.948-.306-.948-.306z" clip-rule="evenodd"/>
    <path fill="url(#prefix__paint12_linear)" fill-rule="evenodd" d="M475.549 157.577c-.268-.554-.779-.951-1.381-1.075l-3.806-.786c-.433-.089-.872.119-1.077.51l-.037.07 5.943 11.657 6.108 1.479-5.75-11.855z" clip-rule="evenodd"/>
    <path fill="#80B1FF" fill-rule="evenodd" d="M475.179 157.864c-.27-.552-.782-.948-1.385-1.07l-3.087-.626c-.796-.161-1.437.652-1.094 1.388l4.648 9.992c.26.56.767.966 1.37 1.099l3.407.749c.809.178 1.466-.658 1.101-1.402l-4.96-10.13z" clip-rule="evenodd"/>
    <path fill="url(#prefix__paint13_linear)" fill-rule="evenodd" d="M472.585 159.077c-.1.096-.336.013-.528-.186s-.267-.438-.168-.534c.1-.096.336-.013.528.186s.267.438.168.534z" clip-rule="evenodd"/>
    <path fill="#FFBBB0" fill-rule="evenodd" d="M489.914 173.313l-10.681-6.564s-1.064-3.117-2.239-4.201c-1.175-1.083-1.641-2.846-2.299-2.293-.659.554.727 3.375.727 3.375s-4.042-2.573-4.621-3.896c-.579-1.324-.473 1.748.407 2.351.109 1.439.368 2.391 1.442 3.703 1.074 1.312.25.824 2.965 2.629 2.715 1.804 12.897 10.863 12.897 10.863l1.402-5.967z" clip-rule="evenodd"/>
    <path fill="#586DFF" fill-rule="evenodd" d="M491.663 151.08s5.242 1.898 6.896 6.702c1.654 4.803 5.44 18.648 2.911 24.915-2.529 6.267-15.504-3.882-15.504-3.882l3.98-6.414 4.419 2.225s-1.604-7.92-3.074-14.814c-1.471-6.894.372-8.732.372-8.732z" clip-rule="evenodd"/>
    <path stroke="#3C7092" stroke-dasharray="5.4 6.3" stroke-width="3.6" d="M208.681 168.216l122.91 72.23c2.928 1.721 4.726 4.863 4.726 8.259v0c0 4.059 2.08 7.834 5.51 10.003l36.024 22.772"/>
    <path fill="url(#prefix__paint14_linear)" fill-rule="evenodd" d="M302.482 238.671c16.975 0 30.736-8.157 30.736-18.219 0-10.062-13.761-18.219-30.736-18.219s-30.736 8.157-30.736 18.219c0 10.062 13.761 18.219 30.736 18.219z" clip-rule="evenodd" opacity=".211"/>
    <path fill="#83A3E7" fill-rule="evenodd" d="M304.392 230.239c9.273 0 16.79-4.287 16.79-9.576 0-5.289-7.517-9.576-16.79-9.576-9.272 0-16.789 4.287-16.789 9.576 0 5.289 7.517 9.576 16.789 9.576z" clip-rule="evenodd"/>
    <path fill="#131C5D" fill-rule="evenodd" d="M293.04 190.709c0-5.995-11.788 6.881-13.271 20.491-.592 5.44-.833 7.557 1.716 7.501 1.466-.033 2.972-2.183 5.474-4.944 4.168-4.599 8.046-5.633 8.046-5.633s-1.965-7.977-1.965-17.415z" clip-rule="evenodd"/>
    <path fill="#C5DFFF" fill-rule="evenodd" d="M289.51 218.767s-29.476-63.517-9.778-146.097c2.255-9.45 5.869-17.322 9.521-23.483 5.988-10.103 19.17-10.456 25.827-.78 4.282 6.222 8.719 14.33 11.852 24.263 23.823 75.533-6.931 146.097-6.931 146.097s-2.13 6.399-15.415 6.399-15.076-6.399-15.076-6.399z" clip-rule="evenodd"/>
    <mask id="prefix__e" width="64" height="185" x="272" y="41" maskUnits="userSpaceOnUse">
        <path fill="#fff" fill-rule="evenodd" d="M289.51 218.767s-29.476-63.517-9.778-146.097c2.255-9.45 5.869-17.322 9.521-23.483 5.988-10.103 19.17-10.456 25.827-.78 4.282 6.222 8.719 14.33 11.852 24.263 23.823 75.533-6.931 146.097-6.931 146.097s-2.13 6.399-15.415 6.399-15.076-6.399-15.076-6.399z" clip-rule="evenodd"/>
    </mask>
    <g fill-rule="evenodd" clip-rule="evenodd" mask="url(#prefix__e)">
        <path fill="#83A3E7" d="M263.523 161.84s7.931 18.466 40.869 18.466c32.939 0 40.957-18.466 40.957-18.466l-1.934-85.923c17.177 32.295-96.062 32.295-77.149 0l-2.743 85.923z"/>
        <path stroke="#1E2243" stroke-linecap="round" stroke-width="1.35" d="M263.523 168.68s7.931 18.466 40.869 18.466c32.939 0 40.957-18.466 40.957-18.466l-1.934-99.603c17.177 32.295-96.062 32.295-77.149 0l-2.743 99.603z"/>
    </g>
    <path fill="#131C5D" fill-rule="evenodd" d="M315.109 154.924c12.542 0 22.709-10.089 22.709-22.536 0-12.446-10.167-22.535-22.709-22.535S292.4 119.942 292.4 132.388c0 12.447 10.167 22.536 22.709 22.536z" clip-rule="evenodd"/>
    <path fill="#C5DFFF" fill-rule="evenodd" d="M317.361 154.924c12.542 0 22.709-10.089 22.709-22.536 0-12.446-10.167-22.535-22.709-22.535s-22.709 10.089-22.709 22.535c0 12.447 10.167 22.536 22.709 22.536z" clip-rule="evenodd"/>
    <path fill="#fff" fill-rule="evenodd" d="M317.361 151.199c10.469 0 18.956-8.422 18.956-18.811 0-10.388-8.487-18.81-18.956-18.81s-18.955 8.422-18.955 18.81c0 10.389 8.486 18.811 18.955 18.811z" clip-rule="evenodd"/>
    <mask id="prefix__f" width="39" height="39" x="298" y="113" maskUnits="userSpaceOnUse">
        <path fill="#fff" fill-rule="evenodd" d="M317.361 151.199c10.469 0 18.956-8.422 18.956-18.811 0-10.388-8.487-18.81-18.956-18.81s-18.955 8.422-18.955 18.81c0 10.389 8.486 18.811 18.955 18.811z" clip-rule="evenodd"/>
    </mask>
    <g mask="url(#prefix__f)">
        <path fill="#C5DFFF" fill-rule="evenodd" d="M323.28 112.088l10.834 5.959-20.746 37.14-10.833-5.96 20.745-37.139zM313.896 104.266l6.894 3.792-20.745 37.139-6.894-3.792 20.745-37.139z" clip-rule="evenodd" opacity=".299"/>
    </g>
    <path fill-rule="evenodd" stroke="#1E2243" stroke-linecap="round" stroke-width="1.35" d="M317.361 151.199c10.469 0 18.956-8.422 18.956-18.811 0-10.388-8.487-18.81-18.956-18.81s-18.955 8.422-18.955 18.81c0 10.389 8.486 18.811 18.955 18.811z" clip-rule="evenodd"/>
    <path fill="url(#prefix__paint15_linear)" fill-rule="evenodd" d="M321.775 191.41c0-8.775 11.789 10.071 13.271 29.992.593 7.963.834 11.062-1.715 10.978-1.466-.048-2.972-3.194-5.474-7.235-2.351-3.797-4.632-6.349-6.845-7.656-.678-.401-1.111-1.133-.987-1.911l.094-.602c1.104-7.254 1.656-15.11 1.656-23.566z" clip-rule="evenodd"/>
    <path fill="url(#prefix__paint16_linear)" fill-rule="evenodd" d="M293.726 193.462c0-8.775-11.789 10.071-13.271 29.993-.593 7.962-.834 11.061 1.715 10.977 1.466-.047 2.972-3.194 5.474-7.235 1.774-2.865 3.508-5.021 5.203-6.468 1.522-1.3 2.621-3.117 2.332-5.097-.036-.248-.069-.48-.096-.683-.905-6.67-1.357-13.832-1.357-21.487z" clip-rule="evenodd"/>
    <path fill="url(#prefix__paint17_linear)" fill-rule="evenodd" d="M451.971 381.53c2.702 1.561 5.767 2.383 8.887 2.384l7.066.003 51.674-30.169c5.911-3.451 5.873-12.004-.067-15.403L406.68 273.763c-5.188-2.969-11.52-3.134-16.856-.44l-53.858 27.194c-1.992 1.005-3.25 3.043-3.258 5.273l-.006 1.714c-.011 3.189 1.686 6.14 4.448 7.735l114.821 66.291z" clip-rule="evenodd"/>
    <path fill="url(#prefix__paint18_linear)" fill-rule="evenodd" d="M447.15 378.747c5.531 3.194 12.35 3.177 17.866-.043l52.121-30.43c2.464-1.439 4.089-3.972 4.368-6.812l.132-1.341c.294-2.983-1.238-5.849-3.881-7.263l-111.231-59.489c-5.112-2.734-11.235-2.806-16.41-.193l-54.149 27.341c-1.992 1.005-3.25 3.043-3.258 5.273l-.006 1.714c-.011 3.189 1.686 6.14 4.448 7.735l110 63.508z" clip-rule="evenodd"/>
    <path fill="url(#prefix__paint19_linear)" fill-rule="evenodd" d="M447.149 377.565c5.532 3.193 12.351 3.177 17.867-.043l52.121-30.431c2.464-1.438 4.088-3.971 4.368-6.811l.132-1.341c.293-2.983-1.239-5.85-3.882-7.263l-111.231-59.489c-5.112-2.734-11.235-2.806-16.409-.193l-54.15 27.341c-1.991 1.005-3.25 3.043-3.257 5.273l-.006 1.714c-.011 3.189 1.686 6.14 4.447 7.734l110 63.509z" clip-rule="evenodd"/>
    <path fill="url(#prefix__paint20_linear)" fill-rule="evenodd" stroke="#fff" stroke-width=".9" d="M447.218 371.465c5.535 3.195 12.358 3.176 17.875-.049l48.065-28.098c5.893-3.445 5.87-11.97-.042-15.383l-105.721-61.038c-5.534-3.196-12.357-3.177-17.874.048l-48.065 28.098c-5.894 3.445-5.871 11.97.041 15.384l105.721 61.038z" clip-rule="evenodd"/>
    <path fill="url(#prefix__paint21_linear)" fill-rule="evenodd" d="M488.05 353.041c-2.76 1.689-7.144 1.791-9.794.228-2.649-1.563-2.56-4.198.199-5.887 2.76-1.688 7.144-1.79 9.794-.228 2.649 1.563 2.56 4.198-.199 5.887z" clip-rule="evenodd"/>
    <path fill="url(#prefix__paint22_linear)" fill-rule="evenodd" d="M441.639 365.964l65.815-38.59-101.829-58.79-65.815 38.589 101.829 58.791z" clip-rule="evenodd" opacity=".246"/>
    <path fill="url(#prefix__paint23_linear)" fill-rule="evenodd" d="M407.573 340.478l57.791-33.845-22.999-13.271-57.791 33.845 22.999 13.271z" clip-rule="evenodd" opacity=".246"/>
    <path fill="url(#prefix__paint24_linear)" fill-rule="evenodd" d="M438.545 358.242l57.791-33.845-22.999-13.271-57.79 33.844 22.998 13.272z" clip-rule="evenodd" opacity=".246"/>
    <path fill="url(#prefix__paint25_linear)" fill-rule="evenodd" d="M377.728 323.423l57.791-33.844-22.999-13.271-57.791 33.844 22.999 13.271z" clip-rule="evenodd" opacity=".246"/>
    <path fill="url(#prefix__paint26_linear)" fill-rule="evenodd" d="M377.695 300.978l57.822-33.898.001-1.182-22.987-12.068-57.822 32.716v1.183l22.986 13.249z" clip-rule="evenodd"/>
    <path fill="#092965" fill-rule="evenodd" d="M377.696 299.796l57.822-33.898-22.986-13.25-57.823 33.899 22.987 13.249z" clip-rule="evenodd"/>
    <path fill="url(#prefix__paint27_linear)" fill-rule="evenodd" d="M382.022 282.107l34.841-20.909-3.844-2.216-34.841 20.909 3.844 2.216z" clip-rule="evenodd" opacity=".5"/>
    <path fill="url(#prefix__paint28_linear)" fill-rule="evenodd" d="M408.912 274.651l-19.511 11.709-3.845-2.215 19.512-11.71 3.844 2.216z" clip-rule="evenodd" opacity=".5"/>
    <path fill="url(#prefix__paint29_linear)" fill-rule="evenodd" d="M369.922 289.143c2.394 2.425 6.954 3.662 10.186 2.764 3.232-.898 3.912-3.592 1.518-6.017-2.393-2.425-6.953-3.663-10.185-2.765-3.232.898-3.912 3.593-1.519 6.018z" clip-rule="evenodd" opacity=".5"/>
    <path fill="url(#prefix__paint30_linear)" fill-rule="evenodd" d="M407.546 329.855l57.822-33.899v-1.182l-22.987-12.068-57.821 32.717-.001 1.182 22.987 13.25z" clip-rule="evenodd"/>
    <path fill="url(#prefix__paint31_linear)" fill-rule="evenodd" d="M407.546 328.672l57.822-33.898-22.986-13.25-57.822 33.899 22.986 13.249z" clip-rule="evenodd"/>
    <path fill="url(#prefix__paint32_linear)" fill-rule="evenodd" d="M411.872 310.983l34.842-20.909-3.845-2.216-34.841 20.91 3.844 2.215z" clip-rule="evenodd" opacity=".5"/>
    <path fill="url(#prefix__paint33_linear)" fill-rule="evenodd" d="M438.762 303.527l-19.511 11.71-3.844-2.216 19.511-11.71 3.844 2.216z" clip-rule="evenodd" opacity=".5"/>
    <path fill="url(#prefix__paint34_linear)" fill-rule="evenodd" d="M399.773 318.019c2.393 2.425 6.953 3.663 10.185 2.764 3.232-.898 3.912-3.592 1.519-6.017-2.394-2.425-6.954-3.663-10.186-2.765-3.232.899-3.912 3.593-1.518 6.018z" clip-rule="evenodd" opacity=".5"/>
    <path fill="url(#prefix__paint35_linear)" fill-rule="evenodd" d="M539.264 334.777c16.975 0 30.736-8.157 30.736-18.219 0-10.062-13.761-18.219-30.736-18.219s-30.736 8.157-30.736 18.219c0 10.062 13.761 18.219 30.736 18.219z" clip-rule="evenodd" opacity=".211"/>
    <path fill="#30334F" fill-rule="evenodd" d="M559.511 287.119s2.45.815 1.983 4.142c-.468 3.327-2.254 2.167-3.116 5.236-.862 3.069-3.667 5.628-5.227 6.071-1.56.444-4.611 1.01-5.22-1.464-.61-2.474 11.58-13.985 11.58-13.985z" clip-rule="evenodd"/>
    <path fill="#181E36" fill-rule="evenodd" d="M556.645 284.821s4.547 2.491 4.08 5.818c-.467 3.327-2.254 2.167-3.116 5.236-.862 3.069-3.667 5.627-5.227 6.071-1.56.444-4.61 1.01-5.22-1.464-.609-2.474 9.483-15.661 9.483-15.661z" clip-rule="evenodd"/>
    <path fill="url(#prefix__paint36_linear)" fill-rule="evenodd" d="M534.941 252.026s-27.046 32.801-22.497 44.688c4.548 11.887 40.647-2.852 42.291-3.606 1.644-.753 3.174-4.746 2.163-8.073h-27.28s13.213-13.809 17.119-20.178c3.906-6.369-11.796-12.831-11.796-12.831z" clip-rule="evenodd"/>
    <path fill="#30334F" fill-rule="evenodd" d="M535.732 316.388s.368 1.042.245 2.4c-.122 1.359-4.307 2.618-5.215 3.004-.909.387-1.896 4.174-6.967 5.025-5.07.851-7.147-.679-6.756-2.392.39-1.714 18.693-8.037 18.693-8.037z" clip-rule="evenodd"/>
    <path fill="#181E36" fill-rule="evenodd" d="M527.408 309.812s-4.45 7.433-8.84 11.697c-4.389 4.263 1.646 5.243 5.817 4.263 4.17-.979 4.994-5.081 7.163-5.741.849-.259 4.034-1.591 4.384-3.227.247-1.15-.86-5.491-.86-5.491" clip-rule="evenodd"/>
    <path fill="url(#prefix__paint37_linear)" fill-rule="evenodd" d="M560.809 261.057s3.443 21.585-10.652 21.585l-13.878-.151-.253 29.585s-3.344 3.148-10.417-.665c0 0-7.072-29.577-7.072-36.624 0-4.139 4.477-8.252 10.18-9.106 9.847-1.474 23.346-1.219 23.745-2.175.631-1.511 8.347-2.449 8.347-2.449z" clip-rule="evenodd"/>
    <path fill="url(#prefix__paint38_linear)" fill-rule="evenodd" d="M528.799 213.454c-1.927.41-8.912 33.252-8.912 33.252l-11.761 18.848s1.363-.841 2.993-.1c1.629.742 3.645 1.788 3.645 1.788s10.916-12.451 12.661-14.895c1.746-2.445 6.571-27.241 5.742-31.141-.829-3.899-2.441-8.161-4.368-7.752z" clip-rule="evenodd"/>
    <mask id="prefix__g" width="26" height="55" x="508" y="213" maskUnits="userSpaceOnUse">
        <path fill="#fff" fill-rule="evenodd" d="M528.799 213.454c-1.927.41-8.912 33.252-8.912 33.252l-11.761 18.848s1.363-.841 2.993-.1c1.629.742 3.645 1.788 3.645 1.788s10.916-12.451 12.661-14.895c1.746-2.445 6.571-27.241 5.742-31.141-.829-3.899-2.441-8.161-4.368-7.752z" clip-rule="evenodd"/>
    </mask>
    <g mask="url(#prefix__g)">
        <path fill="#0B224E" fill-rule="evenodd" d="M533.228 247.157s-6.991-8.301-6.223-13.415c.768-5.113 2.393-12.552 1.86-15.06-.533-2.508 6.8 1.163 6.8 1.163l-2.437 27.312z" clip-rule="evenodd"/>
    </g>
    <path fill="#fff" fill-rule="evenodd" d="M544.326 214.13c4.691 1.981 13.012 6.181 14.675 7.91 1.664 1.728.181 10.875-1.412 15.185-1.592 4.311 1.258 15.344 2.84 18.237.43.787-11.31 6.295-20.19 3.616-7.64-2.305-7.748-5.965-7.447-9.449.301-3.485-.752-8.442-.752-8.442s-2.878-13.35-2.735-16.5c.143-3.151-2.219-9.862-.901-10.965 1.318-1.102 11.232-1.572 15.922.408z" clip-rule="evenodd"/>
    <mask id="prefix__h" width="33" height="48" x="528" y="212" maskUnits="userSpaceOnUse">
        <path fill="#fff" fill-rule="evenodd" d="M544.326 214.13c4.691 1.981 13.012 6.181 14.675 7.91 1.664 1.728.181 10.875-1.412 15.185-1.592 4.311 1.258 15.344 2.84 18.237.43.787-11.31 6.295-20.19 3.616-7.64-2.305-7.748-5.965-7.447-9.449.301-3.485-.752-8.442-.752-8.442s-2.878-13.35-2.735-16.5c.143-3.151-2.219-9.862-.901-10.965 1.318-1.102 11.232-1.572 15.922.408z" clip-rule="evenodd"/>
    </mask>
    <g fill-rule="evenodd" clip-rule="evenodd" mask="url(#prefix__h)">
        <path fill="url(#prefix__paint39_linear)" fill-opacity=".2" d="M538.397 221.571l-5.706 2.104s1.589-6.203 3.303-8.143c1.715-1.939 1.751-.184 1.751-.184s-.403.532-.29 2.411c.114 1.878.942 3.812.942 3.812z"/>
        <path fill="url(#prefix__paint40_linear)" fill-opacity=".2" d="M538.977 212.89c-2.983 1.412-4.927 7.973-5.883 15.431-.955 7.457.18 12.048 2.101 17.618.941 2.728 2.08 5.599 2.436 7.922.371 2.42.585 4.677.149 5.807-.856 2.216-5.019 6.595-5.019 6.595s3.386-5.327 2.623-9.306c-.763-3.978-6.813-16.915-7.198-21.486-.386-4.572 1.032-9.196.743-12.848-.288-3.652-1.806-7.626-.566-8.875 1.24-1.249 6.086-1.216 10.614-.858z"/>
        <path fill="url(#prefix__paint41_linear)" d="M547.415 213.659c2.805 1.212.78 5.027-3.162 6.639-2.802 1.146-5.524 3.036-5.524 3.036s-1.208-3.269-1.372-4.829c-.568-5.428 3.794-7.992 3.794-7.992s3.459 1.933 6.264 3.146z"/>
        <path fill="url(#prefix__paint42_linear)" d="M540.453 221.803l4.173 4.342s3.768-8.846 1.948-12.032c0 0 .175 3.633-1.901 5.199-2.075 1.565-4.22 2.491-4.22 2.491z"/>
    </g>
    <path fill="#092965" fill-rule="evenodd" d="M546.28 214.974c.954 1.341-2.426 12.644-2.967 19.02-.542 6.376.239 17.218.587 23.448.182 3.258-.878 10.332-.878 10.332s14.807 1.73 19.603-6.537c-1.058-2.452-1.472-6.397-2.857-10.622-1.385-4.225-2.784-12.689-.396-20.598.365-7.298.547-7.671.547-7.671s-3.5-3.067-13.639-7.372z" clip-rule="evenodd"/>
    <mask id="prefix__i" width="20" height="54" x="543" y="214" maskUnits="userSpaceOnUse">
        <path fill="#fff" fill-rule="evenodd" d="M546.28 214.974c.954 1.341-2.426 12.644-2.967 19.02-.542 6.376.239 17.218.587 23.448.182 3.258-.878 10.332-.878 10.332s14.807 1.73 19.603-6.537c-1.058-2.452-1.472-6.397-2.857-10.622-1.385-4.225-2.784-12.689-.396-20.598.365-7.298.547-7.671.547-7.671s-3.5-3.067-13.639-7.372z" clip-rule="evenodd"/>
    </mask>
    <g mask="url(#prefix__i)">
        <path fill="#0B1427" fill-rule="evenodd" d="M544.245 251.139c-.463-10.469 6.355-15.033 6.355-15.033l-3.302-5.724 3.66-1.719s-2.188-7.3-2.611-9.95c-.424-2.65-.706-3.254-.706-3.254l-1.321-1.74s-2.268-1.083-3.808-1.061c-1.541.022 2.372 1.91 2.372 1.91s.57-.079 1.025.286c.456.364-5.291 20.772-5.291 20.772s4.089 25.982 3.627 15.513z" clip-rule="evenodd"/>
    </g>
    <path fill="url(#prefix__paint43_linear)" fill-rule="evenodd" d="M548.347 218.713c.282 1.766 1.095 4.417 2.439 7.952l-3.805 2.797 2.984 4.805c-2.41 5.89-6.676 11.576-6.37 18.55-.407-6.906-.798-12.749-.282-18.823.542-6.376 3.926-17.657 2.973-18.998-.788-1.335-1.789-1.551-1.789-1.551s-.232-.314.223-.163c.454.152 1.277.42 1.854.831.55.392.893.755 1.118 1.469.179.477.397 1.521.655 3.131z" clip-rule="evenodd"/>
    <path fill="#092965" fill-rule="evenodd" d="M538.977 212.89c-2.983 1.412-5.809 7.976-6.356 15.209-.548 7.233.653 12.27 2.574 17.84 1.922 5.57.072 10.817-.783 13.033-.856 2.215-2.382 5.922-2.382 5.922s-1.231-2.949-1.7-7.027c-.468-4.078.386-14.005 0-18.577-.385-4.571-1.112-13.015-1.401-16.667-.288-3.652-1.806-7.626-.566-8.875 1.24-1.249 6.086-1.216 10.614-.858z" clip-rule="evenodd"/>
    <path fill="url(#prefix__paint44_linear)" fill-rule="evenodd" d="M538.977 212.89c-2.983 1.412-5.808 7.976-6.356 15.209s.653 12.27 2.574 17.84c.391 1.132.518 2.78.619 4.085.03.398.059.764.091 1.073.019.18.04.358.063.533-.064.102-.115.068-.15-.119-.607-3.253-6.228-15.226-6.228-15.226l1.654-7.863-1.262-1.16s4.702-11.66 7.894-14.452c.368.025.735.051 1.101.08z" clip-rule="evenodd"/>
    <path fill="#FCCBCB" fill-rule="evenodd" d="M545.814 205.439s.114 2.323.014 4.867c-.1 2.543.448 4.166.448 4.166s-.277 2.847-3.508 4.376c-3.232 1.528-4.646-.72-4.646-.72l-.143-6.489 7.835-6.2z" clip-rule="evenodd"/>
    <mask id="prefix__j" width="10" height="15" x="537" y="205" maskUnits="userSpaceOnUse">
        <path fill="#fff" fill-rule="evenodd" d="M545.814 205.439s.114 2.323.014 4.867c-.1 2.543.448 4.166.448 4.166s-.277 2.847-3.508 4.376c-3.232 1.528-4.646-.72-4.646-.72l-.143-6.489 7.835-6.2z" clip-rule="evenodd"/>
    </mask>
    <g mask="url(#prefix__j)">
        <path fill="url(#prefix__paint45_linear)" fill-rule="evenodd" d="M538.246 217.662s3.765-.626 5.444-2.977c1.678-2.352 1.052-6.172 1.052-6.172l-7.359 2.335.863 6.814z" clip-rule="evenodd"/>
    </g>
    <path fill="#FCCBCB" fill-rule="evenodd" d="M533.147 201.165s-.152 1.725.492 6.139c.645 4.414 1.256 7.476 1.726 8.117.469.641 3.238 1.151 5.628-.193 2.39-1.343 3.506-2.792 3.834-3.868.328-1.077.661-2.695 1.18-4.861.519-2.167 2.2-5.646 1.103-7.999-1.096-2.353-4.005-4.2-8.036-2.983-4.032 1.217-5.927 5.648-5.927 5.648z" clip-rule="evenodd"/>
    <mask id="prefix__k" width="15" height="22" x="533" y="195" maskUnits="userSpaceOnUse">
        <path fill="#fff" fill-rule="evenodd" d="M533.147 201.165s-.152 1.725.492 6.139c.645 4.414 1.256 7.476 1.726 8.117.469.641 3.238 1.151 5.628-.193 2.39-1.343 3.506-2.792 3.834-3.868.328-1.077.661-2.695 1.18-4.861.519-2.167 2.2-5.646 1.103-7.999-1.096-2.353-4.005-4.2-8.036-2.983-4.032 1.217-5.927 5.648-5.927 5.648z" clip-rule="evenodd"/>
    </mask>
    <path fill="#30334F" fill-rule="evenodd" d="M541.925 200.444s-2.617 1.981-5.736 2.335c-3.12.354-4.586-.803-4.419-2.89.166-2.086 2.577-5.102 7.638-6.027 5.06-.925 6.702 2.711 6.702 2.711s1.485-.044 1.882 1.519c.397 1.563-.49 6.861-1.284 8.055s-1.594-.713-1.594-.713.261 1.973-.227 1.554c-.488-.42-.751-.33-.796-1.712-.044-1.381-.368-2.199-1.009-2.128-.641.07-1.527-.944-1.469-1.706.058-.762.312-.998.312-.998z" clip-rule="evenodd"/>
    <mask id="prefix__l" width="18" height="15" x="531" y="193" maskUnits="userSpaceOnUse">
        <path fill="#fff" fill-rule="evenodd" d="M541.925 200.444s-2.617 1.981-5.736 2.335c-3.12.354-4.586-.803-4.419-2.89.166-2.086 2.577-5.102 7.638-6.027 5.06-.925 6.702 2.711 6.702 2.711s1.485-.044 1.882 1.519c.397 1.563-.49 6.861-1.284 8.055s-1.594-.713-1.594-.713.261 1.973-.227 1.554c-.488-.42-.751-.33-.796-1.712-.044-1.381-.368-2.199-1.009-2.128-.641.07-1.527-.944-1.469-1.706.058-.762.312-.998.312-.998z" clip-rule="evenodd"/>
    </mask>
    <g fill-rule="evenodd" clip-rule="evenodd" mask="url(#prefix__l)">
        <path fill="url(#prefix__paint46_linear)" d="M543.342 203.423s2.42-2.025 3.893-2.042c1.472-.016 1.729 1.192 1.729 1.192s-2.013 5.84-2.277 5.896c-.263.056-3.163.076-3.163.076l-.182-5.122z"/>
        <path fill="#031120" d="M545.835 196.952l-3.569 3.297s1.427-.956 2.474-1.795c1.046-.839 1.095-1.502 1.095-1.502zM540.039 199.886s-4.39 2.339-6.845.161c2.787 1.538 6.845-.161 6.845-.161z"/>
    </g>
    <path fill="#FCCBCB" fill-rule="evenodd" d="M545.047 204.469s.087-.591.865-1.018c.779-.428 1.672.744 1.267 2.075-.251.821-.471 1.399-.99 1.927-.129.131-.425.091-.425.091s-.08.348-.13.54c-.216-.646-.398-1.7-.453-2.134-.107-.841-.134-1.481-.134-1.481z" clip-rule="evenodd"/>
    <path fill="url(#prefix__paint47_linear)" fill-rule="evenodd" d="M545.561 204.625s.385-.506.746-.445c.362.061.646.784.252 1.529-.393.744-.665.832-.665.832l-.333-1.916z" clip-rule="evenodd"/>
    <path fill="url(#prefix__paint48_linear)" fill-rule="evenodd" d="M477.47 303.705l57.822-33.899.001-1.182-22.987-12.067-57.822 32.716v1.182l22.986 13.25z" clip-rule="evenodd"/>
    <path fill="url(#prefix__paint49_linear)" fill-rule="evenodd" d="M477.471 302.523l57.822-33.899-22.987-13.25-57.822 33.899 22.987 13.25z" clip-rule="evenodd"/>
    <path fill="url(#prefix__paint50_linear)" fill-rule="evenodd" d="M481.797 284.834l34.841-20.91-3.844-2.216-34.841 20.91 3.844 2.216z" clip-rule="evenodd" opacity=".5"/>
    <path fill="url(#prefix__paint51_linear)" fill-rule="evenodd" d="M508.687 277.377l-19.512 11.71-3.844-2.216 19.511-11.709 3.845 2.215z" clip-rule="evenodd" opacity=".5"/>
    <path fill="url(#prefix__paint52_linear)" fill-rule="evenodd" d="M469.697 291.869c2.394 2.425 6.954 3.663 10.186 2.765 3.232-.899 3.912-3.593 1.518-6.018-2.393-2.425-6.953-3.663-10.185-2.764-3.232.898-3.912 3.592-1.519 6.017z" clip-rule="evenodd" opacity=".5"/>
    <path fill="#FCCBCB" fill-rule="evenodd" d="M528.768 269.535s-3.841 1.341-5.64 2.639c-1.798 1.298-4.867 2.737-4.212 3.151.654.414 4.506-.757 4.506-.757l-5.813 5.881s1.492.597 2.559-.315c1.891.675 2.707-.114 2.707-.114s1.797.247 3.029-.59c1.232-.838 8.552-7.676 8.552-7.676s.007-2.024-1.907-2.981c-1.913-.957-3.781.762-3.781.762z" clip-rule="evenodd"/>
    <path fill="url(#prefix__paint53_linear)" fill-rule="evenodd" d="M559.155 221.987c5.029.041 6.827 14.061 1.703 24.958-5.124 10.897-2.539 8.104-6.856 11.824-4.318 3.72-20.201 13.909-20.201 13.909s-1.314-3.936-5.216-3.525l19.723-18.262s5.819-28.944 10.847-28.904z" clip-rule="evenodd"/>
    <path fill="#fff" fill-rule="evenodd" d="M535.558 270.622c-.363.038-.688-.225-.726-.587-.038-.363.225-.687.588-.726.364-.038.689.225.727.588.038.362-.225.687-.589.725z" clip-rule="evenodd"/>
    <defs>
        <linearGradient id="prefix__paint0_linear" x1="52.916" x2="373.332" y1="154.214" y2="176.796" gradientUnits="userSpaceOnUse">
            <stop stop-color="#7187B5"/>
            <stop offset="1" stop-color="#BFCDED"/>
        </linearGradient>
        <linearGradient id="prefix__paint1_linear" x1="302.101" x2="31.386" y1="338.725" y2="300.147" gradientUnits="userSpaceOnUse">
            <stop stop-color="#C4D5FF"/>
            <stop offset=".5" stop-color="#C9DDFF"/>
            <stop offset=".532" stop-color="#E1ECFF"/>
            <stop offset="1" stop-color="#D5E1FF"/>
        </linearGradient>
        <linearGradient id="prefix__paint2_linear" x1="117.564" x2="366.611" y1="105.365" y2="268.066" gradientUnits="userSpaceOnUse">
            <stop stop-color="#C0E1FF"/>
            <stop offset="1" stop-color="#fff"/>
        </linearGradient>
        <linearGradient id="prefix__paint3_linear" x1="260.129" x2="28.692" y1="305.627" y2="284.148" gradientUnits="userSpaceOnUse">
            <stop stop-color="#6D94E7"/>
            <stop offset="1" stop-color="#7E9EEF"/>
        </linearGradient>
        <linearGradient id="prefix__paint4_linear" x1="201.991" x2="210.993" y1="234.107" y2="293.284" gradientUnits="userSpaceOnUse">
            <stop stop-color="#6D7FE7"/>
            <stop offset="1" stop-color="#4E60CD"/>
        </linearGradient>
        <linearGradient id="prefix__paint5_linear" x1="177.303" x2="328.283" y1="216.318" y2="245.897" gradientUnits="userSpaceOnUse">
            <stop stop-color="#4F6FCE"/>
            <stop offset="1" stop-color="#3B3B5D"/>
        </linearGradient>
        <linearGradient id="prefix__paint6_linear" x1="85.899" x2="285.575" y1="-63.314" y2="-6.388" gradientUnits="userSpaceOnUse">
            <stop stop-color="#C0E1FF"/>
            <stop offset="1" stop-color="#fff"/>
        </linearGradient>
        <linearGradient id="prefix__paint7_linear" x1="52.373" x2="292.268" y1="-29.54" y2="-8.417" gradientUnits="userSpaceOnUse">
            <stop stop-color="#4F6FCE"/>
            <stop offset="1" stop-color="#3B3B5D"/>
        </linearGradient>
        <linearGradient id="prefix__paint8_linear" x1="60.582" x2="54.999" y1="174.449" y2="185.406" gradientUnits="userSpaceOnUse">
            <stop stop-color="#FB6464"/>
            <stop offset="1" stop-color="#FA4E40"/>
        </linearGradient>
        <linearGradient id="prefix__paint9_linear" x1="457.309" x2="479.874" y1="263.228" y2="293.463" gradientUnits="userSpaceOnUse">
            <stop stop-color="#364D83" stop-opacity=".602"/>
            <stop offset="1" stop-color="#B2C4FF"/>
        </linearGradient>
        <linearGradient id="prefix__paint10_linear" x1="486.21" x2="459.93" y1="209.904" y2="216.652" gradientUnits="userSpaceOnUse">
            <stop stop-color="#15539E"/>
            <stop offset="1" stop-color="#092965"/>
        </linearGradient>
        <linearGradient id="prefix__paint11_linear" x1="498.895" x2="472.936" y1="213.31" y2="219.989" gradientUnits="userSpaceOnUse">
            <stop stop-color="#15539E"/>
            <stop offset="1" stop-color="#092965"/>
        </linearGradient>
        <linearGradient id="prefix__paint12_linear" x1="470.652" x2="480.352" y1="151.685" y2="151.954" gradientUnits="userSpaceOnUse">
            <stop stop-color="#C0E1FF"/>
            <stop offset="1" stop-color="#fff"/>
        </linearGradient>
        <linearGradient id="prefix__paint13_linear" x1="471.631" x2="472.074" y1="158.277" y2="157.987" gradientUnits="userSpaceOnUse">
            <stop stop-color="#C0E1FF"/>
            <stop offset="1" stop-color="#fff"/>
        </linearGradient>
        <linearGradient id="prefix__paint14_linear" x1="319.924" x2="297.359" y1="198.501" y2="228.736" gradientUnits="userSpaceOnUse">
            <stop stop-color="#364D83" stop-opacity=".602"/>
            <stop offset="1" stop-color="#B2C4FF"/>
        </linearGradient>
        <linearGradient id="prefix__paint15_linear" x1="331.662" x2="316.518" y1="197.007" y2="202.666" gradientUnits="userSpaceOnUse">
            <stop stop-color="#4F6FCE"/>
            <stop offset="1" stop-color="#3B3B5D"/>
        </linearGradient>
        <linearGradient id="prefix__paint16_linear" x1="283.839" x2="298.983" y1="199.059" y2="204.718" gradientUnits="userSpaceOnUse">
            <stop stop-color="#4F6FCE"/>
            <stop offset="1" stop-color="#3B3B5D"/>
        </linearGradient>
        <linearGradient id="prefix__paint17_linear" x1="460.667" x2="516.968" y1="306.865" y2="278.445" gradientUnits="userSpaceOnUse">
            <stop stop-color="#DAE2FF"/>
            <stop offset="1" stop-color="#fff" stop-opacity=".01"/>
        </linearGradient>
        <linearGradient id="prefix__paint18_linear" x1="528.532" x2="490.676" y1="342.625" y2="405.732" gradientUnits="userSpaceOnUse">
            <stop stop-color="#7187B5"/>
            <stop offset="1" stop-color="#BFCDED"/>
        </linearGradient>
        <linearGradient id="prefix__paint19_linear" x1="592.492" x2="489.265" y1="422.026" y2="510.403" gradientUnits="userSpaceOnUse">
            <stop stop-color="#C4D5FF"/>
            <stop offset=".278" stop-color="#C9DDFF"/>
            <stop offset=".365" stop-color="#E1ECFF"/>
            <stop offset="1" stop-color="#D5E1FF"/>
        </linearGradient>
        <linearGradient id="prefix__paint20_linear" x1="552.163" x2="505.912" y1="370.235" y2="428.697" gradientUnits="userSpaceOnUse">
            <stop stop-color="#C0E1FF"/>
            <stop offset="1" stop-color="#fff"/>
        </linearGradient>
        <linearGradient id="prefix__paint21_linear" x1="491.096" x2="484.663" y1="354.463" y2="360.891" gradientUnits="userSpaceOnUse">
            <stop stop-color="#6D7FE7"/>
            <stop offset="1" stop-color="#7E9EEF"/>
        </linearGradient>
        <linearGradient id="prefix__paint22_linear" x1="321.199" x2="360.143" y1="290.839" y2="226.819" gradientUnits="userSpaceOnUse">
            <stop stop-color="#6D94E7"/>
            <stop offset="1" stop-color="#7E9EEF"/>
        </linearGradient>
        <linearGradient id="prefix__paint23_linear" x1="384.347" x2="371.482" y1="351.915" y2="328.805" gradientUnits="userSpaceOnUse">
            <stop stop-color="#6D94E7"/>
            <stop offset="1" stop-color="#7E9EEF"/>
        </linearGradient>
        <linearGradient id="prefix__paint24_linear" x1="415.32" x2="402.455" y1="369.679" y2="346.569" gradientUnits="userSpaceOnUse">
            <stop stop-color="#6D94E7"/>
            <stop offset="1" stop-color="#7E9EEF"/>
        </linearGradient>
        <linearGradient id="prefix__paint25_linear" x1="354.502" x2="341.638" y1="334.86" y2="311.751" gradientUnits="userSpaceOnUse">
            <stop stop-color="#6D94E7"/>
            <stop offset="1" stop-color="#7E9EEF"/>
        </linearGradient>
        <linearGradient id="prefix__paint26_linear" x1="345.392" x2="336.335" y1="306.423" y2="286.541" gradientUnits="userSpaceOnUse">
            <stop stop-color="#6D7FE7"/>
            <stop offset="1" stop-color="#7E9EEF"/>
        </linearGradient>
        <linearGradient id="prefix__paint27_linear" x1="433.565" x2="437.258" y1="249.839" y2="258.543" gradientUnits="userSpaceOnUse">
            <stop stop-color="#C4D5FF"/>
            <stop offset="1" stop-color="#D5E1FF"/>
        </linearGradient>
        <linearGradient id="prefix__paint28_linear" x1="418.257" x2="421.077" y1="267.358" y2="275.612" gradientUnits="userSpaceOnUse">
            <stop stop-color="#C4D5FF"/>
            <stop offset="1" stop-color="#D5E1FF"/>
        </linearGradient>
        <linearGradient id="prefix__paint29_linear" x1="388.458" x2="374.431" y1="283.896" y2="274.976" gradientUnits="userSpaceOnUse">
            <stop stop-color="#C4D5FF"/>
            <stop offset="1" stop-color="#D5E1FF"/>
        </linearGradient>
        <linearGradient id="prefix__paint30_linear" x1="375.243" x2="366.185" y1="335.299" y2="315.417" gradientUnits="userSpaceOnUse">
            <stop stop-color="#6D7FE7"/>
            <stop offset="1" stop-color="#7E9EEF"/>
        </linearGradient>
        <linearGradient id="prefix__paint31_linear" x1="497.961" x2="508.178" y1="266.042" y2="326.176" gradientUnits="userSpaceOnUse">
            <stop stop-color="#E4E9FF"/>
            <stop offset="1" stop-color="#fff"/>
        </linearGradient>
        <linearGradient id="prefix__paint32_linear" x1="463.415" x2="467.108" y1="278.715" y2="287.419" gradientUnits="userSpaceOnUse">
            <stop stop-color="#C4D5FF"/>
            <stop offset="1" stop-color="#D5E1FF"/>
        </linearGradient>
        <linearGradient id="prefix__paint33_linear" x1="448.107" x2="450.927" y1="296.234" y2="304.488" gradientUnits="userSpaceOnUse">
            <stop stop-color="#C4D5FF"/>
            <stop offset="1" stop-color="#D5E1FF"/>
        </linearGradient>
        <linearGradient id="prefix__paint34_linear" x1="418.308" x2="404.282" y1="312.773" y2="303.853" gradientUnits="userSpaceOnUse">
            <stop stop-color="#C4D5FF"/>
            <stop offset="1" stop-color="#D5E1FF"/>
        </linearGradient>
        <linearGradient id="prefix__paint35_linear" x1="556.706" x2="534.141" y1="294.607" y2="324.842" gradientUnits="userSpaceOnUse">
            <stop stop-color="#364D83" stop-opacity=".602"/>
            <stop offset="1" stop-color="#B2C4FF"/>
        </linearGradient>
        <linearGradient id="prefix__paint36_linear" x1="502.597" x2="533.237" y1="271.39" y2="307.095" gradientUnits="userSpaceOnUse">
            <stop stop-color="#15539E"/>
            <stop offset="1" stop-color="#092965"/>
        </linearGradient>
        <linearGradient id="prefix__paint37_linear" x1="510.363" x2="543.324" y1="281.654" y2="313.765" gradientUnits="userSpaceOnUse">
            <stop stop-color="#15539E"/>
            <stop offset="1" stop-color="#092965"/>
        </linearGradient>
        <linearGradient id="prefix__paint38_linear" x1="528.211" x2="533.626" y1="261.329" y2="230.133" gradientUnits="userSpaceOnUse">
            <stop stop-color="#15539E"/>
            <stop offset="1" stop-color="#092965"/>
        </linearGradient>
        <linearGradient id="prefix__paint39_linear" x1="537.599" x2="540.269" y1="224.953" y2="219.069" gradientUnits="userSpaceOnUse">
            <stop stop-color="#BED4EB"/>
            <stop offset="1" stop-color="#0041AE"/>
        </linearGradient>
        <linearGradient id="prefix__paint40_linear" x1="545.11" x2="562.448" y1="274.639" y2="260.798" gradientUnits="userSpaceOnUse">
            <stop stop-color="#1B4A7A"/>
            <stop offset="1" stop-color="#0041AE"/>
        </linearGradient>
        <linearGradient id="prefix__paint41_linear" x1="540.504" x2="541.721" y1="214.875" y2="216.681" gradientUnits="userSpaceOnUse">
            <stop stop-color="#F3A6A6"/>
            <stop offset="1" stop-color="#FCCBCB"/>
        </linearGradient>
        <linearGradient id="prefix__paint42_linear" x1="547.318" x2="551.562" y1="228.868" y2="221.561" gradientUnits="userSpaceOnUse">
            <stop stop-color="#BED4EB"/>
            <stop offset="1" stop-color="#CEDBF0"/>
        </linearGradient>
        <linearGradient id="prefix__paint43_linear" x1="535.583" x2="543.595" y1="215.124" y2="252.817" gradientUnits="userSpaceOnUse">
            <stop stop-color="#15539E"/>
            <stop offset="1" stop-color="#092965"/>
        </linearGradient>
        <linearGradient id="prefix__paint44_linear" x1="525.174" x2="532.995" y1="215.51" y2="252.305" gradientUnits="userSpaceOnUse">
            <stop stop-color="#15539E"/>
            <stop offset="1" stop-color="#092965"/>
        </linearGradient>
        <linearGradient id="prefix__paint45_linear" x1="539.402" x2="534.381" y1="205.236" y2="216.105" gradientUnits="userSpaceOnUse">
            <stop stop-color="#FCCBCB"/>
            <stop offset="1" stop-color="#E77575"/>
        </linearGradient>
        <linearGradient id="prefix__paint46_linear" x1="541.416" x2="541.53" y1="200.33" y2="207.525" gradientUnits="userSpaceOnUse">
            <stop stop-color="#0C3564"/>
            <stop offset="1" stop-color="#BFA5B1"/>
        </linearGradient>
        <linearGradient id="prefix__paint47_linear" x1="546.176" x2="547.696" y1="205.97" y2="205.568" gradientUnits="userSpaceOnUse">
            <stop stop-color="#FCCBCB"/>
            <stop offset="1" stop-color="#E77575"/>
        </linearGradient>
        <linearGradient id="prefix__paint48_linear" x1="445.167" x2="436.11" y1="309.149" y2="289.267" gradientUnits="userSpaceOnUse">
            <stop stop-color="#6D7FE7"/>
            <stop offset="1" stop-color="#7E9EEF"/>
        </linearGradient>
        <linearGradient id="prefix__paint49_linear" x1="567.885" x2="578.103" y1="239.892" y2="300.027" gradientUnits="userSpaceOnUse">
            <stop stop-color="#E4E9FF"/>
            <stop offset="1" stop-color="#fff"/>
        </linearGradient>
        <linearGradient id="prefix__paint50_linear" x1="533.339" x2="537.032" y1="252.565" y2="261.269" gradientUnits="userSpaceOnUse">
            <stop stop-color="#C4D5FF"/>
            <stop offset="1" stop-color="#D5E1FF"/>
        </linearGradient>
        <linearGradient id="prefix__paint51_linear" x1="518.032" x2="520.852" y1="270.084" y2="278.338" gradientUnits="userSpaceOnUse">
            <stop stop-color="#C4D5FF"/>
            <stop offset="1" stop-color="#D5E1FF"/>
        </linearGradient>
        <linearGradient id="prefix__paint52_linear" x1="488.233" x2="474.206" y1="286.623" y2="277.703" gradientUnits="userSpaceOnUse">
            <stop stop-color="#C4D5FF"/>
            <stop offset="1" stop-color="#D5E1FF"/>
        </linearGradient>
        <linearGradient id="prefix__paint53_linear" x1="543.917" x2="531.067" y1="268.727" y2="240.384" gradientUnits="userSpaceOnUse">
            <stop stop-color="#15539E"/>
            <stop offset="1" stop-color="#092965"/>
        </linearGradient>
    </defs>
</svg>
