<svg xmlns="http://www.w3.org/2000/svg" width="570" height="535" fill="none" viewBox="0 0 570 535">
    <path fill="url(#prefix__paint0_linear)" fill-rule="evenodd" d="M252.209 245.317c2.652-1.417 5.839-1.398 8.473.05l300.733 165.298v9.434c0 1.588-.846 3.055-2.22 3.849L370.137 533.232c-2.753 1.591-6.145 1.592-8.898.001L62.954 360.897c-1.375-.794-2.222-2.261-2.222-3.849v-9.434l191.477-102.297z" clip-rule="evenodd"/>
    <path fill="url(#prefix__paint1_linear)" fill-rule="evenodd" d="M252.209 242.957c2.652-1.417 5.839-1.398 8.473.05l300.733 165.298v9.434c0 1.588-.846 3.055-2.22 3.849L370.137 530.872c-2.753 1.591-6.145 1.592-8.898.001L62.954 358.537c-1.375-.794-2.222-2.261-2.222-3.849v-9.434l191.477-102.297z" clip-rule="evenodd"/>
    <path fill="url(#prefix__paint2_linear)" fill-rule="evenodd" d="M252.017 232.963c2.749-1.586 6.135-1.586 8.885 0l297.271 171.49c2.966 1.711 2.965 5.992-.001 7.703L370.13 520.596c-2.749 1.586-6.135 1.586-8.884 0L63.975 349.106c-2.966-1.711-2.966-5.992 0-7.702l188.042-108.441z" clip-rule="evenodd"/>
    <path fill="url(#prefix__paint3_linear)" fill-rule="evenodd" d="M269.899 257.563c-2.428-1.421-5.44-1.396-7.844.066l-57.885 35.206c-1.662 1.011-1.627 3.436.064 4.398l241.555 137.424c4.668 2.655 10.387 2.671 15.069.039l53.093-29.834c1.718-.965 1.739-3.431.039-4.426L269.899 257.563z" clip-rule="evenodd" opacity=".246"/>
    <path fill="url(#prefix__paint4_linear)" fill-rule="evenodd" d="M244.551 346.155c.982-.558 2.185-.558 3.167.001l107.595 61.251c1.079.614 1.079 2.169 0 2.782l-68.059 38.732c-.982.559-2.186.559-3.167 0l-107.596-61.252c-1.078-.614-1.078-2.168.001-2.782l68.059-38.732z" clip-rule="evenodd"/>
    <mask id="prefix__a" width="182" height="105" x="175" y="345" maskUnits="userSpaceOnUse">
        <path fill="#fff" fill-rule="evenodd" d="M244.551 346.155c.982-.558 2.185-.558 3.167.001l107.595 61.251c1.079.614 1.079 2.169 0 2.782l-68.059 38.732c-.982.559-2.186.559-3.167 0l-107.596-61.252c-1.078-.614-1.078-2.168.001-2.782l68.059-38.732z" clip-rule="evenodd"/>
    </mask>
    <g mask="url(#prefix__a)">
        <path fill="url(#prefix__paint5_linear)" fill-rule="evenodd" d="M244.551 351.298c.982-.559 2.185-.559 3.167 0l107.595 61.252c1.079.614 1.079 2.168 0 2.782l-68.059 38.732c-.982.558-2.186.558-3.167 0l-107.596-61.252c-1.078-.614-1.078-2.169.001-2.782l68.059-38.732z" clip-rule="evenodd"/>
    </g>
    <path fill="#80B1FF" fill-rule="evenodd" d="M263.051 1.49c1.259-.503 2.679-.404 3.856.27l298.617 170.849c2.768 1.583 4.476 4.528 4.476 7.717v218.603c0 1.563-.821 3.011-2.161 3.814l-2.996 1.795c-2.11 1.264-4.745 1.264-6.855 0L265.816 229.492c-2.618-1.568-4.249-4.37-4.319-7.422L256.566 8.752c-.064-2.784 1.608-5.315 4.194-6.347l2.291-.915z" clip-rule="evenodd"/>
    <path fill="url(#prefix__paint6_linear)" fill-rule="evenodd" d="M256.459 8.39c0-3.42 3.704-5.56 6.668-3.85l297.274 171.492c2.752 1.588 4.448 4.524 4.448 7.702v216.874c0 3.422-3.703 5.561-6.667 3.851L260.908 232.967c-2.753-1.588-4.449-4.524-4.449-7.702V8.391z" clip-rule="evenodd"/>
    <path fill="url(#prefix__paint7_linear)" fill-rule="evenodd" d="M268.478 22.979l283.29 163.853v199.564l-283.29-163.853V22.979z" clip-rule="evenodd"/>
    <path fill="#FCCBCB" fill-rule="evenodd" d="M80.663 264.614c.65 2.25.786 4.217.786 6.771 0 2.553 11.909 7.311 11.909 7.311l3.401-4.945s-3.992-3.152-5.91-6.877c-1.916-3.725-3.227-14.453-3.227-14.453s-7.609 9.942-6.959 12.193z" clip-rule="evenodd"/>
    <mask id="prefix__b" width="17" height="27" x="80" y="252" maskUnits="userSpaceOnUse">
        <path fill="#fff" fill-rule="evenodd" d="M80.663 264.614c.65 2.25.786 4.217.786 6.771 0 2.553 11.909 7.311 11.909 7.311l3.401-4.945s-3.992-3.152-5.91-6.877c-1.916-3.725-3.227-14.453-3.227-14.453s-7.609 9.942-6.959 12.193z" clip-rule="evenodd"/>
    </mask>
    <g fill-rule="evenodd" clip-rule="evenodd" mask="url(#prefix__b)">
        <path fill="url(#prefix__paint8_linear)" d="M79.95 265.804s1.376 1.413 5.045.953c3.668-.459 6.39-4.66 6.39-4.66l-4.754-3.984-6.68 4.188v3.503z"/>
        <path fill="url(#prefix__paint9_linear)" d="M81.394 268.894s3.04 3.119 6.525 4.048c3.485.929 3.395-1.138 3.395-1.138s2.218 4.772 1.326 5.006c-.891.235-11.246-2.213-11.246-2.213v-5.703z"/>
    </g>
    <path fill="#174374" fill-rule="evenodd" d="M81.328 268.422c-.278 1.749-.441 2.737-.441 4.498v2.146s.161 1.477 4.63 3.23c4.47 1.752 6.472 4.09 9.64 5.265 3.168 1.175 9.628 1.554 10.302-1.116-.048-1.117 0-1.583 0-1.583s-.015-2.108-1.994-3.823c-1.979-1.715-6-3.284-7.74-5.235-1.738-1.951-2.198-2.165-2.762-2.418-.564-.252-2.937.464-2.937 1.999 0 1.535.711 2.487.711 2.487s-2.563.237-5.47-1.444c-2.907-1.681-3.13-2.323-3.94-4.006z" clip-rule="evenodd"/>
    <mask id="prefix__c" width="26" height="17" x="80" y="268" maskUnits="userSpaceOnUse">
        <path fill="#fff" fill-rule="evenodd" d="M81.328 268.422c-.278 1.749-.441 2.737-.441 4.498v2.146s.161 1.477 4.63 3.23c4.47 1.752 6.472 4.09 9.64 5.265 3.168 1.175 9.628 1.554 10.302-1.116-.048-1.117 0-1.583 0-1.583s-.015-2.108-1.994-3.823c-1.979-1.715-6-3.284-7.74-5.235-1.738-1.951-2.198-2.165-2.762-2.418-.564-.252-2.937.464-2.937 1.999 0 1.535.711 2.487.711 2.487s-2.563.237-5.47-1.444c-2.907-1.681-3.13-2.323-3.94-4.006z" clip-rule="evenodd"/>
    </mask>
    <g mask="url(#prefix__c)">
        <path fill="#082545" fill-rule="evenodd" d="M81.44 267.315c-.832 1.495-1.1 2.527-1.1 4.288 0 1.76.547 2.356.547 2.356s.161 1.477 4.63 3.23c4.47 1.753 6.472 4.091 9.64 5.266 3.168 1.174 9.628 1.554 10.302-1.117-.048-1.117 0-1.583 0-1.583s-.015-2.107-1.994-3.823c-1.979-1.715-6-3.284-7.74-5.235-1.738-1.95-2.198-2.165-2.762-2.417-.564-.253-2.937.463-2.937 1.998s-1.189 1.535-1.189 1.535-.663 1.189-3.57-.492-3.019-2.322-3.827-4.006z" clip-rule="evenodd"/>
    </g>
    <path fill="#FCCBCB" fill-rule="evenodd" d="M103.49 247.835c.621 2.174.751 4.074.751 6.541 0 2.467 11.392 7.064 11.392 7.064l3.253-4.778s-3.819-3.045-5.652-6.644c-1.834-3.598-3.088-13.963-3.088-13.963s-7.278 9.606-6.656 11.78z" clip-rule="evenodd"/>
    <mask id="prefix__d" width="16" height="26" x="103" y="236" maskUnits="userSpaceOnUse">
        <path fill="#fff" fill-rule="evenodd" d="M103.49 247.835c.621 2.174.751 4.074.751 6.541 0 2.467 11.392 7.064 11.392 7.064l3.253-4.778s-3.819-3.045-5.652-6.644c-1.834-3.598-3.088-13.963-3.088-13.963s-7.278 9.606-6.656 11.78z" clip-rule="evenodd"/>
    </mask>
    <g fill-rule="evenodd" clip-rule="evenodd" mask="url(#prefix__d)">
        <path fill="url(#prefix__paint10_linear)" d="M102.808 248.984s1.316 1.366 4.825.922c3.509-.444 6.112-4.502 6.112-4.502l-4.546-3.85-6.391 4.047v3.383z"/>
        <path fill="url(#prefix__paint11_linear)" d="M104.189 251.97s2.908 3.013 6.242 3.911c3.333.897 3.247-1.1 3.247-1.1s2.121 4.611 1.268 4.837c-.852.226-10.757-2.138-10.757-2.138v-5.51z"/>
    </g>
    <path fill="#174374" fill-rule="evenodd" d="M104.125 251.514c-.265 1.689-.421 2.645-.421 4.345v2.073s.154 1.428 4.429 3.121c4.276 1.693 6.191 3.952 9.221 5.087 3.03 1.135 9.209 1.501 9.854-1.079-.047-1.079 0-1.529 0-1.529s-.015-2.036-1.908-3.693c-1.892-1.657-5.739-3.173-7.402-5.058-1.664-1.884-2.104-2.092-2.643-2.335-.54-.244-2.81.447-2.81 1.93 0 1.483.681 2.404.681 2.404s-2.452.228-5.233-1.396c-2.78-1.624-2.994-2.244-3.768-3.87z" clip-rule="evenodd"/>
    <mask id="prefix__e" width="25" height="17" x="103" y="251" maskUnits="userSpaceOnUse">
        <path fill="#fff" fill-rule="evenodd" d="M104.125 251.514c-.265 1.689-.421 2.645-.421 4.345v2.073s.154 1.428 4.429 3.121c4.276 1.693 6.191 3.952 9.221 5.087 3.03 1.135 9.209 1.501 9.854-1.079-.047-1.079 0-1.529 0-1.529s-.015-2.036-1.908-3.693c-1.892-1.657-5.739-3.173-7.402-5.058-1.664-1.884-2.104-2.092-2.643-2.335-.54-.244-2.81.447-2.81 1.93 0 1.483.681 2.404.681 2.404s-2.452.228-5.233-1.396c-2.78-1.624-2.994-2.244-3.768-3.87z" clip-rule="evenodd"/>
    </mask>
    <g mask="url(#prefix__e)">
        <path fill="#082545" fill-rule="evenodd" d="M104.232 250.445c-.795 1.444-1.051 2.441-1.051 4.142 0 1.701.523 2.276.523 2.276s.154 1.428 4.429 3.121c4.276 1.693 6.191 3.952 9.221 5.087 3.03 1.135 9.209 1.501 9.854-1.079-.047-1.079 0-1.529 0-1.529s-.015-2.036-1.908-3.693c-1.892-1.657-5.739-3.173-7.402-5.058-1.664-1.884-2.104-2.092-2.643-2.335-.54-.244-2.81.447-2.81 1.93 0 1.483-1.136 1.483-1.136 1.483s-.635 1.149-3.416-.475c-2.78-1.624-2.887-2.244-3.661-3.87z" clip-rule="evenodd"/>
    </g>
    <path fill="url(#prefix__paint12_linear)" fill-rule="evenodd" d="M37.238 264.757c-.19.07-.393.088-.592.053l-.066-.011c-.745-.13-1.25-.831-1.137-1.579l3.166-21.009-27.212 7.286c-.116.031-.236.047-.356.047h-.386c-.548 0-.992-.444-.992-.991 0-.41.252-.777.634-.925l26.098-10.085-8.714-7.681c-.235-.206-.37-.504-.37-.817 0-.49.332-.921.805-1.052.278-.077.579-.041.832.1l13.459 7.525 21.984-4.339c.63-.124 1.28.079 1.725.541l.277.288c.162.167.252.391.252.624 0 .397-.26.748-.642.861l-17.113 5.103 21.882 13.458c.548.337.625 1.104.155 1.543-.18.169-.419.263-.666.263h-.544c-.333 0-.663-.071-.967-.208l-24.002-10.818-6.818 21.102c-.108.334-.363.599-.692.721z" clip-rule="evenodd"/>
    <mask id="prefix__f" width="63" height="38" x="9" y="227" maskUnits="userSpaceOnUse">
        <path fill="#fff" fill-rule="evenodd" d="M37.238 264.757c-.19.07-.393.088-.592.053l-.066-.011c-.745-.13-1.25-.831-1.137-1.579l3.166-21.009-27.212 7.286c-.116.031-.236.047-.356.047h-.386c-.548 0-.992-.444-.992-.991 0-.41.252-.777.634-.925l26.098-10.085-8.714-7.681c-.235-.206-.37-.504-.37-.817 0-.49.332-.921.805-1.052.278-.077.579-.041.832.1l13.459 7.525 21.984-4.339c.63-.124 1.28.079 1.725.541l.277.288c.162.167.252.391.252.624 0 .397-.26.748-.642.861l-17.113 5.103 21.882 13.458c.548.337.625 1.104.155 1.543-.18.169-.419.263-.666.263h-.544c-.333 0-.663-.071-.967-.208l-24.002-10.818-6.818 21.102c-.108.334-.363.599-.692.721z" clip-rule="evenodd"/>
    </mask>
    <g fill-rule="evenodd" clip-rule="evenodd" mask="url(#prefix__f)">
        <path fill="url(#prefix__paint13_linear)" d="M37.2 264.728c-.163.088-.35.118-.53.086l-.167-.029c-.7-.122-1.173-.784-1.06-1.486l3.63-22.729-28.35 8.651c-.527.16-1.06-.234-1.06-.785 0-.339.209-.643.525-.765l26.207-10.128 1.547-.771-10.417-7.731c-.134-.099-.213-.256-.213-.424 0-.237.158-.445.387-.508l.42-.116c.278-.077.576-.041.829.1l13.459 7.525 21.984-4.339c.63-.124 1.28.079 1.725.541l.398.412c.084.088.132.205.132.327 0 .215-.147.403-.356.456l-18.872 4.739 1.472.942 22.04 13.555c.468.288.534.944.132 1.32-.251.234-.62.291-.93.142l-25.939-12.441-6.599 22.964c-.06.21-.203.387-.395.492z"/>
        <path fill="url(#prefix__paint14_linear)" d="M38.555 232.696s-4.012.714-3.974 3.129c.037 2.414-6.167 2.009-6.167 2.009s-6.904-16.039-6.13-16.039 16.27 10.901 16.27 10.901z" opacity=".1"/>
    </g>
    <path fill="url(#prefix__paint15_linear)" fill-rule="evenodd" d="M40.06 232.294h5.546L46.16 238h-.01c.074.539-.236 1.088-.933 1.495-1.282.75-3.389.738-4.706-.026-.699-.406-1.034-.943-1.004-1.469h-.002l.555-5.706z" clip-rule="evenodd"/>
    <path fill="url(#prefix__paint16_linear)" fill-rule="evenodd" d="M40.898 233.458c-1.097-.656-1.12-1.708-.052-2.351 1.069-.642 2.824-.632 3.921.023s1.12 1.708.052 2.35c-1.068.643-2.824.633-3.92-.022z" clip-rule="evenodd"/>
    <path fill="url(#prefix__paint17_linear)" fill-rule="evenodd" d="M40.337 216.228h4.991v15.512c.015.431-.22.861-.707 1.186-.962.643-2.542.633-3.53-.022-.487-.324-.739-.744-.753-1.164v-15.512z" clip-rule="evenodd"/>
    <path fill="url(#prefix__paint18_linear)" fill-rule="evenodd" d="M40.337 213.458h4.991v6.648c.015.431-.22.861-.707 1.187-.962.642-2.542.632-3.53-.023-.487-.324-.739-.744-.753-1.164v-6.648z" clip-rule="evenodd" opacity=".1"/>
    <path fill="url(#prefix__paint19_linear)" fill-rule="evenodd" d="M17.015 203.732c-3-1.774-4.277-5.456-3.02-8.706l1.635-4.229 19.869-8.854c5.386-2.4 11.593-2.093 16.717.826l32.713 18.637c1.944 1.107 1.938 3.911-.01 5.01l-28.802 16.251c-2.242 1.265-4.988 1.237-7.203-.073l-31.899-18.862z" clip-rule="evenodd"/>
    <path fill="url(#prefix__paint20_linear)" fill-rule="evenodd" d="M19.735 201.512c-4.742-2.806-4.643-9.7.177-12.37l16.617-9.202c5.695-3.154 12.627-3.088 18.261.172l30.169 17.46c1.929 1.116 1.913 3.906-.028 5.001l-28.834 16.269c-2.243 1.266-4.99 1.237-7.206-.074l-29.156-17.256z" clip-rule="evenodd"/>
    <path fill="url(#prefix__paint21_linear)" fill-rule="evenodd" d="M19.735 200.958c-4.742-2.806-4.643-9.7.177-12.369l16.617-9.203c5.695-3.154 12.627-3.088 18.261.172l30.169 17.46c1.929 1.116 1.913 3.906-.028 5.001l-28.834 16.269c-2.243 1.266-4.99 1.237-7.206-.074l-29.156-17.256z" clip-rule="evenodd"/>
    <path fill="url(#prefix__paint22_linear)" fill-rule="evenodd" d="M19.735 199.866c-4.742-2.806-4.643-9.701.177-12.37l16.617-9.202c5.695-3.154 12.627-3.089 18.261.172l30.169 17.46c1.929 1.116 1.913 3.906-.028 5.001l-28.834 16.269c-2.243 1.265-4.99 1.237-7.206-.075l-29.156-17.255z" clip-rule="evenodd"/>
    <mask id="prefix__g" width="71" height="44" x="16" y="175" maskUnits="userSpaceOnUse">
        <path fill="#fff" fill-rule="evenodd" d="M19.735 199.866c-4.742-2.806-4.643-9.701.177-12.37l16.617-9.202c5.695-3.154 12.627-3.089 18.261.172l30.169 17.46c1.929 1.116 1.913 3.906-.028 5.001l-28.834 16.269c-2.243 1.265-4.99 1.237-7.206-.075l-29.156-17.255z" clip-rule="evenodd"/>
    </mask>
    <g mask="url(#prefix__g)">
        <path fill="url(#prefix__paint23_linear)" fill-rule="evenodd" d="M55.588 218.886s-36.91-21.931-39.257-23.605c-2.347-1.674-1.248-5.441-1.248-5.441l16.056-10.052 23.377 10.651 31.282-1.911-5.254 11.968-24.455-3.484 12.215 14.409-12.716 7.465z" clip-rule="evenodd" opacity=".5"/>
    </g>
    <path fill="url(#prefix__paint24_linear)" fill-rule="evenodd" d="M37.184 110.88c-.271-2.04-2.549-3.129-4.307-2.061l-21.172 12.866c-2.242 1.363-3.554 3.846-3.416 6.465l3.027 57.703c.113 2.146 2.469 3.401 4.312 2.297l25.457-15.246c2.44-1.462 3.779-4.235 3.404-7.054l-7.305-54.97z" clip-rule="evenodd"/>
    <path fill="url(#prefix__paint25_linear)" fill-rule="evenodd" d="M38.847 111.434c-.27-2.04-2.548-3.129-4.307-2.061L13.37 122.239c-2.242 1.362-3.554 3.846-3.417 6.465l3.028 57.703c.112 2.146 2.469 3.401 4.312 2.297l25.457-15.246c2.44-1.462 3.779-4.235 3.404-7.055l-7.306-54.969z" clip-rule="evenodd"/>
    <path fill="url(#prefix__paint26_linear)" fill-rule="evenodd" d="M39.746 111.961c-.271-2.04-2.548-3.129-4.307-2.061l-21.171 12.866c-2.242 1.363-3.554 3.846-3.417 6.465l3.028 57.703c.112 2.146 2.468 3.401 4.312 2.297l25.457-15.246c2.44-1.462 3.778-4.235 3.403-7.054l-7.305-54.97z" clip-rule="evenodd"/>
    <mask id="prefix__h" width="38" height="81" x="10" y="109" maskUnits="userSpaceOnUse">
        <path fill="#fff" fill-rule="evenodd" d="M39.746 111.961c-.271-2.04-2.548-3.129-4.307-2.061l-21.171 12.866c-2.242 1.363-3.554 3.846-3.417 6.465l3.028 57.703c.112 2.146 2.468 3.401 4.312 2.297l25.457-15.246c2.44-1.462 3.778-4.235 3.403-7.054l-7.305-54.97z" clip-rule="evenodd"/>
    </mask>
    <g mask="url(#prefix__h)">
        <path fill="url(#prefix__paint27_linear)" fill-rule="evenodd" d="M40.84 112.508c-.27-2.04-2.548-3.13-4.306-2.061l-21.172 12.866c-2.242 1.362-3.554 3.845-3.416 6.464l3.027 57.704c.113 2.146 2.469 3.4 4.312 2.296l25.457-15.246c2.44-1.462 3.779-4.234 3.404-7.054l-7.305-54.969z" clip-rule="evenodd"/>
    </g>
    <path fill="url(#prefix__paint28_linear)" fill-rule="evenodd" d="M63.774 165.633l-4.378-2.731v20.144c0 .755.39 1.457 1.03 1.857 1.459.91 3.348-.139 3.348-1.857v-17.413z" clip-rule="evenodd"/>
    <path fill="url(#prefix__paint29_linear)" fill-rule="evenodd" d="M62.68 166.18l-4.378-2.732v20.144c0 .756.39 1.458 1.03 1.857 1.458.91 3.348-.138 3.348-1.857V166.18z" clip-rule="evenodd"/>
    <path fill="url(#prefix__paint30_linear)" fill-rule="evenodd" d="M62.68 166.18l-4.378-2.732v10.279l4.378 2.731V166.18z" clip-rule="evenodd" opacity=".1"/>
    <path fill="url(#prefix__paint31_linear)" fill-rule="evenodd" d="M76.006 172.947c2.081 1.297 1.995 4.355-.156 5.532-1.002.548-2.22.522-3.197-.068l-22.388-13.53c-2.264-1.369-2.15-4.69.201-5.901 1.059-.545 2.326-.493 3.337.136l22.203 13.831z" clip-rule="evenodd"/>
    <path fill="url(#prefix__paint32_linear)" fill-rule="evenodd" d="M76.064 171.286c2.081 1.297 1.995 4.355-.156 5.532-1.002.548-2.22.522-3.196-.068l-22.389-13.53c-2.264-1.369-2.15-4.69.201-5.901 1.059-.545 2.326-.493 3.337.136l22.203 13.831z" clip-rule="evenodd"/>
    <path fill="url(#prefix__paint33_linear)" fill-rule="evenodd" d="M76.006 170.762c2.081 1.297 1.995 4.355-.156 5.532-1.002.548-2.22.522-3.197-.068l-22.388-13.53c-2.264-1.369-2.15-4.69.201-5.901 1.059-.545 2.326-.493 3.337.136l22.203 13.831z" clip-rule="evenodd"/>
    <path fill="url(#prefix__paint34_linear)" fill-rule="evenodd" d="M76.006 170.216c2.081 1.297 1.995 4.355-.156 5.532-1.002.548-2.22.522-3.197-.069L50.265 162.15c-2.264-1.369-2.15-4.69.201-5.901 1.059-.545 2.326-.494 3.337.136l22.203 13.831z" clip-rule="evenodd"/>
    <path fill="url(#prefix__paint35_linear)" fill-rule="evenodd" d="M23.066 195.675c5.173 7.355 44.001 27.966 44.001 27.966l12.133 40.07s3.3 2.681 6.599 1.269c3.298-1.412 5.506-4.674 5.506-4.674s-8.123-40.445-10.168-44.845c-2.046-4.4-24.352-19.058-24.352-19.058s-.296-.689 1.849-.689c2.144 0 26.055 11.56 27.165 12.453 1.16.934 10.514 26.615 15.338 39.95.372 1.028 1.605 2.23 5.473 2.23 3.867 0 6.835-3.947 6.835-3.947s-10.654-44.022-14.088-49.695c-3.434-5.674-30.406-12.087-37.114-14.828-6.708-2.74-14.764-4.005-14.764-4.005l-24.086-3.965s-5.5 14.413-.327 21.768z" clip-rule="evenodd"/>
    <mask id="prefix__i" width="94" height="93" x="20" y="173" maskUnits="userSpaceOnUse">
        <path fill="#fff" fill-rule="evenodd" d="M23.066 195.675c5.173 7.355 44.001 27.966 44.001 27.966l12.133 40.07s3.3 2.681 6.599 1.269c3.298-1.412 5.506-4.674 5.506-4.674s-8.123-40.445-10.168-44.845c-2.046-4.4-24.352-19.058-24.352-19.058s-.296-.689 1.849-.689c2.144 0 26.055 11.56 27.165 12.453 1.16.934 10.514 26.615 15.338 39.95.372 1.028 1.605 2.23 5.473 2.23 3.867 0 6.835-3.947 6.835-3.947s-10.654-44.022-14.088-49.695c-3.434-5.674-30.406-12.087-37.114-14.828-6.708-2.74-14.764-4.005-14.764-4.005l-24.086-3.965s-5.5 14.413-.327 21.768z" clip-rule="evenodd"/>
    </mask>
    <g mask="url(#prefix__i)">
        <path fill="#051D39" fill-rule="evenodd" d="M21.76 187.47s5.402 7.252 8.932 9.815c1.501-1.147 4.207-4.329 3.183-7.822-1.024-3.494-5.945-8.287-5.945-8.287l-6.17 6.294z" clip-rule="evenodd" opacity=".5"/>
        <path stroke="#305992" stroke-width=".72" d="M21.76 187.47s4.358 7.152 11.09 11.253c6.734 4.101 34.555 20.87 36.206 22.491 1.651 1.621 12.642 47.088 12.642 47.088"/>
        <path fill="#051D39" fill-rule="evenodd" d="M57.856 196.917s-5.767-4.388-4.443-5.367c1.921-1.419 4.39-1.446 8.374-.501 1.08.256 11.834 10.26 9.085 12.999-.43.428-13.016-7.131-13.016-7.131z" clip-rule="evenodd" opacity=".5"/>
        <path fill-rule="evenodd" stroke="#305992" stroke-width=".72" d="M60.213 198.436s-5.051-3.969-3.891-4.854c2.475-1.889 5.989-1.052 13.232 1.296 7.242 2.347 18.343 7.071 20.247 9.214 2.997 3.372 14.963 49.203 14.963 49.203s-6.584-7.283-8.368-10.369c-5.974-10.337-10.93-26.506-15.985-32.034-9.849-10.767-20.198-12.456-20.198-12.456z" clip-rule="evenodd"/>
        <path stroke="#0B204D" stroke-width=".72" d="M57.006 196.359s.308-4.219-1.057-6.3c-1.366-2.082-6.676-5.973-9.993-7.001-3.318-1.028-8.669-5.955-8.669-5.955" opacity=".5"/>
    </g>
    <path fill="url(#prefix__paint36_linear)" fill-rule="evenodd" d="M107.592 180.831s.696-.991 1.203-.66c.507.33.678 1.204 0 2.33-.678 1.127-1.38.239-1.38.239l.177-1.909z" clip-rule="evenodd"/>
    <path fill="url(#prefix__paint37_linear)" fill-rule="evenodd" d="M60.821 244.082l-7.033 65.935s-.144 1.643-2.565 1.432c-2.42-.212-2.117-1.842-2.117-1.842l2.83-67.111 8.885 1.586z" clip-rule="evenodd"/>
    <mask id="prefix__j" width="12" height="70" x="49" y="242" maskUnits="userSpaceOnUse">
        <path fill="#fff" fill-rule="evenodd" d="M60.821 244.082l-7.033 65.935s-.144 1.643-2.565 1.432c-2.42-.212-2.117-1.842-2.117-1.842l2.83-67.111 8.885 1.586z" clip-rule="evenodd"/>
    </mask>
    <g mask="url(#prefix__j)">
        <path fill="#3C64A4" fill-rule="evenodd" d="M63.008 245.675l-7.034 65.935s-.144 1.643-2.565 1.432c-2.42-.212-2.116-1.842-2.116-1.842l2.829-67.111 8.886 1.586z" clip-rule="evenodd"/>
    </g>
    <path fill="url(#prefix__paint38_linear)" fill-rule="evenodd" d="M16.894 219.036l-9.127 65.678s-.258 1.629 2.142 2.01c2.4.38 2.5-1.275 2.5-1.275l13.49-65.802-9.005-.611z" clip-rule="evenodd"/>
    <mask id="prefix__k" width="19" height="68" x="7" y="219" maskUnits="userSpaceOnUse">
        <path fill="#fff" fill-rule="evenodd" d="M16.894 219.036l-9.127 65.678s-.258 1.629 2.142 2.01c2.4.38 2.5-1.275 2.5-1.275l13.49-65.802-9.005-.611z" clip-rule="evenodd"/>
    </mask>
    <g mask="url(#prefix__k)">
        <path fill="#3C64A4" fill-rule="evenodd" d="M14.387 220.053l-9.126 65.678s-.258 1.629 2.142 2.009c2.4.381 2.499-1.274 2.499-1.274l13.49-65.802-9.005-.611z" clip-rule="evenodd"/>
    </g>
    <path fill="url(#prefix__paint39_linear)" fill-rule="evenodd" d="M167.622 178.856l7.979 65.828s.23 1.634-2.177 1.972c-2.406.338-2.476-1.318-2.476-1.318l-12.341-66.028 9.015-.454z" clip-rule="evenodd"/>
    <mask id="prefix__l" width="18" height="69" x="158" y="178" maskUnits="userSpaceOnUse">
        <path fill="#fff" fill-rule="evenodd" d="M167.622 178.856l7.979 65.828s.23 1.634-2.177 1.972c-2.406.338-2.476-1.318-2.476-1.318l-12.341-66.028 9.015-.454z" clip-rule="evenodd"/>
    </mask>
    <g mask="url(#prefix__l)">
        <path fill="#3C64A4" fill-rule="evenodd" d="M170.11 179.917l7.979 65.827s.23 1.634-2.177 1.972c-2.406.338-2.476-1.318-2.476-1.318l-12.34-66.027 9.014-.454z" clip-rule="evenodd"/>
    </g>
    <path fill="url(#prefix__paint40_linear)" fill-rule="evenodd" d="M120.952 158.297l1.242 66.091s0 1.644 2.395 1.644c2.396 0 2.237-1.644 2.237-1.644l2.988-66.894-8.862.803z" clip-rule="evenodd"/>
    <mask id="prefix__m" width="10" height="70" x="120" y="157" maskUnits="userSpaceOnUse">
        <path fill="#fff" fill-rule="evenodd" d="M120.952 158.297l1.242 66.091s0 1.644 2.395 1.644c2.396 0 2.237-1.644 2.237-1.644l2.988-66.894-8.862.803z" clip-rule="evenodd"/>
    </mask>
    <g mask="url(#prefix__m)">
        <path fill="#3C64A4" fill-rule="evenodd" d="M118.668 159.689l1.242 66.091s0 1.644 2.396 1.644c2.395 0 2.236-1.644 2.236-1.644l2.988-66.894-8.862.803z" clip-rule="evenodd"/>
    </g>
    <path fill="#80B1FF" fill-rule="evenodd" d="M58.745 247.743c-2.351 1.424-5.291 1.453-7.67.076l-41.13-23.812c-1.55-.897-1.57-3.127-.035-4.051l111.921-67.363c2.353-1.416 5.291-1.438 7.665-.058l40.683 23.656c1.543.898 1.563 3.121.036 4.046l-111.47 67.506z" clip-rule="evenodd"/>
    <path fill="#fff" fill-rule="evenodd" d="M58.745 245.917c-2.351 1.424-5.291 1.453-7.67.076l-41.13-23.811c-1.55-.898-1.57-3.128-.035-4.052l111.921-67.363c2.353-1.416 5.291-1.438 7.665-.058l40.683 23.656c1.543.898 1.563 3.121.036 4.046l-111.47 67.506z" clip-rule="evenodd"/>
    <path fill="#DCE9FF" fill-rule="evenodd" d="M58.915 245.103c-2.34 1.414-5.261 1.448-7.633.09l-40.775-23.341c-1.56-.892-1.583-3.133-.043-4.058l111.968-67.244c2.342-1.407 5.262-1.434 7.63-.071l40.293 23.188c1.553.894 1.577 3.125.044 4.052L58.915 245.103z" clip-rule="evenodd"/>
    <path fill="#092965" fill-rule="evenodd" d="M139.684 153.578H120.45v18.593h19.226c.68 0 1.232-.551 1.232-1.232v-.92l-1.224-16.441z" clip-rule="evenodd"/>
    <path fill="#fff" d="M140.908 169.974c0-.84-.681-1.522-1.522-1.522h-18.062v3.043h18.062c.841 0 1.522-.681 1.522-1.521z"/>
    <mask id="prefix__n" width="20" height="4" x="121" y="168" maskUnits="userSpaceOnUse">
        <path fill="#fff" d="M140.908 169.974c0-.84-.681-1.522-1.522-1.522h-18.062v3.043h18.062c.841 0 1.522-.681 1.522-1.521z"/>
    </mask>
    <g mask="url(#prefix__n)">
        <path stroke="#D8D8D8" stroke-linecap="round" stroke-width=".5" d="M121.036 169.974h18.533M131.527 170.65h8.042M121.386 170.65h8.042"/>
    </g>
    <path fill="url(#prefix__paint41_linear)" fill-rule="evenodd" d="M120.45 150.873v18.594h18.96c.827 0 1.498.67 1.498 1.497v-18.243c0-1.021-.827-1.848-1.848-1.848h-18.61z" clip-rule="evenodd"/>
    <mask id="prefix__o" width="21" height="21" x="120" y="150" maskUnits="userSpaceOnUse">
        <path fill="#fff" fill-rule="evenodd" d="M120.45 150.873v18.594h18.96c.827 0 1.498.67 1.498 1.497v-18.243c0-1.021-.827-1.848-1.848-1.848h-18.61z" clip-rule="evenodd"/>
    </mask>
    <g mask="url(#prefix__o)">
        <path fill="#FBE5A9" fill-rule="evenodd" d="M128.031 157.713c0 .058.011.11.035.154.045.086.126.133.243.138v-.583c-.085.025-.147.051-.183.08-.063.048-.095.118-.095.211zm.376-1.042l.001.522c.076-.016.137-.045.183-.087.046-.042.068-.099.068-.172 0-.06-.019-.118-.058-.174-.039-.056-.103-.085-.194-.089zm-.048 1.976c.655 0 1.186-.571 1.186-1.276 0-.704-.531-1.276-1.186-1.276-.654 0-1.186.572-1.186 1.276 0 .705.532 1.276 1.186 1.276zm.378-1.404c-.071.071-.18.122-.33.153V158c.116-.01.197-.057.239-.14.024-.047.039-.121.045-.223h.183c0 .128-.02.229-.059.303-.072.139-.208.215-.408.229v.215h-.097v-.215c-.125-.015-.22-.045-.286-.091-.119-.083-.178-.223-.178-.42 0-.136.046-.239.139-.308.057-.042.166-.088.325-.136v-.54c-.095.003-.164.043-.207.117-.024.041-.038.09-.043.146h-.18c.003-.126.041-.226.114-.303.073-.076.178-.12.315-.13v-.145h.098v.147c.139.001.246.047.323.138.077.09.114.191.114.304 0 .126-.036.224-.107.295zm1.653-1.651c0 .044.009.083.026.115.034.065.096.1.183.104v-.437c-.064.019-.11.038-.138.06-.047.036-.071.089-.071.158zm.283-.78v.391c.058-.012.104-.034.138-.065.034-.031.051-.074.051-.129 0-.045-.015-.089-.044-.131-.029-.042-.077-.063-.145-.066zm-.036 1.481c.491 0 .89-.428.89-.957 0-.529-.399-.957-.89-.957-.49 0-.889.428-.889.957 0 .528.398.957.889.957zm.284-1.053c-.053.053-.136.091-.249.114v.454c.088-.008.148-.043.18-.106.018-.035.029-.091.033-.167h.138c0 .096-.015.172-.045.228-.053.104-.155.161-.305.171v.162h-.073v-.162c-.094-.011-.165-.034-.215-.068-.089-.062-.133-.167-.133-.315 0-.102.035-.179.104-.231.043-.032.124-.066.244-.102v-.405c-.071.003-.123.032-.156.088-.017.031-.028.067-.031.109h-.136c.003-.094.031-.169.086-.227.055-.057.134-.089.237-.097v-.109h.073v.11c.103.001.184.036.242.103.057.068.086.144.086.228 0 .095-.027.169-.08.222zm.325 4.609c.299.02.596.08.882.18.294-.3.478-.723.478-1.194 0-.911-.687-1.649-1.533-1.649-.846 0-1.534.738-1.534 1.649 0 .457.173.869.452 1.169.294-.096.6-.149.907-.161-.105-.021-.196-.051-.259-.094-.154-.108-.231-.288-.231-.543 0-.176.06-.309.18-.399.075-.054.214-.112.42-.174v-.699c-.123.004-.212.055-.268.152-.03.053-.048.115-.055.188h-.233c.005-.162.054-.293.149-.392.095-.098.23-.154.407-.168v-.188h.127v.191c.179.002.318.062.417.178.099.117.149.248.149.393 0 .163-.046.29-.139.382-.092.092-.234.157-.427.196v.783c.151-.014.254-.074.309-.183.031-.06.051-.156.058-.287h.236c0 .165-.025.295-.076.392-.079.151-.22.241-.416.278zm.125-1.355c.059-.054.089-.128.089-.222 0-.079-.025-.154-.075-.226-.05-.071-.134-.109-.251-.114v.674c.099-.021.179-.058.237-.112zm-.601.511c-.081.062-.122.152-.122.272 0 .076.015.142.046.2.057.112.162.171.314.179v-.754c-.112.032-.19.066-.238.103z" clip-rule="evenodd"/>
        <path fill="#fff" fill-rule="evenodd" d="M125.642 162.047c-.03.521-.013.911.174 1.121.967 1.083 2.396 1.474 2.675 1.53.081.331.038.667-.003.989l-.002.023h1.155c.136-.18.25-.384.363-.588l.049-.087c.844.074 1.686.023 2.395-.15.026.298-.004.57-.035.825h1.166c.356-.495.485-1.234.569-2.02.578-.523.537-1.95.105-2.614.518-.138.223-1.214-.313-.822.329-.089.358.465.104.486-.39-.438-.891-.742-1.436-.936l-.004.004-.348.504c-.79-.3-1.663-.304-2.458-.009l-.267-.511c-.43.154-.795.374-1.042.649-.274-.339-.706-.71-1.214-.672.209.186.257.544.277.933-.571.283-.971.749-1.25 1.345-.059.012-.173.008-.3.003-.121-.005-.253-.01-.36-.003zm1.481-.238c0-.17.128-.308.287-.308.158 0 .287.138.287.308 0 .17-.129.309-.287.309-.159 0-.287-.138-.287-.309z" clip-rule="evenodd"/>
        <path fill="#828EB7" d="M0 0H5.595V27.383H0z" opacity=".228" transform="matrix(-1 0 0 1 145.454 149.183)"/>
    </g>
    <path fill="#092965" fill-rule="evenodd" d="M134.812 148.1h-19.233v18.593h19.225c.681 0 1.232-.551 1.232-1.232v-.92l-1.224-16.441z" clip-rule="evenodd"/>
    <path fill="#fff" d="M136.036 164.496c0-.84-.681-1.521-1.521-1.521h-18.062v3.042h18.062c.84 0 1.521-.681 1.521-1.521z"/>
    <mask id="prefix__p" width="21" height="5" x="116" y="162" maskUnits="userSpaceOnUse">
        <path fill="#fff" d="M136.036 164.496c0-.84-.681-1.521-1.521-1.521h-18.062v3.042h18.062c.84 0 1.521-.681 1.521-1.521z"/>
    </mask>
    <g mask="url(#prefix__p)">
        <path stroke="#D8D8D8" stroke-linecap="round" stroke-width=".5" d="M116.165 164.496h18.533M126.656 165.172h8.042M116.514 165.172h8.042"/>
    </g>
    <path fill="url(#prefix__paint42_linear)" fill-rule="evenodd" d="M115.579 145.395v18.594h18.96c.827 0 1.497.67 1.497 1.497v-18.243c0-1.02-.827-1.848-1.847-1.848h-18.61z" clip-rule="evenodd"/>
    <mask id="prefix__q" width="22" height="21" x="115" y="145" maskUnits="userSpaceOnUse">
        <path fill="#fff" fill-rule="evenodd" d="M115.579 145.395v18.594h18.96c.827 0 1.497.67 1.497 1.497v-18.243c0-1.02-.827-1.848-1.847-1.848h-18.61z" clip-rule="evenodd"/>
    </mask>
    <g mask="url(#prefix__q)">
        <path fill="#FDB62F" d="M121.633 157.38c-.87 0-1.575-.697-1.575-1.558 0-.86.705-1.558 1.575-1.558s1.575.698 1.575 1.558c0 .861-.705 1.558-1.575 1.558z"/>
        <path fill="#6B962A" d="M0 0H0.45V4.229H0z" transform="matrix(-1 0 0 1 125.909 149.59)"/>
        <path fill="#88B337" d="M125.684 149.59h.45c.87 0 1.575-.698 1.575-1.558h-.45c-.87 0-1.575.697-1.575 1.558z"/>
        <path fill="#FFA83D" d="M0 0H3.151V0.89H0z" transform="matrix(-1 0 0 1 127.709 154.709)"/>
        <path fill="#FDB62F" d="M0 0H3.151V0.89H0z" transform="matrix(-1 0 0 1 127.259 155.6)"/>
        <path fill="#FFA83D" d="M0 0H3.151V0.89H0z" transform="matrix(-1 0 0 1 127.709 156.49)"/>
        <path fill="#FDB62F" d="M0 0H3.151V0.89H0z" transform="matrix(-1 0 0 1 127.259 157.38)"/>
        <path fill="#FFA83D" d="M0 0H3.151V0.89H0z" transform="matrix(-1 0 0 1 127.259 158.271)"/>
        <path fill="#FDB62F" d="M0 0H3.151V0.89H0z" transform="matrix(-1 0 0 1 126.809 159.161)"/>
        <path fill="#FFA83D" d="M0 0H3.151V0.89H0z" transform="matrix(-1 0 0 1 127.259 160.052)"/>
        <path fill="#88B337" d="M128.385 150.258h-.451c-1.243 0-2.25.996-2.25 2.225h.45c1.243 0 2.251-.996 2.251-2.225z"/>
        <path fill="#6B962A" d="M123.658 148.032h.45c.871 0 1.576.697 1.576 1.558h-.45c-.87 0-1.576-.698-1.576-1.558zM125.234 152.484h.45c0-1.23-1.008-2.226-2.251-2.226h-.45c0 1.229 1.008 2.226 2.251 2.226z"/>
        <path fill="#FDB62F" d="M0 0H3.151V0.89H0z" transform="matrix(-1 0 0 1 131.76 156.49)"/>
        <path fill="#FFA83D" d="M0 0H3.151V0.89H0z" transform="matrix(-1 0 0 1 131.76 157.38)"/>
        <path fill="#FDB62F" d="M0 0H3.151V0.89H0z" transform="matrix(-1 0 0 1 131.31 158.271)"/>
        <path fill="#FFA83D" d="M0 0H3.151V0.89H0z" transform="matrix(-1 0 0 1 131.76 159.161)"/>
        <path fill="#FDB62F" d="M0 0H3.151V0.89H0z" transform="matrix(-1 0 0 1 131.31 160.052)"/>
        <path fill="#FDB62F" d="M0 0H3.151V0.89H0z" transform="matrix(-1 0 0 1 123.208 157.381)"/>
        <path fill="#FFA83D" d="M0 0H3.151V0.89H0z" transform="matrix(-1 0 0 1 122.758 158.271)"/>
        <path fill="#FDB62F" d="M0 0H3.151V0.89H0z" transform="matrix(-1 0 0 1 122.758 159.161)"/>
        <path fill="#FFA83D" d="M0 0H3.151V0.89H0z" transform="matrix(-1 0 0 1 122.758 160.052)"/>
        <path fill="#FFA83D" d="M121.633 156.713c-.497 0-.9-.399-.9-.891 0-.491.403-.89.9-.89s.9.399.9.89c0 .492-.403.891-.9.891z"/>
        <path fill="#FD7B2F" d="M121.633 156.713v-.446c-.249 0-.45-.199-.45-.445h-.45c0 .492.403.891.9.891zM122.083 155.822h.45c0-.491-.403-.89-.9-.89v.445c.249 0 .45.199.45.445z"/>
        <path fill="#FDB62F" d="M121.183 150.258c.076-.457.438-.815.9-.891-.462-.076-.824-.433-.9-.89-.077.457-.439.814-.9.89.461.076.823.434.9.891zM130.185 155.154c.077-.456.438-.814.9-.89-.462-.076-.823-.433-.9-.89-.076.457-.438.814-.9.89.462.076.823.434.9.89z"/>
        <path fill="#FDB62F" d="M0 0H3.151V0.89H0z" transform="matrix(-1 0 0 1 127.259 153.819)"/>
        <path fill="#FDB62F" d="M118.932 153.151h.676v-.668h.45v.668h.675v.445h-.675v.668h-.45v-.668h-.676v-.445z"/>
        <path fill="#fff" d="M0 0H13.503V0.445H0z" transform="matrix(-1 0 0 1 132.435 160.719)"/>
        <path fill="#fff" d="M127.934 153.151c.746 0 1.351-.598 1.351-1.335v-.223h-.45v.223c0 .491-.404.89-.901.89v.445z"/>
        <path fill="#828EB7" d="M0 0H5.595V27.383H0z" opacity=".228" transform="matrix(-1 0 0 1 140.583 143.705)"/>
    </g>
    <path fill="url(#prefix__paint43_linear)" fill-rule="evenodd" d="M106.878 184.207c.598-.347.966-.986.966-1.677l-24.912-13.398-34.397 18.81c0 .691.368 1.331.965 1.679l23.215 13.525c.453.265 1.013.265 1.467.002l32.696-18.941z" clip-rule="evenodd"/>
    <path fill="url(#prefix__paint44_linear)" fill-rule="evenodd" d="M107.844 182.53l-24.912-14.515-34.397 19.927 24.913 14.515 34.396-19.927z" clip-rule="evenodd"/>
    <mask id="prefix__r" width="60" height="35" x="48" y="168" maskUnits="userSpaceOnUse">
        <path fill="#fff" fill-rule="evenodd" d="M107.844 182.53l-24.912-14.515-34.397 19.927 24.913 14.515 34.396-19.927z" clip-rule="evenodd"/>
    </mask>
    <g fill-rule="evenodd" clip-rule="evenodd" mask="url(#prefix__r)">
        <path fill="url(#prefix__paint45_linear)" d="M105.078 182.865l-15.67-9.267-29.745 17.469c-.473.278-.475.961-.002 1.241l14.617 8.645 30.8-18.088z"/>
        <path fill="url(#prefix__paint46_linear)" d="M76.35 179.981c.476-.277.477-.966 0-1.244l-3.887-2.271c-.672-.393-1.502-.394-2.175-.003l-6.184 3.592c-.478.277-.478.966-.002 1.244l3.888 2.271c.671.393 1.502.394 2.174.003l6.185-3.592z"/>
        <path fill="#fff" d="M117.626 155.077c.243-.635-.45-1.221-1.036-.878l-32.1 18.81c-.28.164-.497.419-.615.723l-10.98 28.39.553.335 33.843-20.262 10.335-27.118z"/>
        <path fill="url(#prefix__paint47_linear)" d="M118.179 155.412c.243-.635-.45-1.221-1.036-.878l-32.1 18.81c-.28.164-.497.419-.615.723l-10.98 28.39 34.396-19.927 10.335-27.118z"/>
        <path fill="#F2F6FD" d="M98.255 175.273s.738.067.738 1.503c0 1.435-1.54 1.218-2.062 1.601-.523.382.292 2.352-1.332 0-1.624-2.353 2.656-3.104 2.656-3.104z"/>
        <path fill="#AAC4FF" d="M80.495 181.262s-1.175-2.485-1.97-3.167c-.796-.682-6.64-4.443-6.64-4.443l5.472-4.083 9.158 8.495-6.02 3.198z" opacity=".5"/>
    </g>
    <path fill="url(#prefix__paint48_linear)" fill-rule="evenodd" d="M75.265 175.747s1.72 1.056 2.276 2.221c.13.273.277 1.854.64 2.933.262.774 1.125 2.378 1.125 2.378s.746-.171.902-.929c.155-.757-.084-1.311-.163-1.449-.357-.624-.282-1.8-.282-1.8s3.929 1.893 5 4.112c.48.992 1.495 2.628 2.372 2.258.213-.09.023-.468-.272-1.242-.169-.445-.612-1.735-.612-1.735s1.75 2.977 2.574 2.468c.235-.145-.255-.7-.625-1.683-.19-.506-.564-1.813-.564-1.813s1.766 2.298 2.432 2.002c.302-.134 0-.531-.281-.974-.338-.534-1.335-2.535-1.787-3.305 0 0 2.482 2.277 2.871 1.29.146-.369-1.49-1.525-2.211-2.511-1.478-2.017-4.58-2.968-6.396-3.789-1.263-.994-3.612-2.541-3.612-2.541l-3.387 4.109z" clip-rule="evenodd"/>
    <mask id="prefix__s" width="16" height="15" x="75" y="171" maskUnits="userSpaceOnUse">
        <path fill="#fff" fill-rule="evenodd" d="M75.265 175.747s1.72 1.056 2.276 2.221c.13.273.277 1.854.64 2.933.262.774 1.125 2.378 1.125 2.378s.746-.171.902-.929c.155-.757-.084-1.311-.163-1.449-.357-.624-.282-1.8-.282-1.8s3.929 1.893 5 4.112c.48.992 1.495 2.628 2.372 2.258.213-.09.023-.468-.272-1.242-.169-.445-.612-1.735-.612-1.735s1.75 2.977 2.574 2.468c.235-.145-.255-.7-.625-1.683-.19-.506-.564-1.813-.564-1.813s1.766 2.298 2.432 2.002c.302-.134 0-.531-.281-.974-.338-.534-1.335-2.535-1.787-3.305 0 0 2.482 2.277 2.871 1.29.146-.369-1.49-1.525-2.211-2.511-1.478-2.017-4.58-2.968-6.396-3.789-1.263-.994-3.612-2.541-3.612-2.541l-3.387 4.109z" clip-rule="evenodd"/>
    </mask>
    <g fill-rule="evenodd" clip-rule="evenodd" mask="url(#prefix__s)">
        <path fill="#DB8686" d="M87.273 184.335s-2.39-4.174-2.729-4.577c-.338-.403-1.957-1.124-1.957-1.124s1.873.546 2.235.979c.205.245.77 1.287 1.39 2.197.476.699 1.06 2.525 1.06 2.525zM87.646 181.488c-.2-.513-1.05-2.258-1.376-2.601-.325-.342-1.993-1.281-1.993-1.281s1.905.891 2.234 1.242c.33.351 2.387 4.093 2.387 4.093s-1.05-.94-1.252-1.453zM88.012 179.199c-.368-.654-.932-1.396-1.395-1.814-.464-.419-1.134-.706-1.134-.706s1.319.501 1.69.824c.37.323 2.614 3.329 2.614 3.329s-1.407-.98-1.775-1.633z"/>
        <path fill="url(#prefix__paint49_linear)" d="M76.985 177.289s.831-2.801 2.222-3.572c1.392-.771 2.327-.311 2.327-.311l-2.84-1.777-4.487 4.772 2.778.888z"/>
    </g>
    <path fill="#586DFF" fill-rule="evenodd" d="M40.94 128.669c2.181.355 20.774 28.543 20.774 28.543l19.637 15.996s.023.097-.021.264c-.105-.064-.455-.337-.516-.343-.999-.088-1.868.274-2.718 1.083-.817.779-1.318 1.536-1.544 2.413-.026.102.127.187.28.356-.006.035-.411.2-.411.2s-17.91-11.343-20.695-13.335c-2.783-1.993-15.867-24.649-17.75-29.252-1.882-4.603.781-6.28 2.963-5.925z" clip-rule="evenodd"/>
    <mask id="prefix__t" width="45" height="50" x="37" y="128" maskUnits="userSpaceOnUse">
        <path fill="#fff" fill-rule="evenodd" d="M40.94 128.669c2.181.355 20.774 28.543 20.774 28.543l19.637 15.996s.023.097-.021.264c-.105-.064-.455-.337-.516-.343-.999-.088-1.868.274-2.718 1.083-.817.779-1.318 1.536-1.544 2.413-.026.102.127.187.28.356-.006.035-.411.2-.411.2s-17.91-11.343-20.695-13.335c-2.783-1.993-15.867-24.649-17.75-29.252-1.882-4.603.781-6.28 2.963-5.925z" clip-rule="evenodd"/>
    </mask>
    <g mask="url(#prefix__t)">
        <path fill="#453EC4" fill-rule="evenodd" d="M47.536 162.653s5.837 1.978 5.667 1.469c-1.715-5.126-2.98-11.954-4.542-17.115-2.636-8.71-6.638-13.831-6.995-16.738-.357-2.908-6.88 3.782-6.88 3.782l12.75 28.602z" clip-rule="evenodd"/>
    </g>
    <path fill="url(#prefix__paint50_linear)" fill-rule="evenodd" d="M23.353 131.093c-4.31 3.882-10.587 11.51-11.735 13.995-1.148 2.485 2.728 11.816 6.04 15.882 3.31 4.066 3.814 17.884 3.186 21.597-.17 1.011 5.898 1.79 10.893 2.141 3.3.232 8.343-.15 10.853-1.509.394-1.003.421-1.399.233-2.292.432.968.751.968 1.111 1.167 2.5-2.206 4.632-5.167 4.259-5.665-2.342-3.125-2.342-7.031-1.808-10.897.533-3.865.215-9.75.215-9.75s-1.303-14.936-2.624-18.287c-1.322-3.35-1.272-8.145-3.098-8.847-1.826-.701-13.216-1.417-17.525 2.465z" clip-rule="evenodd"/>
    <mask id="prefix__u" width="38" height="57" x="11" y="128" maskUnits="userSpaceOnUse">
        <path fill="#fff" fill-rule="evenodd" d="M23.353 131.093c-4.31 3.882-10.587 11.51-11.735 13.995-1.148 2.485 2.728 11.816 6.04 15.882 3.31 4.066 3.814 17.884 3.186 21.597-.17 1.011 5.898 1.79 10.893 2.141 3.3.232 8.343-.15 10.853-1.509.394-1.003.421-1.399.233-2.292.432.968.751.968 1.111 1.167 2.5-2.206 4.632-5.167 4.259-5.665-2.342-3.125-2.342-7.031-1.808-10.897.533-3.865.215-9.75.215-9.75s-1.303-14.936-2.624-18.287c-1.322-3.35-1.272-8.145-3.098-8.847-1.826-.701-13.216-1.417-17.525 2.465z" clip-rule="evenodd"/>
    </mask>
    <g mask="url(#prefix__u)">
        <path fill="url(#prefix__paint51_linear)" fill-rule="evenodd" d="M36.707 147.88c.378 1.702 3.041 4.943 3.357 8.014.107 1.04-.23 3.417 0 6.298.448 5.632 1.311 13.178 1.938 16.353.946 4.798.585 6.094.585 6.094l11.34-9.44-9.54-51.205-16.06 1.606s6.53 12.989 7.204 16.103c.673 3.115 1.057 5.641 1.176 6.177z" clip-rule="evenodd"/>
        <path fill="url(#prefix__paint52_linear)" fill-rule="evenodd" d="M36.958 147.771c.378 1.703 2.79 5.052 3.106 8.123.315 3.072 1.276 17.852 2.223 22.651.947 4.798 2.1 5.514 2.1 5.514l9.54-8.86-9.54-51.205-16.06 1.606s5.762 12.386 7.204 16.103c1.288 3.32 1.308 5.533 1.427 6.068z" clip-rule="evenodd"/>
        <path fill="url(#prefix__paint53_linear)" fill-opacity=".2" fill-rule="evenodd" d="M16.254 147.261s2.632 2.305 4.376 6.253c1.743 3.948 1.28 10.422 6.396 11.057 5.116.634 22.061-10.389 22.061-10.389s1.075 7.196.416 8.264c-1.118 1.811-5.145 3.947-7.729 3.743-3.38 2.561-6.507 4.486-9.68 7.745-.193.199-.138.832-.334 1.029-2.39 2.405-13.218 11.248-13.218 11.248L4.072 158.94l12.182-11.679z" clip-rule="evenodd"/>
        <path fill="url(#prefix__paint54_linear)" fill-rule="evenodd" d="M20.077 131.703c-2.566 2.352 2.435 7.423 7.272 7.701 2.6.15 7.41 3.463 9.354 6.688-.638-1.388-.877-10.261-1.202-13.02-.703-5.967-9.855-7.094-9.855-7.094s-3.003 3.373-5.57 5.725z" clip-rule="evenodd"/>
        <path fill="url(#prefix__paint55_linear)" fill-rule="evenodd" d="M20.077 131.703c-2.567 2.352 2.435 7.423 7.272 7.701 2.6.15 6.632 1.959 8.576 5.185-.639-1.389-.41-8.09-.735-10.849-.703-5.967-9.544-7.762-9.544-7.762s-3.003 3.373-5.57 5.725z" clip-rule="evenodd"/>
        <mask id="prefix__v" width="17" height="20" x="19" y="125" maskUnits="userSpaceOnUse">
            <path fill="#fff" fill-rule="evenodd" d="M20.077 131.703c-2.567 2.352 2.435 7.423 7.272 7.701 2.6.15 6.632 1.959 8.576 5.185-.639-1.389-.41-8.09-.735-10.849-.703-5.967-9.544-7.762-9.544-7.762s-3.003 3.373-5.57 5.725z" clip-rule="evenodd"/>
        </mask>
    </g>
    <path fill="#586DFF" fill-rule="evenodd" d="M22.716 131.36c-.528 1.803 6.23 11.32 10.704 17.615 4.475 6.294 5.953 10.424 6.81 19.038.388 3.887.266 12.629-.833 18.058-.544 2.686-7.768 12.224-7.768 12.224s-12.067-3.706-12.54-7.651c2.295-2.687 1.825-8.763 1.747-13.843-.078-5.079-2.268-15.299-7.77-22.957-3.098-7.749-2.321-8.085-2.321-8.085s2.666-5.983 11.971-14.399z" clip-rule="evenodd"/>
    <mask id="prefix__w" width="31" height="68" x="10" y="131" maskUnits="userSpaceOnUse">
        <path fill="#fff" fill-rule="evenodd" d="M22.716 131.36c-.528 1.803 6.23 11.32 10.704 17.615 4.475 6.294 5.953 10.424 6.81 19.038.388 3.887.266 12.629-.833 18.058-.544 2.686-7.768 12.224-7.768 12.224s-11.681-3.706-12.154-7.651c2.294-2.687 1.44-8.763 1.361-13.843-.078-5.079-2.268-15.299-7.77-22.957-3.098-7.749-2.321-8.085-2.321-8.085s2.666-5.983 11.971-14.399z" clip-rule="evenodd"/>
    </mask>
    <g fill-rule="evenodd" clip-rule="evenodd" mask="url(#prefix__w)">
        <path fill="#453EC4" d="M15.31 145.153s4.039 4.83 4.892 10.591c.854 5.761.929 6.346 1.437 11.486 5.453.178 14.212-5.607 17.027-7.034 2.814-1.428 10.42-6.014 10.42-6.014s-1.116-.497-8.11 9.669c-2.582 3.754-9.02 10.915-9.216 11.112-2.39 2.405-13.218 11.248-13.218 11.248L4.072 158.94l11.237-13.787z"/>
        <path fill="#453EC4" d="M40.38 165.363s-3.9-11.499-15.365-19.298c1.498-1.562 1.407-3.39 1.407-3.39l-3.706.713.36-14.889 14.737 20.703 2.566 16.161z"/>
        <path fill="#586DFF" d="M40.38 165.363s-4.455-12.611-15.92-20.409c1.497-1.562 1.962-2.279 1.962-2.279l-3.831.819.484-14.995 14.738 20.703 2.566 16.161z"/>
    </g>
    <path fill="#FCCBCB" fill-rule="evenodd" d="M23.762 122.367s.58 4.505.273 7.206c-.306 2.7-.568 4.034-.568 4.034s2.564 4.366 6.658 5.099c4.094.733 4.285-2.887 4.285-2.887l-.616-8.603-10.032-4.849z" clip-rule="evenodd"/>
    <mask id="prefix__x" width="12" height="17" x="23" y="122" maskUnits="userSpaceOnUse">
        <path fill="#fff" fill-rule="evenodd" d="M23.762 122.367s.58 4.505.273 7.206c-.306 2.7-.568 4.034-.568 4.034s2.564 4.366 6.658 5.099c4.094.733 4.285-2.887 4.285-2.887l-.616-8.603-10.032-4.849z" clip-rule="evenodd"/>
    </mask>
    <g mask="url(#prefix__x)">
        <path fill="url(#prefix__paint56_linear)" fill-rule="evenodd" d="M35.325 134.641s-4.991-.759-7.552-2.926c-2.562-2.167-2.93-7.182-2.93-7.182l8.985.559 1.497 9.549z" clip-rule="evenodd"/>
    </g>
    <path fill="#586DFF" fill-rule="evenodd" d="M34.005 128.653c1.875 2.526 3.188 4.358 5.603 13.027 2.494 8.951 1.983 16.403 1.983 23.135 0 6.731 1.72 14.348 3.462 16.424 1.741 2.076 10.072 1.884 10.072 1.884s-7.033-6.699-7.384-12.969c-.35-6.271 1.308-16.096.234-21.932-1.074-5.837-2.61-6.318-4.361-13.116-1.045-4.052-.886-5.576-2.683-6.465-1.775-.878-2.779-1.375-6.962-.275-.049.013-.025.205.035.287z" clip-rule="evenodd"/>
    <mask id="prefix__y" width="23" height="57" x="33" y="127" maskUnits="userSpaceOnUse">
        <path fill="#fff" fill-rule="evenodd" d="M34.005 128.653c1.875 2.526 3.188 4.358 5.603 13.027 2.494 8.951 1.983 16.403 1.983 23.135 0 6.731 1.72 14.348 3.462 16.424 1.741 2.076 10.072 1.884 10.072 1.884s-7.033-6.699-7.384-12.969c-.35-6.271 1.308-16.096.234-21.932-1.074-5.837-2.61-6.318-4.361-13.116-1.045-4.052-.886-5.576-2.683-6.465-1.775-.878-2.779-1.375-6.962-.275-.049.013-.025.205.035.287z" clip-rule="evenodd"/>
    </mask>
    <g fill-rule="evenodd" clip-rule="evenodd" mask="url(#prefix__y)">
        <path fill="#453EC4" d="M41.591 163.81s1.95-17.371 1.385-23.826c-1.685-.634-3.368-1.687-3.368-1.687l2.241-1.49s-6.437-7.482-8.733-8.932c-2.296-1.449-10.4 1.498-10.4 1.498l18.875 34.437z"/>
        <path fill="#586DFF" d="M41.59 163.81s1.695-18.474 1.13-24.929c-1.787-.419-3.112-.584-3.112-.584l3.112-1.843s-7.308-7.129-9.604-8.579c-2.296-1.449-10.4 1.498-10.4 1.498L41.59 163.81z"/>
    </g>
    <path fill="#FCCBCB" d="M42.592 159.435c-3.082 2.09-16.876 8.733-24.196 12.329l1.464 7.321 21.191-13.1c.257.257 3.16-.077 5.009-.385.49-.082 1.541-.386 1.83-1.314.29-.929.934-1.005 1.252-1.384.68-.806 0-1.155.386-1.926.385-.771.724-1.362.385-1.926 1.742-.402 3.879-.758 5.009-1.156 2.12-.747 2.278-1.793.77-1.542-2.311.386-8.553 0-13.1 3.083z"/>
    <path fill="url(#prefix__paint57_linear)" fill-rule="evenodd" d="M26.125 186.741l-4.425-2.654.352 20.141c.013.755.415 1.45 1.063 1.839 1.473.884 3.344-.198 3.314-1.916l-.304-17.41z" clip-rule="evenodd"/>
    <path fill="url(#prefix__paint58_linear)" fill-rule="evenodd" d="M25.04 187.307l-4.424-2.655.351 20.141c.013.755.415 1.45 1.063 1.839 1.473.884 3.345-.197 3.314-1.916l-.303-17.409z" clip-rule="evenodd"/>
    <path fill="url(#prefix__paint59_linear)" fill-rule="evenodd" d="M25.04 187.307l-4.424-2.655.18 10.277 4.424 2.654-.18-10.276z" clip-rule="evenodd" opacity=".1"/>
    <path fill="url(#prefix__paint60_linear)" fill-rule="evenodd" d="M38.483 193.841c2.103 1.26 2.07 4.319-.06 5.534-.992.565-2.21.56-3.197-.013l-22.62-13.137c-2.288-1.329-2.233-4.652.097-5.904 1.049-.563 2.317-.534 3.338.078l22.442 13.442z" clip-rule="evenodd"/>
    <path fill="url(#prefix__paint61_linear)" fill-rule="evenodd" d="M38.512 192.179c2.103 1.26 2.07 4.32-.06 5.534-.992.565-2.21.56-3.197-.013l-22.62-13.137c-2.288-1.329-2.233-4.651.097-5.903 1.049-.564 2.317-.534 3.338.077l22.442 13.442z" clip-rule="evenodd"/>
    <path fill="url(#prefix__paint62_linear)" fill-rule="evenodd" d="M38.445 191.656c2.103 1.26 2.07 4.32-.06 5.534-.992.565-2.21.56-3.197-.013l-22.62-13.137c-2.288-1.329-2.233-4.651.097-5.903 1.049-.564 2.317-.534 3.338.078l22.442 13.441z" clip-rule="evenodd"/>
    <path fill="url(#prefix__paint63_linear)" fill-rule="evenodd" d="M38.435 191.11c2.104 1.26 2.07 4.32-.06 5.534-.992.565-2.21.56-3.196-.013l-22.621-13.137c-2.288-1.329-2.233-4.651.098-5.903 1.048-.564 2.316-.534 3.338.077l22.441 13.442z" clip-rule="evenodd"/>
    <path fill="#586DFF" fill-rule="evenodd" d="M15.348 144.138c-2.396-1.174-3.865-.607-5.17 2.764-1.306 3.372-1.653 26.559-1.208 30.178.444 3.62 3.84 5.886 8.564 4.67 4.66-1.2 19.692-12.867 19.667-13.067-1.349 0-2.078-.579-2.743-1.649-.648-1.041-.648-2.084.266-3.258-.213-.138-.648.146-.844.226-2.071.843-15.589 7.137-15.589 7.137s1.07-18.396.746-21.033c-.323-2.636-1.294-4.793-3.69-5.968z" clip-rule="evenodd"/>
    <path fill="#586DFF" fill-rule="evenodd" d="M15.348 144.138c-2.396-1.174-3.865-.607-5.17 2.764-1.306 3.372-1.653 26.559-1.208 30.178.444 3.62 3.84 5.886 8.564 4.67 4.66-1.2 19.692-12.867 19.667-13.067-1.349 0-2.078-.579-2.743-1.649-.648-1.041-.648-2.084.266-3.258-.213-.138-.648.146-.844.226-2.071.843-15.589 7.137-15.589 7.137s1.07-18.396.746-21.033c-.323-2.636-1.294-4.793-3.69-5.968z" clip-rule="evenodd"/>
    <path fill="#453EC4" fill-rule="evenodd" d="M18.265 171.153c-.781.451-3.325 1.929-3.325 1.929s1.905-3.949 3.52-5.067l-.195 3.138z" clip-rule="evenodd"/>
    <path fill="url(#prefix__paint64_linear)" fill-rule="evenodd" d="M23.902 129.743s1.835 6.476 6.171 9.221c4.337 2.744 6.044 5.757 6.609 7.299-2.988-3.805-6.062-5.337-6.062-5.337h-1.544s-1.176 1.524-2.756 2.327c-1.58.803-4.926 1.562-4.926 1.562s1.743-4.106 1.037-9.319c-.706-5.212 1.47-5.753 1.47-5.753z" clip-rule="evenodd"/>
    <mask id="prefix__z" width="16" height="18" x="21" y="129" maskUnits="userSpaceOnUse">
        <path fill="#fff" fill-rule="evenodd" d="M23.902 129.743s1.835 6.476 6.171 9.221c4.337 2.744 6.044 5.757 6.609 7.299-2.988-3.805-6.062-5.337-6.062-5.337h-1.544s-1.176 1.524-2.756 2.327c-1.58.803-4.926 1.562-4.926 1.562s1.743-4.106 1.037-9.319c-.706-5.212 1.47-5.753 1.47-5.753z" clip-rule="evenodd"/>
    </mask>
    <g mask="url(#prefix__z)">
        <path fill="url(#prefix__paint65_linear)" fill-rule="evenodd" d="M23.765 128.751s1.972 7.468 6.308 10.213c4.337 2.744 6.044 5.757 6.609 7.299-2.988-3.805-6.062-5.337-6.062-5.337h-1.544s-1.993-1.745-3.258-3.645c-1.266-1.9-2.053-8.53-2.053-8.53z" clip-rule="evenodd"/>
    </g>
    <path fill="url(#prefix__paint66_linear)" fill-rule="evenodd" d="M36.72 147.197s-.207-.773-.617-2.096c-.56-1.805-.28-4.269-.28-6.494 0-3.188-1.116-6.071-1.865-8.675-.133-.461-.092-1.382-.092-1.726.996-.179 3.82 3.371 5.128 4.556 1.308 1.186 4.668 3.906 4.668 3.906s-2.04 1.139-3.533 1.539c-1.494.4-1.917.4-1.917.4l-.815.986s-.451.748-.638 1.971c-.186 1.223-.04 5.633-.04 5.633z" clip-rule="evenodd"/>
    <mask id="prefix__A" width="11" height="20" x="33" y="128" maskUnits="userSpaceOnUse">
        <path fill="#fff" fill-rule="evenodd" d="M36.72 147.197s-.207-.773-.617-2.096c-.56-1.805-.28-4.269-.28-6.494 0-3.188-1.116-6.071-1.865-8.675-.133-.461-.092-1.382-.092-1.726.996-.179 3.82 3.371 5.128 4.556 1.308 1.186 4.668 3.906 4.668 3.906s-2.04 1.139-3.533 1.539c-1.494.4-1.917.4-1.917.4l-.815.986s-.451.748-.638 1.971c-.186 1.223-.04 5.633-.04 5.633z" clip-rule="evenodd"/>
    </mask>
    <path fill="#031120" fill-rule="evenodd" d="M40.19 104.781s2.042 3.01 1.332 7.092c-.232 1.332-.835 3.008-1.529 4.857-.697 1.859.006 7.863.541 12.006-2.634-1.231-5.154-3.099-9.564-6.364-.943-.699 4.93-12.431 4.93-12.431l4.29-5.16z" clip-rule="evenodd"/>
    <path fill="#FCCBCB" fill-rule="evenodd" d="M40.072 109.058s.666 4.473.667 6.333c.002 4.176-.17 7.086-.516 8.731-.71 3.377-1.902 5.702-3.996 5.61-2.094-.092-3.86-.269-3.86-.269-1.884-.189-4.144-1.761-6.217-3.912-2.073-2.15-4.414-8.804-4.414-8.804l1.928-13.92 16.408 6.231z" clip-rule="evenodd"/>
    <mask id="prefix__B" width="20" height="28" x="21" y="102" maskUnits="userSpaceOnUse">
        <path fill="#fff" fill-rule="evenodd" d="M40.072 109.058s.666 4.473.667 6.333c.002 4.176-.17 7.086-.516 8.731-.71 3.377-1.902 5.702-3.996 5.61-2.094-.092-3.86-.269-3.86-.269-1.884-.189-4.144-1.761-6.217-3.912-2.073-2.15-4.414-8.804-4.414-8.804l1.928-13.92 16.408 6.231z" clip-rule="evenodd"/>
    </mask>
    <g mask="url(#prefix__B)">
        <path fill="url(#prefix__paint67_linear)" fill-rule="evenodd" d="M39.715 122.587s.584.492.75 1.119c.167.627-.307.799-.226.91.08.111.766-.336.583-1.019-.183-.683-1.107-1.01-1.107-1.01z" clip-rule="evenodd"/>
    </g>
    <path fill="#30334F" fill-rule="evenodd" d="M41.44 107.131s-.157 4.709-3.395 7.152c-3.237 2.444-5.523 4.558-11.177 4.554 5.09-.431 10.489-4.946 11.515-8.547 1.026-3.6 3.056-3.159 3.056-3.159z" clip-rule="evenodd"/>
    <path fill="url(#prefix__paint68_linear)" fill-rule="evenodd" d="M28.037 117.015s-.708 1.663-.894 3.326c-.187 1.663-.49 2.344-.49 2.344l-.76.161s.154-3.398-.37-4.519c-.523-1.121-1.543-1.608-1.543-1.608l4.056.296z" clip-rule="evenodd" opacity=".5"/>
    <path fill="#30334F" fill-rule="evenodd" d="M41.58 107.632c-.163-4.858-4.661-6.193-10.321-6.588-2.715-.19-4.27-.187-5.473.076-.081.015-.163.031-.245.05-3.873.878-8.198 4.603-8.194 10.132.001 1.786-.192 4.11-.39 6.504-.417 5.015-.859 10.341.402 11.695 1.864 2.002 9.52 4.422 9.52 4.422s.27-4.882-.5-7.685c-.726-2.644-1.53-4.67-2.078-6.049-.63-1.588-.92-2.32-.36-2.151.048.014.114-.015.196-.077.087.01.174.029.258.058.924.317 1.479.259 1.85.219l.128-.012c1.672-.146 2.592-.652 4.208-1.541.795-.437 1.759-.967 3.063-1.592.45-.216.966-.43 1.511-.657 2.856-1.186 6.56-2.725 6.424-6.804z" clip-rule="evenodd"/>
    <mask id="prefix__C" width="26" height="34" x="16" y="100" maskUnits="userSpaceOnUse">
        <path fill="#fff" fill-rule="evenodd" d="M41.58 107.632c-.163-4.858-4.661-6.193-10.321-6.588-2.715-.19-4.27-.187-5.473.076-.081.015-.163.031-.245.05-3.873.878-8.198 4.603-8.194 10.132.001 1.786-.192 4.11-.39 6.504-.417 5.015-.859 10.341.402 11.695 1.864 2.002 9.52 4.422 9.52 4.422s.27-4.882-.5-7.685c-.726-2.644-1.53-4.67-2.078-6.049-.63-1.588-.92-2.32-.36-2.151.048.014.114-.015.196-.077.087.01.174.029.258.058.924.317 1.479.259 1.85.219l.128-.012c1.672-.146 2.592-.652 4.208-1.541.795-.437 1.759-.967 3.063-1.592.45-.216.966-.43 1.511-.657 2.856-1.186 6.56-2.725 6.424-6.804z" clip-rule="evenodd"/>
    </mask>
    <path fill="#FCCBCB" fill-rule="evenodd" d="M25.852 119.135s-.232-.798-1.378-1.236c-1.146-.438-2.143 1.352-1.334 3.107.43.936.774 2.077 1.338 2.538.336.275 1.07-.072 1.07-.072l.304-4.337z" clip-rule="evenodd"/>
    <path fill="url(#prefix__paint69_linear)" fill-rule="evenodd" d="M25.178 119.449s-.622-.623-1.105-.468c-.482.155-.732 1.207-.052 2.157.68.95 1.068 1.019 1.068 1.019l.09-2.708z" clip-rule="evenodd"/>
    <path fill="#031120" fill-rule="evenodd" d="M37.357 105.63s.767 3.521-3.664 4.755c-4.43 1.234-5.84 1.285-5.84 1.285s5.527-1.354 7.452-2.754c1.924-1.401 2.052-3.286 2.052-3.286z" clip-rule="evenodd"/>
    <path fill="#fff" fill-rule="evenodd" d="M117.645 155.349c.244-.635-.446-1.223-1.034-.881l-32.089 18.659c-.282.164-.5.418-.618.722l-10.977 28.162.553.332 33.837-20.102 10.328-26.892z" clip-rule="evenodd"/>
    <path fill="url(#prefix__paint70_linear)" fill-rule="evenodd" d="M118.198 155.681c.244-.635-.446-1.222-1.034-.881l-32.09 18.659c-.28.164-.499.418-.617.722L73.48 202.343l34.389-19.769 10.329-26.893z" clip-rule="evenodd"/>
    <path fill="url(#prefix__paint71_linear)" fill-rule="evenodd" d="M335.278 5.307c-4.068-2.357-9.162.579-9.162 5.28v154.409c0 6.435 3.378 12.397 8.898 15.705l155.219 93.022c4.068 2.438 9.241-.493 9.241-5.235V110.961c0-6.533-3.481-12.57-9.133-15.844L335.278 5.307z" clip-rule="evenodd"/>
    <path fill="#fff" fill-rule="evenodd" d="M481.083 143.098v8.302l-65.147-38.3v-8.232l65.147 38.23zM481.083 158.271v8.302l-65.147-38.3v-8.232l65.147 38.23zM481.083 173.444v8.303l-50.266-29.778v-8.232l50.266 29.707zM481.083 190.134v8.303l-65.147-38.301v-8.232l65.147 38.23zM481.083 205.307v8.303l-65.147-38.301v-8.231l65.147 38.229zM481.083 220.48v8.303l-50.266-29.777v-8.232l50.266 29.706zM407.666 163.48v8.303l-65.146-38.301v-8.232l65.146 38.23zM407.666 178.653v8.303l-65.146-38.301v-8.231l65.146 38.229zM407.666 193.826v8.303L357.4 172.352v-8.232l50.266 29.706z" clip-rule="evenodd"/>
    <path fill="url(#prefix__paint72_linear)" fill-rule="evenodd" d="M332.508 6.694c-4.069-2.357-9.162.58-9.162 5.281v154.408c0 6.435 3.378 12.397 8.897 15.705l155.219 93.022c4.068 2.438 9.241-.492 9.241-5.235V112.348c0-6.532-3.48-12.57-9.133-15.844L332.508 6.694z" clip-rule="evenodd"/>
    <path fill="#A1BCFF" fill-rule="evenodd" d="M385.877 55.892c0-2.77 2.997-4.502 5.397-3.119l34.077 19.638c5.576 3.213 9.012 9.16 9.012 15.595V143.5c0 2.765-2.986 4.498-5.386 3.126l-34.032-19.45c-5.608-3.205-9.068-9.169-9.068-15.628V55.892zM385.877 136.619c0-2.78 3.017-4.511 5.417-3.108l34.154 19.968c5.521 3.228 8.915 9.143 8.915 15.539v57.627c0 2.77-2.998 4.502-5.398 3.118l-34.082-19.658c-5.573-3.214-9.006-9.158-9.006-15.592v-57.894zM441.982 88.646c0-2.767 2.992-4.5 5.392-3.123l34.053 19.541c5.593 3.209 9.042 9.164 9.042 15.612v55.311c0 2.783-3.023 4.514-5.423 3.105l-34.176-20.063c-5.506-3.232-8.888-9.139-8.888-15.523v-54.86zM441.982 169.25c0-2.774 3.006-4.506 5.406-3.114l34.111 19.78c5.552 3.22 8.97 9.153 8.97 15.572v57.286c0 2.763-2.984 4.496-5.384 3.127l-34.02-19.401c-5.616-3.203-9.083-9.172-9.083-15.636V169.25zM329.078 23.182c0-2.77 2.996-4.502 5.396-3.12l34.07 19.61c5.581 3.212 9.021 9.161 9.021 15.6v55.467c0 2.764-2.986 4.497-5.386 3.126l-34.028-19.436c-5.61-3.204-9.073-9.17-9.073-15.63V23.182z" clip-rule="evenodd"/>
    <path fill="#30334F" fill-rule="evenodd" d="M324.106 341.752s-.569 1.512-.569 3.243c0 1.731 3.372 2.659 7.432 2.659 4.061 0 2.482-1.688 5.22-2.173 2.737-.486 2.386 1.209 6.382 1.209 3.996 0 9.48-.798 10.266-4.938.787-4.141-28.731 0-28.731 0z" clip-rule="evenodd"/>
    <path fill="#181E36" fill-rule="evenodd" d="M338.02 329.984s1.459 3.687 7.281 4.595c5.822.907 8.792 3.404 8.263 5.824-.53 2.419-3.439 5.282-9.894 4.648-6.454-.635-7.791-.025-11.078.288-3.287.314-7.153.32-8.765-2.308 0 0-.581-3.108 0-7.766.581-4.658 1.575-4.992 1.575-6.587 0-1.595 12.618 1.306 12.618 1.306z" clip-rule="evenodd"/>
    <path fill="#C47770" fill-rule="evenodd" d="M313.706 201.168s.948 2.029 1.7 2.742c.752.713-.115 1.676-.908 1.676-.792 0-.792-4.418-.792-4.418z" clip-rule="evenodd"/>
    <path fill-rule="evenodd" stroke="#30334F" stroke-width=".924" d="M315.316 202.959c1.125-.372 1.613-1.997 1.091-3.631-.522-1.633-1.856-2.656-2.98-2.284-1.124.371-1.613 1.996-1.091 3.63.522 1.633 1.856 2.656 2.98 2.285z" clip-rule="evenodd"/>
    <path fill="#181E36" fill-rule="evenodd" d="M259.261 337.904s2.412.845 3.008.772c.993-.122 1.621.32 2.48 0 2.059-.767 2.424-4.926 0-7.203-2.425-2.276.945-6.741.945-6.741s-.693-8.722-5.583-8.141c-4.891.58-5.456 3.442-5.456 3.442l4.606 17.871z" clip-rule="evenodd"/>
    <path fill="#30334F" fill-rule="evenodd" d="M265.313 338.523s.072.773-.785.928c-.893.161-3.636-.368-4.981-.928-1.413-.589-5.675-3.13-6.626-4.972-.95-1.843 0-6.267 0-6.267s-.731-9.991 4.278-9.283c5.01.708 2.348 11.424 2.348 15.941 0 4.517 5.766 4.581 5.766 4.581z" clip-rule="evenodd"/>
    <path fill="url(#prefix__paint73_linear)" fill-rule="evenodd" d="M285.167 263.143s-1.56 13.79 0 19.612c1.56 5.822 3.044 21.876 3.044 21.876l-30.055 12.317s3.349-.934 5.346 1.774c1.996 2.707.701 8.508.701 8.508s22.364-3.989 34.191-9.982c11.827-5.993 4.22-50.43 4.22-50.43l-17.447-3.675z" clip-rule="evenodd"/>
    <path fill="url(#prefix__paint74_linear)" fill-rule="evenodd" d="M313.695 265.182s29.79-.733 34.371 6.84c4.581 7.573-8.947 58.814-8.947 58.814s-9.692 3.11-14.039.025l5.411-45.397s-26.361 5.803-32.372-.296c-6.011-6.099-4.119-19.227-4.119-19.227l19.695-.759z" clip-rule="evenodd"/>
    <path fill="#092965" fill-rule="evenodd" d="M284.431 257.844s-.94.037-.94 2.383c0 2.345 2.572 5.271 5.132 6.991 2.559 1.721 10.134 3.656 22.008 2.501 5.967-1.169 6.731-6.473 6.731-6.473l-32.931-5.402z" clip-rule="evenodd"/>
    <path fill="#AC6A5A" fill-rule="evenodd" d="M281.437 199.209s-.816-7.806-.816-18.295 9.076-36.038 9.076-36.038l8.422-8.905s7.564-10.515 4.984 2.737c-.746 3.827-7.03 3.44-8.262 10.297-1.649 9.185-5.144 30.214-5.144 30.214l1.616 24.158-9.876-4.168z" clip-rule="evenodd"/>
    <rect width="3.669" height="1.244" x="309.786" y="196.269" fill="#30334F" rx=".622"/>
    <path fill="#AC6A5A" fill-rule="evenodd" d="M310.334 191.19s2.923 5.606 2.923 7.899c0 2.292 1.419 2.199 1.419 5.211 0 3.013.16 9.195-1.419 10.68-1.579 1.484-5.966.786-5.966.786s-.693 4.726 0 5.886c.693 1.16 1.809 1.831 1.809 1.831s-8.679-.57-11.128-1.831c-2.449-1.262-1.846-4.461-1.846-4.461s.897.118.897-.653v-5.937s-.905-13.11 2.192-16.681c3.096-3.57 11.119-2.73 11.119-2.73z" clip-rule="evenodd"/>
    <path fill="#80B1FF" fill-rule="evenodd" d="M364.112 116.84c3.226 1.879 4.455 5.929 2.818 9.285l-25.504 52.261c-2.253 4.617-7.933 6.377-12.402 3.843l-35.218-19.969c-3.329-1.888-4.574-6.068-2.819-9.469l26.864-52.063c2.339-4.532 7.997-6.18 12.403-3.613l33.858 19.725z" clip-rule="evenodd"/>
    <path fill="#AC6A5A" fill-rule="evenodd" d="M289.443 145.51s.683-1.955 1.207-2.586c1.588-1.914 3.806-2.538 6.281-2.538 4.936 0 4.604.987 3.468 1.484-1.137.497-2.617 0-4.378 1.401-1.761 1.402-6.578 2.239-6.578 2.239zM324.593 213.196l5.761-8.483s11.74-31.199 13.113-35.568c-.734-5.662-.433-6.904.5-9.399.933-2.494 2.182-4.898 2.988-3.786.806 1.113.395 2.062 0 4.222-.395 2.159.574 3.466.574 3.466l5.349-10.611s.725 3.685 0 5.871c1.46 1.445.47 3.828 0 5.595 1.073 1.657-2.601 5.312-3.593 12.469-.992 7.157-6.222 31.125-9.298 35.262-3.077 4.136-9.633 12.187-9.633 12.187l-5.761-11.225z" clip-rule="evenodd"/>
    <path fill="#586DFF" fill-rule="evenodd" d="M281.647 221.957l-1.701-22.618s6.214-3.413 11.212.596l3.816 17.407-13.327 4.615z" clip-rule="evenodd"/>
    <path fill="#586DFF" fill-rule="evenodd" d="M311.071 224.871s2.611-1.784 3.61-2.249c1.643-.764 9.818-11.101 10.364-10.846 2.032.947 7.754 3.439 9.053 9.896 0 0-9.879 12.436-15.625 19.651-2.511 3.402-.526 15.999 0 19.399.526 3.401-2.303 5.765-2.303 5.765s-10.104 4.105-24.73-.633c0 0-6.387-2.568-8.137-6.798 0 0-1.284-2.074 1.265-11.172-1.273-8.968-4.545-25.789-2.446-30.5 1.33-3.307 13.885-1.014 13.885-1.014l15.064 8.501z" clip-rule="evenodd"/>
    <mask id="prefix__D" width="54" height="58" x="281" y="211" maskUnits="userSpaceOnUse">
        <path fill="#fff" fill-rule="evenodd" d="M311.071 224.871s2.611-1.784 3.61-2.249c1.643-.764 9.818-11.101 10.364-10.846 2.032.947 7.754 3.439 9.053 9.896 0 0-9.879 12.436-15.625 19.651-2.511 3.402-.526 15.999 0 19.399.526 3.401-2.303 5.765-2.303 5.765s-10.104 4.105-24.73-.633c0 0-6.387-2.568-8.137-6.798 0 0-1.284-2.074 1.265-11.172-1.273-8.968-4.545-25.789-2.446-30.5 1.33-3.307 13.885-1.014 13.885-1.014l15.064 8.501z" clip-rule="evenodd"/>
    </mask>
    <g mask="url(#prefix__D)">
        <path stroke="#4558E1" stroke-width=".924" d="M281.437 225.512s9.694 14.045 36.525 16.374"/>
    </g>
    <path fill="#30334F" fill-rule="evenodd" d="M302.826 204.65c-1.185 0-3.147.24-1.574 4.173 1.574 3.933-2.847 6.209-4.235 5.664-1.389-.546-5.953-7.506-8.39-9.35-2.437-1.844.364-7.178.364-7.178s-2.083-5.477 2.844-7.903c4.927-2.426 12.895-6.69 16.325-5.809 3.429.881 2.552 2.507 2.552 2.507s5.512 2.584 2.645 5.36c-2.866 2.776-8.013 3.788-8.013 3.788s3.437 1.908 2.816 4.271c-.622 2.364-1.265 5.129 0 7.083 1.264 1.955 6.068 1.781 6.521 0 .594 1.355.437 5.617.218 6.611-.218.994.605 2.503-3.851 2.503-4.455 0-2.764-4.363-4.131-7.547-1.368-3.183-2.906-4.173-4.091-4.173z" clip-rule="evenodd"/>
    <mask id="prefix__E" width="29" height="33" x="287" y="184" maskUnits="userSpaceOnUse">
        <path fill="#fff" fill-rule="evenodd" d="M302.826 204.65c-1.185 0-3.147.24-1.574 4.173 1.574 3.933-2.847 6.209-4.235 5.664-1.389-.546-5.953-7.506-8.39-9.35-2.437-1.844.364-7.178.364-7.178s-2.083-5.477 2.844-7.903c4.927-2.426 12.895-6.69 16.325-5.809 3.429.881 2.552 2.507 2.552 2.507s5.512 2.584 2.645 5.36c-2.866 2.776-8.013 3.788-8.013 3.788s3.437 1.908 2.816 4.271c-.622 2.364-1.265 5.129 0 7.083 1.264 1.955 6.068 1.781 6.521 0 .594 1.355.437 5.617.218 6.611-.218.994.605 2.503-3.851 2.503-4.455 0-2.764-4.363-4.131-7.547-1.368-3.183-2.906-4.173-4.091-4.173z" clip-rule="evenodd"/>
    </mask>
    <g mask="url(#prefix__E)">
        <path fill="url(#prefix__paint75_linear)" fill-rule="evenodd" d="M305.344 195.902s-11.27 1.509-4.05 13.629c7.221 12.121 2.696-2.457 6.397-3.945 3.7-1.488 0-10.471 0-10.471l-2.347.787z" clip-rule="evenodd"/>
    </g>
    <path fill="#4A5CD8" fill-rule="evenodd" d="M296.842 215.556s-.264 1.184 3.777 2.235c4.04 1.051 7.339 2.342 9.081 4.875l1.664 2.205s-13.125-3.33-15.357-5.097c-2.233-1.767-.571-2.886-.571-2.886l1.406-1.332z" clip-rule="evenodd"/>
    <path stroke="#30334F" stroke-width=".924" d="M316.08 198.401l-12.433 5.697"/>
    <path fill="#AC6A5A" fill-rule="evenodd" d="M304.857 205.586s-1.908-2.232-3.299-1.488c-1.391.744-1.859 2.712 0 5.249 1.859 2.537 3.786.538 3.786.538l-.487-4.299z" clip-rule="evenodd"/>
    <path fill="url(#prefix__paint76_linear)" fill-rule="evenodd" d="M304.656 206.51s-.931-1.215-1.611-.81c-.679.405-.907 1.477 0 2.858.908 1.381 1.849.293 1.849.293l-.238-2.341z" clip-rule="evenodd"/>
    <path fill="#C7DCFF" fill-rule="evenodd" d="M134.654 73.962c1.825-1.055 4.107.262 4.107 2.37v41.238c0 2.938-1.569 5.651-4.115 7.117l-50.915 29.304c-1.825 1.051-4.103-.267-4.103-2.372v-41.115c0-2.932 1.564-5.642 4.102-7.109l50.924-29.433z" clip-rule="evenodd"/>
    <path fill="#528BE1" fill-rule="evenodd" d="M133.811 83.396l-5.956 3.346v30.363l5.956-3.346V83.396zM123.175 89.722l-5.956 3.346v29.941l5.956-3.346V89.722zM112.54 95.204l-5.956 3.346v30.363l5.956-3.346V95.204zM101.905 101.108l-5.956 3.346v30.363l5.956-3.346v-30.363zM91.269 106.59l-5.956 3.346v29.52l5.956-3.346v-29.52z" clip-rule="evenodd"/>
    <path fill="#fff" fill-rule="evenodd" d="M133.811 88.707l-5.956 3.346v30.113l5.956-3.346V88.707zM123.175 103.045l-5.956 3.346v21.679l5.956-3.346v-21.679zM112.54 113.759l-5.956 3.346v16.869l5.956-3.346v-16.869zM101.905 114.603l-5.956 3.346v21.929l5.956-3.346v-21.929zM91.269 131.517l-5.956 3.346v9.654l5.956-3.346v-9.654z" clip-rule="evenodd"/>
    <defs>
        <linearGradient id="prefix__paint0_linear" x1="540.403" x2="52.313" y1="235.54" y2="269.949" gradientUnits="userSpaceOnUse">
            <stop stop-color="#7187B5"/>
            <stop offset="1" stop-color="#BFCDED"/>
        </linearGradient>
        <linearGradient id="prefix__paint1_linear" x1="160.818" x2="573.195" y1="516.524" y2="457.742" gradientUnits="userSpaceOnUse">
            <stop stop-color="#C4D5FF"/>
            <stop offset=".5" stop-color="#C9DDFF"/>
            <stop offset=".532" stop-color="#E1ECFF"/>
            <stop offset="1" stop-color="#D5E1FF"/>
        </linearGradient>
        <linearGradient id="prefix__paint2_linear" x1="441.925" x2="62.617" y1="161.15" y2="409.022" gradientUnits="userSpaceOnUse">
            <stop stop-color="#C0E1FF"/>
            <stop offset="1" stop-color="#fff"/>
        </linearGradient>
        <linearGradient id="prefix__paint3_linear" x1="224.756" x2="577.302" y1="466.121" y2="433.393" gradientUnits="userSpaceOnUse">
            <stop stop-color="#6D94E7"/>
            <stop offset="1" stop-color="#7E9EEF"/>
        </linearGradient>
        <linearGradient id="prefix__paint4_linear" x1="313.316" x2="299.612" y1="357.205" y2="447.325" gradientUnits="userSpaceOnUse">
            <stop stop-color="#6D7FE7"/>
            <stop offset="1" stop-color="#4E60CD"/>
        </linearGradient>
        <linearGradient id="prefix__paint5_linear" x1="350.924" x2="120.942" y1="330.115" y2="375.186" gradientUnits="userSpaceOnUse">
            <stop stop-color="#4F6FCE"/>
            <stop offset="1" stop-color="#3B3B5D"/>
        </linearGradient>
        <linearGradient id="prefix__paint6_linear" x1="490.16" x2="186.007" y1="-95.725" y2="-8.987" gradientUnits="userSpaceOnUse">
            <stop stop-color="#C0E1FF"/>
            <stop offset="1" stop-color="#fff"/>
        </linearGradient>
        <linearGradient id="prefix__paint7_linear" x1="541.231" x2="175.8" y1="-44.292" y2="-12.105" gradientUnits="userSpaceOnUse">
            <stop stop-color="#4F6FCE"/>
            <stop offset="1" stop-color="#3B3B5D"/>
        </linearGradient>
        <linearGradient id="prefix__paint8_linear" x1="86.241" x2="93.951" y1="253.148" y2="265.558" gradientUnits="userSpaceOnUse">
            <stop stop-color="#FCCBCB"/>
            <stop offset="1" stop-color="#E77575"/>
        </linearGradient>
        <linearGradient id="prefix__paint9_linear" x1="87.722" x2="94.36" y1="264.397" y2="276.263" gradientUnits="userSpaceOnUse">
            <stop stop-color="#FCCBCB"/>
            <stop offset="1" stop-color="#E77575"/>
        </linearGradient>
        <linearGradient id="prefix__paint10_linear" x1="108.825" x2="116.307" y1="236.757" y2="248.68" gradientUnits="userSpaceOnUse">
            <stop stop-color="#FCCBCB"/>
            <stop offset="1" stop-color="#E77575"/>
        </linearGradient>
        <linearGradient id="prefix__paint11_linear" x1="110.242" x2="116.688" y1="247.626" y2="259.034" gradientUnits="userSpaceOnUse">
            <stop stop-color="#FCCBCB"/>
            <stop offset="1" stop-color="#E77575"/>
        </linearGradient>
        <linearGradient id="prefix__paint12_linear" x1="81.51" x2="3.079" y1="280.298" y2="280.298" gradientUnits="userSpaceOnUse">
            <stop stop-color="#A3BFFF"/>
            <stop offset="1" stop-color="#D5E1FF"/>
        </linearGradient>
        <linearGradient id="prefix__paint13_linear" x1="4.589" x2="4.589" y1="262.652" y2="227.987" gradientUnits="userSpaceOnUse">
            <stop stop-color="#E8EFFF"/>
            <stop offset="1" stop-color="#CDDCFF"/>
        </linearGradient>
        <linearGradient id="prefix__paint14_linear" x1="45.813" x2="29.649" y1="233.17" y2="242.709" gradientUnits="userSpaceOnUse">
            <stop stop-color="#1D368C" stop-opacity=".01"/>
            <stop offset="1" stop-color="#081D52"/>
        </linearGradient>
        <linearGradient id="prefix__paint15_linear" x1="38.841" x2="45.564" y1="232.294" y2="231.142" gradientUnits="userSpaceOnUse">
            <stop stop-color="#6591FF"/>
            <stop offset="1" stop-color="#A6BFFF"/>
        </linearGradient>
        <linearGradient id="prefix__paint16_linear" x1="42.962" x2="39.042" y1="234.671" y2="232.545" gradientUnits="userSpaceOnUse">
            <stop stop-color="#6D7FE7"/>
            <stop offset="1" stop-color="#7E9EEF"/>
        </linearGradient>
        <linearGradient id="prefix__paint17_linear" x1="39.927" x2="39.927" y1="232.39" y2="216.228" gradientUnits="userSpaceOnUse">
            <stop stop-color="#E8EFFF"/>
            <stop offset="1" stop-color="#CDDCFF"/>
        </linearGradient>
        <linearGradient id="prefix__paint18_linear" x1="47.545" x2="41.614" y1="219.33" y2="221.4" gradientUnits="userSpaceOnUse">
            <stop stop-color="#1D368C" stop-opacity=".01"/>
            <stop offset="1" stop-color="#081D52"/>
        </linearGradient>
        <linearGradient id="prefix__paint19_linear" x1="-7.643" x2="69.379" y1="163.563" y2="163.563" gradientUnits="userSpaceOnUse">
            <stop stop-color="#A3BFFF"/>
            <stop offset="1" stop-color="#D5E1FF"/>
        </linearGradient>
        <linearGradient id="prefix__paint20_linear" x1="78.481" x2="10.968" y1="237.346" y2="202.575" gradientUnits="userSpaceOnUse">
            <stop stop-color="#F6F9FF"/>
            <stop offset="1" stop-color="#CCDAFF"/>
        </linearGradient>
        <linearGradient id="prefix__paint21_linear" x1="32.653" x2="38.355" y1="181.352" y2="218.426" gradientUnits="userSpaceOnUse">
            <stop stop-color="#6D7FE7"/>
            <stop offset="1" stop-color="#4E60CD"/>
        </linearGradient>
        <linearGradient id="prefix__paint22_linear" x1="7.105" x2="76.489" y1="175.34" y2="151.273" gradientUnits="userSpaceOnUse">
            <stop stop-color="#6591FF"/>
            <stop offset="1" stop-color="#A6BFFF"/>
        </linearGradient>
        <linearGradient id="prefix__paint23_linear" x1="19.647" x2="66.546" y1="186.486" y2="165.502" gradientUnits="userSpaceOnUse">
            <stop stop-color="#3863D0"/>
            <stop offset="1" stop-color="#4E60CD" stop-opacity=".01"/>
        </linearGradient>
        <linearGradient id="prefix__paint24_linear" x1="9" x2="14.044" y1="196.714" y2="119.356" gradientUnits="userSpaceOnUse">
            <stop stop-color="#A3BFFF"/>
            <stop offset="1" stop-color="#D5E1FF"/>
        </linearGradient>
        <linearGradient id="prefix__paint25_linear" x1="41.204" x2="41.204" y1="108.529" y2="184.804" gradientUnits="userSpaceOnUse">
            <stop stop-color="#F6F9FF"/>
            <stop offset="1" stop-color="#CCDAFF"/>
        </linearGradient>
        <linearGradient id="prefix__paint26_linear" x1="19.61" x2="50.989" y1="118.319" y2="171.147" gradientUnits="userSpaceOnUse">
            <stop stop-color="#6D7FE7"/>
            <stop offset="1" stop-color="#4E60CD"/>
        </linearGradient>
        <linearGradient id="prefix__paint27_linear" x1="8.245" x2="45.849" y1="109.602" y2="106.224" gradientUnits="userSpaceOnUse">
            <stop stop-color="#6591FF"/>
            <stop offset="1" stop-color="#A6BFFF"/>
        </linearGradient>
        <linearGradient id="prefix__paint28_linear" x1="60.455" x2="70.023" y1="165.524" y2="172.359" gradientUnits="userSpaceOnUse">
            <stop stop-color="#6D7FE7"/>
            <stop offset="1" stop-color="#4E60CD"/>
        </linearGradient>
        <linearGradient id="prefix__paint29_linear" x1="55.675" x2="69.766" y1="182.921" y2="172.25" gradientUnits="userSpaceOnUse">
            <stop stop-color="#A3BFFF"/>
            <stop offset="1" stop-color="#D5E1FF"/>
        </linearGradient>
        <linearGradient id="prefix__paint30_linear" x1="63.714" x2="60.278" y1="172.534" y2="172.991" gradientUnits="userSpaceOnUse">
            <stop stop-color="#3B53A6" stop-opacity=".01"/>
            <stop offset="1" stop-color="#174374"/>
        </linearGradient>
        <linearGradient id="prefix__paint31_linear" x1="38.676" x2="71.112" y1="152.036" y2="152.036" gradientUnits="userSpaceOnUse">
            <stop stop-color="#A3BFFF"/>
            <stop offset="1" stop-color="#D5E1FF"/>
        </linearGradient>
        <linearGradient id="prefix__paint32_linear" x1="74.103" x2="45.181" y1="184.468" y2="170.586" gradientUnits="userSpaceOnUse">
            <stop stop-color="#F6F9FF"/>
            <stop offset="1" stop-color="#CCDAFF"/>
        </linearGradient>
        <linearGradient id="prefix__paint33_linear" x1="54.954" x2="57.68" y1="159.161" y2="175.676" gradientUnits="userSpaceOnUse">
            <stop stop-color="#6D7FE7"/>
            <stop offset="1" stop-color="#4E60CD"/>
        </linearGradient>
        <linearGradient id="prefix__paint34_linear" x1="44.311" x2="73.63" y1="156.416" y2="146.938" gradientUnits="userSpaceOnUse">
            <stop stop-color="#6591FF"/>
            <stop offset="1" stop-color="#A6BFFF"/>
        </linearGradient>
        <linearGradient id="prefix__paint35_linear" x1="84.552" x2="131.323" y1="157.961" y2="240.428" gradientUnits="userSpaceOnUse">
            <stop stop-color="#171368"/>
            <stop offset="1" stop-color="#082545"/>
        </linearGradient>
        <linearGradient id="prefix__paint36_linear" x1="107.792" x2="109.297" y1="180.544" y2="180.4" gradientUnits="userSpaceOnUse">
            <stop stop-color="#F8A29B"/>
            <stop offset="1" stop-color="#C47770"/>
        </linearGradient>
        <linearGradient id="prefix__paint37_linear" x1="49.296" x2="35.941" y1="329.169" y2="326.563" gradientUnits="userSpaceOnUse">
            <stop stop-color="#215EA2"/>
            <stop offset="1" stop-color="#7E9EEF"/>
        </linearGradient>
        <linearGradient id="prefix__paint38_linear" x1="7.493" x2="21.081" y1="304.384" y2="305.086" gradientUnits="userSpaceOnUse">
            <stop stop-color="#215EA2"/>
            <stop offset="1" stop-color="#7E9EEF"/>
        </linearGradient>
        <linearGradient id="prefix__paint39_linear" x1="175.532" x2="161.934" y1="264.355" y2="264.821" gradientUnits="userSpaceOnUse">
            <stop stop-color="#215EA2"/>
            <stop offset="1" stop-color="#7E9EEF"/>
        </linearGradient>
        <linearGradient id="prefix__paint40_linear" x1="124.96" x2="138.301" y1="243.798" y2="242.402" gradientUnits="userSpaceOnUse">
            <stop stop-color="#215EA2"/>
            <stop offset="1" stop-color="#7E9EEF"/>
        </linearGradient>
        <linearGradient id="prefix__paint41_linear" x1="131.156" x2="114.288" y1="175.289" y2="169.705" gradientUnits="userSpaceOnUse">
            <stop stop-color="#6D7FE7"/>
            <stop offset="1" stop-color="#7E9EEF"/>
        </linearGradient>
        <linearGradient id="prefix__paint42_linear" x1="129.673" x2="139.916" y1="141.896" y2="160.025" gradientUnits="userSpaceOnUse">
            <stop stop-color="#171368"/>
            <stop offset="1" stop-color="#082545"/>
        </linearGradient>
        <linearGradient id="prefix__paint43_linear" x1="79.572" x2="38.261" y1="210.988" y2="187.859" gradientUnits="userSpaceOnUse">
            <stop stop-color="#6D7FE7"/>
            <stop offset="1" stop-color="#7E9EEF"/>
        </linearGradient>
        <linearGradient id="prefix__paint44_linear" x1="-3.086" x2="39.458" y1="186.18" y2="122.69" gradientUnits="userSpaceOnUse">
            <stop stop-color="#FCFCFD"/>
            <stop offset="1" stop-color="#E4ECFF"/>
        </linearGradient>
        <linearGradient id="prefix__paint45_linear" x1="56.445" x2="56.445" y1="197.396" y2="173.598" gradientUnits="userSpaceOnUse">
            <stop stop-color="#D5E3FF"/>
            <stop offset="1" stop-color="#B8CDFF"/>
        </linearGradient>
        <linearGradient id="prefix__paint46_linear" x1="62.365" x2="62.365" y1="183.116" y2="175.831" gradientUnits="userSpaceOnUse">
            <stop stop-color="#D5E3FF"/>
            <stop offset="1" stop-color="#B8CDFF"/>
        </linearGradient>
        <linearGradient id="prefix__paint47_linear" x1="97.238" x2="59.121" y1="212.996" y2="201.489" gradientUnits="userSpaceOnUse">
            <stop stop-color="#6D7FE7"/>
            <stop offset="1" stop-color="#7E9EEF"/>
        </linearGradient>
        <linearGradient id="prefix__paint48_linear" x1="95.889" x2="88.363" y1="173.22" y2="184.432" gradientUnits="userSpaceOnUse">
            <stop stop-color="#FEE7E7"/>
            <stop offset="1" stop-color="#FCCBCB"/>
        </linearGradient>
        <linearGradient id="prefix__paint49_linear" x1="77.493" x2="83.023" y1="168.685" y2="176.055" gradientUnits="userSpaceOnUse">
            <stop stop-color="#FCCBCB"/>
            <stop offset="1" stop-color="#E77575"/>
        </linearGradient>
        <linearGradient id="prefix__paint50_linear" x1="42.074" x2="24.9" y1="139.134" y2="182.248" gradientUnits="userSpaceOnUse">
            <stop stop-color="#FAFCFF"/>
            <stop offset="1" stop-color="#EEF5FF"/>
        </linearGradient>
        <linearGradient id="prefix__paint51_linear" x1="49.753" x2="12.767" y1="218.67" y2="213.716" gradientUnits="userSpaceOnUse">
            <stop stop-color="#FAFCFF"/>
            <stop offset=".241" stop-color="#EAF0FA"/>
            <stop offset=".514" stop-color="#E8EEF9"/>
            <stop offset="1" stop-color="#C7D5EF"/>
        </linearGradient>
        <linearGradient id="prefix__paint52_linear" x1="47.603" x2="23.123" y1="136.128" y2="166.825" gradientUnits="userSpaceOnUse">
            <stop stop-color="#FAFCFF"/>
            <stop offset="1" stop-color="#EEF5FF"/>
        </linearGradient>
        <linearGradient id="prefix__paint53_linear" x1="30.011" x2="-5.486" y1="225.889" y2="174.871" gradientUnits="userSpaceOnUse">
            <stop stop-color="#006EDB" stop-opacity=".01"/>
            <stop offset="1" stop-color="#0087AE"/>
        </linearGradient>
        <linearGradient id="prefix__paint54_linear" x1="25.861" x2="48.937" y1="113.778" y2="130.458" gradientUnits="userSpaceOnUse">
            <stop stop-color="#FCCBCB"/>
            <stop offset="1" stop-color="#E77575"/>
        </linearGradient>
        <linearGradient id="prefix__paint55_linear" x1="30.378" x2="30.198" y1="131.862" y2="136.654" gradientUnits="userSpaceOnUse">
            <stop stop-color="#F3A6A6"/>
            <stop offset="1" stop-color="#FCCBCB"/>
        </linearGradient>
        <linearGradient id="prefix__paint56_linear" x1="33.4" x2="46.294" y1="118.948" y2="132.9" gradientUnits="userSpaceOnUse">
            <stop stop-color="#FCCBCB"/>
            <stop offset="1" stop-color="#E77575"/>
        </linearGradient>
        <linearGradient id="prefix__paint57_linear" x1="22.805" x2="32.49" y1="186.69" y2="193.356" gradientUnits="userSpaceOnUse">
            <stop stop-color="#6D7FE7"/>
            <stop offset="1" stop-color="#4E60CD"/>
        </linearGradient>
        <linearGradient id="prefix__paint58_linear" x1="18.329" x2="32.231" y1="204.168" y2="193.252" gradientUnits="userSpaceOnUse">
            <stop stop-color="#A3BFFF"/>
            <stop offset="1" stop-color="#D5E1FF"/>
        </linearGradient>
        <linearGradient id="prefix__paint59_linear" x1="26.186" x2="22.758" y1="193.642" y2="194.159" gradientUnits="userSpaceOnUse">
            <stop stop-color="#3B53A6" stop-opacity=".01"/>
            <stop offset="1" stop-color="#174374"/>
        </linearGradient>
        <linearGradient id="prefix__paint60_linear" x1=".793" x2="33.225" y1="173.584" y2="173.018" gradientUnits="userSpaceOnUse">
            <stop stop-color="#A3BFFF"/>
            <stop offset="1" stop-color="#D5E1FF"/>
        </linearGradient>
        <linearGradient id="prefix__paint61_linear" x1="36.782" x2="7.621" y1="205.393" y2="192.018" gradientUnits="userSpaceOnUse">
            <stop stop-color="#F6F9FF"/>
            <stop offset="1" stop-color="#CCDAFF"/>
        </linearGradient>
        <linearGradient id="prefix__paint62_linear" x1="17.193" x2="20.207" y1="180.424" y2="196.889" gradientUnits="userSpaceOnUse">
            <stop stop-color="#6D7FE7"/>
            <stop offset="1" stop-color="#4E60CD"/>
        </linearGradient>
        <linearGradient id="prefix__paint63_linear" x1="6.504" x2="35.653" y1="177.865" y2="167.877" gradientUnits="userSpaceOnUse">
            <stop stop-color="#6591FF"/>
            <stop offset="1" stop-color="#A6BFFF"/>
        </linearGradient>
        <linearGradient id="prefix__paint64_linear" x1="33.797" x2="29.881" y1="132.388" y2="147.508" gradientUnits="userSpaceOnUse">
            <stop stop-color="#FAFCFF"/>
            <stop offset="1" stop-color="#EEF5FF"/>
        </linearGradient>
        <linearGradient id="prefix__paint65_linear" x1="32.838" x2="14.399" y1="157.702" y2="151.841" gradientUnits="userSpaceOnUse">
            <stop stop-color="#FAFCFF"/>
            <stop offset=".241" stop-color="#EAF0FA"/>
            <stop offset=".514" stop-color="#E8EEF9"/>
            <stop offset="1" stop-color="#C7D5EF"/>
        </linearGradient>
        <linearGradient id="prefix__paint66_linear" x1="42.307" x2="35.319" y1="131.296" y2="144.112" gradientUnits="userSpaceOnUse">
            <stop stop-color="#FAFCFF"/>
            <stop offset="1" stop-color="#EEF5FF"/>
        </linearGradient>
        <linearGradient id="prefix__paint67_linear" x1="35.447" x2="40.082" y1="122.822" y2="124.502" gradientUnits="userSpaceOnUse">
            <stop stop-color="#E77575"/>
            <stop offset="1" stop-color="#FCC5C5"/>
        </linearGradient>
        <linearGradient id="prefix__paint68_linear" x1="28.037" x2="27.62" y1="117.003" y2="122.966" gradientUnits="userSpaceOnUse">
            <stop stop-color="#0C3564"/>
            <stop offset="1" stop-color="#FCCACA" stop-opacity=".01"/>
        </linearGradient>
        <linearGradient id="prefix__paint69_linear" x1="24.595" x2="22.441" y1="121.423" y2="121.167" gradientUnits="userSpaceOnUse">
            <stop stop-color="#FCCBCB"/>
            <stop offset="1" stop-color="#E77575"/>
        </linearGradient>
        <linearGradient id="prefix__paint70_linear" x1="97.265" x2="59.206" y1="212.799" y2="201.219" gradientUnits="userSpaceOnUse">
            <stop stop-color="#6D7FE7"/>
            <stop offset="1" stop-color="#7E9EEF"/>
        </linearGradient>
        <linearGradient id="prefix__paint71_linear" x1="532.467" x2="364.656" y1="109.677" y2="233.596" gradientUnits="userSpaceOnUse">
            <stop stop-color="#15539E"/>
            <stop offset="1" stop-color="#092965"/>
        </linearGradient>
        <linearGradient id="prefix__paint72_linear" x1="365.331" x2="540.615" y1="-64.671" y2="-23.656" gradientUnits="userSpaceOnUse">
            <stop stop-color="#C0E1FF"/>
            <stop offset="1" stop-color="#fff"/>
        </linearGradient>
        <linearGradient id="prefix__paint73_linear" x1="249.128" x2="289.098" y1="288.313" y2="323.506" gradientUnits="userSpaceOnUse">
            <stop stop-color="#15539E"/>
            <stop offset="1" stop-color="#092965"/>
        </linearGradient>
        <linearGradient id="prefix__paint74_linear" x1="287.232" x2="339.446" y1="296.302" y2="327.296" gradientUnits="userSpaceOnUse">
            <stop stop-color="#15539E"/>
            <stop offset="1" stop-color="#092965"/>
        </linearGradient>
        <linearGradient id="prefix__paint75_linear" x1="306.161" x2="300.311" y1="200.314" y2="197.855" gradientUnits="userSpaceOnUse">
            <stop stop-color="#30334F"/>
            <stop offset="1" stop-color="#181E36"/>
        </linearGradient>
        <linearGradient id="prefix__paint76_linear" x1="304.388" x2="302.377" y1="206.158" y2="205.948" gradientUnits="userSpaceOnUse">
            <stop stop-color="#AC6A5A"/>
            <stop offset="1" stop-color="#884E3F"/>
        </linearGradient>
    </defs>
</svg>
