<?xml version="1.0" encoding="UTF-8" standalone="no"?>
<!DOCTYPE svg PUBLIC "-//W3C//DTD SVG 1.1//EN" "http://www.w3.org/Graphics/SVG/1.1/DTD/svg11.dtd">
<svg width="100%" height="100%" viewBox="0 0 856 611" version="1.1" xmlns="http://www.w3.org/2000/svg" xmlns:xlink="http://www.w3.org/1999/xlink" xml:space="preserve" xmlns:serif="http://www.serif.com/" style="fill-rule:evenodd;clip-rule:evenodd;stroke-linejoin:round;stroke-miterlimit:2;">
    <g transform="matrix(1.61265,0,0,1.61265,-387.908,-371.116)">
        <path d="M562.14,603.085L448.421,603.085L452.276,552.973L558.285,552.973L562.14,603.085Z" style="fill:rgb(230,230,230);fill-rule:nonzero;"/>
        <g transform="matrix(1.41795,0,0,1,-211.586,0)">
            <rect x="442.639" y="597.303" width="127.21" height="11.565" style="fill:rgb(230,230,230);"/>
        </g>
        <g transform="matrix(1,0,0,1,-172.291,-144.612)">
            <path d="M895.371,374.74L460.735,374.74C454.391,374.74 449.171,379.961 449.171,386.305L449.171,651.327L906.935,651.327L906.935,386.305C906.935,379.961 901.715,374.74 895.371,374.74Z" style="fill:rgb(63,61,86);fill-rule:nonzero;"/>
        </g>
        <g transform="matrix(1,0,0,1,-172.291,-144.612)">
            <path d="M449.171,651.327L449.171,694.694C449.171,701.038 454.391,706.258 460.735,706.258L895.371,706.258C901.715,706.258 906.935,701.038 906.935,694.694L906.935,651.327L449.171,651.327Z" style="fill:rgb(230,230,230);fill-rule:nonzero;"/>
        </g>
        <rect x="300.009" y="254.221" width="412.47" height="231.292" style="fill:rgb(230,230,230);"/>
        <circle cx="506.244" cy="533.698" r="11.565" style="fill:rgb(63,61,86);"/>
        <circle cx="312.87" cy="261.795" r="2.195" style="fill:white;"/>
        <circle cx="321.2" cy="261.795" r="2.195" style="fill:white;"/>
        <circle cx="329.531" cy="261.795" r="2.195" style="fill:white;"/>
        <rect x="310.675" y="269.253" width="389.916" height="194.247" style="fill:white;"/>
        <g transform="matrix(1,0,0,1,-172.291,-144.612)">
            <path d="M508.885,443.411C508.129,443.412 507.507,444.034 507.507,444.79L507.507,514.465C507.507,515.221 508.129,515.843 508.885,515.844L589.349,515.844C590.105,515.843 590.727,515.221 590.728,514.465L590.728,444.79C590.727,444.034 590.105,443.412 589.349,443.411L508.885,443.411Z" style="fill:rgb(230,230,230);fill-rule:nonzero;"/>
        </g>
        <g transform="matrix(1,0,0,1,-172.291,-144.612)">
            <path d="M638.081,443.635C637.325,443.636 636.703,444.258 636.702,445.014L636.702,514.465C636.703,515.221 637.325,515.843 638.081,515.844L718.289,515.844C719.044,515.843 719.666,515.221 719.667,514.465L719.667,445.014C719.666,444.258 719.044,443.636 718.289,443.635L638.081,443.635Z" style="fill:rgb(230,230,230);fill-rule:nonzero;"/>
        </g>
        <g transform="matrix(1,0,0,1,-172.291,-144.612)">
            <path d="M765.922,442.907C765.166,442.908 764.544,443.53 764.544,444.286L764.544,514.465C764.544,515.221 765.166,515.843 765.922,515.844L846.964,515.844C847.719,515.843 848.341,515.221 848.341,514.465L848.342,444.286C848.341,443.53 847.719,442.908 846.964,442.907L765.922,442.907Z" style="fill:rgb(230,230,230);fill-rule:nonzero;"/>
        </g>
        <g transform="matrix(1,0,0,1,-172.291,-144.612)">
            <path d="M510.356,550.333C508.795,550.336 507.512,551.621 507.512,553.183C507.512,554.744 508.795,556.03 510.356,556.033L586.008,556.033C587.57,556.03 588.853,554.744 588.853,553.183C588.853,551.621 587.57,550.336 586.008,550.333L510.356,550.333Z" style="fill:rgb(230,230,230);fill-rule:nonzero;"/>
        </g>
        <g transform="matrix(1,0,0,1,-172.291,-144.612)">
            <path d="M510.356,563.889C508.795,563.892 507.511,565.177 507.511,566.739C507.511,568.3 508.795,569.586 510.356,569.589L544.418,569.589C545.98,569.586 547.263,568.3 547.263,566.739C547.263,565.177 545.98,563.892 544.418,563.889L510.356,563.889Z" style="fill:rgb(255,7,82);fill-rule:nonzero;"/>
        </g>
        <g transform="matrix(1,0,0,1,-172.291,-144.612)">
            <path d="M640.94,550.333C639.379,550.336 638.096,551.621 638.096,553.183C638.096,554.744 639.379,556.03 640.94,556.033L716.592,556.033C718.154,556.03 719.437,554.744 719.437,553.183C719.437,551.621 718.154,550.336 716.592,550.333L640.94,550.333Z" style="fill:rgb(230,230,230);fill-rule:nonzero;"/>
        </g>
        <g transform="matrix(1,0,0,1,-172.291,-144.612)">
            <path d="M640.94,563.889C639.379,563.892 638.095,565.177 638.095,566.739C638.095,568.3 639.379,569.586 640.94,569.589L675.003,569.589C676.564,569.586 677.847,568.3 677.847,566.739C677.847,565.177 676.564,563.892 675.003,563.889L640.94,563.889Z" style="fill:rgb(255,7,82);fill-rule:nonzero;"/>
        </g>
        <g transform="matrix(1,0,0,1,-172.291,-144.612)">
            <path d="M768.26,550.333C766.699,550.336 765.416,551.621 765.416,553.183C765.416,554.744 766.699,556.03 768.26,556.033L843.913,556.033C845.474,556.03 846.757,554.744 846.757,553.183C846.757,551.621 845.474,550.336 843.913,550.333L768.26,550.333Z" style="fill:rgb(230,230,230);fill-rule:nonzero;"/>
        </g>
        <g transform="matrix(1,0,0,1,-172.291,-144.612)">
            <path d="M510.356,536.333C508.795,536.336 507.512,537.621 507.512,539.183C507.512,540.744 508.795,542.03 510.356,542.033L586.008,542.033C587.57,542.03 588.853,540.744 588.853,539.183C588.853,537.621 587.57,536.336 586.008,536.333L510.356,536.333Z" style="fill:rgb(230,230,230);fill-rule:nonzero;"/>
        </g>
        <g transform="matrix(1,0,0,1,-172.291,-144.612)">
            <path d="M640.94,536.333C639.379,536.336 638.096,537.621 638.096,539.183C638.096,540.744 639.379,542.03 640.94,542.033L716.592,542.033C718.154,542.03 719.437,540.744 719.437,539.183C719.437,537.621 718.154,536.336 716.592,536.333L640.94,536.333Z" style="fill:rgb(230,230,230);fill-rule:nonzero;"/>
        </g>
        <g transform="matrix(1,0,0,1,-172.291,-144.612)">
            <path d="M768.26,536.333C766.699,536.336 765.416,537.621 765.416,539.183C765.416,540.744 766.699,542.03 768.26,542.033L843.913,542.033C845.474,542.03 846.757,540.744 846.757,539.183C846.757,537.621 845.474,536.336 843.913,536.333L768.26,536.333Z" style="fill:rgb(230,230,230);fill-rule:nonzero;"/>
        </g>
        <g transform="matrix(1,0,0,1,-172.291,-144.612)">
            <path d="M768.26,563.889C766.699,563.892 765.416,565.177 765.416,566.739C765.416,568.3 766.699,569.586 768.26,569.589L802.322,569.589C803.883,569.586 805.167,568.3 805.167,566.739C805.167,565.177 803.883,563.892 802.322,563.889L768.26,563.889Z" style="fill:rgb(255,7,82);fill-rule:nonzero;"/>
        </g>
    </g>
</svg>
